<svg xmlns="http://www.w3.org/2000/svg" viewBox="0 0 500.16 114.27"><path d="M60.43,98.54,80.72,81.63,39.14,0H10.39Z" style="fill:#f05a30;fill-rule:evenodd"/><path d="M23.79,85.93l9.64-8L13.67,39.08H0Z" style="fill:#ffaf2a;fill-rule:evenodd"/><path d="M218.74,62.81a72.27,72.27,0,0,1,.31,8c0,5-.31,8.66-.31,8.66a139.31,139.31,0,0,1-16.69.93c-21.32,0-31.83-11.59-31.83-38.49,0-23.8,5.87-40.49,30.29-40.49,9.73,0,18.23.78,18.23.78a70.85,70.85,0,0,1,.31,8c0,5.1-.31,9.12-.31,9.12a156.63,156.63,0,0,0-16.69-.93c-10.35,0-12.36,10.2-12.36,23.49,0,15.61,4.33,21.49,13.91,21.49,8,0,15.14-.62,15.14-.62Zm54.79-43.43a157.11,157.11,0,0,0-16.69-.93c-10.36,0-12.37,10.2-12.37,23.49,0,15.61,4.33,21.49,13.91,21.49,8,0,15.15-.62,15.15-.62a72.27,72.27,0,0,1,.31,8c0,5-.31,8.66-.31,8.66a139.52,139.52,0,0,1-16.69.93C235.51,80.43,225,68.84,225,41.94c0-23.8,5.87-40.49,30.29-40.49,9.74,0,18.24.78,18.24.78a70.85,70.85,0,0,1,.31,8c0,5.1-.31,9.12-.31,9.12Zm9.34,19.78c0-23.8,7-37.71,33.23-37.71s33.38,13.91,33.38,37.71c0,26.74-10.2,41.27-33.38,41.27S282.87,65.9,282.87,39.16Zm18.7.47c0,14.52,3.71,24.26,14.53,24.26s14.68-9,14.68-23.65c0-14.37-3.86-22.1-14.68-22.1S301.57,25.1,301.57,39.63Zm62.21,74.64V2.69s14.68-1.08,32.45-1.08c22.87,0,34.16,9.73,34.16,38.17,0,23.65-11.29,39.87-37.1,39.87-3.55,0-7.57-.15-10.66-.31v24.93l-18.85,10Zm18.85-95.51V63.89h10.66c13.91,0,17.62-11,17.62-24.11,0-15.61-3.71-21-14.68-21ZM471.11,1.45c17.31,0,26.11,7.42,26.11,7.42a31.31,31.31,0,0,1-10,12.67,31.32,31.32,0,0,0-16.07-4.32c-6.8,0-9.74,3.09-9.74,7.72,0,7.58,9.12,7.42,19,8.81s19.78,7.73,19.78,21.79c0,17.16-10.2,24.89-32.14,24.89-19,0-26.59-8-26.59-8a29.53,29.53,0,0,1,10.05-12.21A34,34,0,0,0,468,64.66c9.11,0,13.75-2.93,13.75-8.5,0-8.5-9.89-8.19-20.09-9.27-9.58-1.08-18.86-7.26-18.86-21.33C442.82,8.56,452.41,1.45,471.11,1.45ZM122.33,80c-18.54,0-25.65-8.35-25.65-23.65,0-15.14,7.26-23.64,27-23.64h14.22v-4c0-8.81-5.72-10.67-13.29-10.67a78.93,78.93,0,0,0-18.34,2.53L98.57,5.47c1.31-.57,10-4.12,26.08-4.12C146.13,1.35,157,8,157,27.78V79.4S139.33,80,122.33,80Zm1.55-14.68c6.18,0,14.06-.47,14.06-.47V46.94l-12.67-.15c-9.12-.15-10,4.79-10,9.58,0,5,1.39,9,8.66,9Z" style="fill:#555;fill-rule:evenodd"/></svg>