<svg xmlns="http://www.w3.org/2000/svg" viewBox="0 0 541 150">
  <g fill="none" fill-rule="evenodd">
    <path d="M80.787 116.447l20.289-16.914-41.58-81.63H30.754z" fill="#F05A30"/>
    <path d="M44.148 103.83l9.646-8.041-19.769-38.811H20.36z" fill="#FFAF2A"/>
    <g fill="#555">
      <path d="M239.104 80.71c.309 2.783.309 5.564.309 8.037 0 4.946-.31 8.655-.31 8.655s-6.954.927-16.69.927c-21.328 0-31.837-11.59-31.837-38.482 0-23.8 5.873-40.492 30.291-40.492 9.737 0 18.237.773 18.237.773.309 2.627.309 5.563.309 8.036 0 5.1-.31 9.119-.31 9.119s-7.726-.928-16.69-.928c-10.355 0-12.364 10.2-12.364 23.492 0 15.609 4.327 21.482 13.91 21.482 8.036 0 15.145-.618 15.145-.618zm54.783-43.427c-.007-.001-7.731-.928-16.69-.928-10.356 0-12.365 10.2-12.365 23.492 0 15.609 4.328 21.482 13.91 21.482 8.036 0 15.145-.618 15.145-.618.31 2.782.31 5.563.31 8.036 0 4.946-.31 8.655-.31 8.655s-6.954.927-16.69.927c-21.329 0-31.838-11.59-31.838-38.482 0-23.8 5.873-40.492 30.292-40.492 9.736 0 18.236.773 18.236.773.31 2.627.31 5.563.31 8.036 0 5.1-.31 9.118-.31 9.119zm9.347 19.782c0-23.8 6.954-37.71 33.228-37.71 26.273 0 33.382 13.91 33.382 37.71 0 26.737-10.2 41.264-33.382 41.264-23.183 0-33.228-14.527-33.228-41.264zm18.7.463c0 14.528 3.71 24.265 14.528 24.265 10.818 0 14.682-8.964 14.682-23.646 0-14.373-3.864-22.1-14.682-22.1-10.819 0-14.528 6.954-14.528 21.481zm62.202 74.647V20.591s14.682-1.081 32.455-1.081c22.873 0 34.155 9.736 34.155 38.173 0 23.646-11.282 39.873-37.092 39.873-3.554 0-7.572-.154-10.663-.309v24.928l-18.855 10zm18.855-95.51v45.128h10.663c13.91 0 17.619-10.973 17.619-24.11 0-15.61-3.71-21.019-14.682-21.019h-13.6zm88.475-17.31c17.309 0 26.118 7.418 26.118 7.418s-2.936 7.573-10.045 12.673c0 0-6.491-4.327-16.073-4.327-6.8 0-9.737 3.09-9.737 7.727 0 7.573 9.118 7.419 19.01 8.81 9.89 1.39 19.782 7.727 19.782 21.79 0 17.156-10.2 24.883-32.146 24.883-19.01 0-26.583-8.036-26.583-8.036s2.937-7.419 10.046-12.21c0 0 7.11 4.482 16.537 4.482 9.118 0 13.754-2.936 13.754-8.5 0-8.5-9.89-8.191-20.09-9.273-9.583-1.082-18.856-7.264-18.856-21.327 0-17 9.582-24.11 28.283-24.11zM142.691 97.921c-18.545 0-25.655-8.345-25.655-23.646 0-15.146 7.264-23.646 27.046-23.646h14.219v-4.018c0-8.81-5.719-10.664-13.291-10.664-7.424 0-14.848 1.638-18.34 2.529l-7.738-15.101c1.305-.575 9.982-4.119 26.078-4.119 21.482 0 32.3 6.646 32.3 26.428v51.619s-17.618.618-34.619.618zm1.546-14.682c6.182 0 14.064-.464 14.064-.464V64.848l-12.673-.155c-9.119-.154-10.046 4.791-10.046 9.582 0 4.946 1.391 8.964 8.655 8.964z"/>
    </g>
  </g>
</svg>
