<svg xmlns="http://www.w3.org/2000/svg" viewBox="0 0 1316.783 353.682">
  <path d="M1316.783 138.695c0 76.579-62.116 138.695-138.724 138.695-76.589 0-138.666-62.116-138.666-138.695C1039.393 62.087 1101.47 0 1178.059 0c76.608 0 138.724 62.087 138.724 138.695" fill="#6b489d"/>
  <path d="M1239.747 177.692c-13.308 15.45-28.484 25.06-39.796 29.727-11.713 4.785-16.928 4.942-17.457-8.17-.998-25.236 10.226-72.039 21.733-114.056 9.942-36.401 11.312-42.713-5.969-48.34-13.083-4.197-22.379-1.3-41.587 16.4-24.815 22.85-62.586 74.74-81.589 114.253 4.864 4.315 10.255 8.562 14.267 11.468 4.315 3.111 7.73 2.143 10.91-2.78 14.081-21.898 37.507-45.314 64.602-61.744a559.872 559.872 0 013.895-13.2c-22.408 10.558-40.746 24.17-40.746 24.17 23.191-42.537 56.793-76.98 62.939-74.28 3.933 1.693-9.531 35.99-19.17 70.953-11.047 40.03-16.625 70.56-14.902 92.91 1.585 20.333 17.535 25.735 41.313 15.323 17.897-7.877 34.825-23.17 47.193-41.821l-5.391-11.038c-.05.059-.147.186-.245.225m-6.83-89.045c-6.478-1.233-13.22-1.487-20.333-.783a250.283 250.283 0 00-1.693 6.272c17.887-4.129 34.101-1.702 44.816 13.67 10.5 15.167 4.06 38.779-6.595 56.764l4.657 9.257c.05-.127.147-.206.186-.343 28.945-59.856-3.297-81.579-21.038-84.837" fill="#fff"/>
  <path d="M505.48 138.695c0 7.642-6.185 13.836-13.846 13.836-7.701 0-13.915-6.194-13.915-13.836 0-7.681 6.214-13.924 13.915-13.924 7.661 0 13.846 6.243 13.846 13.924" fill="#6b489d"/>
  <path d="M45.895 90.821l-16.468 59.024h32.82L45.894 90.821zm27.38 95.728l-6.762-21.86h-41.45l-6.732 21.86H1.177L35.553 75.488H56.6l33.896 111.061H73.274zM433.916 75.488h16.018v111.061h-16.018V75.488zM401.518 138.7c0-2.163.528-9.169-2.808-15.539-1.771-3.19-6.488-10.685-17.085-10.587-4.6 0-8.797 1.448-12.134 4.266-8.444 7.212-8.983 19.061-9.169 21.86h41.196zm-41.01 10.705c.323 3.689 1.047 6.155 1.595 7.564 2.447 7.603 8.269 13.768 15.647 16.556 3.004 1.096 7.24 2.26 14.472 2.26 4.178 0 10.725-.322 20.01-3.65l-.146 12.859c-3.865 1.39-11.439 3.513-22.32 3.513-3.18 0-13.973 0-23.465-4.756-8.973-4.423-22.369-15.842-22.173-40.335 0-3.16.176-11.096 3.376-19.179 2.769-6.898 11.742-24.14 34.307-24.14 21.488 0 35.246 16 35.246 36.969 0 3.513-.206 5.842-1.781 12.339h-54.768zm-23.572-33.925h-23.788v43.602c0 .725-.137 4.766.538 7.564 2.456 8.435 11.615 8.161 13.739 8.161 2.974 0 5.636-.186 11.253-1.683l-.167 13.26c-5.098 1.066-9.188 1.584-14.443 1.584-2.084 0-9.677 0-15.832-3.366-10.734-5.763-11.096-17.075-11.096-27.447v-71.04l16.008-12.467v28.553h23.788v13.279zm-75.561 28.475c-9.482 0-22.741.342-30.618 6.898-3.728 2.994-5.666 6.82-5.666 11.782 0 2.984.715 5.646 2.515 7.73 3.327 4.256 9.316 5.95 19.884 5.95 2.446 0 7.779-.128 13.885-1.234v-31.126zm-45.247-36.46c1.761-.832 3.65-1.751 5.587-2.642 4.09-1.595 13.093-4.756 24.718-4.756 11.987 0 18.817 3.161 22.878 6.723.86.675 3.679 3.16 5.117 6.35 1.585 3.327 2.642 7.173 2.642 15.637l-.176 56.539c-12.858 2.828-25.892 3.16-30.09 3.16-7.084 0-12.524-.714-15.196-1.242-4.883-.88-22.34-4.756-22.34-23.534 0-4.12.686-12.378 8.837-19.237 11.928-10.392 28.856-11.067 43.27-11.067v-3.895c0-4.931-.167-6.712-1.057-8.836-1.712-4.041-6.488-7.926-16.332-7.926-7.573 0-16.38 2.339-23.102 5.48-1.752.714-3.366 1.722-4.922 2.632l.166-13.386zm-18.67 11.625h-.176c-1.752-1.243-1.889-1.38-3.004-1.918-5.597-3.18-11.762-3.366-13.895-3.366-2.124 0-6.86.186-11.967 2.661-6.175 2.809-16.019 10.363-16.019 27.262 0 2.524 0 7.094 2.124 12.564 4.256 11.41 14.198 18.484 26.41 18.484 8.601 0 14.462-3.571 17.055-5.186l.225 13.582c-1.448.9-3.17 1.977-4.794 2.485-2.241 1.067-8.083 2.819-15.451 2.819-25.569-.186-42.282-19.904-42.282-44.748 0-2.985.167-10.167 3.16-17.75 3.152-8.474 13.367-25.912 38.378-25.912 4.413 0 11.126.353 20.236 4.756v14.267zm-95.073-43.632h15.99v111.061h-15.99V75.488zm881.321 39.992h-23.758v43.602c0 .725-.166 4.766.558 7.564 2.485 8.435 11.595 8.161 13.709 8.161 3.004 0 5.646-.186 11.243-1.683l-.137 13.26c-5.098 1.066-9.178 1.584-14.433 1.584-2.163 0-9.697 0-15.881-3.366-10.725-5.763-11.087-17.075-11.087-27.447v-71.04l16.028-12.467v28.553h23.758v13.279zm-117.08-13.416v16.557c.91-1.967 2.271-4.785 3.514-6.527 7.71-10.92 17.946-11.997 22.868-11.997 3.043 0 11.125.353 17.985 5.46 10.548 7.956 10.89 19.913 10.89 31.714v49.278h-15.998v-47.34c0-7.437-.186-14.795-5.998-20.246-1.576-1.624-5.47-4.276-11.615-4.276-2.31 0-7.398.568-12.33 4.433-8.787 7.202-8.6 19.384-8.6 29.404v38.025h-16.029v-84.485h15.314zM818.015 138.7c0-2.163.529-9.169-2.808-15.539-1.771-3.19-6.566-10.685-17.056-10.587-4.589 0-8.816 1.448-12.173 4.266-8.464 7.212-8.973 19.061-9.168 21.86h41.205zm-41.01 10.705c.314 3.689 1.067 6.155 1.595 7.564 2.388 7.603 8.25 13.768 15.676 16.556 2.995 1.096 7.163 2.26 14.365 2.26 4.237 0 10.783-.322 20.099-3.65l-.176 12.859c-3.856 1.39-11.459 3.513-22.35 3.513-3.16 0-13.875 0-23.435-4.756-8.973-4.423-22.33-15.842-22.164-40.335 0-3.16.147-11.096 3.337-19.179 2.838-6.898 11.772-24.14 34.336-24.14 21.488 0 35.197 16 35.197 36.969 0 3.513-.156 5.842-1.722 12.339h-54.758zm-27.868-30.285h-.186c-1.722-1.243-1.918-1.38-2.955-1.918-5.626-3.18-11.781-3.366-13.924-3.366-2.104 0-6.85.186-11.958 2.661-6.184 2.809-16.018 10.363-16.018 27.262 0 2.524 0 7.094 2.094 12.564 4.257 11.41 14.257 18.484 26.44 18.484 8.6 0 14.403-3.571 17.065-5.186l.186 13.582c-1.38.9-3.17 1.977-4.775 2.485-2.27 1.067-8.073 2.819-15.5 2.819-25.51-.186-42.282-19.904-42.282-44.748 0-2.985.225-10.167 3.21-17.75 3.14-8.474 13.366-25.912 38.387-25.912 4.355 0 11.096.353 20.216 4.756v14.267zm-131.17-17.056v47.908c0 7.701.196 16.146 7.417 21.107 1.928 1.39 6.155 3.337 12.31 3.337 6.664-.196 9.883-1.79 12.163-3.552 7.016-5.793 6.497-16.175 6.497-24.12v-44.68h16.019v44.68c0 10.41-.186 14.305-1.576 19.609-1.272 4.207-3.865 11.928-13.552 17.398-8.093 4.756-16.567 4.756-19.894 4.756-5.284 0-9.697-.715-11.458-1.243-9.325-2.27-17.8-8.63-21.293-17.643-2.446-6.282-2.651-13.846-2.651-20.94v-46.617h16.018zm-68.614-26.576v96.11h44.073v14.951h-60.12V75.488h16.047z"/>
  <path d="M0 332.746v-81.207h37.957v6.888H7.936v29.806h27.731v6.556H7.936v30.833h30.02v7.124H0zM87.772 332.746v-32.203c0-1.272-.117-2.535-.117-3.807 0-7.71-5.06-13.562-12.995-13.562-3.454 0-6.791 1.145-9.433 3.327-6.439 5.294-6.106 14.042-6.106 21.625v24.62h-7.466v-55.218h7.133v10.353c3.102-7.349 8.964-11.733 17.027-11.733 5.743 0 11.957 2.183 15.411 7.026 3.68 5.284 4.022 10.235 4.022 16.557v33.015h-7.476zM126.992 333.553c-11.498 0-15.421-5.401-15.421-16.224v-51.528l7.485-4.717v16.449h15.764v6.781h-15.764v32.79c0 6.331 1.497 10.01 8.513 10.01 2.985 0 5.744-.46 8.621-1.154v6.448c-2.984.793-6.086 1.145-9.198 1.145M184.492 307.674h-37.037c0 2.407.567 4.726 1.38 7.016 3.111 8.856 11.4 12.877 20.362 12.877 4.492 0 8.973-.802 13.113-2.417l-.108 6.674c-4.257 1.615-8.758 2.31-13.24 2.31-18.748 0-29.335-11.166-29.335-29.924 0-14.364 8.395-28.064 24.052-28.064 13.23 0 21.86 10.696 21.86 23.465 0 2.76-.47 5.411-1.047 8.063m-21.508-25.197c-7.25 0-12.192 5.294-14.375 11.84-.812 2.31-1.154 4.727-1.389 7.144h30.725v-1.957c.225-9.199-5.068-17.027-14.961-17.027M222.22 283.858c-4.481 0-8.738 1.85-11.85 5.059-4.246 4.384-5.283 9.893-5.283 15.764v28.064h-7.476v-55.208h7.016v12.427c2.759-8.063 8.973-13.464 17.71-13.464 2.193 0 4.14.45 6.224 1.037v7.358c-2.084-.685-4.149-1.037-6.34-1.037M261.098 334.131c-7.006 0-12.878-3.111-16.45-9.198v28.75h-7.475v-76.149h7.016v10.578c3.572-6.909 9.55-11.967 17.72-11.967 15.178 0 23.114 15.186 23.114 28.65 0 14.042-8.161 29.336-23.925 29.336m-.108-51.42c-2.652 0-4.951.802-7.143 2.181-6.781 4.14-9.423 12.995-9.423 20.471 0 7.143 2.192 15.079 8.278 19.326 2.427 1.732 5.411 2.877 8.396 2.877 11.507 0 16.224-13.103 16.224-22.77 0-9.55-5.07-22.086-16.332-22.086M321.723 283.858c-4.482 0-8.748 1.85-11.85 5.059-4.257 4.384-5.284 9.893-5.284 15.764v28.064h-7.486v-55.208h7.016v12.427c2.76-8.063 8.983-13.464 17.711-13.464 2.192 0 4.15.45 6.214 1.037v7.358a19.813 19.813 0 00-6.321-1.037M340.35 267.293c-3.11 0-4.725-1.488-4.725-4.61 0-3.326 1.39-4.94 4.834-4.94 3.229 0 4.843 1.506 4.843 4.833s-1.722 4.717-4.951 4.717m-3.562 10.235h7.476v55.218h-7.476v-55.218zM373.941 334.131c-5.186 0-10.93-.685-15.764-2.191v-6.674c4.834 1.605 9.903 2.192 14.962 2.192 5.871 0 13.23-1.615 13.23-8.856 0-13.239-29.111-10.245-29.111-27.721 0-10.235 9.775-14.736 18.63-14.736 5.53 0 10.823.802 16.107 2.191v6.674c-5.284-1.39-10.705-2.192-16.106-2.192-4.824 0-11.146 2.074-11.146 7.946 0 11.85 29.444 9.432 29.444 28.073 0 11.273-10.588 15.294-20.246 15.294M447.558 307.674h-37.046c0 2.407.577 4.726 1.38 7.016 3.11 8.856 11.39 12.877 20.362 12.877 4.492 0 8.973-.802 13.112-2.417l-.117 6.674c-4.257 1.615-8.738 2.31-13.22 2.31-18.758 0-29.336-11.166-29.336-29.924 0-14.364 8.396-28.064 24.033-28.064 13.239 0 21.87 10.696 21.87 23.465 0 2.76-.47 5.411-1.038 8.063m-21.517-25.197c-7.241 0-12.183 5.294-14.375 11.84-.802 2.31-1.154 4.727-1.38 7.144h30.706v-1.957c.235-9.199-5.059-17.027-14.951-17.027" fill="#292829"/>
</svg>
