<svg xmlns="http://www.w3.org/2000/svg" viewBox="0 0 885.83 165.62"><path d="M838.88,142.15a23.48,23.48,0,1,1,23.48,23.47,23.48,23.48,0,0,1-23.48-23.47" style="fill:#86bc24"/><path d="M90.11,80q0-22.31-8.62-33.09T55.3,36.11H42.83v90.94h9.54q19.53,0,28.63-11.61T90.11,80m44.46-1.55q0,40.64-21.85,62.62T51.28,163H0V.69H54.87q38.16,0,58.94,20t20.76,57.75M276.62,163h40.81V0H276.62Zm98.14-60.81q0,15.6,4.07,23.77t13.67,8.18q9.5,0,13.42-8.18t3.9-23.77q0-15.51-4-23.4T392.29,70.9c-6.27,0-10.74,2.63-13.46,7.86s-4.07,13-4.07,23.46m76.6,0q0,29.7-15.6,46.33t-43.68,16.62q-26.91,0-42.84-17t-15.92-45.95q0-29.61,15.61-46t43.79-16.4q17.41,0,30.78,7.59a51.27,51.27,0,0,1,20.61,21.75q7.26,14.14,7.25,33.08M467.56,163h40.82V41.94H467.56Zm0-135.74h40.82V0H467.56V27.29ZM591.07,132.14c5.51,0,12.07-1.4,19.73-4.17v30.46a79.32,79.32,0,0,1-15.71,5.18,86.34,86.34,0,0,1-17.49,1.56q-20.55,0-29.64-10.32t-9.07-31.68V73.25h-14.3V42h14.3V11L580,3.87V42h26v31.3H580v47.13q0,11.76,11.05,11.76m94.46,0c5.51,0,12.07-1.4,19.73-4.17v30.46a78.9,78.9,0,0,1-15.71,5.18,86.24,86.24,0,0,1-17.48,1.56q-20.57,0-29.64-10.32t-9.08-31.68V73.25h-14.3V42h14.3V10.55l41.12-6.68V42h26v31.3h-26v47.13q0,11.76,11.06,11.76m71.23-44.67q.84-9.94,5.68-14.59a16.78,16.78,0,0,1,12.06-4.65q7.85,0,12.47,5.24t4.85,14Zm57.55-33.4Q799.76,39.81,773,39.8q-28.06,0-43.21,16.41t-15.14,47.08q0,29.7,16.34,45.79t45.88,16.09a134.22,134.22,0,0,0,24.41-1.93A70.75,70.75,0,0,0,821,156.36l-6.27-27.29a86.87,86.87,0,0,1-13.19,4.3,87.61,87.61,0,0,1-19.77,2.09q-11.79,0-18.62-5.77t-7.26-15.93h73V95.17q0-26.83-14.56-41.1M188.73,87.47q.84-9.94,5.69-14.59a16.75,16.75,0,0,1,12.06-4.65q7.82,0,12.46,5.24t4.86,14Zm57.56-33.4Q231.73,39.81,205,39.8q-28.08,0-43.2,16.41t-15.15,47.08q0,29.7,16.35,45.79t45.87,16.09a134.14,134.14,0,0,0,24.41-1.93A70.92,70.92,0,0,0,253,156.36l-6.28-27.29a86.77,86.77,0,0,1-13.18,4.3,87.8,87.8,0,0,1-19.77,2.09q-11.79,0-18.63-5.77t-7.26-15.93h72.95V95.17q0-26.83-14.55-41.1" style="fill:#0f0b0b"/></svg>