<svg xmlns="http://www.w3.org/2000/svg" viewBox="0 0 219 49">
  <path fill="#013f6a" d="M46.169 18.061h6.457V40.3h-6.495zM34.842 23.309c.188 0 1.397.227 1.397 1.963s-1.17 1.699-1.17 1.699H30.99v-3.7s3.663.038 3.852.038zm-10.874-5.135v22.504h6.872v-8.307h2.341s1.208.075 2.189 3.323c.981 3.247 1.359 4.531 1.775 4.833h6.457S41.903 35.09 41.11 32.9c-.793-2.189-1.095-2.756-1.699-3.247 0 0 3.323-1.548 3.323-5.475 0-3.927-3.814-6.042-6.23-6.042s-12.536.038-12.536.038zM2.823 18.174h17.671v5.059H9.695v3.399H19.89v5.21H9.771v3.399h10.723v5.437H2.823zM73.884 23.913l.528-5.21s-2.643-1.284-6.646-1.284c-4.002 0-12.838 1.813-12.838 11.252S61.8 40.98 67.615 40.98c2.643 0 6.192-.679 7.023-1.132l-.378-5.21s-2.869 1.208-5.739 1.208S61.8 33.883 61.8 29.2s3.398-6.796 6.419-6.796 5.665 1.509 5.665 1.509zM86.419 17.419s-10.043-.453-10.043 7.023c0 3.851 2.039 5.362 4.607 6.268 2.567.906 6.116 1.51 6.116 3.322s-3.021 1.888-3.625 1.888-6.343-1.359-6.343-1.359l-.151 5.211s3.323 1.058 7.023 1.058c3.7 0 9.515-.831 9.515-7.93 0-4.002-3.172-5.06-4.456-5.664s-5.965-1.585-5.965-2.945 2.189-2.039 3.096-2.039 5.815 1.057 5.815 1.057v-4.757c-.001 0-2.266-1.133-5.589-1.133zM105.034 17.343s-10.043-.453-10.043 7.023c0 3.852 2.039 5.362 4.606 6.268 2.567.906 6.117 1.511 6.117 3.323s-3.021 1.888-3.625 1.888c-.604 0-6.344-1.359-6.344-1.359l-.151 5.211s3.323 1.057 7.023 1.057 9.515-.831 9.515-7.929c0-4.002-3.171-5.06-4.456-5.664-1.284-.604-5.966-1.586-5.966-2.945 0-1.359 2.19-2.039 3.097-2.039s5.814 1.057 5.814 1.057v-4.757c.001-.001-2.265-1.134-5.587-1.134zM135.58 28.897c0 11.554-11.176 11.78-11.554 11.78-.378 0-11.177-.604-11.177-11.629 0-11.026 11.328-11.629 11.328-11.629s11.403-.076 11.403 11.478zm-11.478-6.721s-4.531.831-4.531 6.646 3.549 7.098 4.606 7.098 4.606-1.057 4.606-6.947-4.681-6.797-4.681-6.797zM137.846 17.57v22.428h6.57V27.916l6.796 12.007h8.005V17.419h-6.571v12.762l-6.947-12.611zM187.572 21.533a4.566 4.566 0 11-3.293-8.515l26.178-10.122a4.564 4.564 0 113.293 8.515l-26.178 10.122zM187.572 34.355a4.564 4.564 0 11-3.293-8.515l26.178-10.123a4.565 4.565 0 013.293 8.516l-26.178 10.122zM187.572 46.548a4.566 4.566 0 11-3.293-8.515l26.178-10.122a4.564 4.564 0 113.293 8.515l-26.178 10.122z"/>
</svg>
