<svg xmlns="http://www.w3.org/2000/svg" viewBox="0 0 61.93 13.085" version="1.1" id="svg8">
  <g id="layer1" transform="translate(-32.22 -45.496)">
    <g id="g663" transform="matrix(.53066 0 0 .53066 -34.558 10.584)">
      <g transform="matrix(.26458 0 0 .26458 125.88 65.828)" id="g324">
        <path id="path316" d="M237.2 44.4c10.6 0 17.8 8.2 17.8 20.4v22.7c0 .3-.3.6-.6.6H244c-.3 0-.6-.3-.6-.6V64.9c0-4.7-2.3-9.8-8.8-9.8h-.2c-4.9.1-9.1 4.5-9.1 9.5v22.9c0 .3-.3.6-.6.6h-10.3c-.3 0-.6-.3-.6-.6v-42c0-.3.3-.6.6-.6h10c.3 0 .6.3.6.6v3.7c3.8-3.3 7.7-4.8 12.2-4.8m158.5 36.1c-.2.2-.1.6.1.8 6.2 6.2 12.9 7 18.7 7 8.2 0 14.3-3.1 16.9-8.6.8-1.7 1.2-3.5 1.2-5.4 0-11.1-9.6-13.1-17.9-13.6-6.6-.4-6.6-2.7-6.6-3.5 0-2.8 4.5-3.1 6.4-3.1 3.7 0 6.5.9 8.8 2.9.2.2.6.2.8-.1l5.9-6.8c.2-.2.2-.6-.1-.8-4.3-3.6-8.9-5.1-15.6-5.1-4.3 0-8.5 1.1-11.6 2.9-4 2.4-6.1 6-6.1 10.4 0 7.7 6.1 12.4 17.3 13.2 6.3.4 7.1 2.2 7.1 3.8 0 2.3-3.1 3.5-6.1 3.5h-.3c-4.9-.1-9.6-1.9-12.7-4.8-.3-.2-.7-.2-.9.1zm-104.5-7.1c1.7-2 2.5-4.8 2.5-7.8 0-5.4-3.3-11.1-11.3-11.1-6.6 0-11 4.5-11 11.2 0 6.7 4.4 11.3 11 11.3 3.4 0 6.8-1.3 8.8-3.6m2.2-28c0-.3.3-.6.6-.6h10.3c.3 0 .6.3.6.6v42.1c0 .3-.3.6-.6.6H294c-.3 0-.6-.3-.6-.6v-3.2c-3.6 3.3-7.9 3.4-11.6 3.5h-.6c-6.2 0-11.4-1.9-15.2-5.6-4-3.9-6-9.6-6-16.4 0-13.2 8.4-21.7 21.5-21.7h.2c4.1 0 8.4.4 11.8 3.2zm-128.1-11V24.3c0-.4-.3-.7-.7-.7h-37.5c-.4 0-.7.3-.7.7v63c0 .4.3.7.7.7h10.1c.4 0 .7-.3.7-.7V61.6c0-.4.3-.7.7-.7h18.9c.4 0 .7-.3.7-.7V50c0-.4-.3-.7-.7-.7h-18.9c-.4 0-.7-.3-.7-.7V35.9c0-.4.3-.7.7-.7h25.9c.5 0 .8-.4.8-.8m220.5 40.2c-.2-.2-.6-.2-.8 0-2 1.7-4.6 2.6-7.1 2.6-6.3 0-10.7-4.5-10.7-11s4.4-11 10.7-11c2.5 0 5 .9 7.1 2.6.2.2.6.2.8 0l6.7-7c.2-.2.2-.6 0-.8-4.3-4.1-8.7-5.8-14.7-5.8-13.5 0-22.2 8.7-22.2 22.2s8.7 22.2 22.2 22.2c6 0 10.4-1.7 14.7-5.8.2-.2.2-.6 0-.8zM332 88.1c.3 0 .6-.3.6-.6v-9.4c0-.3-.3-.6-.6-.6h-5.1c-3-.1-4.4-1.6-4.4-4.8V56.6h9.5c.3 0 .6-.3.6-.6V45.5c0-.3-.3-.6-.6-.6h-9.4v-9.1c0-.3-.3-.6-.6-.6h-10.4c-.3 0-.6.3-.6.6v36.9c0 9.8 5.5 15.4 15.2 15.4h1.9zM193.8 73.4c1.7-2 2.5-4.8 2.5-7.8 0-5.4-3.3-11.1-11.3-11.1-6.6 0-11 4.5-11 11.2 0 6.7 4.4 11.3 11 11.3 3.5 0 6.9-1.3 8.8-3.6m2.3-28c0-.3.3-.6.6-.6H207c.3 0 .6.3.6.6v42.1c0 .3-.3.6-.6.6h-10.3c-.3 0-.6-.3-.6-.6v-3.2c-3.6 3.3-7.9 3.4-11.6 3.5h-.6c-6.2 0-11.4-1.9-15.2-5.6-4-3.9-6-9.6-6-16.4C162.6 52.6 171 44 184 44h.2c4.1 0 8.4.4 11.8 3.2zm142.7 42.7h10.4c.3 0 .6-.3.6-.6V45.4c0-.3-.3-.6-.6-.6h-10.4c-.3 0-.6.3-.6.6v42.1c.1.3.3.6.6.6m11.8-56c0-8.5-12.8-8.5-12.8 0-.1 8.4 12.8 8.4 12.8 0" class="st18" fill="#09203f"/>
        <path id="path318" d="M108.8 11.4L98 28.2c-.2.3-.7.5-1 .3C72.1 16 43.3 39 17.9 33.5c-.2-.1-.4-.2-.6-.4C17.4 33.1 5.1 14.3 1 8c-.5-.8.1-1.9 1.2-1.8 2.2.5 11.8 2.6 19.2 3.2 38.5 2.1 59.4-21 87.3.9.3.2.4.7.1 1.1zM77.4 59.5c.2.1.4 0 .6-.2L91 39c.2-.3 0-.6-.3-.7-18.9-6.5-36.6 6-63.6 6.7-.7 0-1.4.8-.9 1.7l29.1 45c.4.8 1.4.3 1.3-.4l-6.3-28.5c-.1-.3.1-.5.3-.6 2.5-.7 19-6.3 26.8-2.7z" fill="#e53d2e"/>
        <g id="g322">
          <path id="path320" d="M440 40.3c0 2.1-1.3 3.8-3.7 3.8-2.4 0-3.7-1.7-3.7-3.8 0-2.1 1.3-3.8 3.7-3.8 2.4 0 3.7 1.7 3.7 3.8zm-3.7 3.2c2 0 3.1-1.4 3.1-3.2 0-1.8-1.1-3.2-3.1-3.2s-3.1 1.4-3.1 3.2c0 1.8 1.1 3.2 3.1 3.2zm.6-2.7c1.5-.2 1.4-2.5-.3-2.5h-1.8v3.9h.6v-1.4h.8l1.2 1.4h.7v-.1zm-.3-1.9c1 0 1 1.4 0 1.4h-1.2v-1.4z" class="st18" fill="#09203f"/>
        </g>
      </g>
    </g>
  </g>
  <style id="style10" type="text/css">.st18{fill:#09203f}</style>
</svg>
