<svg xmlns="http://www.w3.org/2000/svg" viewBox="0 0 255.012 75">
  <g data-name="Group 2">
    <path d="M13.217 13.216h12.335L38.769 0H0v38.769l13.217-13.217V13.216" fill="#346dbf"/>
    <path data-name="Path 4" d="M.143 50.047h1.233a23.789 23.789 0 1023.788-23.86h-.141v-1.233h.141A25.023 25.023 0 11.143 50.047zm2.53 1.618l1.231-.089a21.322 21.322 0 1025.833-22.428l.272-1.206A22.559 22.559 0 112.673 51.666zm2.4-1.62h1.238a18.855 18.855 0 1020.805-18.824l.127-1.227A20.089 20.089 0 115.077 50.046zm2.525 1.362l1.23-.1a16.388 16.388 0 1025.4-14.982l.681-1.028A17.619 17.619 0 117.602 51.408zm3.126 3.179l1.177-.371a13.921 13.921 0 1013.263-18.161h-.141v-1.228h.141a15.155 15.155 0 11-14.436 19.761z" fill="#253871"/>
    <path d="M64.69 13.216h12.334L90.241 0H51.473v38.769L64.69 25.552V13.216" fill="#253871"/>
    <path data-name="Path 3" d="M51.615 50.047h1.233a23.789 23.789 0 1023.788-23.86h-.141v-1.233h.141a25.023 25.023 0 11-25.021 25.093zm2.529 1.618l1.231-.089a21.322 21.322 0 1025.834-22.428l.273-1.206a22.559 22.559 0 11-27.338 23.724zm2.4-1.62h1.239a18.854 18.854 0 1020.805-18.824l.127-1.227a20.089 20.089 0 11-22.167 20.052zm2.525 1.362l1.231-.1a16.387 16.387 0 1025.4-14.982l.681-1.028a17.619 17.619 0 11-27.307 16.111zm3.126 3.179l1.176-.371a13.921 13.921 0 1013.265-18.161h-.141v-1.228h.141A15.155 15.155 0 1162.2 54.587z" fill="#346dbf"/>
  </g>
  <g data-name="Group 1">
    <path data-name="Path 2" d="M205.858 59.771a6.083 6.083 0 01-1.656-4.357 6.081 6.081 0 011.656-4.35 6.19 6.19 0 018.626 0 6.08 6.08 0 011.657 4.35 6.082 6.082 0 01-1.656 4.355 6.2 6.2 0 01-8.626 0zm.933-7.931a4.931 4.931 0 00-1.337 3.574 4.938 4.938 0 001.337 3.581 4.817 4.817 0 006.761 0 4.938 4.938 0 001.336-3.581 4.931 4.931 0 00-1.337-3.576 4.81 4.81 0 00-6.761 0zm-22.965 7.931a6.081 6.081 0 01-1.655-4.357 6.079 6.079 0 011.655-4.35 6.188 6.188 0 018.625 0 6.074 6.074 0 011.658 4.35 6.076 6.076 0 01-1.658 4.355 6.2 6.2 0 01-8.625 0zm.932-7.931a4.934 4.934 0 00-1.336 3.574 4.941 4.941 0 001.336 3.579 4.818 4.818 0 006.762 0 4.946 4.946 0 001.336-3.579 4.939 4.939 0 00-1.336-3.576 4.812 4.812 0 00-6.762 0zm-39.11 7.956a6.2 6.2 0 01-1.591-4.382 6.21 6.21 0 011.591-4.379 5.444 5.444 0 014.197-1.721 5.625 5.625 0 013.626 1.189 5.3 5.3 0 011.9 3.182h-1.27a4 4 0 00-1.5-2.357 4.435 4.435 0 00-2.754-.876 4.237 4.237 0 00-3.29 1.369 5.136 5.136 0 00-1.245 3.6 5.137 5.137 0 001.245 3.6 4.228 4.228 0 003.29 1.369 4.433 4.433 0 002.754-.874 4 4 0 001.5-2.357h1.27a5.313 5.313 0 01-1.9 3.182 5.623 5.623 0 01-3.626 1.173 5.443 5.443 0 01-4.197-1.719zm101.76.642a3.859 3.859 0 01-1.154-2.711h1.188a2.7 2.7 0 00.956 2 3.5 3.5 0 002.261.691 4.037 4.037 0 002.3-.569 1.847 1.847 0 00.833-1.625 1.9 1.9 0 00-.379-1.219 2.139 2.139 0 00-1-.694 10.555 10.555 0 00-1.353-.362 41.85 41.85 0 01-1.476-.329 6.833 6.833 0 01-1.361-.479 2.316 2.316 0 01-1-.931 3.06 3.06 0 01-.379-1.592 3.027 3.027 0 011.077-2.33 4.19 4.19 0 012.934-.974 3.988 3.988 0 012.953 1.056 3.83 3.83 0 011.088 2.738h-1.17a2.72 2.72 0 00-.8-1.962 2.824 2.824 0 00-2.055-.743 3.294 3.294 0 00-2.071.585 1.9 1.9 0 00-.75 1.576 1.646 1.646 0 00.388 1.13 2.36 2.36 0 001 .653 9.664 9.664 0 001.352.354c.5.093.988.207 1.483.346a7.012 7.012 0 011.353.52 2.484 2.484 0 011 .964 3.114 3.114 0 01.388 1.608 2.921 2.921 0 01-1.213 2.441 5.1 5.1 0 01-3.175.923 4.42 4.42 0 01-3.218-1.065zm-27.977-.651a6.207 6.207 0 01-1.575-4.373 6.208 6.208 0 011.592-4.379 5.444 5.444 0 014.197-1.721 5.752 5.752 0 013.57 1.116 5.026 5.026 0 011.9 3.024h-1.264a3.886 3.886 0 00-1.526-2.21 4.553 4.553 0 00-2.68-.792 4.235 4.235 0 00-3.289 1.369 5.134 5.134 0 00-1.245 3.6 5.181 5.181 0 001.252 3.612 4.211 4.211 0 003.282 1.381 4.2 4.2 0 004.37-4.27h-3.944v-1.123h5.08v6.249h-1.106v-2.226a4.553 4.553 0 01-1.8 1.8 5.825 5.825 0 01-6.818-1.056zm17.34 1.482V49.561h7.867v1.138h-6.663v4.058h6.316v1.137h-6.316v4.238h6.663v1.137zm-4.551 0V49.562h1.2v11.707zm-35.59 0V49.561h1.2v10.571h5.871v1.137zm-18.256 0l-6.825-9.765v9.766h-1.2V49.562h1.258l6.84 9.815v-9.815h1.2v11.707zm-12.583 0v-5.375h-6.842v5.375h-1.2V49.562h1.2v5.2h6.844v-5.2h1.2v11.707zm-31.416 0V49.561h7.866v1.138h-6.661v4.058h6.316v1.137h-6.316v4.238h6.663v1.137zm-6.762 0V50.714h-3.742v-1.152h8.691v1.152h-3.743v10.555zm14.628-1.137z" fill="#346dbf"/>
    <path data-name="Path 1" d="M175.493 42.945l2.965-7.091-7.281-17.39h2.637l5.868 14.465 6.048-14.465h2.563l-10.336 24.545zm64.132-9.281a9.371 9.371 0 01-2.535-6.778 9.313 9.313 0 012.535-6.676 8.522 8.522 0 016.468-2.673 8.387 8.387 0 016.42 2.654 9.409 9.409 0 012.482 6.694l-.068 1.438H241.92a4.3 4.3 0 001.368 2.826 4.4 4.4 0 002.979.974 4.458 4.458 0 002.106-.5 2.891 2.891 0 001.353-1.455h4.9a8.131 8.131 0 01-3.1 4.433 8.859 8.859 0 01-5.392 1.695 8.618 8.618 0 01-6.509-2.632zm3.732-11.314a4.19 4.19 0 00-1.371 2.482h8.15a4.11 4.11 0 00-1.335-2.467 4.5 4.5 0 00-5.444-.015zm-80.09 8.847V20.516h-3.321v-2.052h3.322v-4.969h2.431v4.969h4.006v2.056h-4.006v10.509q0 2.735 2.394 2.735l1.54-.171v2.192a7.542 7.542 0 01-1.849.171q-4.516.003-4.516-4.759zm61.769 4.694l-7.189-17.943h5.137l4.333 12.079 4.4-12.079h5.033l-7.192 17.943zm-81.561 0V18.464h2.432V35.89zm9.21 0V20.516h-3.392v-2.052h3.39v-2.879a5.334 5.334 0 011.41-4.021 5.2 5.2 0 013.764-1.354l1.164.068v2.227a4.987 4.987 0 00-.959-.071 3.053 3.053 0 00-2.208.72 3.145 3.145 0 00-.736 2.328v2.982h3.938v2.055h-3.938V35.89zm38.728 0V11.578h16.128v4.586h-11.127v5.1h10.614v4.586h-10.614v10.04zm-67.42-.001V11.578h15.477v2.363h-12.977v8.423h12.259v2.363h-12.259V35.89zm86.766 0V17.949h4.864v17.94zm.309-21.092a2.83 2.83 0 01-.822-2.09 2.878 2.878 0 01.822-2.1 3.1 3.1 0 014.245 0 2.879 2.879 0 01.822 2.1 2.831 2.831 0 01-.822 2.09 3.154 3.154 0 01-4.245 0zm-67.626-1.114a1.607 1.607 0 01-.48-1.213 1.728 1.728 0 01.48-1.251 1.678 1.678 0 011.266-.5 1.7 1.7 0 011.747 1.748 1.581 1.581 0 01-.5 1.213 1.768 1.768 0 01-1.25.464 1.75 1.75 0 01-1.263-.461z" fill="#5e6061"/>
  </g>
</svg>
