<svg version="1.1" id="Layer_1"
  xmlns="http://www.w3.org/2000/svg" x="0" y="0" viewBox="0 0 172 52.9" xml:space="preserve">
  <style>.st1{fill:#404041}</style>
  <g id="Group_5245">
    <path id="Path_25" d="M9.1 7.5v43.7h37.5V7.5H9.1zm34.6 40.9H11.9v-38h31.8v38z" fill="#00e4bc"/>
    <path id="Path_26" class="st1" d="M77.1 51.8c-1.7 0-3.4-.3-5.1-.9-1.5-.6-2.8-1.4-4-2.5-1.1-1.1-2-2.4-2.6-3.9-.6-1.6-.9-3.3-.9-4.9 0-1.7.3-3.4.9-5 .6-1.5 1.4-2.8 2.6-3.9 1.1-1.1 2.5-2 4-2.5 1.6-.6 3.4-.9 5.1-.9 1.7 0 3.4.3 5 .9 1.6.6 3 1.6 4.2 2.8l.3.3-4 3.6-.2-.3c-.7-.7-1.5-1.3-2.4-1.8-.9-.4-2-.6-3-.6s-2 .2-3 .6c-.8.4-1.5.9-2.1 1.6-.6.7-1 1.6-1.3 2.4-.3.9-.4 1.9-.4 2.9s.2 1.9.5 2.8c.3.9.8 1.6 1.4 2.3.6.7 1.4 1.2 2.2 1.5.9.4 1.9.6 2.9.6s2-.2 3-.6c.9-.4 1.7-1 2.3-1.8l.3-.3 3.7 3.6-.3.3c-1.1 1.3-2.6 2.2-4.2 2.8-1.5.6-3.2.9-4.9.9z"/>
    <path id="Path_27" class="st1" d="M99.8 51.8c-1.8 0-3.5-.3-5.1-.9-1.5-.6-2.8-1.5-3.9-2.6s-1.9-2.5-2.5-3.9c-.6-1.5-.9-3.2-.9-4.8 0-1.7.3-3.3.9-4.9.6-1.5 1.5-2.8 2.6-3.9s2.5-2 3.9-2.6c1.6-.6 3.3-1 5-.9 1.9-.1 3.7.3 5.4 1.1 1.4.7 2.6 1.7 3.6 2.9.9 1.2 1.6 2.5 2.1 4 .4 1.4.6 2.9.6 4.4v1.9H93v.1c.1.7.3 1.4.6 2 .4.8 1 1.4 1.6 1.9.7.6 1.5 1 2.4 1.3.9.3 1.8.5 2.8.5 1.2 0 2.3-.3 3.3-.9 1-.6 1.9-1.4 2.7-2.4l.3-.4 4 3-.3.3c-2.6 3.2-6.1 4.8-10.6 4.8zm-.1-20.4c-2.7 0-5.2 1.5-6.3 4-.2.6-.4 1.1-.4 1.7v.1h13v-.1c-.1-.7-.2-1.4-.4-2-.5-1.5-1.6-2.7-3.1-3.2-.9-.3-1.8-.5-2.8-.5z"/>
    <path id="Path_28" class="st1" d="M162.2 51.8c-1.8 0-3.6-.3-5.2-.9-1.6-.7-3-1.8-4.1-3.3l-.3-.4 4-3.1.2.3c.7.7 1.5 1.3 2.3 1.8.9.5 2 .8 3 .7.5 0 1.1-.1 1.6-.2s1-.2 1.4-.5c.4-.2.7-.5.9-.8.2-.3.3-.6.3-1 0-.5-.2-.9-.5-1.3-.4-.4-.8-.7-1.3-.9-.6-.2-1.1-.4-1.7-.5-.6-.1-1.2-.3-1.7-.4-1-.2-1.9-.5-2.7-.8-.8-.3-1.6-.7-2.4-1.2-.7-.5-1.3-1.2-1.7-2-.4-.9-.7-1.9-.6-2.9 0-1.1.3-2.3.8-3.3.5-.9 1.3-1.7 2.1-2.3.9-.6 1.9-1.1 3-1.4 1.1-.3 2.2-.4 3.3-.4 1.6 0 3.2.3 4.7.9 1.5.6 2.8 1.7 3.6 3l.2.4-4.2 3-.2-.4c-.5-.6-1.1-1.1-1.8-1.5-.8-.4-1.7-.6-2.6-.6-.9 0-1.7.2-2.5.6-.6.3-1 .9-.9 1.5 0 .5.2 1 .5 1.3.4.4.9.7 1.4.9.6.2 1.2.4 1.8.5.7.1 1.3.2 1.8.3.9.2 1.8.5 2.7.8.8.3 1.6.8 2.3 1.3.6.5 1.2 1.2 1.5 2 .4.9.6 1.9.6 2.8 0 1.2-.3 2.4-.9 3.5-.6.9-1.4 1.7-2.3 2.4-1 .6-2 1.1-3.1 1.3-1 .6-2.2.8-3.3.8z"/>
    <path id="Rectangle_33" class="st1" d="M56.4 18.5h5.3v32.7h-5.3z"/>
    <path id="Path_29" class="st1" d="M138 51.8c-1.4.1-2.8-.2-4.1-.7-.9-.4-1.7-1.1-2.2-2-.5-.8-.8-1.7-.8-2.6-.1-.9-.1-1.8-.1-2.8V22.8l5.3-1v6h6.3v4.6H136V44.1c0 .5.1 1 .3 1.5.2.4.5.8.8 1 .5.3 1.1.4 1.7.4.5 0 1 0 1.5-.1s.9-.2 1.4-.5l.6-.4v4.9l-.2.1c-.7.3-1.4.6-2.2.6-.5.1-1.2.2-1.9.2z"/>
    <path id="Path_30" class="st1" d="M114.4 51.2V27.8l5.3-1v3.6l.1-.2c.1-.2.3-.3.4-.4.5-.5 1.1-1 1.7-1.3.7-.4 1.4-.7 2.1-.9.7-.2 1.5-.3 2.3-.3.4 0 .8 0 1.2.1l-.1 5.5c-.2 0-.4-.1-.5-.1-.3-.1-.7-.1-1-.1-1.7-.1-3.4.5-4.6 1.6-1.1 1.1-1.6 2.8-1.6 5.2v11.8l-5.3-.1z"/>
    <g id="Group_38" transform="translate(145.477 17.929)">
      <path id="Path_31" class="st1" d="M0 6.2V1.7l5.3-1v5.5H0z"/>
      <path id="Rectangle_34" class="st1" d="M0 9.8h5.3v23.4H0z"/>
    </g>
    <linearGradient id="Path_32_1_" gradientUnits="userSpaceOnUse" x1="45.093" y1="66.38" x2="45.761" y2="67.308" gradientTransform="matrix(45.724 0 0 -50.5 -2057.305 3406.28)">
      <stop offset="0" stop-color="#0ff"/>
      <stop offset=".032" stop-color="#03edf9"/>
      <stop offset=".156" stop-color="#11ade5"/>
      <stop offset=".269" stop-color="#1c7ad6"/>
      <stop offset=".366" stop-color="#2456cb"/>
      <stop offset=".445" stop-color="#2940c4"/>
      <stop offset=".496" stop-color="#2b38c2"/>
      <stop offset="1" stop-color="#90278e"/>
    </linearGradient>
    <path id="Path_32" d="M36.6.7L0 8.5l9.1 42.7 36.6-7.8L36.6.7zm-33.3 10L34.5 4l7.9 37.2-31.1 6.6-8-37.1z" fill="url(#Path_32_1_)"/>
  </g>
</svg>
