<svg xmlns="http://www.w3.org/2000/svg" viewBox="0 0 692.56 392.74"><path d="M384.32,152.81a46.25,46.25,0,0,0-33.6-31.6c-3-.6-11.8-1.2-19.5-1.1-18.1,0-25.4,1.8-34,8.2a47.13,47.13,0,0,0-14,16.1c-5.6,11.2-5.5,8.9-5.5,108.5,0,64.6.3,93.4,1.1,96.7a48.79,48.79,0,0,0,17.7,27.6c9,6.8,12.5,7.8,30.2,8.4,20.5.7,27.3-.4,38.1-6.2,3.9-2.2,13.4-12.6,15.9-17.5,5.1-9.9,5-8,5-109.5C385.72,173.71,385.42,156.61,384.32,152.81Z" style="fill:red"/><path d="M251.22,75.41l-2.8-5.6c-2.6-5.4-3.6-6.8-9.5-13.4-7.5-8.4-18.3-14-31-16h0c-10-1.7-13.3-1.7-22.2,0-15.3,2.8-28.5,10.1-36.2,20-8.3,10.6-7.7,4.2-8.3,101.5-.4,47.6-1,91.7-1.5,98.1-1.2,14.4-3.3,19.4-11,26.9-6.2,6-9.1,7.3-22.2,9.8-7.4,1.4-9.8,1.4-17,.3a106,106,0,0,1-12.8-2.7c-12.7-4.2-26.5-13.8-33.4-23.2-5.9-8.1-7.5-7.9-17.3,1.6-6.1,6.1-16.3,18.5-16.3,20a1.57,1.57,0,0,1-.9,1.4c-.5.1-2.3,3.4-4.1,7.2-9.9,21.3-4.2,42.3,16.7,61.7s62.5,31.6,100.3,29.5c24-1.3,32.9-3,53-10.1,18-6.5,37.8-21.3,49.8-37.5,7-9.2,7.2-9.7,11.8-19,2-4.1,4.3-8.7,5-10.2a11.49,11.49,0,0,0,1.4-4.5,5.25,5.25,0,0,1,.9-2.9c1.7-1.7,4.5-13.6,7-29.9.8-4.8,1-37.5.9-105Z" style="fill:red"/><path d="M692.42,247.91c-.5-11.8-.9-14.9-3.7-26-.6-2.5-1.5-6.5-2.1-9s-1.4-4.9-1.9-5.4a4.62,4.62,0,0,1-1-2.9,11.49,11.49,0,0,0-1.4-4.5c-.7-1.5-2.8-5.9-4.7-9.7-15.6-32.3-48.8-59.9-84.4-70-3.3-.9-7.6-2.2-9.5-2.8a104.6,104.6,0,0,0-10.5-1.9h0c-9.9-1.3-34.4-1.8-38-.8a48.09,48.09,0,0,1-7.6.9,41.09,41.09,0,0,0-10,1.7c-3,.8-7.9,2.2-10.9,3.1-26.1,7.3-50,23.7-69.4,47.7-4.2,5.1-7.6,9.6-7.6,9.9a26.82,26.82,0,0,1-2.6,4.4c-2.7,4-9.4,17.7-9.4,19.3a17.67,17.67,0,0,1-1.4,4.2c-1.8,4.3-4.1,12.4-6,21.8-1.8,8.6-2.2,38.5-.5,46,.5,2.5,1.3,6.7,1.7,9.5a36.73,36.73,0,0,0,2,7.2,10,10,0,0,1,1.2,4.2c0,2.3,1.4,5.7,7.9,19.1,11.4,23.5,35.6,48.1,60.1,61.1,13,7,23.8,10.6,42.3,14.3,10.6,2.2,39.8,2.2,50.4,0,10.8-2.1,19.2-4.3,23.1-6a16.31,16.31,0,0,1,4.5-1.4c2.3,0,20-9.2,26.8-13.9,19.6-13.5,37.7-33.1,46.7-50.6,4.1-8,6.1-13.2,11.3-29.3a64.33,64.33,0,0,0,1.9-8.5c.5-2.9,1.4-8.4,2-12.2C692.52,263.11,692.72,255.71,692.42,247.91Zm-90.5,12.2c-2.2,15-7.6,25.8-17.6,35-11.9,11-31.9,15.6-47.1,11-20.1-6.2-31.7-18.1-37.1-38.2-3.6-13.4-1.5-32.9,4.7-43a28.52,28.52,0,0,0,1.9-3.9c1.3-3.1,14.5-16.1,16.3-16.1a4.15,4.15,0,0,0,2.5-1.2c1.6-1.6,7.6-3.7,14.7-5.3h0c7.7-1.7,11.4-1.7,20-.1,10.2,1.8,17.9,6,26,14.1,8.9,8.8,13.1,17.1,15.3,30.1C602.92,250.31,602.92,253.11,601.92,260.11Z" style="fill:red"/><path d="M291.92,84.71a39.88,39.88,0,0,0,12.8,9l7.5,3.6h19c16.3,0,19.7-.3,24-1.9,14.3-5.4,24.8-16.4,29-30.2,1.9-6.3,2-27.1.1-33.4-3.1-10.2-7.7-16.7-16-22.8-4.9-3.6-9.2-5.6-16.7-8h0c-5-1.6-35-1.2-41.3.5-2.7.7-5.4,1.8-6,2.4a4.65,4.65,0,0,1-2.7,1c-2.7,0-15.3,12.4-18.2,18-7.1,13.6-7.6,36.1-1.1,48.5C285.72,78,286.72,79.41,291.92,84.71Z" style="fill:red"/></svg>