<svg xmlns="http://www.w3.org/2000/svg" xmlns:xlink="http://www.w3.org/1999/xlink" viewBox="0 0 417.04 417.04"><defs><symbol id="a" viewBox="0 0 0 0"><path d="M0,0" style="fill:#0a3f6c"/></symbol><symbol id="f" viewBox="0 0 11.28 8.25"><path d="M0,.75c.57,1.07,1.15,2.3,1.73,3.7.66,1.63,1.14,2.89,1.43,3.8.73-.16,2.07-.34,4-.55a40.24,40.24,0,0,1,4.09-.22,12,12,0,0,1-.7-1.29c-.42-.92-.89-2-1.42-3.3C9,2.59,8.67,1.62,8.08,0,7,.2,5.58.39,3.73.58A33.5,33.5,0,0,1,0,.75Z" style="fill:#fff"/></symbol><symbol id="g" viewBox="0 0 0 0"><path d="M0,0" style="fill:#fff"/></symbol><symbol id="j" viewBox="0 0 12.16 8.91"><path d="M0,2c.73,1,1.49,2.12,2.28,3.41.9,1.5,1.56,2.68,2,3.55A32.61,32.61,0,0,1,8.16,7.75a31.78,31.78,0,0,1,4-.84,9.7,9.7,0,0,1-.88-1.19c-.55-.84-1.19-1.86-1.92-3C9.2,2.4,8.7,1.51,7.88,0c-1,.36-2.43.76-4.22,1.22A31.5,31.5,0,0,1,0,2Z" style="fill:#fff"/></symbol><symbol id="n" viewBox="0 0 12.78 9.34"><path d="M0,3.14a35.63,35.63,0,0,1,2.77,3c1.11,1.34,1.94,2.4,2.5,3.18C5.92,9,7.15,8.4,8.94,7.61a33.49,33.49,0,0,1,3.84-1.42,13.54,13.54,0,0,1-1-1.07c-.68-.74-1.47-1.64-2.35-2.7C9.17,2.17,8.54,1.36,7.48,0c-.94.5-2.27,1.11-4,1.84A28.2,28.2,0,0,1,0,3.14Z" style="fill:#fff"/></symbol><symbol id="r" viewBox="0 0 15.72 6.08"><path d="M.42,0,0,4.72,15.3,6.08l.42-4.72Z" style="fill:#fff"/></symbol><symbol id="s" viewBox="0 0 15.66 12.56"><path d="M15.66.38.3,0,.23,3,10.34,9.55.08,9.3,0,12.19l15.36.37.08-3.12L5.58,3l10,.25Z" style="fill:#fff"/></symbol><symbol id="t" viewBox="0 0 15.69 13.31"><path d="M0,.89.33,6.55A10.52,10.52,0,0,0,.8,9.45a5.12,5.12,0,0,0,1.53,2.24A6.56,6.56,0,0,0,4.91,13a11.66,11.66,0,0,0,3.65.28,9.75,9.75,0,0,0,3.22-.66,6.65,6.65,0,0,0,2.63-1.78A5.49,5.49,0,0,0,15.5,8.58a9.1,9.1,0,0,0,.16-2.75L15.33,0ZM2.75,3.83l10.16-.58.14,2.31a8.92,8.92,0,0,1,0,1.88,2.84,2.84,0,0,1-.57,1.28,3.29,3.29,0,0,1-1.43.9,9.55,9.55,0,0,1-2.79.49,9.51,9.51,0,0,1-2.75-.17,3.41,3.41,0,0,1-1.54-.8,2.89,2.89,0,0,1-.8-1.37,15,15,0,0,1-.31-2.55Z" style="fill:#fff"/></symbol><symbol id="u" viewBox="0 0 15.61 4.84"><path d="M15.25,0,0,1.77.36,4.84,15.61,3.08Z" style="fill:#fff"/></symbol><symbol id="v" viewBox="0 0 16.73 15.17"><path d="M16.73,15.17l-.57-3.31-3.68-.74-1-6,3.22-1.84L14.09,0,0,8.52l.55,3.23Zm-7-4.56-6-1.13,5.27-3Z" style="fill:#fff"/></symbol><symbol id="w" viewBox="0 0 17.92 15.64"><path d="M14.88,0,0,3.84.77,6.77l11.5,3.5L2.33,12.84l.72,2.8L17.92,11.8l-.78-3L5.89,5.28l9.7-2.5Z" style="fill:#fff"/></symbol><symbol id="z" viewBox="0 0 15.44 8.47"><path d="M14.31,0,0,5.59,1.12,8.47,15.44,2.88Z" style="fill:#fff"/></symbol><symbol id="aa" viewBox="0 0 19.05 17.48"><path d="M14,0,0,6.41,1.25,9.14l12,1.44L3.86,14.86l1.22,2.62,14-6.4L17.73,8.23,6.05,6.78l9.11-4.17Z" style="fill:#fff"/></symbol><symbol id="ab" viewBox="0 0 16.17 14.57"><path d="M7.31.59l1.2,2.76A3.83,3.83,0,0,1,11,3.23a3.32,3.32,0,0,1,1.7,1.61,3.45,3.45,0,0,1,.55,2.28,1.88,1.88,0,0,1-.94,1.37,1.34,1.34,0,0,1-.95.18A2.6,2.6,0,0,1,10.26,8C10,7.78,9.38,7.17,8.48,6.2A8.47,8.47,0,0,0,5.43,3.88,4,4,0,0,0,2,4.15,4,4,0,0,0,.46,5.79,4.14,4.14,0,0,0,0,8.23a7.69,7.69,0,0,0,1,2.92,6.45,6.45,0,0,0,3.25,3.16A4.51,4.51,0,0,0,8,14L6.57,11.23a2.55,2.55,0,0,1-1.89.08,3.05,3.05,0,0,1-1.4-1.46,3.56,3.56,0,0,1-.57-2.12,1.14,1.14,0,0,1,.6-.89,1.16,1.16,0,0,1,1-.06,8.5,8.5,0,0,1,2.3,2,14.36,14.36,0,0,0,2.59,2.37,4.2,4.2,0,0,0,2.19.72,4.48,4.48,0,0,0,2.44-.66,4.53,4.53,0,0,0,1.79-1.84,4.34,4.34,0,0,0,.49-2.64A9.08,9.08,0,0,0,15,3.54,6.74,6.74,0,0,0,11.64.29,5.82,5.82,0,0,0,7.31.59Z" style="fill:#fff"/></symbol><symbol id="ac" viewBox="0 0 17.05 14.84"><path d="M15.33,0,4.66,7,2.16,3.2,0,4.62,6.72,14.84l2.16-1.42L6.38,9.61l10.67-7Z" style="fill:#fff"/></symbol><symbol id="ad" viewBox="0 0 14.22 11.56"><path d="M12.39,0,0,9.06l1.83,2.5L14.22,2.5Z" style="fill:#fff"/></symbol><symbol id="ae" viewBox="0 0 16.77 15.63"><path d="M14.8,0,4.88,8.05,2,4.52,0,6.14l7.7,9.48L9.7,14,6.84,10.47l9.93-8Z" style="fill:#fff"/></symbol><symbol id="af" viewBox="0 0 17.72 17.54"><path d="M0,8.65,2.12,10.9l6-5.7a21.74,21.74,0,0,1,1.95-1.71,2.46,2.46,0,0,1,1.75-.34,3.37,3.37,0,0,1,1.83,1.09,3.22,3.22,0,0,1,1,1.81,2.22,2.22,0,0,1-.41,1.5,15.68,15.68,0,0,1-1.8,1.91L6.28,15.29l2.13,2.25L14.27,12a21.47,21.47,0,0,0,2.65-2.88,4.23,4.23,0,0,0,.78-2A4.63,4.63,0,0,0,17.36,5a7.89,7.89,0,0,0-1.69-2.47A8.51,8.51,0,0,0,13,.41,4.87,4.87,0,0,0,10.81,0,4.1,4.1,0,0,0,9,.57,18.71,18.71,0,0,0,5.94,3Z" style="fill:#fff"/></symbol><symbol id="ag" viewBox="0 0 16.02 16.52"><path d="M13.72,0,5.14,9.45,1.75,6.38,0,8.3l9.05,8.22,1.75-1.93-3.36-3L16,2.09Z" style="fill:#fff"/></symbol><symbol id="ah" viewBox="0 0 18.66 19.11"><path d="M9.47,0,0,12.09l9,7,1.59-2.05L4,12,6.14,9.28,12.2,14l1.6-2L7.73,7.23,10.31,4l6.75,5.28,1.6-2Z" style="fill:#fff"/></symbol><symbol id="ak" viewBox="0 0 15.61 16.07"><path d="M1.39,4.26A10.05,10.05,0,0,0,0,8a7.3,7.3,0,0,0,.21,2.55,6,6,0,0,0,1,2.2,8.75,8.75,0,0,0,2.58,2.17,7.13,7.13,0,0,0,5.75.86,8.08,8.08,0,0,0,4.69-4.06,8,8,0,0,0,1.14-6.06,7.16,7.16,0,0,0-3.64-4.5A7.21,7.21,0,0,0,6,.26,8,8,0,0,0,1.39,4.26ZM4.1,5.93a5.64,5.64,0,0,1,3-2.82,3.92,3.92,0,0,1,3.33.36,3.86,3.86,0,0,1,2,2.67,5.84,5.84,0,0,1-.95,4.06,5.75,5.75,0,0,1-3,2.84,4,4,0,0,1-3.32-.4,4,4,0,0,1-2-2.69A5.87,5.87,0,0,1,4.1,5.93Z" style="fill:#fff"/></symbol><symbol id="al" viewBox="0 0 12.38 18.39"><path d="M6.56,0,0,13.89l9.53,4.5,1.11-2.34L3.92,12.88l1.55-3.3,5.8,2.73L12.38,10,6.58,7.23l2.8-5.9Z" style="fill:#fff"/></symbol><symbol id="ao" viewBox="0 0 7.86 15.55"><path d="M4.94,0,0,14.55l2.92,1L7.86,1Z" style="fill:#fff"/></symbol><symbol id="ap" viewBox="0 0 15.86 18.06"><path d="M4.11,0,0,14.8l2.91.81,8.81-8.22L9,17.28l2.78.78L15.86,3.27l-3-.85-8.62,8L6.89.77Z" style="fill:#fff"/></symbol><symbol id="aq" viewBox="0 0 11.06 17.09"><path d="M3,0,0,15.06l10.33,2,.5-2.54L3.55,13.11l.72-3.56,6.29,1.25.5-2.55L4.77,7,6,.59Z" style="fill:#fff"/></symbol><symbol id="ar" viewBox="0 0 14.95 15.92"><path d="M.09,7a9.9,9.9,0,0,0,.24,4,7.26,7.26,0,0,0,1.15,2.27,6,6,0,0,0,1.81,1.61,8.47,8.47,0,0,0,3.22,1,7.25,7.25,0,0,0,5.64-1.47,8.1,8.1,0,0,0,2.72-5.57,8.15,8.15,0,0,0-1.34-6A7.1,7.1,0,0,0,8.42.07,7.21,7.21,0,0,0,2.76,1.51,8,8,0,0,0,.09,7Zm3.14.48a5.84,5.84,0,0,1,1.66-3.8,3.92,3.92,0,0,1,3.2-1A3.84,3.84,0,0,1,11,4.4a5.84,5.84,0,0,1,.72,4.13,5.75,5.75,0,0,1-1.61,3.75,3.94,3.94,0,0,1-3.2.94,4,4,0,0,1-2.92-1.68A5.71,5.71,0,0,1,3.23,7.48Z" style="fill:#fff"/></symbol><symbol id="as" viewBox="0 0 14.27 15.57"><path d="M.48,0,0,15.34l6.52.21a11.13,11.13,0,0,0,3.59-.28,3.51,3.51,0,0,0,1.83-1.43,4.27,4.27,0,0,0,.73-2.39,4,4,0,0,0-.92-2.87,4.81,4.81,0,0,0-3-1.52,7.21,7.21,0,0,0,1.68-1.25,17.39,17.39,0,0,0,1.86-2.42l2-2.95L10.58.33,8.22,3.59A21,21,0,0,1,6.53,5.8a2.44,2.44,0,0,1-1,.61A5.5,5.5,0,0,1,4,6.53H3.38L3.58.11ZM3.3,9,5.59,9a12.53,12.53,0,0,1,2.79.28,1.7,1.7,0,0,1,.84.67,2.17,2.17,0,0,1,.28,1.18A1.86,1.86,0,0,1,9,12.39,1.81,1.81,0,0,1,7.86,13c-.25,0-1,0-2.27,0l-2.42-.06Z" style="fill:#fff"/></symbol><symbol id="at" viewBox="0 0 15.69 16.17"><path d="M0,.84.88,16.17l4.62-.26L7.7,5.28l3.35,10.31,4.64-.26L14.81,0,11.94.17l.68,12.08L8.89.34l-3,.18L3.58,12.77,2.89.69Z" style="fill:#fff"/></symbol><symbol id="au" viewBox="0 0 15.25 16.56"><path d="M15.25,0,11.91.48l-.83,3.66L5,5,3.27,1.75,0,2.23,8.16,16.56l3.25-.47ZM10.48,6.84,9.22,12.78,6.34,7.45Z" style="fill:#fff"/></symbol><symbol id="av" viewBox="0 0 12.5 16.64"><path d="M1.78.66,4.47,13.14,0,14.11l.55,2.53,12-2.58L12,11.53l-4.45,1L4.81,0Z" style="fill:#fff"/></symbol><symbol id="aw" viewBox="0 0 6.97 15.64"><path d="M0,.81,4,15.64l3-.81L3,0Z" style="fill:#fff"/></symbol><symbol id="ax" viewBox="0 0 15.28 16.05"><path d="M.56,10.26a9.83,9.83,0,0,0,1.92,3.52,6.82,6.82,0,0,0,2,1.54A5.78,5.78,0,0,0,6.81,16a8.6,8.6,0,0,0,3.34-.47,7.23,7.23,0,0,0,4.47-3.72,8,8,0,0,0,.09-6.2A8,8,0,0,0,11,.76,7.15,7.15,0,0,0,5.17.47,7.23,7.23,0,0,0,.65,4.17,7.91,7.91,0,0,0,.56,10.26Zm3.06-.89a5.77,5.77,0,0,1-.11-4.14A4,4,0,0,1,6,3a3.94,3.94,0,0,1,3.31.31,5.86,5.86,0,0,1,2.42,3.43,5.7,5.7,0,0,1,.13,4.09A3.93,3.93,0,0,1,9.32,13,3.92,3.92,0,0,1,6,12.75,5.7,5.7,0,0,1,3.62,9.37Z" style="fill:#fff"/></symbol><symbol id="ay" viewBox="0 0 17.28 18.94"><path d="M0,4.84l6.09,14.1,2.77-1.21,1.69-11.9,4.07,9.42,2.66-1.16L11.19,0,8.31,1.25,6.61,12.89l-4-9.19Z" style="fill:#fff"/></symbol><symbol id="bb" viewBox="0 0 14.53 17.11"><path d="M0,1.62,6.64,12.53,2.75,14.91l1.36,2.2,10.42-6.36-1.36-2.2L9.3,10.91,2.66,0Z" style="fill:#fff"/></symbol><symbol id="bc" viewBox="0 0 18.19 19.3"><path d="M0,6.78,8.91,19.3l9.28-6.61-1.5-2.13L9.94,15.38,8,12.61l6.28-4.49L12.73,6,6.45,10.5,4,7.09l7-5L9.52,0Z" style="fill:#fff"/></symbol><symbol id="bd" viewBox="0 0 15.34 15.52"><path d="M8.92,4.05,10.6,1.4A6.72,6.72,0,0,0,6.43,0a6.46,6.46,0,0,0-3.9,1.68A6.59,6.59,0,0,0,0,6.52a8,8,0,0,0,2.17,5.64,8.37,8.37,0,0,0,5.33,3.3,6.74,6.74,0,0,0,5.36-1.7,6.45,6.45,0,0,0,2.44-4.22,6.09,6.09,0,0,0-.61-3.18l-2.83,1.4a3.21,3.21,0,0,1,.34,2.17,3.27,3.27,0,0,1-1.15,1.87,3.57,3.57,0,0,1-2.92.85,6,6,0,0,1-3.36-2.36A6.51,6.51,0,0,1,2.92,6.44a3.41,3.41,0,0,1,1.29-2.7A3.1,3.1,0,0,1,6.34,3,4.76,4.76,0,0,1,8.92,4.05Z" style="fill:#fff"/></symbol><symbol id="be" viewBox="0 0 19.52 19.55"><path d="M0,8.62,10.8,19.55,13,17.38l-4.25-4.3L13.06,8.8l4.25,4.29,2.21-2.17L8.72,0,6.52,2.17,11.23,7,6.92,11.23,2.2,6.45Z" style="fill:#fff"/></symbol><symbol id="bf" viewBox="0 0 19.59 19.27"><path d="M0,9.27l11.66,10,2-2.3L9.94,5.52l7.78,6.68L19.59,10,7.94,0l-2,2.38L9.48,13.59,1.88,7.08Z" style="fill:#fff"/></symbol><symbol id="bg" viewBox="0 0 16.03 15.76"><path d="M3.61,13.87A9.8,9.8,0,0,0,7.2,15.6a6.9,6.9,0,0,0,2.56.08,6,6,0,0,0,2.28-.8,8.59,8.59,0,0,0,2.43-2.33A7.21,7.21,0,0,0,15.92,6.9a8.07,8.07,0,0,0-3.56-5.08A8,8,0,0,0,6.45.07,7.16,7.16,0,0,0,1.59,3.22,7.23,7.23,0,0,0,.11,8.88,7.94,7.94,0,0,0,3.61,13.87Zm1.93-2.52A5.75,5.75,0,0,1,3,8.07a4,4,0,0,1,.69-3.28A3.9,3.9,0,0,1,6.61,3.1a5.9,5.9,0,0,1,4,1.37,5.82,5.82,0,0,1,2.51,3.24A3.92,3.92,0,0,1,12.32,11a3.93,3.93,0,0,1-2.85,1.75A5.91,5.91,0,0,1,5.54,11.35Z" style="fill:#fff"/></symbol><symbol id="bh" viewBox="0 0 14.66 17.14"><path d="M0,9.23l13,7.91,1.63-2.66L3.84,7.92l4-6.58L5.61,0Z" style="fill:#fff"/></symbol><symbol id="bi" viewBox="0 0 16.05 15.53"><path d="M4.6,14.36a9.92,9.92,0,0,0,3.83,1.16A6.82,6.82,0,0,0,11,15.19a6.24,6.24,0,0,0,2.12-1.13,8.56,8.56,0,0,0,2.05-2.7,7.25,7.25,0,0,0,.55-5.8,8.07,8.07,0,0,0-4.3-4.45A8,8,0,0,0,5.25.3,7.14,7.14,0,0,0,1,4.17,7.29,7.29,0,0,0,.36,10,8,8,0,0,0,4.6,14.36Zm1.53-2.8a5.64,5.64,0,0,1-3-2.84,3.92,3.92,0,0,1,.18-3.34A3.82,3.82,0,0,1,5.88,3.27,5.81,5.81,0,0,1,10,4a5.73,5.73,0,0,1,3,2.81,4,4,0,0,1-.22,3.33,4,4,0,0,1-2.58,2.17A5.81,5.81,0,0,1,6.13,11.56Z" style="fill:#fff"/></symbol><symbol id="bj" viewBox="0 0 16.09 16.1"><path d="M6.13,7.5l2.42,1L11,2.27,5.32,0a8.67,8.67,0,0,0-2.6,2,10.29,10.29,0,0,0-2,3.21A8.32,8.32,0,0,0,.07,9.52a6.49,6.49,0,0,0,1.7,3.56,9.42,9.42,0,0,0,3.47,2.34,9,9,0,0,0,4.33.63,6.82,6.82,0,0,0,3.75-1.67,8.36,8.36,0,0,0,2.08-3.15,7.37,7.37,0,0,0,.51-4.59,5.36,5.36,0,0,0-2.3-3.14L11.93,6.16a3.2,3.2,0,0,1,1.2,1.78,3.68,3.68,0,0,1-.2,2.31,4.2,4.2,0,0,1-2.39,2.53,5.42,5.42,0,0,1-4-.28A6,6,0,0,1,3.18,9.84a4,4,0,0,1-.1-3.46A5.05,5.05,0,0,1,4.16,4.72,7.81,7.81,0,0,1,5.63,3.48l1.8.72Z" style="fill:#fff"/></symbol><symbol id="bk" viewBox="0 0 17.23 13.73"><path d="M0,3.89,6.19,5.78l6.86,8,1.06-3.48L9.36,5,16.2,3.41l1-3.41L7.06,2.8.91.92Z" style="fill:#fff"/></symbol><symbol id="bn" viewBox="0 0 17.28 16.06"><path d="M0,13.67l15.17,2.39.49-3L8.91,12l7.73-5.12.64-4.13-6.8,4.78L2.16,0,1.53,4,8,9.27,5.06,11.34.48,10.62Z" style="fill:#fff"/></symbol><symbol id="bo" viewBox="0 0 15.88 14.92"><path d="M7.31,14.88a9.63,9.63,0,0,0,4-.43,6.93,6.93,0,0,0,2.21-1.26A6,6,0,0,0,15,11.31a8.45,8.45,0,0,0,.83-3.26,7.22,7.22,0,0,0-1.71-5.56A8,8,0,0,0,8.47,0a8.11,8.11,0,0,0-6,1.61A7.11,7.11,0,0,0,0,6.86a7.16,7.16,0,0,0,1.69,5.59A7.94,7.94,0,0,0,7.31,14.88Zm.34-3.18a5.71,5.71,0,0,1-3.86-1.48,3.9,3.9,0,0,1-1.1-3.16A3.87,3.87,0,0,1,4.22,4.13a5.8,5.8,0,0,1,4.09-.89,5.72,5.72,0,0,1,3.83,1.43,4,4,0,0,1,1.09,3.16,4,4,0,0,1-1.54,3A5.73,5.73,0,0,1,7.65,11.7Z" style="fill:#fff"/></symbol><symbol id="bp" viewBox="0 0 15.42 12.25"><path d="M0,7.78,12.8,7.69l0,4.56,2.59,0L15.33,0l-2.6,0,0,4.55L0,4.67Z" style="fill:#fff"/></symbol><symbol id="bq" viewBox="0 0 16.02 15.36"><path d="M0,0,.25,3.36,3.81,4.44l.47,6.11L.91,12.08l.25,3.28L16,8.23,15.77,5ZM6.48,5.23l5.85,1.68L6.8,9.41Z" style="fill:#fff"/></symbol><symbol id="bu" viewBox="0 0 12.78 9.34"><path d="M12.78,3.17C11.61,2.8,10.34,2.31,9,1.72,7.35,1,6.12.45,5.28,0,4.86.62,4,1.7,2.78,3.2A36.62,36.62,0,0,1,0,6.22a10.11,10.11,0,0,1,1.41.45C2.35,7,3.46,7.48,4.73,8,5,8.16,6,8.59,7.52,9.34c.61-.87,1.51-2,2.7-3.43A27.89,27.89,0,0,1,12.78,3.17Z" style="fill:#fff"/></symbol><symbol id="by" viewBox="0 0 12.17 8.89"><path d="M12.17,2a37.45,37.45,0,0,1-4-.84C6.47.7,5.17.31,4.27,0c-.31.68-1,1.86-2,3.55A35.67,35.67,0,0,1,0,6.94c.42,0,.91.12,1.47.23,1,.21,2.14.49,3.48.85.32.08,1.3.37,3,.87.47-1,1.18-2.23,2.15-3.81A30.22,30.22,0,0,1,12.17,2Z" style="fill:#fff"/></symbol><symbol id="cc" viewBox="0 0 11.27 8.23"><path d="M11.27.77C10.05.77,8.68.7,7.17.55,5.43.36,4.09.18,3.16,0,3,.72,2.48,2,1.73,3.81A32.4,32.4,0,0,1,0,7.52a8.39,8.39,0,0,1,1.48,0c1,0,2.2.13,3.58.28.32,0,1.34.17,3.05.4.32-1,.84-2.37,1.55-4.09A29.74,29.74,0,0,1,11.27.77Z" style="fill:#fff"/></symbol></defs><circle cx="208.7" cy="208.09" r="206.93" style="fill:#fff"/><path d="M231.58,271.26a87.6,87.6,0,0,0,31,9.32,111.21,111.21,0,0,0,37-2.3c26.15-5.92,50.39-20.11,69.55-38.42,2.31-2.2,4.54-4.47,6.72-6.8,1.06-1.14,2.1-2.29,3.13-3.47l.39-.43.18-.22s.08-.14.08-.07v1.07l0,1.92q-.15,7.8-1,15.56a178.5,178.5,0,0,1-6.37,32,170.79,170.79,0,0,1-31.8,60.09,154.77,154.77,0,0,1-58.85,44.26A143.83,143.83,0,0,1,216.77,395a145.65,145.65,0,0,1-65.15-20A159.31,159.31,0,0,1,98,322.66a174.6,174.6,0,0,1-24.34-63.47c-.92-5.33-1.6-10.67-2-16.07-.22-2.62-.37-5.25-.47-7.88,0-1.3-.09-2.6-.11-3.9,0-.64,0-1.29,0-1.94v-.54s0,0,0,0l.1.11c.06.07.12.15.19.22l.77.88a162.68,162.68,0,0,0,29.63,26.19c21.74,14.91,48.16,25,75.11,24.92a93.51,93.51,0,0,0,33.76-6.11A78.44,78.44,0,0,0,236,259.3,77,77,0,0,0,253.38,235a90.33,90.33,0,0,0,7.91-32.49c1.48-25-6.21-50.05-18.56-71.26A154.89,154.89,0,0,0,232.55,116c-1.78-2.38-3.64-4.71-5.55-7l-1.45-1.7-.19-.21s-.06,0-.09,0l-.09.11-.37.42-.72.85c-1,1.13-1.9,2.28-2.83,3.43a153.5,153.5,0,0,0-19.57,31.31c-10.24,21.92-15.4,47.27-10.78,71.67a83.41,83.41,0,0,0,13,31.83,76.1,76.1,0,0,0,16,17c1,.76,2,1.5,3,2.22l1.55,1.06.39.26.1.07s0,.05-.06.07l-.21.13-.87.55c-1.15.71-2.33,1.4-3.52,2.05-.29.17-.59.33-.89.49l-.23.12s-.11-.07-.12-.09l-.12-.09-.5-.41c-.66-.55-1.32-1.09-2-1.65q-3.93-3.35-7.56-7a128.1,128.1,0,0,1-13.33-15.63,130.66,130.66,0,0,1-21.1-107.55,133.79,133.79,0,0,1,30.82-58.21A136.25,136.25,0,0,1,216.8,68.86c2-1.77,4.12-3.47,6.26-5.11l1.61-1.22.41-.31.2-.15.05,0s0,0,0,0l.1.08.82.6c1.08.81,2.14,1.63,3.2,2.47a133,133,0,0,1,22.61,22.93,134.49,134.49,0,0,1,16.63,28A130.59,130.59,0,0,1,118.27,295.91q-4.58-1.12-9.07-2.56l-2.22-.74-.28-.09s-.13-.09-.1,0,0,.09,0,.14l.2.53.4,1.08c.53,1.43,1.09,2.86,1.66,4.28a164.3,164.3,0,0,0,17.26,32.16c13,18.72,30,34.59,50.71,44.74a108.84,108.84,0,0,0,56.56,11.15,113.06,113.06,0,0,0,55.48-20c19-13.06,34.14-31.07,45-51.22a169.93,169.93,0,0,0,7.63-16.22q.86-2.07,1.65-4.17l.78-2.1.09-.26,0-.13s0,0,0,0l-.07,0-.54.18-1.09.37q-4.36,1.44-8.83,2.56a130.62,130.62,0,0,1-97.09-13.08c-3.18-1.81-6.26-3.75-9.27-5.82L226,276l-.28-.2s0,0,0-.05l.05,0,.11-.08.45-.32,1.77-1.31c1.17-.88,2.33-1.77,3.47-2.69" transform="translate(-16.82 -19.89)" style="fill:#f60"/><path d="M133.29,163.71a4.71,4.71,0,0,0-1,.12,1,1,0,0,1-1.13-.54,6.78,6.78,0,0,0-12.65,1.44,1,1,0,0,1-1.13.78c-.27,0-.39,0-.5,0a3.88,3.88,0,0,0-3.87,3.87,3.78,3.78,0,0,0,3.83,3.82h16.47a4.73,4.73,0,0,0,0-9.45" transform="translate(-16.82 -19.89)" style="fill:#0a3f6c"/><path d="M133.25,175.23H116.86a5.9,5.9,0,0,1-.12-11.79,8.79,8.79,0,0,1,15.81-1.67,6.75,6.75,0,1,1,.7,13.46m-7.77-24.95a18,18,0,1,0,18,18,18,18,0,0,0-18-18" transform="translate(-16.82 -19.89)" style="fill:#0a3f6c"/><path d="M114.41,130.7a1.11,1.11,0,0,1-.74.31,1,1,0,0,1-.44-.06.85.85,0,0,1-.31-.21,1.75,1.75,0,0,1-.29-.41l-.26-.49-.57-1.17-4.32.21-.45,1.24a3.87,3.87,0,0,1-.47,1,.84.84,0,0,1-.67.28,1,1,0,0,1-.73-.23.78.78,0,0,1-.35-.58,1.2,1.2,0,0,1,.06-.41,5.56,5.56,0,0,1,.21-.58l2.43-6.28c.06-.18.15-.39.25-.64a2.94,2.94,0,0,1,.31-.64,1.47,1.47,0,0,1,.47-.42,1.89,1.89,0,0,1,1.5-.07,1.34,1.34,0,0,1,.5.37,2,2,0,0,1,.34.49l.36.72,3.07,6a2.63,2.63,0,0,1,.37,1,.79.79,0,0,1-.27.62m-3.62-22a4,4,0,0,0-3.83,4.24,1.23,1.23,0,0,0,0,.2.65.65,0,0,1,0,.24,3.91,3.91,0,0,0,1.61,2.46,9.25,9.25,0,0,0-.72.94,5.12,5.12,0,0,1-2-3,3.93,3.93,0,0,0-1-.1,4.06,4.06,0,0,0-1.69,7.63l0,0a5,5,0,0,1,2.31.93c-.12.43-.22.86-.31,1.29a3.86,3.86,0,0,0-2.88-1.1,3.82,3.82,0,0,0-1.43.36,4.06,4.06,0,0,0,2,7.69l.32,0a.59.59,0,0,1,.42,1.06,4,4,0,0,0-1.74,3.42.8.8,0,0,1,0,.15,3.88,3.88,0,0,0,7.35,1.56c.27.35.54.69.8,1a5,5,0,0,1-1.58,1.58l-.07.25a1.29,1.29,0,0,0-.07.54,4,4,0,1,0,8-.39L115,112.89a4.34,4.34,0,0,0-4.23-4.2" transform="translate(-16.82 -19.89)" style="fill:#0a3f6c"/><path d="M127,128.25a.72.72,0,0,1,.63.27,1.34,1.34,0,0,1,.23.76,1.32,1.32,0,0,1-.16.8.68.68,0,0,1-.59.33l-5.16.25a.68.68,0,0,1-.62-.28,1.28,1.28,0,0,1-.24-.77,1.37,1.37,0,0,1,.16-.78.68.68,0,0,1,.59-.33l1.5-.07-.26-5.55-1.5.07a.7.7,0,0,1-.63-.27,1.36,1.36,0,0,1-.23-.78,1.33,1.33,0,0,1,.16-.77.68.68,0,0,1,.59-.33l5.17-.25a.67.67,0,0,1,.61.27,1.27,1.27,0,0,1,.24.76,1.42,1.42,0,0,1-.16.8.66.66,0,0,1-.59.33l-1.5.07.26,5.54Zm-1.09-12.34a11.63,11.63,0,0,0-.8-.87,3.93,3.93,0,0,0,1.36-2.6,1,1,0,0,1,0-.24V112a4.06,4.06,0,0,0-4.21-3.86,4.35,4.35,0,0,0-3.82,4.59l1.28,26.68a4,4,0,1,0,8-.38,1.19,1.19,0,0,0-.11-.53l-.1-.24a5.28,5.28,0,0,1-1.73-1.42c.24-.32.47-.68.71-1.05a3.87,3.87,0,0,0,7.16-2.27.7.7,0,0,1,0-.14,4,4,0,0,0-2.07-3.24.59.59,0,0,1-.27-.67.59.59,0,0,1,.59-.43,1.71,1.71,0,0,0,.32,0,4.06,4.06,0,0,0,1.22-7.84,3.82,3.82,0,0,0-4.23,1.16c-.12-.42-.26-.84-.41-1.26A5,5,0,0,1,131,120l0,0a4,4,0,0,0,1.81-3.57,4,4,0,0,0-4.21-3.86,3.93,3.93,0,0,0-1,.2,5.1,5.1,0,0,1-1.74,3.23" transform="translate(-16.82 -19.89)" style="fill:#0a3f6c"/><path d="M134,116.28a5.16,5.16,0,0,1-1.16,3.55,4.93,4.93,0,0,1,.95.26,5.09,5.09,0,0,1,3.42,4.56h0v.09a5.23,5.23,0,0,1-3.85,5.29,5.24,5.24,0,0,1-3.5,8.87,5.65,5.65,0,0,1-1,0s0,.07,0,.11a5.22,5.22,0,1,1-10.43.5l-1.28-26.68a5.54,5.54,0,0,1,5-5.81,1,1,0,0,1,.17,0l0,0a5.09,5.09,0,0,1,5.28,4.49,4.45,4.45,0,0,1,1-.14,5.22,5.22,0,0,1,5.46,5m-16.53,23.24a5.22,5.22,0,1,1-10.43.5c0-.05,0-.08,0-.12a4.73,4.73,0,0,1-1,.14,5.23,5.23,0,0,1-4.32-8.49,5.22,5.22,0,0,1-4.35-4.9v-.1a5.07,5.07,0,0,1,3-4.86,6.12,6.12,0,0,1,.93-.35,5.13,5.13,0,0,1-1.5-3.42,5.23,5.23,0,0,1,5-5.47,4.42,4.42,0,0,1,1,0,5.09,5.09,0,0,1,4.83-5h0l.17,0a5.54,5.54,0,0,1,5.48,5.32Zm-1.19-35.7a21.92,21.92,0,1,0,22.94,20.85,21.92,21.92,0,0,0-22.94-20.85" transform="translate(-16.82 -19.89)" style="fill:#0a3f6c"/><path d="M108,127.41l3.18-.15-1.79-3.83Z" transform="translate(-16.82 -19.89)" style="fill:#0a3f6c"/><path d="M149.31,200.16a.88.88,0,0,1,.61.25.86.86,0,0,1,.26.63,2.66,2.66,0,0,1-.23,1,3.88,3.88,0,0,1-2,1.95,4.8,4.8,0,0,1-1.81.32h-.26l-.25.26a24.69,24.69,0,0,1-9.13,6,10.67,10.67,0,0,1-1.63-.7c3.06-.26,6.95-2.26,10.34-5.62l-.49-.08a3.92,3.92,0,0,1-2.12-1.29,4.51,4.51,0,0,1-.67-1,5.76,5.76,0,0,1-.42-1.23,6.91,6.91,0,0,1-.13-1.39,6.2,6.2,0,0,1,.34-2.14,4.72,4.72,0,0,1,1-1.61,4.21,4.21,0,0,1,1.51-1,4.81,4.81,0,0,1,1.86-.35,4.7,4.7,0,0,1,2.13.47,3.84,3.84,0,0,1,1.44,1.19,2.36,2.36,0,0,1,.49,1.24,12.86,12.86,0,0,0,.7-2.43,10.64,10.64,0,0,1,.57,1.45,21.07,21.07,0,0,1-2.18,4.15l.08,0m-18.51,8.53a4.79,4.79,0,0,1-1.23-3.7,12.08,12.08,0,0,0,4.61,4.92,4.64,4.64,0,0,1-3.38-1.22m-.11-11.59a4.57,4.57,0,0,1,.95-1.62,4.12,4.12,0,0,1,1.51-1,5.32,5.32,0,0,1,2-.35,5.23,5.23,0,0,1,2.64.62,4,4,0,0,1,1.67,1.77,6,6,0,0,1,.56,2.7,5.27,5.27,0,0,1-1.27,3.73,10.59,10.59,0,0,0,1,.57,3.52,3.52,0,0,1,.68.45.59.59,0,0,1,.17.47.7.7,0,0,1-.68.65,1.38,1.38,0,0,1-.55-.15,5.79,5.79,0,0,1-.77-.43c-.29-.19-.62-.41-1-.67a5.13,5.13,0,0,1-2.4.5,5.62,5.62,0,0,1-2.07-.36,4.16,4.16,0,0,1-1.53-1.06,4.64,4.64,0,0,1-.93-1.64,6.6,6.6,0,0,1-.32-2.07,6.32,6.32,0,0,1,.33-2.09M148,188.75s0,.07,0,.11a2.41,2.41,0,0,0,2.41,2.42,1.75,1.75,0,0,0,.24,0,6.37,6.37,0,0,1,.24,2.8,12,12,0,0,0-5.8-5.43,6.84,6.84,0,0,1,2.92.13m4.08,1.84a2.38,2.38,0,0,0,.74-1.73,2.41,2.41,0,0,0-4.25-1.56,10.15,10.15,0,0,0-5.08.75,12,12,0,0,0-15.24,11.54,12.15,12.15,0,0,0,.56,3.64c-.89,2.82-.75,5.28.69,6.72s3.7,1.58,6.38.8a12,12,0,0,0,16.36-11.16,12.11,12.11,0,0,0-.7-4,9.5,9.5,0,0,0,.54-5" transform="translate(-16.82 -19.89)" style="fill:#0a3f6c"/><path d="M135.2,202.73a2.74,2.74,0,0,0,1-.21,5.88,5.88,0,0,0-.79-.47,6.52,6.52,0,0,1-.65-.36.43.43,0,0,1-.17-.37.46.46,0,0,1,.16-.35.53.53,0,0,1,.37-.16,4.52,4.52,0,0,1,2.06,1,3.15,3.15,0,0,0,.62-1.14,5.26,5.26,0,0,0,.2-1.51,4.5,4.5,0,0,0-.36-1.88,2.49,2.49,0,0,0-1-1.2,2.67,2.67,0,0,0-1.49-.41,2.72,2.72,0,0,0-1.11.22,2.34,2.34,0,0,0-.87.66,3,3,0,0,0-.58,1.1,4.75,4.75,0,0,0-.22,1.51,3.89,3.89,0,0,0,.8,2.62,2.52,2.52,0,0,0,2,.92" transform="translate(-16.82 -19.89)" style="fill:#0a3f6c"/><path d="M148.74,197.79a2.7,2.7,0,0,1-.42-.63,3,3,0,0,0-.93-1.1,2.24,2.24,0,0,0-1.3-.36,2.39,2.39,0,0,0-2,.93,4.31,4.31,0,0,0-.73,2.67,4.85,4.85,0,0,0,.33,1.91,2.38,2.38,0,0,0,.92,1.15,2.5,2.5,0,0,0,1.38.37,3.22,3.22,0,0,0,.64-.07,21.14,21.14,0,0,0,3.15-4.89.74.74,0,0,1-.49.2.82.82,0,0,1-.58-.18" transform="translate(-16.82 -19.89)" style="fill:#0a3f6c"/><path d="M149.91,197.7a.85.85,0,0,0,.24-.6s0-.06,0-.09c-.1.25-.21.51-.33.76l.1-.07" transform="translate(-16.82 -19.89)" style="fill:#0a3f6c"/><path d="M322.75,171.55c1.85,3,5,2.93,7.66,2.06,6.21-2.07,7.21-10.42,2.55-13.91a8.72,8.72,0,0,0-5.8-2,11.68,11.68,0,0,0-11.29,11.61,9.65,9.65,0,0,0,3.12,7.44,10.47,10.47,0,0,0,7.36,2.65,13.3,13.3,0,0,0,3.3-.47,12.62,12.62,0,0,0,4.71-2.28l.6.94a14.29,14.29,0,0,1-4.48,2.14,18,18,0,0,1-4.59.55,12.42,12.42,0,0,1-8.58-3.12,10,10,0,0,1-3.63-7.77,11.62,11.62,0,0,1,3.89-8.88,13.36,13.36,0,0,1,9.43-3.69,9.86,9.86,0,0,1,6.84,2.36,9.12,9.12,0,0,1,2.5,3.33,10,10,0,0,1-5.25,12.58c-3.62,1.41-8.52,1.26-10.38-2.56a8.26,8.26,0,0,1-.39-5.51c1.09-4.18,4.63-6.29,8-5.09a5.4,5.4,0,0,1,2.57,2,7.44,7.44,0,0,1,.91,4.57l-9.86.07a5,5,0,0,0,.84,2.93m2.13-20.6A17.66,17.66,0,1,0,343,168.12,17.65,17.65,0,0,0,324.88,151" transform="translate(-16.82 -19.89)" style="fill:#0a3f6c"/><path d="M329.13,164.52a2.42,2.42,0,0,0-1.38-1.41c-2.82-1.07-5.18,2.23-5.59,4.37l7.42-.06a7.47,7.47,0,0,0-.45-2.9" transform="translate(-16.82 -19.89)" style="fill:#0a3f6c"/><path d="M318.34,132.56a.67.67,0,0,0-.49-.18.62.62,0,0,0-.62.41,3.22,3.22,0,0,0-.17,1.27,4.88,4.88,0,0,0,.08.95,1.16,1.16,0,0,0,.25.56.71.71,0,0,0,1,0,1.26,1.26,0,0,0,.24-.56,6.11,6.11,0,0,0,.07-1,5.31,5.31,0,0,0-.08-.92,1.22,1.22,0,0,0-.25-.55" transform="translate(-16.82 -19.89)" style="fill:#0a3f6c"/><path d="M343.07,132.46a.6.6,0,0,0-.48-.18.61.61,0,0,0-.62.41,3.33,3.33,0,0,0-.17,1.26,4.2,4.2,0,0,0,.08,1,1.16,1.16,0,0,0,.25.56.61.61,0,0,0,.48.18.63.63,0,0,0,.49-.19,1.36,1.36,0,0,0,.24-.57,5,5,0,0,0,.07-1,4.55,4.55,0,0,0-.08-.92,1,1,0,0,0-.26-.54" transform="translate(-16.82 -19.89)" style="fill:#0a3f6c"/><path d="M334.83,132.49a.66.66,0,0,0-.49-.18.63.63,0,0,0-.62.41,3.64,3.64,0,0,0-.17,1.27,5,5,0,0,0,.08.95,1.17,1.17,0,0,0,.25.55.62.62,0,0,0,.48.19.63.63,0,0,0,.49-.2,1.16,1.16,0,0,0,.24-.56,5.14,5.14,0,0,0,.07-1,4.44,4.44,0,0,0-.08-.91,1,1,0,0,0-.25-.55" transform="translate(-16.82 -19.89)" style="fill:#0a3f6c"/><path d="M326.58,132.53a.62.62,0,0,0-.49-.18.63.63,0,0,0-.62.41,3.54,3.54,0,0,0-.17,1.26,4.88,4.88,0,0,0,.08.95,1.17,1.17,0,0,0,.26.56.55.55,0,0,0,.47.18.63.63,0,0,0,.49-.19,1.16,1.16,0,0,0,.25-.57,6.1,6.1,0,0,0,.06-1,4.65,4.65,0,0,0-.07-.92,1.05,1.05,0,0,0-.26-.54" transform="translate(-16.82 -19.89)" style="fill:#0a3f6c"/><path d="M322,125.35h3.28c2.06,0,3.08-.76,3.08-2.24a1.82,1.82,0,0,0-.81-1.65,4.46,4.46,0,0,0-2.39-.5h-3.18Z" transform="translate(-16.82 -19.89)" style="fill:#0a3f6c"/><path d="M341.51,124.89a2.62,2.62,0,0,0,.8-.46c1-.87,1.52-2.36,1.51-4.47a6.59,6.59,0,0,0-.69-3.33,3,3,0,0,0-1.66-1.41,8.31,8.31,0,0,0-2.39-.29h-2l.05,10.22,2.31,0c.5,0,.9,0,1.19,0a3.81,3.81,0,0,0,.89-.21" transform="translate(-16.82 -19.89)" style="fill:#0a3f6c"/><path d="M326.48,118.54a1.69,1.69,0,0,0,.94-.83,1.84,1.84,0,0,0,.26-1,1.53,1.53,0,0,0-.82-1.52,6.45,6.45,0,0,0-2.48-.36h-2.47v3.89h2.79a5.75,5.75,0,0,0,1.77-.22" transform="translate(-16.82 -19.89)" style="fill:#0a3f6c"/><path d="M347.09,136.26a.45.45,0,0,1-.33-.13.46.46,0,0,1-.13-.37V133a2.84,2.84,0,0,1-1.16.6.36.36,0,0,1-.25-.1.34.34,0,0,1-.11-.24.25.25,0,0,1,.11-.23,2.59,2.59,0,0,1,.38-.19,2.94,2.94,0,0,0,.65-.37,2.62,2.62,0,0,0,.44-.44,2,2,0,0,1,.24-.29.3.3,0,0,1,.22-.06.37.37,0,0,1,.29.12.52.52,0,0,1,.11.35v3.53c0,.41-.15.62-.46.62m-3.7-9.3a6.49,6.49,0,0,1-1.55.47,12.83,12.83,0,0,1-1.86.14h-4a2.52,2.52,0,0,1-1.26-.24,1.18,1.18,0,0,1-.55-.71,4.27,4.27,0,0,1-.13-1.18l-.05-11a1.61,1.61,0,0,1,1.86-1.88h4a10.47,10.47,0,0,1,2.66.27,5,5,0,0,1,2,1.07c1.58,1.34,2.37,3.37,2.38,6.11a12,12,0,0,1-.23,2.48,6.94,6.94,0,0,1-.72,2,6.12,6.12,0,0,1-1.25,1.62,6,6,0,0,1-1.32.88m.88,7.89a1.88,1.88,0,0,1-.25.66,1.58,1.58,0,0,1-.59.56,1.68,1.68,0,0,1-.81.2,1.58,1.58,0,0,1-.92-.26,1.61,1.61,0,0,1-.63-.73,2.38,2.38,0,0,1-.15-.57,3.45,3.45,0,0,1-.05-.67,5.29,5.29,0,0,1,.05-.83,2.21,2.21,0,0,1,.17-.64,1.37,1.37,0,0,1,.57-.68,1.67,1.67,0,0,1,.91-.24,1.87,1.87,0,0,1,.64.1,1.71,1.71,0,0,1,.5.3,1.68,1.68,0,0,1,.36.49,3.26,3.26,0,0,1,.27,1.44,4.37,4.37,0,0,1-.07.87m-5,.82c0,.42-.15.62-.46.62a.46.46,0,0,1-.33-.12.52.52,0,0,1-.13-.37V133a2.92,2.92,0,0,1-1.16.61.36.36,0,0,1-.25-.1.34.34,0,0,1-.11-.24A.26.26,0,0,1,337,133a1.86,1.86,0,0,1,.38-.19,3.86,3.86,0,0,0,.66-.38,2.91,2.91,0,0,0,.43-.43,2.14,2.14,0,0,1,.25-.3.28.28,0,0,1,.21-.06.35.35,0,0,1,.29.13.51.51,0,0,1,.11.34Zm-3.27-.79a2.1,2.1,0,0,1-.25.66,1.64,1.64,0,0,1-.6.57,1.67,1.67,0,0,1-.81.19,1.61,1.61,0,0,1-.92-.25,1.69,1.69,0,0,1-.62-.73,3.16,3.16,0,0,1-.16-.57,4.68,4.68,0,0,1-.05-.67,7,7,0,0,1,.05-.84,2.58,2.58,0,0,1,.17-.64,1.48,1.48,0,0,1,.57-.68,1.78,1.78,0,0,1,.91-.23,1.87,1.87,0,0,1,.64.1,1.34,1.34,0,0,1,.5.3,1.52,1.52,0,0,1,.36.49,3.05,3.05,0,0,1,.27,1.43,5.39,5.39,0,0,1-.06.87m-5.27-9.29a3.9,3.9,0,0,1-1.74,1.5,6.2,6.2,0,0,1-1.57.41,17.84,17.84,0,0,1-2.09.13l-4.6,0a1.91,1.91,0,0,1-1.42-.44,2,2,0,0,1-.44-1.42l0-11.32a1.93,1.93,0,0,1,.43-1.43,1.9,1.9,0,0,1,1.41-.44l4.87,0a11.33,11.33,0,0,1,1.87.13,4.07,4.07,0,0,1,1.42.51,3.64,3.64,0,0,1,.95.8,3.78,3.78,0,0,1,.63,1.08,3.41,3.41,0,0,1,.22,1.24,3.45,3.45,0,0,1-2.25,3.32c2,.62,3,1.84,3,3.66a4.17,4.17,0,0,1-.64,2.28m.3,10.12c0,.41-.15.62-.46.62a.45.45,0,0,1-.34-.13.5.5,0,0,1-.12-.37l0-2.8a2.83,2.83,0,0,1-1.15.6.39.39,0,0,1-.26-.1.33.33,0,0,1-.1-.24.26.26,0,0,1,.1-.23l.38-.19a2.82,2.82,0,0,0,.66-.37,3,3,0,0,0,.43-.44,2.65,2.65,0,0,1,.25-.29.28.28,0,0,1,.21-.06.37.37,0,0,1,.29.12.49.49,0,0,1,.11.35Zm-3.28-.79a2.1,2.1,0,0,1-.25.66,1.58,1.58,0,0,1-.59.56,1.72,1.72,0,0,1-.82.2,1.62,1.62,0,0,1-.92-.26,1.65,1.65,0,0,1-.62-.73,2.42,2.42,0,0,1-.15-.56,4.63,4.63,0,0,1-.06-.67,6.9,6.9,0,0,1,.05-.84,3.11,3.11,0,0,1,.17-.64,1.39,1.39,0,0,1,.58-.68,1.65,1.65,0,0,1,.91-.24,1.81,1.81,0,0,1,.63.1,1.48,1.48,0,0,1,.5.3,1.67,1.67,0,0,1,.37.49,3.28,3.28,0,0,1,.26,1.44,5.39,5.39,0,0,1-.06.87m-5,.82c0,.42-.15.62-.46.62a.45.45,0,0,1-.33-.12.48.48,0,0,1-.13-.37v-2.8a3.06,3.06,0,0,1-1.16.6.33.33,0,0,1-.25-.1.3.3,0,0,1-.11-.24.25.25,0,0,1,.1-.23,2,2,0,0,1,.39-.19,2.93,2.93,0,0,0,.65-.38,2.24,2.24,0,0,0,.43-.44l.25-.29a.36.36,0,0,1,.22-.06.39.39,0,0,1,.29.13.51.51,0,0,1,.11.34Zm-3.28-.79a1.8,1.8,0,0,1-.24.66,1.72,1.72,0,0,1-.6.57,1.8,1.8,0,0,1-.81.2,1.76,1.76,0,0,1-.93-.26,1.62,1.62,0,0,1-.61-.73,2.09,2.09,0,0,1-.16-.57,4.51,4.51,0,0,1-.06-.67,5.35,5.35,0,0,1,.06-.84,2.72,2.72,0,0,1,.16-.64,1.56,1.56,0,0,1,.58-.68,1.78,1.78,0,0,1,.91-.23,1.81,1.81,0,0,1,.63.1,1.39,1.39,0,0,1,.5.3,1.54,1.54,0,0,1,.37.49,3.22,3.22,0,0,1,.26,1.44,4.4,4.4,0,0,1-.06.86m12.18-32A22.17,22.17,0,1,0,354,125a22.15,22.15,0,0,0-22.26-22.07" transform="translate(-16.82 -19.89)" style="fill:#0a3f6c"/><path d="M327.6,214.68c-1.06-.61-3.56,1-4.05,2.39a10.39,10.39,0,0,1-.73,2.93c-1.4,2.79-4.16,6.5-5.3,6.58-1.62.12-3.74.62-3.7-1.21s1.73-2,2-6.8c0-2.63-1.85-3.9-4.07-3.9a3.67,3.67,0,0,0-4,3.9c.16,4.64,2.15,5.63,2.08,6.68s-.62,1.86-2.92,1.33c-1.71-.39-4.3-4.7-5.49-7.33a9.48,9.48,0,0,1-.53-2.18c-.49-1.35-3-3.38-4.05-2.77s-.3,3.65.19,5c.15.41,2.18,1.77,2.36,2.22,1.62,4.07,3.26,4.79,4.94,10.75l2,12.45.61,1a3.77,3.77,0,0,0-1.17,2.84v3.51l.92,22.64a1.23,1.23,0,0,0,.57,1,1.68,1.68,0,0,0-.62,1.28c0,.51.36.46.88.46h2.08c.51,0,.93.1.93-.41v-.2a1.37,1.37,0,0,0-.61-1.09,1.14,1.14,0,0,0,.71-1.07l1.56-21.21,1.56,21.21a1.23,1.23,0,0,0,.58,1,1.75,1.75,0,0,0-.59,1.27c0,.51.36.46.87.46h2.09c.51,0,.92.1.92-.41v-.2a1.34,1.34,0,0,0-.62-1.09,1.17,1.17,0,0,0,.69-1.08l.91-22.63s0-.83.09-3a6.08,6.08,0,0,0-1-3.57l.65-1,1.36-11.63c1.34-4.34,3.66-7.16,5.3-11.2.23-.56,2.23-1.92,2.41-2.41.48-1.35,1.25-4,.19-4.62" transform="translate(-16.82 -19.89)" style="fill:#0a3f6c"/><path d="M156.23,214.53c-1.09-.49-3.3,1.54-3.69,2.93a11.72,11.72,0,0,1-.07,2.91c-1.14,2.27-4.58,6.08-5.86,6.42-1.58.42-2,.18-3.09-1.61.37-1.88,1.18-1.7,1.32-4.14.18-3.4-1.69-6-3.9-6s-3.83,2.5-3.78,6.13c0,2.13,1.47,3,1.17,4.29-.87,1-.61,1.33-2.1,1.33-2-.39-5.16-4.68-6-6.7a14.31,14.31,0,0,1,.07-2.63c-.39-1.39-2.37-3.34-3.46-2.85s-.89,3.25-.5,4.63c.08.3,1.81,1.48,1.91,1.79,1.4,4.34,6.79,10.65,7.11,12.44,0,0,1.12,1.44.95,4.68-.06,1.09-1.54,3-1.84,4.6-1.2,6.24-3.47,22.09-3.47,22.09-.18.57.07,1,.56,1h3.94l.67,8.76a1.2,1.2,0,0,0,.61,1.05,1.92,1.92,0,0,0-.4,1.08c0,.51.36.46.86.46h2.08c.5,0,.91.1.91-.41v-.2a1.35,1.35,0,0,0-.57-1.05,1.2,1.2,0,0,0,.46-.93l1.4-8.86.66,8.76a5.59,5.59,0,0,0,.86,1,1.68,1.68,0,0,0-.62,1.28c0,.51.36.46.86.46h2.08c.5,0,.91.1.91-.41v-.2a1.54,1.54,0,0,0-.38-.89,1.13,1.13,0,0,0,.78-1.09l.78-8.76h3.94c.49,0,.74-.46.56-1,0,0-2.8-16.54-3.7-21.95-.24-1.44-2.09-3.57-2.12-4.66a7.6,7.6,0,0,1,1.34-4.76c.76-3.49,6.07-8.36,7.45-12.72.08-.25,1.52-1.27,1.58-1.51.39-1.38.83-4.21-.27-4.71" transform="translate(-16.82 -19.89)" style="fill:#0a3f6c"/><path d="M322.15,208.82a4.54,4.54,0,0,1-3.33,1.2l.28-.19a12,12,0,0,0,4.24-4.16,4.52,4.52,0,0,1-1.19,3.15m-8.66-9.24a5.89,5.89,0,0,1,.58-2.72,4.25,4.25,0,0,1,1.72-1.84,5.83,5.83,0,0,1,4.48-.38,4.35,4.35,0,0,1,1.37.73,3.35,3.35,0,0,1,.87.95,1.9,1.9,0,0,1,.3,1,1,1,0,0,1-.33.76,1.18,1.18,0,0,1-.81.32.87.87,0,0,1-.52-.16,2.82,2.82,0,0,1-.46-.52,3.92,3.92,0,0,0-1-1,2.22,2.22,0,0,0-1.28-.34,2.14,2.14,0,0,0-1.78.87,3.77,3.77,0,0,0-.67,2.37,4.49,4.49,0,0,0,.18,1.3,2.91,2.91,0,0,0,.51,1,2.19,2.19,0,0,0,.8.62,2.32,2.32,0,0,0,1,.22,2.22,2.22,0,0,0,1.28-.36,3.1,3.1,0,0,0,.95-1.06,2.28,2.28,0,0,1,.49-.67,1,1,0,0,1,1.41.11,1.08,1.08,0,0,1,.31.74,2.11,2.11,0,0,1-.28,1,3.42,3.42,0,0,1-.85,1,4.48,4.48,0,0,1-1.44.78,6.25,6.25,0,0,1-2,.3,4.82,4.82,0,0,1-3.63-1.34,5,5,0,0,1-1.31-3.62m-2.12,3.51a3.14,3.14,0,0,1-1.49,1.12,7,7,0,0,1-2.4.39,6,6,0,0,1-2.31-.4,3.4,3.4,0,0,1-1.42-1,2.05,2.05,0,0,1-.46-1.24.94.94,0,0,1,.28-.71,1,1,0,0,1,.75-.29.9.9,0,0,1,.6.18,2.12,2.12,0,0,1,.41.55,2.76,2.76,0,0,0,.92,1,2.79,2.79,0,0,0,1.46.33,2.22,2.22,0,0,0,1.24-.34,1,1,0,0,0,.48-.77,1,1,0,0,0-.51-1,6.12,6.12,0,0,0-1.64-.57,14.79,14.79,0,0,1-2.11-.67,3.43,3.43,0,0,1-1.3-.92,2.12,2.12,0,0,1-.49-1.43,2.5,2.5,0,0,1,.44-1.42,3.17,3.17,0,0,1,1.32-1.07,5.15,5.15,0,0,1,2.11-.41,6.74,6.74,0,0,1,1.75.2,4.46,4.46,0,0,1,1.3.53,2.86,2.86,0,0,1,.79.75,1.5,1.5,0,0,1,.27.81.89.89,0,0,1-.29.7,1.15,1.15,0,0,1-.82.29,1,1,0,0,1-.65-.22,4.55,4.55,0,0,1-.62-.66,2.25,2.25,0,0,0-.68-.59,2.15,2.15,0,0,0-1-.21,2.06,2.06,0,0,0-1.13.29.84.84,0,0,0-.44.72.78.78,0,0,0,.33.65,3,3,0,0,0,.89.41c.37.11.89.24,1.54.4a8.56,8.56,0,0,1,1.91.67,3.19,3.19,0,0,1,1.12.93,2.06,2.06,0,0,1,.38,1.22,3.07,3.07,0,0,1-.49,1.78m-8.78-11.43.23,0a2.38,2.38,0,0,0,2.38-2.38s0-.07,0-.1a6,6,0,0,1,2.16-.21,12,12,0,0,0-5,5.29,6,6,0,0,1,.24-2.62m22.49,7.77a12,12,0,0,0-16.15-11.15,9.5,9.5,0,0,0-4.3-.51,2.38,2.38,0,1,0-3.46,3.24,9.18,9.18,0,0,0,.53,4.88,11.84,11.84,0,0,0-.55,3.64,12,12,0,0,0,12,11.92,12.14,12.14,0,0,0,4.11-.76l-.16.17c2.64.76,4.93.57,6.29-.79s1.52-3.56.81-6.12a11.93,11.93,0,0,0,.87-4.52" transform="translate(-16.82 -19.89)" style="fill:#0a3f6c"/><path d="M293.71,354.47a7.83,7.83,0,0,1-3.17.72c0-.07-.08.37-.29.51s-.42,0-.62,0a17.71,17.71,0,0,0-2.51-.21,19.32,19.32,0,0,1-2.07.15c-.56-.08-1.37,0-1.37-.48s1-1,1.28-1a27.63,27.63,0,0,1,3-.44,12.75,12.75,0,0,0,2.35-.73,16.13,16.13,0,0,0,3.45-2.21,13.62,13.62,0,0,0,2.43-3.23,3.79,3.79,0,0,0,.29-.65,13.87,13.87,0,0,0-.25,1.76c-.2,2.48-1.1,5.07-2.53,5.83m-10.82,1.24c-.48.61-.63.76-.63.76a17.32,17.32,0,0,1-.34-4.5,8.18,8.18,0,0,1,1.29-2.6v0l.2-.22.39-.36h0l0,0a.39.39,0,0,1,.29-.13c.43,0,.79.86.85,2-.09.22-.17.43-.25.66a12.92,12.92,0,0,0-.88,2.13,7.78,7.78,0,0,1-.94,2.28m3.6,1.91-4.2.64-.08-.85Zm-19.67-.91L264.2,345l16.37,0s1.12,12.09,1.23,13.36c-5.11-.58-14.69-1.32-15-1.63m-1.9-2a7.55,7.55,0,0,1-1-3.84,5.71,5.71,0,0,1,.45-3.12l1.65,7.44a3.87,3.87,0,0,1-1.08-.48m-1.28-8.38a3.31,3.31,0,0,1-1.55-2.35,2.36,2.36,0,0,1,2.11-2.44,12,12,0,0,1,6,.51c.91.43,1,.63,1.29,1.18a4.61,4.61,0,0,1,.39,1.36l-7.81,0c-.11,0-.19,0-.21.09a.24.24,0,0,0,0,.15l.45,1.9Zm6.38-7.64a16.64,16.64,0,0,0,.65-3.91c.09-1,.33-1.14.74-3.37a6.29,6.29,0,0,1,.81-2.36,1.47,1.47,0,0,1-.11.78c-.63,2-.26,5.05-.26,6.46,0,.53.24,1.49-.24,1.75-.89.5-1.25,2.08-.45,2.72.16.13.42.08.46.19a3.62,3.62,0,0,1,.24,1c-1.23-.32-1.57-.61-2.72-.84a8,8,0,0,0,.88-2.45m5.36,3.13a2.84,2.84,0,0,0,.51-1,1.7,1.7,0,0,0-.14-1.53c-.31-.33-.17-2.9-.14-3.41-.05,1.1,1.47,2.08,1.9,2.94.75,1.5-.05,2.14-.33,4.37-.07.52-.59,1.11-1.06,1.1s-.56,0-.91-.88a2.38,2.38,0,0,1,.17-1.54m-3-1.6c-.91-.06-1.09.24-1.09.24a.82.82,0,0,1-.17-.93c.28-.46.83-.64.16-.51a1.37,1.37,0,0,1,.15-.21c.61-.72.3-.48,1-.52a5.69,5.69,0,0,1,2.62.7c.3.31.11,2.42-.23,2.12a4.07,4.07,0,0,0-2.44-.89m-.21.26c.12,0,.12,0,.42.05a4.53,4.53,0,0,1,2,.75,17.49,17.49,0,0,1,.11,3.43l-2.21-.09s-.31-2.75-.29-3.05c-.17-.44-.15-1.06,0-1.09m.47-11.11c.22-.95,2.18-2.41,3.2-2.5s.29.33,1.34-.18c.77,2.7.88,3,3.22,7.54a13.12,13.12,0,0,1,2.27-3.7,19.06,19.06,0,0,0,2.77-3.59c.1-.18.19.41,1,.37a2.27,2.27,0,0,0,1-.35,7.79,7.79,0,0,1,1.6-.79c.8-.63,2,.83,2,1.37a33.34,33.34,0,0,1,.1,4c0,.33-.42,2.9-.46,3.83,0,1.14.18,2.18.06,3.31-.07.69-.2,2.11-.21,2.25l-.35-.29a3.7,3.7,0,0,0-3.21-1c0-.68.06-1.92.06-1.92s.14-1.14.25-1.82c.17-1.07,0-2,0-3.09a7,7,0,0,1,.44-1.31l.08-.24s-.23-.06-.36.37c-.53-1.28-.24-2-.49-1.1-.05,1.65.23,4.41,0,5s-1.5,1.54-.72,1.16c.56-.27.29,2.84.29,2.84a2.69,2.69,0,0,0-.6,1.14,1.62,1.62,0,0,0,.15.88c.39,1.34-.2,2.79-.64,4a1.93,1.93,0,0,1-.36.63,1,1,0,0,0-.37.33,3.51,3.51,0,0,1-2.43.31c-1.14-.16-1.46-.89-1.48-2a.28.28,0,0,0-.32-.25,20.12,20.12,0,0,0-2.27-.07c-.16,0-1-.07-1-.07a7.87,7.87,0,0,0,.36-.91,22.05,22.05,0,0,0,.49-3.41,6,6,0,0,0-1.42-3.2,6,6,0,0,1-.81-3.18c.1-.82.38-2.69.37-2.89s-.45.83-.45.83-.43,4.75-.76,6.79c-.8-.15-1.79-.37-2.82-.57.42-1.67-.33-5.5.4-8.55m1.88-6.76a18.7,18.7,0,0,1,1-4.52,5,5,0,0,1,1.31-1.85.53.53,0,0,0-.16.32,7.79,7.79,0,0,0,.56,6,3.09,3.09,0,0,1,.22,2.72,2.12,2.12,0,0,1-.6.81c-.37.35-.38.27-1,.48s-2.07.81-2.18.87a2.45,2.45,0,0,1,.27-1.42,9.85,9.85,0,0,0,.63-3.4m4.34,3.37c.18-.25.19-.77.43-1.06s.75.43.75.43c1.53.49,2.29-.93,3.08-1.82.2.82.08,1.27.41,1.79.2.32,1,.42,1.19.74a1.1,1.1,0,0,1,.07.78c-.29.91-1.77,2.32-2.2,3.15-.6,1.15-1.43,2-2.13,3.15l-1.09-1.55a14.59,14.59,0,0,1-1.49-4.86c-.06-.29.8-.5,1-.75m-.62-10.52,1.32.56A4.56,4.56,0,0,1,282,318.7c.32.83.49,1.73.85,2.54.6,1.38,0,2.3-.87,3.15-1,1-1.63,1-2.64,0-.34-.34-.69-.68-1-1a7,7,0,0,1-1.52-6.55c.23-.64,1.14-1.12,1.42-1.37m-.29,8.6c0-.18,0-.37,0-.61.45.46.6.62,1.05,1a3.54,3.54,0,0,1-.32,1.15,5.43,5.43,0,0,1-1.16.57,4.61,4.61,0,0,0,.43-2.13m-3.22-5.65a15.14,15.14,0,0,1,1-3.73c1.36-2.06,2.86-2.72,4.52-2.37,3.42.73,4.56,4.49,5.86,7.65.77,1.89.8,3.79,2.22,5.13.49.47.91.6.43.74a9,9,0,0,0-1.35.62,2.93,2.93,0,0,1-1.16.25c-.59,0-1.09-.67-1.25-1.39a8.21,8.21,0,0,0-1.07-2.93,5.76,5.76,0,0,1-.76-1.43c-.09-.33-.92-3.42-1.64-4.22a11.75,11.75,0,0,0-2.81-1.89,1,1,0,0,0-1,0,6.94,6.94,0,0,0-2.62,2.9,10,10,0,0,0-.64,2.55,14.56,14.56,0,0,1,.2-1.91m16.5,22.92c.06-.88.1-2.9.11-3.15.05-.77,0-1.55,0-2.33.08-1.71.46-4,.35-5.62a20.36,20.36,0,0,1,.4,3.19,24.24,24.24,0,0,0,.28,5.08c.37,2.08.94,2.57,2,4.39a2.85,2.85,0,0,0-2-.2c-.74.16-1,0-1,0-.15-.75-.16-.78-.24-1.37m-6.66,11.13a.05.05,0,0,1,0,0,.41.41,0,0,0,.19.09,1.19,1.19,0,0,1-.53.79,5,5,0,0,1,.32-.84m.31-.75.07,0a1.52,1.52,0,0,0,0,.21h-.13Zm-.67-3.62.21-.34c.12-.14.24-.26.33-.38l.13,0c.43,0,.8.89.85,2a7.78,7.78,0,0,0-.56.92c-.12-1.2-.53-2.1-1-2.13Zm-.08,0a.31.31,0,0,1,0,.08h0a.56.56,0,0,1,.05-.08m1.82,1.42.22-.32a4.09,4.09,0,0,1-.31,1.6,6.6,6.6,0,0,0,.09-1.12v-.16m-.9-2.68a.4.4,0,0,1,.26-.11c.45,0,.82.92.86,2.1l-.24.29c-.09-1.17-.43-2.08-.88-2.28m.15,4.12c.16-.37.34-.73.53-1.09a4.32,4.32,0,0,1-.24,1.42.37.37,0,0,1-.18,0,.24.24,0,0,1-.11-.06v-.32Zm4.06-8.73c.65.48.9,1.17.55,1.67a15.11,15.11,0,0,0-.86,1.42,10,10,0,0,1-1.9,2.6,8.59,8.59,0,0,0-.67.68c-.08-1.32-.41-2.32-.91-2.41a7.9,7.9,0,0,0,1-2.44c.4-2,1.5-2.42,2.82-1.52m-2.12-1.57c-.87.12-.73-.36-.06-.54a5.85,5.85,0,0,1,3.71,1.54c.46.71-.46,1.27-.46,1.27A4.75,4.75,0,0,0,289,341.7a2.19,2.19,0,0,0-2.11.11c-.11.05-.41.09-.43-.36s1.26-.95.69-.86m-3.75,8.28a9.34,9.34,0,0,0-1,1.39c-.73,1.08-.83,1.31-.8,2-.08-1.24-.27-4.29-.4-5.28h3.29l0,.1a4.47,4.47,0,0,0-.31.92l-.09.1c-.26.05-.49.33-.66.76m12.54-4.59c.92,1.39-.81,4.08-.93,4.23a11.86,11.86,0,0,1-4.31,3.78,8.66,8.66,0,0,1-2.74.89,21.93,21.93,0,0,1-3.31.29c.22-.28.24-.23.41-1a1.27,1.27,0,0,0,.54-.7,3.8,3.8,0,0,0,.8-2.78v-.1c.11-.13.24-.25.37-.38a11.85,11.85,0,0,0,2.62-3.23,3.87,3.87,0,0,1,3-2.1,3,3,0,0,1,3.52,1.13m0-.77c-1-1.56-1.07-1.78-1.65-2.81s-1.19-2.31-1.32-2.61a16.83,16.83,0,0,1-.46-4,32.72,32.72,0,0,0-.72-4.92,8.38,8.38,0,0,0-.61-2.07c-.21-.55-.6-1.34-1.1-1.52-2.16-.8-2.58-2.53-3.45-5a38.74,38.74,0,0,0-1.7-4.14,9.1,9.1,0,0,0-2.46-3.44,5.77,5.77,0,0,0-4.17-.94,6.39,6.39,0,0,0-3.7,4.34c-.28,1.13-.58,2.25-.76,3.39a13.65,13.65,0,0,0-.07,2.64,13.9,13.9,0,0,1,0,1.71,8.29,8.29,0,0,1-1.47,4.08s-.76.42-1.14,2.63c-.46,1.56-1,4-1.14,5a16.39,16.39,0,0,1-1.13,3.64c-.12.21-.59,1-1.1,1.73l-.32-.06a11.36,11.36,0,0,0-3.86.09,2.66,2.66,0,0,0-1.27,4.55,16.94,16.94,0,0,1,1.39,1.73c-.12.83-.12.67-.21,1.52-.11,1.18-.13,1.19-.17,1.83a15.34,15.34,0,0,0,.82,4.77l1.74-.09c.08.39.15.78.22,1.18a1.11,1.11,0,0,0,1.08,1.07c3.81.4,13.51,1.51,14.54,1.64l6.69-2-.06-.26c-2-.17-6.06-.4-6.06-.4a3.38,3.38,0,0,1,1.18-.81c.44,0,1.44.09,1.83.07.66,0,1.16,0,1.77,0a8,8,0,0,1,2.35.27.85.85,0,0,0,1.07-.26,1.88,1.88,0,0,0,.14-.6h3.73s2.55-5.07,2.55-8.62a5.09,5.09,0,0,0-1-3.33" transform="translate(-16.82 -19.89)" style="fill:#0a3f6c"/><path d="M156.91,354.47a7.87,7.87,0,0,0,3.18.72c0-.07.07.37.29.51s.41,0,.62,0a17.69,17.69,0,0,1,2.5-.21,19.49,19.49,0,0,0,2.07.15c.56-.08,1.38,0,1.38-.48s-1-1-1.28-1a27.63,27.63,0,0,0-3-.44,12.75,12.75,0,0,1-2.35-.73,16.13,16.13,0,0,1-3.45-2.21,13.66,13.66,0,0,1-2.44-3.23,3.75,3.75,0,0,1-.28-.65,13.87,13.87,0,0,1,.25,1.76c.2,2.48,1.09,5.07,2.52,5.83m10.82,1.24c.49.61.63.76.63.76a17.32,17.32,0,0,0,.34-4.5,7.91,7.91,0,0,0-1.28-2.6,0,0,0,0,0,0,0l-.2-.22-.39-.36h0l0,0a.41.41,0,0,0-.29-.13c-.43,0-.79.86-.85,2,.09.22.17.43.24.66a11.8,11.8,0,0,1,.89,2.13,8.05,8.05,0,0,0,.93,2.28m-3.59,1.91,4.2.64.08-.85Zm19.67-.91L186.43,345l-16.37,0s-1.13,12.09-1.23,13.36c5.11-.58,14.69-1.32,15-1.63m1.9-2a7.55,7.55,0,0,0,1-3.84,5.91,5.91,0,0,0-.45-3.12l-1.65,7.44a4,4,0,0,0,1.08-.48m1.27-8.38a3.32,3.32,0,0,0,1.56-2.35,2.36,2.36,0,0,0-2.11-2.44,12.05,12.05,0,0,0-6,.51c-.9.43-1.05.63-1.28,1.18a5,5,0,0,0-.4,1.36l7.82,0c.1,0,.19,0,.21.09a.24.24,0,0,1,0,.15l-.45,1.9Zm-6.37-7.64a16.14,16.14,0,0,1-.65-3.91c-.09-1-.34-1.14-.75-3.37a6.07,6.07,0,0,0-.81-2.36,1.59,1.59,0,0,0,.12.78c.62,2,.26,5.05.25,6.46,0,.53-.23,1.49.25,1.75.88.5,1.25,2.08.45,2.72-.16.13-.43.08-.46.19a3.62,3.62,0,0,0-.24,1c1.22-.32,1.57-.61,2.71-.84a7.94,7.94,0,0,1-.87-2.45m-5.36,3.13a2.77,2.77,0,0,1-.52-1,1.73,1.73,0,0,1,.15-1.53c.31-.33.17-2.9.13-3.41.05,1.1-1.46,2.08-1.9,2.94-.74,1.5,0,2.14.34,4.37.07.52.59,1.11,1.06,1.1.31,0,.55,0,.9-.88a2.4,2.4,0,0,0-.16-1.54m3-1.6c.91-.06,1.09.24,1.09.24a.82.82,0,0,0,.17-.93c-.28-.46-.83-.64-.16-.51a1.37,1.37,0,0,0-.15-.21c-.61-.72-.3-.48-1-.52a5.68,5.68,0,0,0-2.61.7c-.3.31-.12,2.42.23,2.12a4,4,0,0,1,2.44-.89m.21.26c-.12,0-.12,0-.42.05a4.49,4.49,0,0,0-2,.75c-.24.16-.11,3.43-.11,3.43l2.21-.09s.3-2.75.29-3.05c.17-.44.15-1.06,0-1.09M178,329.32c-.22-.95-2.19-2.41-3.21-2.5s-.28.33-1.34-.18c-.76,2.7-.87,3-3.21,7.54a13.12,13.12,0,0,0-2.27-3.7,19.06,19.06,0,0,1-2.77-3.59c-.1-.18-.19.41-1.05.37a2.19,2.19,0,0,1-1-.35,8.07,8.07,0,0,0-1.6-.79c-.8-.63-2,.83-2,1.37a33.34,33.34,0,0,0-.11,4c0,.33.43,2.9.46,3.83.05,1.14-.17,2.18-.06,3.31.07.69.21,2.11.22,2.25l.35-.29a3.7,3.7,0,0,1,3.21-1c0-.68-.06-1.92-.06-1.92s-.14-1.14-.25-1.82a26.51,26.51,0,0,1,0-3.09,7,7,0,0,0-.44-1.31c0-.08-.08-.24-.08-.24s.23-.06.36.37c.52-1.28.24-2,.49-1.1,0,1.65-.24,4.41,0,5s1.5,1.54.72,1.16c-.56-.27-.29,2.84-.29,2.84a2.6,2.6,0,0,1,.59,1.14,1.55,1.55,0,0,1-.14.88c-.4,1.34.19,2.79.64,4a2.11,2.11,0,0,0,.35.63,1,1,0,0,1,.38.33,3.51,3.51,0,0,0,2.43.31c1.14-.16,1.46-.89,1.48-2a.28.28,0,0,1,.31-.25,20.31,20.31,0,0,1,2.28-.07c.16,0,1-.07,1-.07a7.87,7.87,0,0,1-.36-.91,23.34,23.34,0,0,1-.48-3.41,6,6,0,0,1,1.42-3.2,5.87,5.87,0,0,0,.8-3.18c-.1-.82-.37-2.69-.37-2.89s.46.83.46.83.43,4.75.76,6.79c.79-.15,1.78-.37,2.81-.57-.42-1.67.34-5.5-.39-8.55m-1.89-6.76a18.21,18.21,0,0,0-1-4.52,4.93,4.93,0,0,0-1.31-1.85.51.51,0,0,1,.17.32,7.79,7.79,0,0,1-.56,6,3.09,3.09,0,0,0-.22,2.72,2.12,2.12,0,0,0,.6.81c.37.35.37.27,1,.48s2.07.81,2.18.87a2.57,2.57,0,0,0-.27-1.42,9.71,9.71,0,0,1-.64-3.4m-4.33,3.37c-.18-.25-.19-.77-.43-1.06s-.75.43-.75.43c-1.53.49-2.29-.93-3.09-1.82-.2.82-.07,1.27-.4,1.79-.21.32-1,.42-1.19.74a1.1,1.1,0,0,0-.07.78c.28.91,1.76,2.32,2.2,3.15.59,1.15,1.42,2,2.13,3.15.35-.5.72-1,1.08-1.55a14.37,14.37,0,0,0,1.5-4.86c0-.29-.81-.5-1-.75m.62-10.52-1.32.56a4.56,4.56,0,0,0-2.46,2.73c-.32.83-.49,1.73-.85,2.54-.6,1.38,0,2.3.87,3.15,1,1,1.63,1,2.64,0,.33-.34.68-.68,1-1a7,7,0,0,0,1.52-6.55c-.22-.64-1.14-1.12-1.41-1.37m.29,8.6c0-.18,0-.37,0-.61-.45.46-.6.62-1,1a3.54,3.54,0,0,0,.32,1.15,5.41,5.41,0,0,0,1.15.57,4.67,4.67,0,0,1-.42-2.13m3.22-5.65a14.74,14.74,0,0,0-1-3.73c-1.35-2.06-2.86-2.72-4.51-2.37-3.43.73-4.56,4.49-5.86,7.65-.77,1.89-.8,3.79-2.22,5.13-.5.47-.91.6-.43.74a8.38,8.38,0,0,1,1.34.62,3,3,0,0,0,1.16.25c.6,0,1.1-.67,1.26-1.39a8,8,0,0,1,1.07-2.93,5.76,5.76,0,0,0,.76-1.43c.09-.33.92-3.42,1.63-4.22a11.6,11.6,0,0,1,2.82-1.89,1,1,0,0,1,1,0,6.94,6.94,0,0,1,2.62,2.9,10.5,10.5,0,0,1,.64,2.55,14.56,14.56,0,0,0-.2-1.91m-16.51,22.92c0-.88-.09-2.9-.11-3.15,0-.77,0-1.55,0-2.33-.08-1.71-.46-4-.35-5.62a20.36,20.36,0,0,0-.4,3.19,25.67,25.67,0,0,1-.28,5.08c-.37,2.08-.95,2.57-2,4.39a2.85,2.85,0,0,1,2-.2c.74.16,1,0,1,0a12.18,12.18,0,0,0,.23-1.37m6.67,11.13,0,0a.4.4,0,0,1-.2.09,1.23,1.23,0,0,0,.54.79,7.75,7.75,0,0,0-.32-.84m-.32-.75-.06,0,0,.21h.13Zm.68-3.62-.21-.34-.34-.38-.12,0c-.44,0-.8.89-.86,2a7.85,7.85,0,0,1,.57.92c.12-1.2.52-2.1,1-2.13Zm.08,0a.31.31,0,0,0,0,.08h0l0-.08m-1.82,1.42-.23-.32a4.49,4.49,0,0,0,.31,1.6,7.87,7.87,0,0,1-.08-1.12v-.16m.9-2.68a.4.4,0,0,0-.26-.11c-.46,0-.82.92-.87,2.1a3.07,3.07,0,0,1,.24.29c.09-1.17.44-2.08.89-2.28m-.15,4.12c-.16-.37-.34-.73-.54-1.09a4.58,4.58,0,0,0,.25,1.42.35.35,0,0,0,.18,0,.24.24,0,0,0,.11-.06v-.32Zm-4.06-8.73c-.66.48-.91,1.17-.55,1.67.23.33.6.94.86,1.42a10,10,0,0,0,1.9,2.6c.23.22.46.44.67.68.07-1.32.4-2.32.91-2.41a7.9,7.9,0,0,1-1-2.44c-.41-2-1.5-2.42-2.82-1.52m2.11-1.57c.88.12.74-.36.07-.54a5.85,5.85,0,0,0-3.71,1.54c-.46.71.45,1.27.45,1.27a4.88,4.88,0,0,1,1.35-1.16,2.2,2.2,0,0,1,2.11.11c.11.05.41.09.43-.36s-1.26-.95-.7-.86m3.76,8.28a10.14,10.14,0,0,1,1,1.39c.73,1.08.83,1.31.8,2,.07-1.24.27-4.29.4-5.28h-3.29l0,.1a4.47,4.47,0,0,1,.31.92l.09.1c.26.05.49.33.66.76m-12.54-4.59c-.92,1.39.81,4.08.93,4.23a11.78,11.78,0,0,0,4.31,3.78,8.66,8.66,0,0,0,2.74.89,21.81,21.81,0,0,0,3.3.29c-.21-.28-.23-.23-.41-1a1.37,1.37,0,0,1-.54-.7,3.85,3.85,0,0,1-.8-2.78s0-.06,0-.1l-.37-.38a11.85,11.85,0,0,1-2.62-3.23,3.87,3.87,0,0,0-3-2.1,3,3,0,0,0-3.51,1.13m0-.77c1-1.56,1.07-1.78,1.65-2.81s1.19-2.31,1.31-2.61a16.34,16.34,0,0,0,.47-4,32.52,32.52,0,0,1,.71-4.92,8.69,8.69,0,0,1,.62-2.07c.2-.55.59-1.34,1.1-1.52,2.16-.8,2.58-2.53,3.44-5a38.93,38.93,0,0,1,1.71-4.14,9.2,9.2,0,0,1,2.45-3.44,5.79,5.79,0,0,1,4.17-.94,6.38,6.38,0,0,1,3.71,4.34c.28,1.13.58,2.25.76,3.39a14.49,14.49,0,0,1,.07,2.64,12.17,12.17,0,0,0,0,1.71,8.2,8.2,0,0,0,1.47,4.08s.76.42,1.13,2.63c.47,1.56,1,4,1.15,5a15.41,15.41,0,0,0,1.13,3.64c.12.21.58,1,1.1,1.73l.32-.06a11.36,11.36,0,0,1,3.86.09,2.66,2.66,0,0,1,1.26,4.55,20.51,20.51,0,0,0-1.39,1.73c.13.83.13.67.22,1.52.11,1.18.13,1.19.17,1.83a15.34,15.34,0,0,1-.82,4.77l-1.75-.09-.21,1.18a1.11,1.11,0,0,1-1.08,1.07c-3.81.4-13.51,1.51-14.55,1.64l-6.68-2,.06-.26c2-.17,6.06-.4,6.06-.4a3.38,3.38,0,0,0-1.18-.81c-.44,0-1.44.09-1.83.07-.66,0-1.16,0-1.77,0a8,8,0,0,0-2.35.27.85.85,0,0,1-1.07-.26,2.13,2.13,0,0,1-.15-.6h-3.73s-2.54-5.07-2.54-8.62a5,5,0,0,1,1-3.33" transform="translate(-16.82 -19.89)" style="fill:#0a3f6c"/><path d="M390.14,293.66a177.32,177.32,0,1,1,12.44-65.25,177.16,177.16,0,0,1-12.44,65.25m29.08-142a208.53,208.53,0,1,0,14.64,76.75,208.66,208.66,0,0,0-14.64-76.75" transform="translate(-16.82 -19.89)" style="fill:#036"/><path d="M203.21,313.78a.91.91,0,1,0,0,.84" transform="translate(-16.82 -19.89)" style="fill:#0a3f6c"/><path d="M209.93,314.62a.91.91,0,1,0,0-.84" transform="translate(-16.82 -19.89)" style="fill:#0a3f6c"/><path d="M247.47,320.81a.91.91,0,1,0,0-.83" transform="translate(-16.82 -19.89)" style="fill:#0a3f6c"/><path d="M240.75,320a.91.91,0,1,0,0,.83" transform="translate(-16.82 -19.89)" style="fill:#0a3f6c"/><path d="M226.15,321.09a.91.91,0,1,0,0,.83" transform="translate(-16.82 -19.89)" style="fill:#0a3f6c"/><path d="M220.36,321.92a.91.91,0,1,0,0-.83" transform="translate(-16.82 -19.89)" style="fill:#0a3f6c"/><path d="M213.64,321.09a.91.91,0,1,0,0,.83" transform="translate(-16.82 -19.89)" style="fill:#0a3f6c"/><path d="M206.3,320.19a.91.91,0,1,0-.59-.59" transform="translate(-16.82 -19.89)" style="fill:#0a3f6c"/><path d="M205.3,316.91a.91.91,0,1,0,0,.84" transform="translate(-16.82 -19.89)" style="fill:#0a3f6c"/><path d="M220.89,316a.91.91,0,1,0-.59-.59" transform="translate(-16.82 -19.89)" style="fill:#0a3f6c"/><path d="M224.53,313.58a.91.91,0,1,0,0-.84" transform="translate(-16.82 -19.89)" style="fill:#0a3f6c"/><path d="M230.32,312.74a.91.91,0,1,0,0,.84" transform="translate(-16.82 -19.89)" style="fill:#0a3f6c"/><path d="M237,313.58a.91.91,0,1,0,0-.84" transform="translate(-16.82 -19.89)" style="fill:#0a3f6c"/><path d="M245.38,317.75a.91.91,0,1,0,0-.84" transform="translate(-16.82 -19.89)" style="fill:#0a3f6c"/><path d="M232.68,315.57l-2.89,2.89" transform="translate(-16.82 -19.89)" style="fill:#0a3f6c"/><path d="M233.86,315.57l-3.48,3.48" transform="translate(-16.82 -19.89)" style="fill:#0a3f6c"/><path d="M229.79,318.46a.91.91,0,1,0,.59.59" transform="translate(-16.82 -19.89)" style="fill:#0a3f6c"/><path d="M220.89,316,218,318.91" transform="translate(-16.82 -19.89)" style="fill:#0a3f6c"/><path d="M220.3,315.43l-3.47,3.48" transform="translate(-16.82 -19.89)" style="fill:#0a3f6c"/><path d="M244.38,314.23a.91.91,0,1,0,.59.59" transform="translate(-16.82 -19.89)" style="fill:#0a3f6c"/><path d="M244.38,314.23l3-3" transform="translate(-16.82 -19.89)" style="fill:#0a3f6c"/><path d="M247.61,311h0" transform="translate(-16.82 -19.89)" style="fill:#0a3f6c"/><path d="M243.52,311l-3.75,3.75" transform="translate(-16.82 -19.89)" style="fill:#0a3f6c"/><path d="M245,314.82l3.55-3.55" transform="translate(-16.82 -19.89)" style="fill:#0a3f6c"/><path d="M244.4,311.28l-4.29,4.29" transform="translate(-16.82 -19.89)" style="fill:#0a3f6c"/><path d="M210.92,319.74l-2.18,2.18" transform="translate(-16.82 -19.89)" style="fill:#0a3f6c"/><path d="M205.71,319.6l-1.49,1.49" transform="translate(-16.82 -19.89)" style="fill:#0a3f6c"/><path d="M206.3,320.19l-.9.9" transform="translate(-16.82 -19.89)" style="fill:#0a3f6c"/><path d="M210.57,318.91l-2.18,2.18" transform="translate(-16.82 -19.89)" style="fill:#0a3f6c"/><path d="M220.3,315.43a.92.92,0,0,1,.71-1.17.91.91,0,1,1,.05,1.79H221s-.06,0-.09,0l-.14.14-.27.28-.55.54-1.1,1.11-.55.55-.14.14-.07.06,0,0,0,0h5.07s.2-.2.22-.22a4.11,4.11,0,0,0,.29-.3l.59-.59,2.35-2.34.65-.64s0-.08.11-.08H239.5s.25,0,.29,0l.15-.15,1.21-1.2,1.2-1.21.6-.6.3-.3.15-.15c0-.05.08-.11.17-.11h3.55a3.22,3.22,0,0,1,1.11.17l.28.11s0,0,0,.05l0,.05-.11.1-.42.42-.83.84c-.56.56-1.12,1.11-1.68,1.68l-.21.2-.1.11s-.11.08-.1.1a.86.86,0,0,1,0,.59.88.88,0,0,1-.92.59.9.9,0,0,1-.35-1.71.87.87,0,0,1,.59-.09s.08.05.13,0l.1-.11c.07-.06.14-.14.21-.21l.84-.84,1.67-1.67.09-.09c.05,0-.06,0-.1,0H244.6c-.09,0-.17,0-.24.05l-.75.74-3,3-.37.37c-.06.06-.09.16-.21.16H234a.16.16,0,0,0-.14.05l-.19.18-.74.75L231.39,318l-.75.76-.19.19s-.08,0-.06.1a.5.5,0,0,1,0,.12.83.83,0,0,1-.09.53.91.91,0,1,1-1.42-1.08.86.86,0,0,1,.49-.23.76.76,0,0,1,.26,0l.13,0s.08-.07.1-.08l1.51-1.51.75-.75.38-.38.09-.1,0,0s0,0,0,0H227.7s-.07,0-.1,0l-.1.1-.78.78L225.16,318c-.39.4-.78.79-1.18,1.18l-.29.3-.15.14-.07.08,0,0H211s0,0-.07,0v0s0,0,0,0l-.14.15-.29.28-1.14,1.15-.29.29-.14.14c-.05,0-.06.12-.15.12h-8.34s-.05,0-.05,0v-.81s0,0,0,0H204c.1,0,.19,0,.27-.06l.42-.42.83-.83.11-.11s.07-.05.06-.11a1,1,0,0,1,0-.29.91.91,0,0,1,.23-.55.91.91,0,1,1,.77,1.51,1.13,1.13,0,0,1-.26,0s-.07-.06-.11,0l-.1.1-.37.37-.37.37,0,0s0,0,.06,0h2.9s.07,0,.1-.07l.37-.37c.24-.25.49-.49.74-.74l.74-.75.19-.18a.16.16,0,0,1,.12-.07h6.1a.21.21,0,0,0,.15,0l.09-.1.37-.37,3-3" transform="translate(-16.82 -19.89)" style="fill:#0a3f6c"/><path d="M209.93,313.78a.92.92,0,1,1,.35,1.2.72.72,0,0,1-.27-.25s0-.11-.11-.11h-6.51s-.16,0-.18,0a.91.91,0,1,1-.34-1.2.88.88,0,0,1,.27.24s0,.12.11.12Z" transform="translate(-16.82 -19.89)" style="fill:#0a3f6c"/><path d="M205.3,317.75a.92.92,0,1,1,0-.84s.18,0,.2,0h7.17a0,0,0,0,0,0,0l.07-.07.14-.13.27-.27,2.08-2.09,1-1,.52-.51s0-.05.06-.05h7.48s.19,0,.2,0a.91.91,0,1,1,1.38,1.13.9.9,0,0,1-1.37-.28s-.18,0-.2,0H217.2s-.06,0-.08.05l-.15.15-.29.29-1.85,1.85-.92.92-.46.47-.24.23-.11.11-.06.06,0,0H205.3Z" transform="translate(-16.82 -19.89)" style="fill:#0a3f6c"/><path d="M237,312.74a.92.92,0,0,1,1.24-.38.9.9,0,0,1,.36,1.25.92.92,0,0,1-1.26.33.85.85,0,0,1-.26-.24c0-.05,0-.12-.11-.12H230.5s-.16,0-.18,0a.91.91,0,0,1-1.24.38.9.9,0,0,1-.36-1.25.92.92,0,0,1,1.26-.33,1,1,0,0,1,.27.24c0,.05,0,.12.1.12Z" transform="translate(-16.82 -19.89)" style="fill:#0a3f6c"/><path d="M220.36,321.92h-6.69c-.08,0-.07.08-.1.12a1,1,0,0,1-.27.24A.9.9,0,0,1,212,322a.91.91,0,0,1,.36-1.25.8.8,0,0,1,.69-.07,1.06,1.06,0,0,1,.33.18l.13.13,0,.07s0,0,0,0,0,0,0,0h6.69c.08,0,.07-.08.1-.12a.91.91,0,1,1-.07.95" transform="translate(-16.82 -19.89)" style="fill:#0a3f6c"/><path d="M245.38,317.75h-7.33c-.05,0-.06,0-.08.06l-.15.14-.28.28-1.15,1.15-2.29,2.29a1.37,1.37,0,0,1-.17.17l0,0,0,0h0s0,0,0,0h-7.67l0,0a.21.21,0,0,1,0,.06l-.09.11a1.1,1.1,0,0,1-.25.19.84.84,0,0,1-.6.07.91.91,0,0,1-.72-.87.92.92,0,0,1,.69-.9.81.81,0,0,1,.59.06.73.73,0,0,1,.26.17l.1.11,0,.06,0,0s0,0,0,0h7.36s0,0,0,0l.06-.05.19-.2.41-.4,3.22-3.23c.1-.1.14-.25.34-.25h7.44s.17,0,.19,0a.91.91,0,1,1,0,.86" transform="translate(-16.82 -19.89)" style="fill:#0a3f6c"/><path d="M247.47,320a.91.91,0,1,1,.34,1.2.92.92,0,0,1-.27-.25s0-.12-.11-.12h-6.5s-.17,0-.18,0a.92.92,0,0,1-1.24.39.91.91,0,1,1,.9-1.58.85.85,0,0,1,.26.24s0,.12.11.12Z" transform="translate(-16.82 -19.89)" style="fill:#0a3f6c"/><path d="M247.47,352a.91.91,0,1,0,.34-1.2.88.88,0,0,0-.27.24c0,.05,0,.12-.11.12h-6.5s-.17,0-.18,0a.92.92,0,1,0-.34,1.2.85.85,0,0,0,.26-.24c0-.05,0-.12.11-.12Z" transform="translate(-16.82 -19.89)" style="fill:#0a3f6c"/><path d="M245.38,354.27h-7.33c-.05,0-.06,0-.08-.06l-.15-.14-.28-.29-1.15-1.15-2.29-2.29-.17-.17,0,0,0,0h-7.71s0,0,0,0h0l0,0a.21.21,0,0,0,0-.06l-.09-.12a1.05,1.05,0,0,0-.25-.18.9.9,0,0,0-.6-.08.91.91,0,0,0-.72.88.93.93,0,0,0,.69.9.86.86,0,0,0,.59-.06.76.76,0,0,0,.26-.18.52.52,0,0,0,.1-.11s0,0,0-.06,0,0,0,0,0,0,0,0h7.36s0,0,0,0l.06.06.19.2.41.4,3.22,3.22c.1.1.14.25.34.25h7.44s.17,0,.19,0a.91.91,0,1,0,1.35-1.17.92.92,0,0,0-1.37.31" transform="translate(-16.82 -19.89)" style="fill:#0a3f6c"/><path d="M220.36,350.09h-6.69c-.08,0-.07-.07-.1-.11a1.06,1.06,0,0,0-.27-.25.91.91,0,1,0-.9,1.59.84.84,0,0,0,.69.06.87.87,0,0,0,.33-.17l.13-.14,0-.07s0,0,0,0,0,0,0,0h6.69c.08,0,.07.07.1.12a.88.88,0,0,0,.27.24.91.91,0,1,0-.34-1.2" transform="translate(-16.82 -19.89)" style="fill:#0a3f6c"/><path d="M237,359.27a.92.92,0,0,0,1.24.39.91.91,0,1,0-.9-1.59.88.88,0,0,0-.26.25s0,.11-.11.11H230.5s-.16,0-.18,0a.92.92,0,0,0-1.24-.38.91.91,0,1,0,.9,1.58.88.88,0,0,0,.27-.24s0-.12.1-.12Z" transform="translate(-16.82 -19.89)" style="fill:#0a3f6c"/><path d="M205.3,354.27a.91.91,0,1,0,0,.84s.18,0,.2,0h7.17v0l.07.06.14.14c.08.09.18.18.27.27.69.7,1.39,1.39,2.08,2.08.34.35.69.7,1,1l.52.52a.07.07,0,0,0,.06,0h7.48s.19,0,.2,0a.92.92,0,0,0,1.38.3.91.91,0,1,0-1.37-1.14s-.18,0-.2,0H217.2a.09.09,0,0,1-.08-.05l-.15-.14-.29-.29-1.85-1.86c-.31-.3-.62-.61-.92-.92l-.46-.46-.24-.23-.11-.12-.06-.06,0,0H205.3Z" transform="translate(-16.82 -19.89)" style="fill:#0a3f6c"/><path d="M209.93,358.23a.91.91,0,1,0,1.61-.86.9.9,0,0,0-1.26-.33.78.78,0,0,0-.27.24s0,.12-.11.12h-6.51s-.16,0-.18,0A.9.9,0,0,0,202,357a.91.91,0,1,0,1.16,1.34s0-.12.11-.12Z" transform="translate(-16.82 -19.89)" style="fill:#0a3f6c"/><path d="M220.3,356.59a.92.92,0,0,0,.71,1.17.91.91,0,1,0,.05-1.8l-.09,0s-.06,0-.09,0l-.14-.13-.27-.28-.55-.55-1.1-1.1-.55-.55-.14-.14-.07-.07,0,0h5.05s.2.19.22.21l.29.3.59.59,2.35,2.35.65.64s0,.08.11.08H239.5s.25,0,.29,0l.15.15,1.21,1.2,1.2,1.2.6.61.3.3.15.15c0,.05.08.11.17.11h3.55a3.48,3.48,0,0,0,1.11-.17l.28-.11s0,0,0-.05l0-.05a1.14,1.14,0,0,0-.11-.11l-.42-.42-.83-.83-1.68-1.68-.21-.21-.1-.1s-.11-.08-.1-.11a.83.83,0,0,0,0-.58.91.91,0,1,0-1.27,1.12.81.81,0,0,0,.59.08s.08-.05.13,0l.1.1.21.21.84.84,1.67,1.67.09.1c.05,0-.06,0-.1,0H244.6c-.09,0-.17,0-.24-.05l-.75-.74-3-3-.37-.37c-.06-.07-.09-.16-.21-.16H234a.19.19,0,0,1-.14-.05l-.19-.19-.74-.74L231.39,354l-.75-.75-.19-.19s-.08,0-.06-.1a.5.5,0,0,0,0-.12.8.8,0,0,0-.09-.53.91.91,0,0,0-1.67.1.89.89,0,0,0,.25,1,.75.75,0,0,0,.49.23.57.57,0,0,0,.26,0l.13,0s.08.08.1.08l1.51,1.52.75.75.38.38.09.09,0,.05s0,0,0,0H227.7s-.07,0-.1,0l-.1-.09-.78-.78L225.16,354,224,352.83l-.29-.29-.15-.15-.07-.07,0,0H211s0,0-.07,0v0l0,0-.14-.14-.29-.29-1.14-1.14-.29-.29-.14-.14c-.05-.05-.06-.12-.15-.12h-8.34s-.05,0-.05,0v.81s0,0,0,0H204c.1,0,.19,0,.27.05l.42.42.83.84.11.1s.07.06.06.12a.91.91,0,1,0,1-.67.76.76,0,0,0-.26,0s-.07.06-.11,0l-.1-.09-.37-.37-.37-.37,0-.05s0,0,.06,0h2.9s.07,0,.1.06l.37.37.74.75.74.74.19.19a.16.16,0,0,0,.12.07h6.1a.21.21,0,0,1,.15,0l.09.09.37.37,3,3" transform="translate(-16.82 -19.89)" style="fill:#0a3f6c"/><path d="M244.38,357.79a.91.91,0,1,1,.59-.59" transform="translate(-16.82 -19.89)" style="fill:#0a3f6c"/><path d="M229.79,353.56a.91.91,0,1,1,.59-.59" transform="translate(-16.82 -19.89)" style="fill:#0a3f6c"/><path d="M245.38,354.27a.91.91,0,1,1,0,.83" transform="translate(-16.82 -19.89)" style="fill:#0a3f6c"/><path d="M237,358.43a.91.91,0,1,1,0,.84" transform="translate(-16.82 -19.89)" style="fill:#0a3f6c"/><path d="M230.32,359.27a.91.91,0,1,1,0-.84" transform="translate(-16.82 -19.89)" style="fill:#0a3f6c"/><path d="M224.53,358.43a.91.91,0,1,1,0,.84" transform="translate(-16.82 -19.89)" style="fill:#0a3f6c"/><path d="M220.89,356a.91.91,0,1,1-.59.6" transform="translate(-16.82 -19.89)" style="fill:#0a3f6c"/><path d="M205.3,355.1a.91.91,0,1,1,0-.83" transform="translate(-16.82 -19.89)" style="fill:#0a3f6c"/><path d="M206.3,351.82a.91.91,0,1,1-.59.59" transform="translate(-16.82 -19.89)" style="fill:#0a3f6c"/><path d="M213.64,350.93a.91.91,0,1,1,0-.84" transform="translate(-16.82 -19.89)" style="fill:#0a3f6c"/><path d="M220.36,350.09a.91.91,0,1,1,0,.84" transform="translate(-16.82 -19.89)" style="fill:#0a3f6c"/><path d="M226.15,350.93a.91.91,0,1,1,0-.84" transform="translate(-16.82 -19.89)" style="fill:#0a3f6c"/><path d="M240.75,352a.91.91,0,1,1,0-.84" transform="translate(-16.82 -19.89)" style="fill:#0a3f6c"/><path d="M247.47,351.2a.91.91,0,1,1,0,.84" transform="translate(-16.82 -19.89)" style="fill:#0a3f6c"/><path d="M209.93,357.4a.91.91,0,1,1,0,.83" transform="translate(-16.82 -19.89)" style="fill:#0a3f6c"/><path d="M203.21,358.23a.91.91,0,1,1,0-.83" transform="translate(-16.82 -19.89)" style="fill:#0a3f6c"/><path d="M200.32,357.87a3.14,3.14,0,0,0,1.38,2.61,4.63,4.63,0,0,0,2.9.55h42.6a3.15,3.15,0,0,0,2.62-1.38,4.63,4.63,0,0,0,.54-2.9V314.14a3.15,3.15,0,0,0-1.38-2.61,4.63,4.63,0,0,0-2.9-.55h-42.6a3.16,3.16,0,0,0-2.61,1.38,4.61,4.61,0,0,0-.55,2.91Zm54.21-28.67v.73s0,.06,0,.06H255a2.24,2.24,0,0,1,.77.1,1.3,1.3,0,0,1,1,1,1.1,1.1,0,0,1-.61,1.09,2.86,2.86,0,0,1-1.54.25s-.09,0-.09,0v.67s0,.09,0,.09h.39a2.83,2.83,0,0,1,.77.07,1.37,1.37,0,0,1,1,.93,1,1,0,0,1-.53,1.11,2.51,2.51,0,0,1-1.53.3h-.15s0,0,0,.07v.54s0,.19,0,.18h.3a4,4,0,0,1,.77.05,1.46,1.46,0,0,1,1.11.9,1,1,0,0,1-.44,1.13,2.32,2.32,0,0,1-1.51.34h-.25s0,.08,0,.11v.66s0,0,0,0h.2a5.09,5.09,0,0,1,.78,0,1.5,1.5,0,0,1,1.17.85,1,1,0,0,1-.35,1.14,2.08,2.08,0,0,1-1.49.4h-.3c-.09,0-.05.08-.05.13v.61s0,.05,0,.05h.14a5,5,0,0,1,.78,0,1.6,1.6,0,0,1,1.24.8,1,1,0,0,1-.27,1.14,1.9,1.9,0,0,1-1.47.45h-.39a0,0,0,0,0,0,0V346s0,.08,0,.08h0c.26,0,.52,0,.78,0a1.61,1.61,0,0,1,1.28.74.94.94,0,0,1-.18,1.15,1.39,1.39,0,0,1-.66.41,2.29,2.29,0,0,1-.78.1h-.49c-.05,0,0,.05,0,.08v.67s0,0,0,0h.73a1.68,1.68,0,0,1,1.33.69.93.93,0,0,1-.08,1.15,1.81,1.81,0,0,1-1.41.57h-.59s0,.09,0,.11v.67s0,0,.05,0h.63a1.7,1.7,0,0,1,1.37.62.93.93,0,0,1,0,1.16,1.74,1.74,0,0,1-1.37.63h-.67s0,.07,0,.09v.57c0,.05-.05.13,0,.13h.34a2.21,2.21,0,0,1,1.3.29,1,1,0,0,1,0,1.87,2.45,2.45,0,0,1-1.32.26h-.29s0,.07,0,.08v2.76a4.16,4.16,0,0,1-1.45,3.28,4,4,0,0,1-1.66.87,6.59,6.59,0,0,1-1.77.14h-2.19s-.06,0-.06,0v.5A1.91,1.91,0,0,1,247,367a1,1,0,0,1-1.86-.31,2.91,2.91,0,0,1-.19-1.33s.05-.16,0-.16h-.7s-.07,0-.07,0v.22c0,.22,0,.44,0,.66-.1.78-.76,1.68-1.61,1.26a1.5,1.5,0,0,1-.74-1,2.94,2.94,0,0,1-.05-.66v-.43s0,0,0,0h-.69s-.08,0-.08,0v.59a2.17,2.17,0,0,1-.09.67,1.42,1.42,0,0,1-.81.93c-.89.31-1.47-.69-1.51-1.46,0-.22,0-.44,0-.66,0,0,0-.08,0-.08h-.69s-.08,0-.08,0v.3a2.42,2.42,0,0,1-.26,1.31,1,1,0,0,1-1.87.06,2.22,2.22,0,0,1-.29-1.3v-.34c0-.08-.07,0-.12,0h-.58s-.09,0-.09,0v.66c0,.77-.56,1.8-1.46,1.54a1.35,1.35,0,0,1-.84-.87,2.55,2.55,0,0,1-.12-.67v-.63s0,0,0,0h-.74s0,0,0,0v.5a2.55,2.55,0,0,1-.1.77,1.31,1.31,0,0,1-1,1,1.09,1.09,0,0,1-1.09-.62,2.81,2.81,0,0,1-.25-1.53s0-.09,0-.09h-.67s-.09,0-.09,0v.39a3,3,0,0,1-.07.78,1.39,1.39,0,0,1-.94,1,1,1,0,0,1-1.1-.54,2.46,2.46,0,0,1-.3-1.52v-.14c0-.05,0,0-.07,0h-.54s-.18,0-.18,0v.29a3.38,3.38,0,0,1-.06.78,1.43,1.43,0,0,1-.89,1.11,1,1,0,0,1-1.12-.44,2.28,2.28,0,0,1-.35-1.51v-.25s-.08,0-.1,0h-.68s0,0,0,0v.2a4,4,0,0,1,0,.77,1.5,1.5,0,0,1-.84,1.18,1,1,0,0,1-1.14-.36,2.06,2.06,0,0,1-.4-1.49v-.29c0-.1-.08-.05-.14-.05h-.6s-.05,0-.05,0v.14a6.54,6.54,0,0,1,0,.77,1.59,1.59,0,0,1-.8,1.24,1,1,0,0,1-1.14-.27,1.89,1.89,0,0,1-.46-1.47v-.39s0,0,0,0h-.67s-.08,0-.08,0v0a6.62,6.62,0,0,1,0,.77,1.64,1.64,0,0,1-.74,1.29,1,1,0,0,1-1.16-.18,1.44,1.44,0,0,1-.4-.67,2.21,2.21,0,0,1-.1-.77v-.49s0,0-.08,0h-.67s0,0,0,0v.34c0,.13,0,.26,0,.39a1.68,1.68,0,0,1-.69,1.33.94.94,0,0,1-1.16-.09,1.81,1.81,0,0,1-.56-1.41v-.58s-.09,0-.11,0h-.67s0,0,0,0v.25c0,.13,0,.26,0,.38a1.77,1.77,0,0,1-.62,1.38.93.93,0,0,1-1.16,0,1.75,1.75,0,0,1-.63-1.38c0-.22,0-.44,0-.66,0,0-.08,0-.09,0h-.58s-.12-.05-.12,0v.33a2.24,2.24,0,0,1-.29,1.31,1,1,0,0,1-1.87-.06,2.42,2.42,0,0,1-.26-1.31v-.3s-.07,0-.08,0h-2.77a4.15,4.15,0,0,1-3.27-1.45,3.91,3.91,0,0,1-.87-1.66,6.62,6.62,0,0,1-.14-1.77v-2.19s0-.06,0-.06h-.51a1.88,1.88,0,0,1-1.28-.38,1,1,0,0,1,.32-1.86,3,3,0,0,1,1.33-.18s.16.05.16,0v-.69s0-.07,0-.07h-.21a4.85,4.85,0,0,1-.66,0c-.78-.09-1.68-.75-1.26-1.61a1.52,1.52,0,0,1,1-.73,2.94,2.94,0,0,1,.66-.05h.42s0,0,0,0v-.69s0-.08,0-.08h-.58a2.18,2.18,0,0,1-.67-.1,1.4,1.4,0,0,1-.93-.8c-.31-.89.68-1.47,1.46-1.51h.66s.08,0,.08,0v-.69s0-.09,0-.09h-.3a2.41,2.41,0,0,1-1.31-.25,1,1,0,0,1-.07-1.87,2.24,2.24,0,0,1,1.31-.29h.34c.08,0,0-.08,0-.12v-.58s0-.1,0-.1h-.67c-.76,0-1.79-.55-1.54-1.45a1.36,1.36,0,0,1,.88-.84,1.93,1.93,0,0,1,.67-.12h.63s0,0,0,0v-.74s0-.05,0-.05h-.49a2.55,2.55,0,0,1-.77-.1,1.33,1.33,0,0,1-1-1,1.11,1.11,0,0,1,.62-1.1,2.81,2.81,0,0,1,1.53-.25s.09,0,.09,0v-.67s0-.09,0-.09h-.39a3,3,0,0,1-.78-.07,1.4,1.4,0,0,1-1-.94,1.06,1.06,0,0,1,.53-1.11,2.58,2.58,0,0,1,1.53-.3h.14s0,0,0-.06v-.54s0-.19,0-.19h-.3a3.36,3.36,0,0,1-.77-.05,1.43,1.43,0,0,1-1.11-.89,1,1,0,0,1,.44-1.13,2.32,2.32,0,0,1,1.51-.34h.25s0-.09,0-.11v-.67s0,0,0,0h-.2a4.91,4.91,0,0,1-.77,0,1.48,1.48,0,0,1-1.18-.85,1,1,0,0,1,.36-1.13,2,2,0,0,1,1.48-.4h.3c.1,0,.05-.09.05-.14v-.6s0-.05,0-.05H196a6.77,6.77,0,0,1-.78,0,1.58,1.58,0,0,1-1.23-.8,1,1,0,0,1,.26-1.15,1.94,1.94,0,0,1,1.47-.45h.39s0,0,0,0v-.67s0-.09,0-.09h0c-.26,0-.51,0-.78,0a1.62,1.62,0,0,1-1.28-.75,1,1,0,0,1,.18-1.15,1.46,1.46,0,0,1,.66-.4,2.3,2.3,0,0,1,.78-.11h.48c.06,0,0,0,0-.07v-.67s0-.05,0-.05h-.73a1.68,1.68,0,0,1-1.34-.68,1,1,0,0,1,.09-1.16,1.85,1.85,0,0,1,1.41-.57h.59s0-.08,0-.1v-.67s0,0,0,0h-.64a1.77,1.77,0,0,1-1.37-.62,1,1,0,0,1,0-1.17,1.74,1.74,0,0,1,1.37-.62c.23,0,.45,0,.67,0,0,0,0-.08,0-.09v-.58c0-.05,0-.13,0-.13h-.34a2.25,2.25,0,0,1-1.31-.29,1,1,0,0,1,.07-1.87,2.39,2.39,0,0,1,1.31-.25h.3s0-.07,0-.08V311.1a4.19,4.19,0,0,1,1.45-3.28,4,4,0,0,1,1.66-.87,7,7,0,0,1,1.77-.13h2.18s.07,0,.07,0v-.51a1.82,1.82,0,0,1,.38-1.27,1,1,0,0,1,1.86.31,3,3,0,0,1,.18,1.33s0,.16,0,.16h.69s.07,0,.07,0v-.21c0-.22,0-.44,0-.66.1-.79.76-1.68,1.61-1.27a1.52,1.52,0,0,1,.74,1,2.94,2.94,0,0,1,.05.66v.42s0,0,0,0h.69s.08,0,.08,0v-.58a2.13,2.13,0,0,1,.09-.67,1.42,1.42,0,0,1,.81-.93c.89-.31,1.47.68,1.51,1.45,0,.22,0,.45,0,.66,0,0,0,.09,0,.09h.7s.09,0,.09,0v-.29a2.39,2.39,0,0,1,.25-1.31,1,1,0,0,1,1.87-.07,2.24,2.24,0,0,1,.29,1.31v.34c0,.08.07,0,.12,0H216s.09,0,.09,0v-.67c0-.77.56-1.79,1.46-1.54a1.36,1.36,0,0,1,.84.88,2.15,2.15,0,0,1,.12.67v.62s0,.05,0,.05h.74s0,0,0,0v-.49a2.51,2.51,0,0,1,.1-.77,1.32,1.32,0,0,1,1-1,1.11,1.11,0,0,1,1.09.62,2.77,2.77,0,0,1,.25,1.54s0,.09,0,.09h.67s.09,0,.09,0v-.39a2.91,2.91,0,0,1,.07-.78,1.36,1.36,0,0,1,.94-1,1.05,1.05,0,0,1,1.11.53,2.55,2.55,0,0,1,.3,1.52v.15s0,0,.06,0h.54s.19,0,.19,0v-.3a3.33,3.33,0,0,1,0-.77,1.43,1.43,0,0,1,.89-1.11,1,1,0,0,1,1.12.44,2.27,2.27,0,0,1,.35,1.51v.24s.09,0,.1,0h.68s0,0,0-.05v-.2a4,4,0,0,1,0-.77,1.5,1.5,0,0,1,.84-1.18A1,1,0,0,1,231,305a2.08,2.08,0,0,1,.4,1.49v.3c0,.09.09.05.14.05h.6s.05,0,.05,0v-.15a6.6,6.6,0,0,1,0-.77,1.59,1.59,0,0,1,.8-1.24,1,1,0,0,1,1.15.27,1.94,1.94,0,0,1,.45,1.47v.39s0,0,0,0h.67s.08,0,.08,0v-.05a6.57,6.57,0,0,1,0-.77,1.67,1.67,0,0,1,.74-1.3,1,1,0,0,1,1.16.18,1.49,1.49,0,0,1,.4.67,2.28,2.28,0,0,1,.11.77v.49s0,0,.07,0h.67s0,0,0,0v-.73a1.72,1.72,0,0,1,.69-1.34,1,1,0,0,1,1.16.09,1.84,1.84,0,0,1,.56,1.41v.59s.09,0,.11,0h.67s0,0,0-.05v-.63a1.75,1.75,0,0,1,.62-1.37,1,1,0,0,1,1.17,0,1.75,1.75,0,0,1,.62,1.37c0,.22,0,.44,0,.67,0,0,.08,0,.09,0h.58s.12,0,.12,0v-.34a2.21,2.21,0,0,1,.29-1.3,1,1,0,0,1,1.88.05,2.54,2.54,0,0,1,.25,1.32v.29s.07,0,.08,0h2.77a4.15,4.15,0,0,1,3.27,1.45,4,4,0,0,1,.88,1.66,7,7,0,0,1,.13,1.77v2.18s0,.07,0,.07h.5a1.92,1.92,0,0,1,1.29.37,1,1,0,0,1-.32,1.86,2.91,2.91,0,0,1-1.33.18s-.16,0-.16,0v.69s0,.08,0,.08h.21a4.85,4.85,0,0,1,.66,0c.79.1,1.68.76,1.26,1.61a1.51,1.51,0,0,1-1,.74,2.94,2.94,0,0,1-.66.05h-.42s0,0,0,0v.7s0,.07,0,.07h.58a2.18,2.18,0,0,1,.67.1,1.37,1.37,0,0,1,.93.81c.31.89-.68,1.47-1.45,1.51-.23,0-.45,0-.67,0,0,0-.08,0-.08,0v.69s0,.09,0,.09h.3a2.39,2.39,0,0,1,1.31.25,1,1,0,0,1,.06,1.88,2.18,2.18,0,0,1-1.3.28h-.34c-.08,0,0,.08,0,.13v.58s0,.09,0,.09h.67c.76,0,1.79.56,1.54,1.46a1.33,1.33,0,0,1-.88.83,3.82,3.82,0,0,1-1.34.13" transform="translate(-16.82 -19.89)" style="fill:#0a3f6c"/><path d="M213.1,334.68h-9V332.6h3.46v-4.85H204.1v-2.07h9v2.07h-3.46v4.85h3.46Z" transform="translate(-16.82 -19.89)" style="fill:#0a3f6c"/><path d="M224.17,334.68h-9V332.6h3.46v-4.85h-3.46v-2.07h9v2.07h-3.46v4.85h3.46Z" transform="translate(-16.82 -19.89)" style="fill:#0a3f6c"/><path d="M235.24,334.68h-9V332.6h3.46v-4.85h-3.46v-2.07h9v2.07h-3.46v4.85h3.46Z" transform="translate(-16.82 -19.89)" style="fill:#0a3f6c"/><path d="M240.78,334.68v-6.93h-3.46v-2.07h9v2.07h-3.46v6.93Z" transform="translate(-16.82 -19.89)" style="fill:#0a3f6c"/><path d="M217.25,340.62v3.46a.61.61,0,0,0,.69.69h3.46a.61.61,0,0,0,.69-.69v-3.46a.61.61,0,0,0-.69-.69h-3.46a.61.61,0,0,0-.69.69m6.92,4.15a1.84,1.84,0,0,1-2.08,2.08h-4.84a1.84,1.84,0,0,1-2.08-2.08v-4.84a1.84,1.84,0,0,1,2.08-2.08h4.84a1.84,1.84,0,0,1,2.08,2.08Z" transform="translate(-16.82 -19.89)" style="fill:#0a3f6c"/><path d="M229.71,346.85v-6.92h-3.46v-2.08h9v2.08h-3.46v6.92Z" transform="translate(-16.82 -19.89)" style="fill:#0a3f6c"/><path d="M243.55,339.93h-3.46a.61.61,0,0,0-.7.69V342h4.85v-1.38a.61.61,0,0,0-.69-.69m-4.16,6.92h-2.07v-6.92a1.83,1.83,0,0,1,2.07-2.08h4.85a1.84,1.84,0,0,1,2.08,2.08v6.92h-2.08v-2.77h-4.85Z" transform="translate(-16.82 -19.89)" style="fill:#0a3f6c"/><path d="M213.1,345.46l-2.56-3.11,2.56-3.12v-1.38H211v1.32l-1.89,2.14h-2.95v-3.46H204.1v9h2.08v-3.46h2.95l1.89,2.14v1.32h2.08Z" transform="translate(-16.82 -19.89)" style="fill:#0a3f6c"/><path d="M191.73,298.57a2.56,2.56,0,0,0-1.74.05,1.92,1.92,0,0,0-1,.9,1.86,1.86,0,0,0-.06,1.39,2.16,2.16,0,0,0,.54.77,2.29,2.29,0,0,0,.9.61l-.48,1a4,4,0,0,1-1.2-.71,4.56,4.56,0,0,1-.72-1.14,2.26,2.26,0,0,1,.24-1.86,3,3,0,0,1,1.68-1.32,2.35,2.35,0,0,1,1.68-.13l-.42-1.19-4.56,1.55-.18-.41,6.84-2.34.12.41-1.2.43,1.56,4.68a.51.51,0,0,0,.36.23,2.43,2.43,0,0,0,.6-.05l.06.23-2.52.84-.12-.23a1.09,1.09,0,0,0,.54-.31c.12-.11.18-.23.12-.36Z" transform="translate(-16.82 -19.89)" style="fill:#0a3f6c"/><path d="M198.15,294.91l-4.86,1.38-.12-.49,4.86-1.32Zm.24,1.8a2.21,2.21,0,0,0-1.68-.12,1.87,1.87,0,0,0-1.08.84,2.11,2.11,0,0,0-.12,1.5,2.47,2.47,0,0,0,.48.71,2.06,2.06,0,0,0,.9.61l-.6,1a2.93,2.93,0,0,1-1.08-.84,2.33,2.33,0,0,1-.66-1.09,2.43,2.43,0,0,1,.3-1.91,2.9,2.9,0,0,1,1.8-1.2,2.49,2.49,0,0,1,1.62,0Z" transform="translate(-16.82 -19.89)" style="fill:#0a3f6c"/><path d="M202.77,298a1.79,1.79,0,0,1-.54.66,1.7,1.7,0,0,1-.84.36,1.62,1.62,0,0,1-1.38-.23,1.84,1.84,0,0,1-.84-1.14l-.6-2.77L198,295l-.12-.48,6.18-1.32.12.43-1.26.3,1,4.8a.48.48,0,0,0,.3.29,2,2,0,0,0,.6,0l.06.25-2.64.54-.06-.24a.76.76,0,0,0,.54-.24q.27-.19.18-.36Zm-.84-3.84-2.34.49.66,2.87a1,1,0,0,0,.54.72,1,1,0,0,0,.84.19,1.29,1.29,0,0,0,.9-1.44Z" transform="translate(-16.82 -19.89)" style="fill:#0a3f6c"/><path d="M208.11,301.8l-1,.24a2.58,2.58,0,0,0-1.08-1.5,2.44,2.44,0,0,0-1.86-.29,1,1,0,0,0-.72.54,1,1,0,0,0-.12.89.77.77,0,0,0,.24.55c.12.18.24.23.36.18s.24-.12.3-.3a1,1,0,0,0,0-.61l1-.23a1.49,1.49,0,0,1-.36,1,1.47,1.47,0,0,1-.9.54,1.72,1.72,0,0,1-1.08-.13,1.09,1.09,0,0,1-.66-.71,1.36,1.36,0,0,1,.42-1.2,2.81,2.81,0,0,1,1.44-.84,4.14,4.14,0,0,1,2.58.23,2.65,2.65,0,0,1,1.44,1.68" transform="translate(-16.82 -19.89)" style="fill:#0a3f6c"/><path d="M210.27,294.48l-2,.25a1.59,1.59,0,0,1,1,.54,1.27,1.27,0,0,1,.42,1,1.73,1.73,0,0,1-.36,1.43,1.94,1.94,0,0,1-1.38.79,2.33,2.33,0,0,1-2-.79,4.54,4.54,0,0,1-1.2-2.45l.36-.07a4.25,4.25,0,0,0,1,1.86,1.56,1.56,0,0,0,1.5.61,1.12,1.12,0,0,0,.9-.49,1.76,1.76,0,0,0,.24-1,1.29,1.29,0,0,0-.6-1,1.17,1.17,0,0,0-1-.3l-.24,0-.06-.35,3.48-.49-.18-1.37-5.88.77-.06-.47,8.22-1.09.06.43-1.26.18.66,4.91c0,.13.12.18.3.25a.65.65,0,0,0,.54.06l.06.23-2.64.37-.06-.18a1.13,1.13,0,0,0,.54-.25c.18-.12.24-.23.18-.35Z" transform="translate(-16.82 -19.89)" style="fill:#0a3f6c"/><path d="M215.13,292l-1.26.19.66,4.86c0,.11.12.23.3.29a1.6,1.6,0,0,0,.6.07v.23l-2.64.36-.06-.23a1.26,1.26,0,0,0,.54-.18.46.46,0,0,0,.24-.36l-.72-4.93-.84.13-.12-.43,3.24-.47Z" transform="translate(-16.82 -19.89)" style="fill:#0a3f6c"/><path d="M222.93,293.29l.12,3.35a.41.41,0,0,0,.24.36,1.56,1.56,0,0,0,.6.12v.24l-2.7.07v-.25a.84.84,0,0,0,.54-.18.3.3,0,0,0,.24-.3v-.65a2.19,2.19,0,0,1-1.5.54,2.36,2.36,0,0,1-1.62-.54,2.08,2.08,0,0,1-.66-1.5,1.84,1.84,0,0,1,.6-1.5,2,2,0,0,1,1.56-.66,2.42,2.42,0,0,1,1.5.54v-1.14l-4.14.12v-.48l9.66-.31v.49l-4.5.12.06,1.07a2.39,2.39,0,0,1,1.5-.53,2.3,2.3,0,0,1,1.62.59,1.84,1.84,0,0,1,.66,1.44,2.09,2.09,0,0,1-.6,1.56,2.4,2.4,0,0,1-1.56.66,2.22,2.22,0,0,1-1.32-.47l.12-.3a1.53,1.53,0,0,0,1,.36,1.15,1.15,0,0,0,1-.54,1.75,1.75,0,0,0,.42-1.21,2,2,0,0,0-.48-1.2,1.28,1.28,0,0,0-1-.48,1.6,1.6,0,0,0-1.26.61m-1,2.33-.06-2.27a1.74,1.74,0,0,0-1.32-.55,1.17,1.17,0,0,0-1,.55,1.88,1.88,0,0,0-.36,1.2,1.93,1.93,0,0,0,.48,1.2,1,1,0,0,0,1,.41,2,2,0,0,0,1.32-.54" transform="translate(-16.82 -19.89)" style="fill:#0a3f6c"/><path d="M229.59,295.75l.06-1.39h-.42a.61.61,0,0,0-.48.3,2,2,0,0,0-.18.84c-.06.73.06,1.09.42,1.09a.55.55,0,0,0,.42-.24,1.06,1.06,0,0,0,.18-.6m2.64-1.63.12-2.21-1.56-.12-.06,2.28Zm2.46-2.16-1.32,0-.18,4.91a.41.41,0,0,0,.24.36c.12.12.36.12.54.18v.25l-2.7-.13v-.23a1.77,1.77,0,0,0,.6-.13c.18-.12.24-.17.24-.35l.12-2.29-1.5-.05-.06.89a1.46,1.46,0,0,1-.54,1.14,1.55,1.55,0,0,1-1.2.49,1.26,1.26,0,0,1-1-.49,1.44,1.44,0,0,1-.42-1.07,1.31,1.31,0,0,1,.54-1.09,1.83,1.83,0,0,1,1.26-.3h.36l.12-2.21-2.4-.13v-.48l7.32.3Z" transform="translate(-16.82 -19.89)" style="fill:#0a3f6c"/><path d="M233.85,289.09h-.66a.57.57,0,0,0-.6.18.48.48,0,0,0-.24.48,1.14,1.14,0,0,0,.24.66,2,2,0,0,0,.54.66H232a3.41,3.41,0,0,1-.6-.66,1.17,1.17,0,0,1-.24-.72,1.11,1.11,0,0,1,.42-.78,1.86,1.86,0,0,1,1-.3h1.26Z" transform="translate(-16.82 -19.89)" style="fill:#0a3f6c"/><path d="M239.19,296.82a1.9,1.9,0,0,1-1,.48,3.6,3.6,0,0,1-1.2.13,2.6,2.6,0,0,1-1.56-.79,1.88,1.88,0,0,1-.54-1.5,1.72,1.72,0,0,1,.6-1,3.16,3.16,0,0,1,1.32-.66l-2.16-.23.06-.37,4.38.55v.36l-1-.13a1.91,1.91,0,0,0-1.38.36,1.42,1.42,0,0,0-.66,1.09,1.59,1.59,0,0,0,.36,1.26,1.84,1.84,0,0,0,1.2.65,1.19,1.19,0,0,0,.78-.11,1.7,1.7,0,0,0,.78-.48l.48-3.91-5.1-.59.06-.43,7.38.84-.06.48-1.26-.18-.54,4.93c-.06.11.06.24.18.36a1.05,1.05,0,0,0,.54.18v.23l-2.7-.3.06-.23a2,2,0,0,0,.6-.06c.12-.07.24-.18.24-.3Z" transform="translate(-16.82 -19.89)" style="fill:#0a3f6c"/><path d="M244.83,293.11l-1.32-.13-.54,4.86a.54.54,0,0,0,.18.37,2,2,0,0,0,.6.24l-.06.17-2.64-.3v-.23a1,1,0,0,0,.6-.07.3.3,0,0,0,.24-.29l.6-4.86-.9-.12.06-.48,3.24.41Z" transform="translate(-16.82 -19.89)" style="fill:#0a3f6c"/><path d="M252,294.07l-1-.25a1.87,1.87,0,0,0-.42-1.61,3.27,3.27,0,0,0-1.68-1,2.44,2.44,0,0,0-1.32.07c-.42.18-.66.41-.72.71a1.37,1.37,0,0,0,.18,1l-1.08-.25a1.53,1.53,0,0,1-.12-.89,1.32,1.32,0,0,1,1-.9,4.13,4.13,0,0,1,2.1,0,4.52,4.52,0,0,1,2.4,1.25,2,2,0,0,1,.66,1.93m-3.9-.3-1.26-.25-1.08,4.8a.48.48,0,0,0,.18.36.77.77,0,0,0,.54.25l-.06.23-2.64-.59.06-.25a.88.88,0,0,0,.6,0c.18,0,.3-.11.3-.23l1.08-4.8-.84-.18.06-.49,3.18.72Z" transform="translate(-16.82 -19.89)" style="fill:#0a3f6c"/><path d="M255.45,296.52l.24-1-5.46-1.25a3.18,3.18,0,0,1,.9.89,2,2,0,0,1,.18,1.15,1.84,1.84,0,0,1-1,1.32,2,2,0,0,1-1.56.23,5.35,5.35,0,0,0,.84,1.14,2.21,2.21,0,0,0,1.08.54,1.5,1.5,0,0,0,1-.23,1.79,1.79,0,0,1-.42-1,2.91,2.91,0,0,1,0-1,2,2,0,0,1,1-1.37,2.35,2.35,0,0,1,1.8-.31,2.5,2.5,0,0,1,1.32.9m-.72,3.3a2.79,2.79,0,0,1-.84.3,4.09,4.09,0,0,1-.78-.05,2.68,2.68,0,0,1-1.2-.55,2.6,2.6,0,0,1-1,.43,2.32,2.32,0,0,1-1.08,0,2.46,2.46,0,0,1-1.56-1.15c-.6-1-1-1.5-1.32-1.55l.18-.3a4.48,4.48,0,0,0,1,.48,1.5,1.5,0,0,0,1.32-.31,2.43,2.43,0,0,0,.84-1.26,1.68,1.68,0,0,0-.12-.95,1.55,1.55,0,0,0-.72-.79l-1.8-.41.12-.48,10.26,2.34-.12.48-1.26-.3-1.08,4.8c-.06.11,0,.24.18.36a1.37,1.37,0,0,0,.54.3l-.06.18-2.64-.6.06-.18h.6a.48.48,0,0,0,.3-.31Zm.12-.53.48-2.17a1.16,1.16,0,0,0-1.08-1,1.43,1.43,0,0,0-1.2.23,2.08,2.08,0,0,0-.72,1.14,2,2,0,0,0,.18,1.45,1.28,1.28,0,0,0,.9.84,2,2,0,0,0,.78-.06,1.77,1.77,0,0,0,.66-.42" transform="translate(-16.82 -19.89)" style="fill:#0a3f6c"/><path d="M263.13,299.41c-.06,0-.12-.07-.18-.07a.9.9,0,0,0-.9.18,1.58,1.58,0,0,0-.6.78l-.3-.05a1.7,1.7,0,0,0,0-1.09,1.3,1.3,0,0,0-.72-.66,1.52,1.52,0,0,0-1.2.18,2.28,2.28,0,0,0-.84,1.09,2.92,2.92,0,0,0,0,1.44,1.39,1.39,0,0,0,.78.84,1.71,1.71,0,0,0,.78,0l.12.24a1.76,1.76,0,0,1-1.32,0,2.31,2.31,0,0,1-1.32-3,2.68,2.68,0,0,1,1.14-1.38,1.89,1.89,0,0,1,1.68-.12,2,2,0,0,1,1,.61,2.19,2.19,0,0,1,.42,1,1.17,1.17,0,0,1,.66-.41,1.32,1.32,0,0,1,1,0l.36-1-5.52-1.86.12-.48,7.74,2.64-.18.47-1.2-.41L263,303.07a.39.39,0,0,0,.12.41,1.21,1.21,0,0,0,.48.31l-.06.23-2.58-.9L261,303a2.69,2.69,0,0,0,.6.05.51.51,0,0,0,.36-.23Z" transform="translate(-16.82 -19.89)" style="fill:#0a3f6c"/><path d="M264.63,296.46a.45.45,0,0,1-.24-.23.39.39,0,0,1-.06-.43.7.7,0,0,1,.24-.3.6.6,0,0,1,.42,0,.39.39,0,0,1,.3.25.48.48,0,0,1,0,.41c0,.13-.12.18-.24.3a.44.44,0,0,1-.42,0" transform="translate(-16.82 -19.89)" style="fill:#0a3f6c"/><use transform="matrix(1, 0, 0, -1, 71.32, 334.24)" xlink:href="#a"/><use transform="matrix(1, 0, 0, -1, 66.71, 328.96)" xlink:href="#a"/><use transform="matrix(1, 0, 0, -1, 62.29, 323.48)" xlink:href="#a"/><use transform="matrix(1, 0, 0, -1, 58.77, 318.82)" xlink:href="#a"/><use transform="matrix(1, 0, 0, -1, 55.4, 314.03)" xlink:href="#a"/><use width="11.28" height="8.25" transform="matrix(1, 0, 0, -1, 38.31, 311.91)" xlink:href="#f"/><use transform="matrix(1, 0, 0, -1, 46.68, 299.94)" xlink:href="#g"/><use transform="matrix(1, 0, 0, -1, 43.91, 294.8)" xlink:href="#g"/><use transform="matrix(1, 0, 0, -1, 41.3, 289.56)" xlink:href="#g"/><use width="12.16" height="8.91" transform="matrix(1, 0, 0, -1, 24.83, 286.06)" xlink:href="#j"/><use transform="matrix(1, 0, 0, -1, 34.82, 274.32)" xlink:href="#g"/><use transform="matrix(1, 0, 0, -1, 32.87, 268.81)" xlink:href="#g"/><use transform="matrix(1, 0, 0, -1, 31.08, 263.22)" xlink:href="#g"/><use width="12.78" height="9.34" transform="matrix(1, 0, 0, -1, 15.65, 258.48)" xlink:href="#n"/><use transform="matrix(1, 0, 0, -1, 27, 247.16)" xlink:href="#g"/><use transform="matrix(1, 0, 0, -1, 25.91, 241.42)" xlink:href="#g"/><use transform="matrix(1, 0, 0, -1, 24.99, 235.63)" xlink:href="#g"/><use width="15.72" height="6.08" transform="matrix(1, 0, 0, -0.72, 8.36, 227.76)" xlink:href="#r"/><use width="15.66" height="12.56" transform="matrix(1, 0, 0, -1, 7.7, 220.57)" xlink:href="#s"/><use width="15.69" height="13.31" transform="matrix(1, 0, 0, -1, 7.78, 205.01)" xlink:href="#t"/><use width="15.61" height="4.84" transform="matrix(1, 0, 0, -1, 8.95, 189.9)" xlink:href="#u"/><use width="16.73" height="15.17" transform="matrix(1, 0, 0, -1, 10.46, 185.6)" xlink:href="#v"/><use width="17.92" height="15.64" transform="matrix(1, 0, 0, -1, 12.66, 169.08)" xlink:href="#w"/><use transform="matrix(1, 0, 0, -1, 31.09, 155.86)" xlink:href="#g"/><use transform="matrix(1, 0, 0, -1, 32.87, 150.29)" xlink:href="#g"/><use width="15.44" height="8.47" transform="matrix(1, 0, 0, -1, 21.03, 143.41)" xlink:href="#z"/><use width="19.05" height="17.48" transform="matrix(1, 0, 0, -1, 23.49, 137.91)" xlink:href="#aa"/><use width="16.17" height="14.57" transform="matrix(1, 0, 0, -1, 31.77, 122.84)" xlink:href="#ab"/><use width="17.05" height="14.84" transform="matrix(1, 0, 0, -1, 37.41, 109.1)" xlink:href="#ac"/><use width="14.22" height="11.56" transform="matrix(1, 0, 0, -1, 45.64, 101.34)" xlink:href="#ad"/><use width="16.77" height="15.63" transform="matrix(1, 0, 0, -1, 48.87, 93.91)" xlink:href="#ae"/><use width="17.72" height="17.54" transform="matrix(1, 0, 0, -1, 58.45, 84.78)" xlink:href="#af"/><use width="16.02" height="16.52" transform="matrix(1, 0, 0, -1, 69.02, 73.4)" xlink:href="#ag"/><use width="18.66" height="19.11" transform="matrix(1, 0, 0, -1, 80.27, 67.15)" xlink:href="#ah"/><use transform="matrix(1, 0, 0, -1, 99.68, 59.5)" xlink:href="#g"/><use transform="matrix(1, 0, 0, -1, 104.47, 56.14)" xlink:href="#g"/><use width="15.61" height="16.07" transform="matrix(1, 0, 0, -1, 104.81, 49.78)" xlink:href="#ak"/><use width="12.38" height="18.39" transform="matrix(1, 0, 0, -1, 118.31, 44.07)" xlink:href="#al"/><use transform="matrix(1, 0, 0, -1, 135.17, 39.3)" xlink:href="#g"/><use transform="matrix(1, 0, 0, -1, 140.58, 37.07)" xlink:href="#g"/><use width="7.86" height="15.55" transform="matrix(1, 0, 0, -1, 142.49, 34.55)" xlink:href="#ao"/><use width="15.86" height="18.06" transform="matrix(1, 0, 0, -1, 148.86, 32.61)" xlink:href="#ap"/><use width="11.06" height="17.09" transform="matrix(1, 0, 0, -1, 164.69, 28.69)" xlink:href="#aq"/><use width="14.95" height="15.92" transform="matrix(1, 0, 0, -1, 178.57, 25.59)" xlink:href="#ar"/><use width="14.27" height="15.57" transform="matrix(1, 0, 0, -1, 196.08, 24.43)" xlink:href="#as"/><use width="15.69" height="16.17" transform="matrix(1, 0, 0, -1, 211.65, 24.91)" xlink:href="#at"/><use width="15.25" height="16.56" transform="matrix(1, 0, 0, -1, 227.65, 27.25)" xlink:href="#au"/><use width="12.5" height="16.64" transform="matrix(1, 0, 0, -1, 244.31, 28.7)" xlink:href="#av"/><use width="6.97" height="15.64" transform="matrix(1, 0, 0, -1, 255.21, 30.98)" xlink:href="#aw"/><use width="15.28" height="16.05" transform="matrix(1, 0, 0, -1, 261.89, 34.43)" xlink:href="#ax"/><use width="17.28" height="18.94" transform="matrix(1, 0, 0, -1, 276.4, 41.78)" xlink:href="#ay"/><use transform="matrix(1, 0, 0, -1, 288.9, 42.49)" xlink:href="#g"/><use transform="matrix(1, 0, 0, -1, 294.14, 45.11)" xlink:href="#g"/><use width="14.53" height="17.11" transform="matrix(1, 0, 0, -1, 303.54, 52.01)" xlink:href="#bb"/><use width="18.19" height="19.3" transform="matrix(1, 0, 0, -1, 311.5, 62.13)" xlink:href="#bc"/><use width="15.34" height="15.52" transform="matrix(1, 0, 0, -1, 325.04, 69.4)" xlink:href="#bd"/><use width="19.52" height="19.55" transform="matrix(1, 0, 0, -1, 334.48, 82.04)" xlink:href="#be"/><use width="19.59" height="19.27" transform="matrix(1, 0, 0, -1, 345.21, 93.46)" xlink:href="#bf"/><use width="16.03" height="15.76" transform="matrix(1, 0, 0, -1, 356.95, 104.66)" xlink:href="#bg"/><use width="14.66" height="17.14" transform="matrix(1, 0, 0, -1, 364.46, 118.49)" xlink:href="#bh"/><use width="16.05" height="15.53" transform="matrix(1, 0, 0, -1, 372.66, 130.53)" xlink:href="#bi"/><use width="16.09" height="16.1" transform="matrix(1, 0, 0, -1, 379.92, 146.78)" xlink:href="#bj"/><use width="17.23" height="13.73" transform="matrix(1, 0, 0, -1, 385.36, 157.87)" xlink:href="#bk"/><use transform="matrix(1, 0, 0, -1, 387.65, 161.79)" xlink:href="#g"/><use transform="matrix(1, 0, 0, -1, 389.06, 167.47)" xlink:href="#g"/><use width="17.28" height="16.06" transform="matrix(1, 0, 0, -1, 390.66, 188.35)" xlink:href="#bn"/><use width="15.88" height="14.92" transform="matrix(1, 0, 0, -1, 393, 203.26)" xlink:href="#bo"/><use width="15.42" height="12.25" transform="matrix(1, 0, 0, -1, 393.88, 217.24)" xlink:href="#bp"/><use width="16.02" height="15.36" transform="matrix(1, 0, 0, -1, 392.8, 231.06)" xlink:href="#bq"/><use transform="matrix(1, 0, 0, -1, 392.76, 230.16)" xlink:href="#g"/><use transform="matrix(1, 0, 0, -1, 392.02, 235.96)" xlink:href="#g"/><use transform="matrix(1, 0, 0, -1, 391.08, 241.75)" xlink:href="#g"/><use width="12.78" height="9.34" transform="matrix(1, 0, 0, -1, 388.53, 258.9)" xlink:href="#bu"/><use transform="matrix(1, 0, 0, -1, 387.48, 257.92)" xlink:href="#g"/><use transform="matrix(1, 0, 0, -1, 385.87, 263.54)" xlink:href="#g"/><use transform="matrix(1, 0, 0, -1, 384.08, 269.11)" xlink:href="#g"/><use width="12.17" height="8.89" transform="matrix(1, 0, 0, -1, 379.9, 286.5)" xlink:href="#by"/><use transform="matrix(1, 0, 0, -1, 378.08, 284.55)" xlink:href="#g"/><use transform="matrix(1, 0, 0, -1, 375.62, 289.86)" xlink:href="#g"/><use transform="matrix(1, 0, 0, -1, 373.01, 295.08)" xlink:href="#g"/><use width="11.27" height="8.23" transform="matrix(1, 0, 0, -1, 367.27, 312.28)" xlink:href="#cc"/><path d="M81.23,356.31l-1.83-2.06-1.5,1.33a3.52,3.52,0,0,1-2.61.92,3.3,3.3,0,0,1-2.43-1.14,3.41,3.41,0,0,1-.9-2.5,3.22,3.22,0,0,1,1.1-2.36,2.8,2.8,0,0,1,2.24-.71,3.33,3.33,0,0,1,2.17,1.15l1,1.13,1.13-1a2.2,2.2,0,0,1-1.72-.81,2.89,2.89,0,0,1-.76-2.06,2.59,2.59,0,0,1,.91-1.92,2.72,2.72,0,0,1,2.23-.67,3.49,3.49,0,0,1,2.25,1.2,3.54,3.54,0,0,1,.94,2.47,3,3,0,0,1-1,2.31L80,353.75l1.83,2.06,3.75-3.32L84,350.8l.75-.66,4.8,5.41-.75.67-1.81-2-7.87,7A.85.85,0,0,0,79,362a2.53,2.53,0,0,0,.59,1.1l-.37.34-3.82-4.31.37-.33a2.52,2.52,0,0,0,1,.72.82.82,0,0,0,.88-.08Zm-3.32-3.75-.5-.56a1.55,1.55,0,0,0-1.37-.5,3,3,0,0,0-1.59.79,3.83,3.83,0,0,0-1.1,1.44,1,1,0,0,0,.07,1.14,1.07,1.07,0,0,0,1,.28,2.64,2.64,0,0,0,1.31-.68Zm3.18-2.82a3.06,3.06,0,0,0,.92-1.35,1,1,0,0,0-1.3-1.46,3,3,0,0,0-1.45.75,2.49,2.49,0,0,0-.79,1.24,1.11,1.11,0,0,0,1.3,1.46,2.55,2.55,0,0,0,1.32-.64" transform="translate(-16.82 -19.89)" style="fill:#fff"/><path d="M92.79,360.68,91,358.63l-7.87,7a.85.85,0,0,0-.18.87,2.45,2.45,0,0,0,.6,1.1l-.38.33-3.82-4.3.38-.33a2.52,2.52,0,0,0,1,.72.82.82,0,0,0,.88-.08l7.86-7-1.27-1.45.75-.66L93.54,360Z" transform="translate(-16.82 -19.89)" style="fill:#fff"/><path d="M100.05,367.25l-4.27-4.12a4.82,4.82,0,0,1,1,3,3.73,3.73,0,0,1-1.05,2.69,3.57,3.57,0,0,1-3.23.94,6.5,6.5,0,0,1-3.69-1.88,9.63,9.63,0,0,0,.14,2.7,3.42,3.42,0,0,0,.82,1.71,2,2,0,0,0,1,.49,2.94,2.94,0,0,0,1.37-.09l.1.62a3.21,3.21,0,0,1-2.12.25,4.13,4.13,0,0,1-2-1.06,4.76,4.76,0,0,1-1.06-1.59,5.19,5.19,0,0,1-.42-1.93c0-1.13-.07-2-.14-2.67a2.8,2.8,0,0,0-.29-1.21l.35-.36c.14.14.41.46.8,1a11.09,11.09,0,0,0,.83,1,4,4,0,0,0,5.66-.11,3.55,3.55,0,0,0,1-2.4,3.89,3.89,0,0,0-.76-2.56l-2.51-2.42.69-.72,8.4,8.09Z" transform="translate(-16.82 -19.89)" style="fill:#fff"/><path d="M104.27,375.54a5.4,5.4,0,0,0-2.06-3,3.57,3.57,0,0,0-2.79-.82,3.8,3.8,0,0,0-2.58,1.42A4.23,4.23,0,0,0,96,375a6,6,0,0,0,0,2.31l-2.47.23a7.24,7.24,0,0,1,0-3A6.52,6.52,0,0,1,94.86,372a4.61,4.61,0,0,1,3.66-1.67,6.34,6.34,0,0,1,4.24,1.53,5.37,5.37,0,0,1,2.07,3l1.75-2.13-8-6.61.64-.78,11.88,9.79-.63.77-2.11-1.73-6.68,8.11a.86.86,0,0,0,0,.89,2.57,2.57,0,0,0,.76,1l-.31.38-4.45-3.66.32-.38a2.5,2.5,0,0,0,1.13.56.85.85,0,0,0,.86-.22Z" transform="translate(-16.82 -19.89)" style="fill:#fff"/><path d="M113.73,377,112,375.57l.47-.56a4.83,4.83,0,0,0,1.15-2.56,2.12,2.12,0,0,0-.65-2,1.84,1.84,0,0,0-1.51-.39,2.15,2.15,0,0,0-1.41.79,3.73,3.73,0,0,0-.75,2.48l-1.74-1.43a2.49,2.49,0,0,1,.07-1.2,3.06,3.06,0,0,1,.61-1.19,2.63,2.63,0,0,1,2.18-1,4.1,4.1,0,0,1,2.62,1,5.47,5.47,0,0,1,2,3.39,4.12,4.12,0,0,1-.87,3.47Zm1.31,2.71-2.1-1.74-6.69,8.12a.84.84,0,0,0,0,.88,2.41,2.41,0,0,0,.76,1l-.32.39-4.44-3.66.32-.39a2.41,2.41,0,0,0,1.13.56.82.82,0,0,0,.86-.22l6.68-8.11-1.49-1.22.64-.78,5.33,4.39Z" transform="translate(-16.82 -19.89)" style="fill:#fff"/><path d="M116.89,391.61a6.14,6.14,0,0,1-4-1.24,5.28,5.28,0,0,1-2.44-3.63,6.14,6.14,0,0,1,1.22-4.41,4.62,4.62,0,0,1,.52-.65,5,5,0,0,0,1.46,1.62,3.57,3.57,0,0,0,1.91.67,1.7,1.7,0,0,0,1.5-.76,1.82,1.82,0,0,0,.33-1.22,2.81,2.81,0,0,0-.54-1.36l-3.28-2.25.57-.83,12.54,8.63-.57.82-2.24-1.54-6,8.66a.82.82,0,0,0,0,.88,2.5,2.5,0,0,0,.84.94l-.28.41-4.74-3.26.28-.41a2.54,2.54,0,0,0,1.17.45.82.82,0,0,0,.84-.29Zm5.11-7.43-3.71-2.55a3.73,3.73,0,0,1,.85,1.65,1.72,1.72,0,0,1-.2,1.38,2.34,2.34,0,0,1-1.87,1,3.8,3.8,0,0,1-2.41-.72l-1.44-1a4.21,4.21,0,0,0,1.16,6.26,4.32,4.32,0,0,0,3,.7Z" transform="translate(-16.82 -19.89)" style="fill:#fff"/><path d="M141.92,400.89l2.12-4.13-6.24-3.19a5.33,5.33,0,0,1,1.93,2.72,4,4,0,0,1-.35,3,2.88,2.88,0,0,0,1.31,1.27,3.64,3.64,0,0,0,1.23.33m-.46.9a9.23,9.23,0,0,1-1.17-.46,4.61,4.61,0,0,1-1.56-1.29,4,4,0,0,1-2.66,1,7.67,7.67,0,0,1-3.41-1,11.58,11.58,0,0,0,1,3,3,3,0,0,0,1.14,1.12,2.4,2.4,0,0,0,2.42-.33l.25.57a3.57,3.57,0,0,1-4.17.39,4.54,4.54,0,0,1-1.58-1.3,6.78,6.78,0,0,1-1-2.27,7.12,7.12,0,0,0-1.3-3.2l.48-.5a8,8,0,0,0,1.87,1.42,4.67,4.67,0,0,0,3.22.49,3.34,3.34,0,0,0,2.32-1.8,3.61,3.61,0,0,0,.34-1.07,3.29,3.29,0,0,0,0-1.13,4.09,4.09,0,0,0-1-2.16,2.79,2.79,0,0,0-.6-.57L132.82,391l.45-.88,15.65,8-.45.88-2.42-1.24-4.79,9.36a.87.87,0,0,0,.13.87,2.74,2.74,0,0,0,1,.83l-.24.45L137,406.68l.23-.46a2.93,2.93,0,0,0,1.17.32.83.83,0,0,0,.84-.42Z" transform="translate(-16.82 -19.89)" style="fill:#fff"/><path d="M143.82,417.87l-2-1a4.73,4.73,0,0,0,.25-3.86,5.22,5.22,0,0,0-2.65-3,2.33,2.33,0,0,0-1.92-.11,2.61,2.61,0,0,0-1.51,1.31,2.37,2.37,0,0,0-.28,1.22.79.79,0,0,0,.38.79.82.82,0,0,0,.86-.11,2.49,2.49,0,0,0,.82-1l2,1a2.88,2.88,0,0,1-1.82,1.08,3.39,3.39,0,0,1-2.22-.34,3.55,3.55,0,0,1-1.69-1.71,2.18,2.18,0,0,1-.07-2,2.9,2.9,0,0,1,2.32-1.5,5.62,5.62,0,0,1,3.46.66,8.46,8.46,0,0,1,4,3.91,5,5,0,0,1,.09,4.64" transform="translate(-16.82 -19.89)" style="fill:#fff"/><path d="M153.26,410.91a5.88,5.88,0,0,1-2.36.44,6.82,6.82,0,0,1-2.47-.55,5.34,5.34,0,0,1-2.79-2.51,3.84,3.84,0,0,1-.2-3.34,3.33,3.33,0,0,1,1.83-1.76,6.75,6.75,0,0,1,3-.55l-4.27-1.77.29-.69,8.78,3.64-.29.69-1.85-.76a4.08,4.08,0,0,0-3-.11,3.35,3.35,0,0,0-2.06,1.92,3.46,3.46,0,0,0,0,2.8,3.69,3.69,0,0,0,2,2,3.91,3.91,0,0,0,1.77.31,4.84,4.84,0,0,0,1.86-.56l3.21-7.74-10.05-4.18.38-.92,14.66,6.08-.39.92-2.52-1-4,9.71a.88.88,0,0,0,.21.86,2.61,2.61,0,0,0,1,.73l-.19.46-5.32-2.2.19-.46a2.53,2.53,0,0,0,1.24.2.85.85,0,0,0,.77-.46Z" transform="translate(-16.82 -19.89)" style="fill:#fff"/><path d="M169.36,412.26a7,7,0,0,0-1.32-1.47,9.16,9.16,0,0,0-1.79-1.2,3.38,3.38,0,0,1,1,1.66,3.43,3.43,0,0,1,0,1.93,3.91,3.91,0,0,1-2.22,2.46,4.8,4.8,0,0,1-3.58.19,4.89,4.89,0,0,1-2.85-2.19,3.93,3.93,0,0,1,1.78-5.73,4.93,4.93,0,0,1,3.59-.21,14.92,14.92,0,0,1,3.55,1.56,6.83,6.83,0,0,1,2.15,2l1.25-4.06-11.48-3.55.3-1,16.23,5-.29,1-2.6-.81L170,418a.83.83,0,0,0,.29.83,2.63,2.63,0,0,0,1.09.64l-.15.48-5.5-1.7.15-.48a2.45,2.45,0,0,0,1.25.08.81.81,0,0,0,.71-.52Zm-7.7,2.86a2.16,2.16,0,0,0,2-.45,4.57,4.57,0,0,0,1.47-4.76,2,2,0,0,0-3.38-1A4.26,4.26,0,0,0,160.3,411a4.14,4.14,0,0,0,0,2.58,2.18,2.18,0,0,0,1.38,1.51" transform="translate(-16.82 -19.89)" style="fill:#fff"/><path d="M181.39,410.48l-2.61-.81-3.11,10a.87.87,0,0,0,.29.84,2.63,2.63,0,0,0,1.09.64l-.15.47-5.5-1.7.15-.48a2.47,2.47,0,0,0,1.25.09c.4-.08.64-.25.72-.52l3.1-10.05-1.83-.57.29-.95,6.6,2Z" transform="translate(-16.82 -19.89)" style="fill:#fff"/><path d="M187.86,424l.21-1.48a10.94,10.94,0,0,0,5.06-.15,5.93,5.93,0,0,1-2.72-1.79,3.16,3.16,0,0,1-.8-2.52l.84-5.82-1.68-.24.14-1,13.8,2-.14,1-2.7-.39L198.35,424a.83.83,0,0,0,.42.78,2.43,2.43,0,0,0,1.17.46l-.07.5-5.7-.83.08-.49a2.58,2.58,0,0,0,1.25-.11c.38-.14.58-.35.62-.63l.34-2.35a10.86,10.86,0,0,1-4.06,2.3,10,10,0,0,1-4.54.36m9.78-10.71-5-.72-.9,6.19a2.44,2.44,0,0,0,.49,1.84,2.6,2.6,0,0,0,4.46-1.12Z" transform="translate(-16.82 -19.89)" style="fill:#fff"/><path d="M206.36,413.25l-2.72-.39a2.48,2.48,0,0,1-1.4-.84l-2.63-2.79a2,2,0,0,0-1.16-.67l-1-.15.11-.74,2.73.4a2.31,2.31,0,0,1,1.41.71l2.76,2.93a2.1,2.1,0,0,0,1.24.69l.77.11Zm2.62-.63-2-.29a1.41,1.41,0,0,1-1-.75l-1.67-2.8a1.66,1.66,0,0,0-1.24-.81l-1.74-.25.11-.75,3.64.53a1.6,1.6,0,0,1,1.19.86l1.64,2.84a1.19,1.19,0,0,0,.91.64l.25,0Zm-.5,2.2-2.69-.39-1.52,10.41a.85.85,0,0,0,.42.78,2.64,2.64,0,0,0,1.17.46l-.07.49-5.7-.82.07-.5a2.48,2.48,0,0,0,1.26-.11c.37-.14.58-.35.62-.63l1.51-10.4-1.9-.28.14-1,6.84,1Z" transform="translate(-16.82 -19.89)" style="fill:#fff"/><path d="M217.48,422.64l.33-7.5-2-.09-.1,2.25-3.5-.15a2.56,2.56,0,0,0-1.26.23.85.85,0,0,0-.54.69,1,1,0,0,0,.48.82,2.32,2.32,0,0,0,1.22.39l2.75.12,0,.75-2.75-.12a2.87,2.87,0,0,0-2.07.69,2.44,2.44,0,0,0-.92,1.8,1.92,1.92,0,0,0,.95,1.64,4.51,4.51,0,0,0,2.45.77,6.2,6.2,0,0,0,5-2.29m0,.88a7.47,7.47,0,0,1-6.12,2.48,5.61,5.61,0,0,1-3.31-1.13,2.92,2.92,0,0,1-1.3-2.45,2.76,2.76,0,0,1,1-1.95,4.28,4.28,0,0,1,2.29-1,3.34,3.34,0,0,1-1.41-.64,1.21,1.21,0,0,1-.53-1,1.34,1.34,0,0,1,.78-1.14,3.14,3.14,0,0,1,1.67-.38l3,.14.07-1.5-7.2-.32,0-1,16.18.71,0,1-2.73-.12-.47,10.5a.87.87,0,0,0,.5.74,2.51,2.51,0,0,0,1.21.34l0,.5-5.5-.24,0-.5a2.6,2.6,0,0,0,1.24-.23.84.84,0,0,0,.55-.7Z" transform="translate(-16.82 -19.89)" style="fill:#fff"/><path d="M226.48,414.27l-2.5-.11a1.82,1.82,0,0,1-1.23-.53l-3.84-3.75a1.63,1.63,0,0,0-.62-.4,3.07,3.07,0,0,0-.86-.14l-.5,0,0-.73,2.75.12a2.51,2.51,0,0,1,1.72.81l3.59,3.61a1.78,1.78,0,0,0,1.23.53h.25Zm2,1.35-2.72-.12-.47,10.5a.85.85,0,0,0,.49.73,2.55,2.55,0,0,0,1.22.34l0,.51-5.75-.26,0-.5a2.46,2.46,0,0,0,1.24-.23c.36-.18.55-.41.56-.69l.47-10.51-1.93-.08,0-1,6.9.31Z" transform="translate(-16.82 -19.89)" style="fill:#fff"/><path d="M241.39,413.41l-2.25.14a4,4,0,0,0-1.83-3.08,6.13,6.13,0,0,0-4.07-1.06,4.91,4.91,0,0,0-2.7.93,2.18,2.18,0,0,0-1,1.91,2.71,2.71,0,0,0,.87,1.85l-2.25.14a2.55,2.55,0,0,1,.75-4.29,8.94,8.94,0,0,1,4.3-1.24,9.74,9.74,0,0,1,5.69,1.18,4.38,4.38,0,0,1,2.5,3.52m-8.19,1.77-2.72.17.65,10.49c0,.28.21.5.57.68a2.52,2.52,0,0,0,1.24.21l0,.5-5.74.36,0-.5a2.56,2.56,0,0,0,1.2-.36.83.83,0,0,0,.48-.75l-.65-10.49-1.93.12-.06-1,6.9-.43Z" transform="translate(-16.82 -19.89)" style="fill:#fff"/><path d="M244,414.51l-6.37.39a6.07,6.07,0,0,1,3.3,1.39,3.94,3.94,0,0,1,1.48,2.83,4.64,4.64,0,0,1-1.4,3.65,5.67,5.67,0,0,1-3.79,1.69,4.18,4.18,0,0,1-2.7-.72,2.71,2.71,0,0,1-1.23-2.1,2.8,2.8,0,0,1,.85-2.22,3.45,3.45,0,0,1,2.33-1.06,2.83,2.83,0,0,1,2.18.78,3.07,3.07,0,0,1,1,2.16h.12a3.14,3.14,0,0,0,.38-2,4.06,4.06,0,0,0-1.41-2.85,5.44,5.44,0,0,0-3.12-1.38l-3.37.21-.06-1,16.71-1,.06,1-2.72.17.65,10.49a.87.87,0,0,0,.57.68,2.54,2.54,0,0,0,1.24.21l0,.5-5.74.36,0-.5a2.4,2.4,0,0,0,1.2-.37.82.82,0,0,0,.48-.74Zm-7.1,4.7a1.27,1.27,0,0,0-1,.74,3.07,3.07,0,0,0,.19,3.15,1.31,1.31,0,0,0,1.11.61,1.28,1.28,0,0,0,1-.72,3.15,3.15,0,0,0-.19-3.19,1.26,1.26,0,0,0-1.11-.59" transform="translate(-16.82 -19.89)" style="fill:#fff"/><path d="M258.13,415.76l1.31,7.14c.05.27.27.47.65.61a2.49,2.49,0,0,0,1.25.06l.09.5-5.66,1-.09-.49a2.61,2.61,0,0,0,1.16-.5.82.82,0,0,0,.38-.8L257,422a4.93,4.93,0,0,1-3,1.7,4.74,4.74,0,0,1-3.54-.7,4.21,4.21,0,0,1-1.95-2.88,4.25,4.25,0,0,1,.78-3.37,4.66,4.66,0,0,1,3.09-1.91,5,5,0,0,1,3.42.64l-.45-2.46-8.67,1.58-.18-1,20.34-3.72.18,1-9.45,1.73.4,2.22a5,5,0,0,1,3-1.57,4.68,4.68,0,0,1,3.56.67,4.39,4.39,0,0,1,1.13,6.31,4.7,4.7,0,0,1-3.06,1.88,4.31,4.31,0,0,1-2.89-.49l.13-.66a3,3,0,0,0,2.11.38,2.65,2.65,0,0,0,1.89-1.43,4.17,4.17,0,0,0-.92-5.05,2.64,2.64,0,0,0-2.28-.66,3.42,3.42,0,0,0-2.51,1.6m-1.31,5.33-.88-4.8a3.4,3.4,0,0,0-2.93-.74,2.65,2.65,0,0,0-1.94,1.44,4.27,4.27,0,0,0,1,5,2.65,2.65,0,0,0,2.29.68,4.25,4.25,0,0,0,2.51-1.61" transform="translate(-16.82 -19.89)" style="fill:#fff"/><path d="M270,409l-2.21.4a3.87,3.87,0,0,0-2.51-2.78,8.3,8.3,0,0,0-5-.47,6.26,6.26,0,0,0-3.17,1.42,2.4,2.4,0,0,0-.92,2.26,2.23,2.23,0,0,0,1.28,1.47l-2.21.4a2.26,2.26,0,0,1-1.29-1.47,3,3,0,0,1,1.47-2.9,10.17,10.17,0,0,1,4.41-1.84,13.14,13.14,0,0,1,6.81.37c2,.71,3.12,1.75,3.37,3.14m2.91.74-2.68.49,1.89,10.34c.05.27.27.47.65.61a2.65,2.65,0,0,0,1.26.06l.09.49-5.67,1-.09-.49a2.62,2.62,0,0,0,1.16-.51.82.82,0,0,0,.39-.79L268,410.66l-1.89.34-.18-1,6.79-1.25Z" transform="translate(-16.82 -19.89)" style="fill:#fff"/><path d="M293.41,407.58l-1.54-4.37-6.6,2.33a5.41,5.41,0,0,1,3.3.46,4,4,0,0,1,1.93,2.32,2.92,2.92,0,0,0,1.82-.07,3.69,3.69,0,0,0,1.09-.67m.34.95a8.28,8.28,0,0,1-1.14.53,4.71,4.71,0,0,1-2,.25,4,4,0,0,1-1.13,2.59,7.71,7.71,0,0,1-3.05,1.81,11.64,11.64,0,0,0,2.85,1.34,3,3,0,0,0,1.6-.06,2.36,2.36,0,0,0,1.43-2l.59.2a3.61,3.61,0,0,1-2.59,3.31,4.67,4.67,0,0,1-2,.25,6.64,6.64,0,0,1-2.37-.82,7,7,0,0,0-3.21-1.25l0-.7a7.74,7.74,0,0,0,2.32-.38,4.61,4.61,0,0,0,2.58-2,3.31,3.31,0,0,0,.28-2.92,3.81,3.81,0,0,0-.54-1,3.34,3.34,0,0,0-.81-.78,3.57,3.57,0,0,0-1-.55,3.71,3.71,0,0,0-1.2-.23,2.28,2.28,0,0,0-.83.05L280,407.41l-.32-.93,16.57-5.87.33.94-2.56.9,3.51,9.91a.83.83,0,0,0,.72.5,2.53,2.53,0,0,0,1.28-.14l.17.48-5.44,1.92-.17-.48a2.82,2.82,0,0,0,1-.63.84.84,0,0,0,.27-.89Z" transform="translate(-16.82 -19.89)" style="fill:#fff"/><path d="M291.53,399.06a1.1,1.1,0,1,1,.11-2,1,1,0,0,1,.56.62,1.11,1.11,0,0,1-.67,1.4" transform="translate(-16.82 -19.89)" style="fill:#fff"/><path d="M308.63,402.23a9,9,0,0,1-1.09.62,4.81,4.81,0,0,1-2,.39,4,4,0,0,1-.94,2.66,7.76,7.76,0,0,1-2.91,2,11.9,11.9,0,0,0,2.94,1.13,2.93,2.93,0,0,0,1.59-.18,2.33,2.33,0,0,0,1.27-2.07l.61.16a3.61,3.61,0,0,1-2.34,3.48,4.68,4.68,0,0,1-2,.4,6.7,6.7,0,0,1-2.42-.65,7.14,7.14,0,0,0-3.3-1l-.08-.68a8.28,8.28,0,0,0,2.28-.55,4.72,4.72,0,0,0,2.43-2.18,3.3,3.3,0,0,0,.06-2.94,3.72,3.72,0,0,0-3-2.21,3.15,3.15,0,0,0-1.61,0l-3.31,1.45-.39-.9L306.34,396l.39.9-6.77,3a5.31,5.31,0,0,1,3.32.22,4,4,0,0,1,2.1,2.17,2.87,2.87,0,0,0,1.81-.21,3.42,3.42,0,0,0,1-.74Z" transform="translate(-16.82 -19.89)" style="fill:#fff"/><path d="M319.1,400.41a5.07,5.07,0,0,1-1.09,2.17,7,7,0,0,1-2.09,1.69,5.49,5.49,0,0,1-4.55.37,6.28,6.28,0,0,1-3.6-3.08,7.24,7.24,0,0,0,2.43-.75,5.9,5.9,0,0,0,1.74-1.35,2.42,2.42,0,0,0,.69-1.53,4.87,4.87,0,0,1-1.14,1.05,3.77,3.77,0,0,1-2.38.45,2.2,2.2,0,0,1-1.67-1.11,2.56,2.56,0,0,1,0-2.42,4.2,4.2,0,0,1,1.91-2,4,4,0,0,1,2.75-.44,2.88,2.88,0,0,1,2.1,1.51,3.57,3.57,0,0,1,0,3.35,5.67,5.67,0,0,1-2.53,2.66,7.58,7.58,0,0,1-1.12.49,3.38,3.38,0,0,0,2.42,1.71,4.81,4.81,0,0,0,3.33-.55,4.34,4.34,0,0,0,2.37-3l-3.81-7-.66.35-.48-.88,5-2.72.48.88-2.4,1.29,5,9.25a.86.86,0,0,0,.8.38,2.66,2.66,0,0,0,1.22-.33l.24.44L319,404l-.24-.44a2.53,2.53,0,0,0,.95-.84.84.84,0,0,0,.12-.88Zm-6.56-3.71-.48-.88a3.13,3.13,0,0,0-1.19-1.27,1.24,1.24,0,0,0-1.26-.1,1.27,1.27,0,0,0-.6,1.13,3.11,3.11,0,0,0,.41,1.67,1.85,1.85,0,0,0,1,.87,1.36,1.36,0,0,0,1.17,0,2.43,2.43,0,0,0,1-1.38" transform="translate(-16.82 -19.89)" style="fill:#fff"/><path d="M324.48,387.39l-2.39,1.3,5,9.24a.84.84,0,0,0,.8.38,2.54,2.54,0,0,0,1.22-.33l.24.44-5.06,2.74-.24-.44a2.49,2.49,0,0,0,.94-.84.82.82,0,0,0,.12-.87l-5-9.25-1.7.92-.48-.88,6.08-3.29Z" transform="translate(-16.82 -19.89)" style="fill:#fff"/><path d="M335.55,386a6.92,6.92,0,0,0-2,.1,8.75,8.75,0,0,0-2.05.63,3.33,3.33,0,0,1,1.93.24,3.42,3.42,0,0,1,1.47,1.25,3.88,3.88,0,0,1,.52,3.28,4.78,4.78,0,0,1-2.11,2.9,4.83,4.83,0,0,1-3.49.83,3.94,3.94,0,0,1-2.83-1.72,3.9,3.9,0,0,1-.5-3.26,4.81,4.81,0,0,1,2.09-2.92,14.78,14.78,0,0,1,3.45-1.78,6.64,6.64,0,0,1,2.94-.38l-2.37-3.54-10,6.68-.55-.83L336.21,378l.56.83-2.27,1.52,5.84,8.73a.87.87,0,0,0,.84.31,2.5,2.5,0,0,0,1.18-.45l.28.42-4.79,3.2-.28-.42a2.35,2.35,0,0,0,.86-.92.81.81,0,0,0,0-.88Zm-2.62,7.78a2.16,2.16,0,0,0,.9-1.83,4.57,4.57,0,0,0-2.77-4.14,2,2,0,0,0-2.92,2,4.23,4.23,0,0,0,.75,2.46,4.14,4.14,0,0,0,2,1.64,2.16,2.16,0,0,0,2-.12" transform="translate(-16.82 -19.89)" style="fill:#fff"/><path d="M353.23,369.33l4.92,5.33a.84.84,0,0,0,.87.17,2.54,2.54,0,0,0,1.1-.62l.34.37-4.23,3.9-.34-.37a2.4,2.4,0,0,0,.7-1,.83.83,0,0,0-.09-.88l-.94-1a4.8,4.8,0,0,1-1.62,3,4.73,4.73,0,0,1-3.37,1.31,4.35,4.35,0,0,1-4.33-4.66,4.73,4.73,0,0,1,1.58-3.27,5.09,5.09,0,0,1,3.24-1.29l-1.69-1.83-6.48,6-.68-.73,15.2-14,.68.74L351,366.94l1.53,1.65a5,5,0,0,1,1.71-2.94,4.73,4.73,0,0,1,3.37-1.33A4.38,4.38,0,0,1,362,369a4.74,4.74,0,0,1-1.58,3.23,4.35,4.35,0,0,1-2.71,1.13l-.24-.63a3,3,0,0,0,2-.8,2.66,2.66,0,0,0,.84-2.22,3.92,3.92,0,0,0-1.09-2.48,3.87,3.87,0,0,0-2.39-1.3,2.62,2.62,0,0,0-2.28.67,3.38,3.38,0,0,0-1.26,2.69m1.74,5.21L351.66,371a3.35,3.35,0,0,0-2.87.95,2.61,2.61,0,0,0-.87,2.25,4.26,4.26,0,0,0,3.49,3.74,2.62,2.62,0,0,0,2.3-.66,4.29,4.29,0,0,0,1.26-2.69" transform="translate(-16.82 -19.89)" style="fill:#fff"/><path d="M360.08,356.87l-1.84,1.7a1.79,1.79,0,0,1-1.24.5l-5.38.09a1.56,1.56,0,0,0-.72.16,2.89,2.89,0,0,0-.7.51l-.37.34-.49-.53,2-1.87a2.53,2.53,0,0,1,1.78-.66h5.11a1.82,1.82,0,0,0,1.24-.5l.18-.17Zm2.38-.49-2,1.85,7.13,7.72a.83.83,0,0,0,.87.17,2.51,2.51,0,0,0,1.09-.62l.34.37-4.23,3.9-.34-.36a2.52,2.52,0,0,0,.71-1.05.83.83,0,0,0-.1-.88l-7.13-7.72-1.41,1.3-.68-.73,5.08-4.69Z" transform="translate(-16.82 -19.89)" style="fill:#fff"/><path d="M369.36,347.88l-1.72,2,2.64,2.3a13.15,13.15,0,0,0-2.51,2.13,4.25,4.25,0,0,0-1.09,3,3.73,3.73,0,0,0,1.32,2.81,3.59,3.59,0,0,0,3,.81,5.05,5.05,0,0,0,3.1-1.77,6.16,6.16,0,0,0,1.32-4l.53,0a5.94,5.94,0,0,1-.21,2.77,6.6,6.6,0,0,1-1.38,2.48,7,7,0,0,1-4,2.36,4.48,4.48,0,0,1-4-1,4.16,4.16,0,0,1-1.42-3.51,6.43,6.43,0,0,1,1.69-4.05,8.91,8.91,0,0,1,1.16-1.15l-1.7-1.48-5.44,6.25-.75-.65,8.64-9.93Z" transform="translate(-16.82 -19.89)" style="fill:#fff"/><path d="M373.27,343.39l-1.79,2.06,7.93,6.89a.85.85,0,0,0,.89.08,2.57,2.57,0,0,0,1-.74l.38.33-3.78,4.34-.38-.33a2.51,2.51,0,0,0,.59-1.11.86.86,0,0,0-.19-.87l-7.94-6.9-1.26,1.46-.76-.66,4.54-5.21Z" transform="translate(-16.82 -19.89)" style="fill:#fff"/><path d="M189.37,372.37l1.86-5.94,1.05.63-1.35,4,3.07-3,1.27.76L194,373l2.95-3.16,1.06.63-4.34,4.42-1.1-.63,1.27-4.51L190.51,373Z" transform="translate(-16.82 -19.89)" style="fill:#0a3f6c"/><path d="M197.67,373.46a2,2,0,0,0-.17,1.6,1.43,1.43,0,0,0,.89,1,1.55,1.55,0,0,0,1.3,0,2.53,2.53,0,0,0,1.06-1.26,2.24,2.24,0,0,0,.16-1.61,1.71,1.71,0,0,0-2.23-.92,2.12,2.12,0,0,0-1,1.26m-1.18-.46a3.61,3.61,0,0,1,.84-1.31,2.81,2.81,0,0,1,.85-.55,2.76,2.76,0,0,1,.93-.21,3.1,3.1,0,0,1,1.3.3,2.9,2.9,0,0,1,1.64,1.6,3.23,3.23,0,0,1-.17,2.4,3,3,0,0,1-1.64,1.81A2.69,2.69,0,0,1,198,377a2.87,2.87,0,0,1-1.64-1.56,3.23,3.23,0,0,1,.17-2.4" transform="translate(-16.82 -19.89)" style="fill:#0a3f6c"/><path d="M203.82,375.36l.84.25a4.84,4.84,0,0,0,1.1.25.65.65,0,0,0,.38-.13.81.81,0,0,0,.25-.41,1.09,1.09,0,0,0,0-.51.87.87,0,0,0-.38-.38,7.19,7.19,0,0,0-.84-.25l-.93-.3Zm-2.19,2.94,1.77-5.76,2.44.75a4.3,4.3,0,0,1,1.31.59,1.27,1.27,0,0,1,.51.76,1.55,1.55,0,0,1,0,1,1.67,1.67,0,0,1-.72,1,1.85,1.85,0,0,1-1.3.17,2.07,2.07,0,0,1,.46.67,4.32,4.32,0,0,1,.38,1.14l.38,1.35-1.39-.43L205,378c-.17-.55-.3-.88-.34-1.05a1.07,1.07,0,0,0-.29-.34,2.41,2.41,0,0,0-.55-.25l-.25-.09-.76,2.44Z" transform="translate(-16.82 -19.89)" style="fill:#0a3f6c"/><path d="M207.49,380l1.26-5.9,1.18.25-.55,2.65,3-2.1,1.6.33-2.7,1.82,1.56,4.08-1.56-.3-1-3.11-1.17.76-.38,1.77Z" transform="translate(-16.82 -19.89)" style="fill:#0a3f6c"/><path d="M215.7,381.55l.76-6,1.18.17-.72,6Z" transform="translate(-16.82 -19.89)" style="fill:#0a3f6c"/><path d="M217.89,379.91l1.18-.05a1.34,1.34,0,0,0,.38.89,1.42,1.42,0,0,0,.84.38,1.45,1.45,0,0,0,.93-.21.67.67,0,0,0,.34-.55.57.57,0,0,0-.13-.38,1,1,0,0,0-.38-.29l-1-.34a3.57,3.57,0,0,1-1.35-.68,1.82,1.82,0,0,1-.46-1.26,1.62,1.62,0,0,1,.34-.84,1.77,1.77,0,0,1,.8-.55,2.59,2.59,0,0,1,1.18-.12,2.34,2.34,0,0,1,1.68.63,1.56,1.56,0,0,1,.51,1.35l-1.22-.05a1,1,0,0,0-.3-.67,1,1,0,0,0-.76-.25,1.06,1.06,0,0,0-.84.17.37.37,0,0,0-.21.33.49.49,0,0,0,.17.38,3.73,3.73,0,0,0,1.09.5,6.61,6.61,0,0,1,1.27.51,2,2,0,0,1,.63.67,2.21,2.21,0,0,1,.17,1,1.79,1.79,0,0,1-.38.92,1.74,1.74,0,0,1-.84.63,3.32,3.32,0,0,1-1.35.13,2.49,2.49,0,0,1-1.69-.68,2.25,2.25,0,0,1-.63-1.55" transform="translate(-16.82 -19.89)" style="fill:#0a3f6c"/><path d="M226.86,382.27l-1.68-6,1.27-.05,1.05,4.13.93-4.21,1.47,0,1.22,4.17.76-4.26,1.22,0-1.22,6.06-1.31.09-1.39-4.46-1,4.54Z" transform="translate(-16.82 -19.89)" style="fill:#0a3f6c"/><path d="M234.53,378.77a2.56,2.56,0,0,0,.68,1.48,1.76,1.76,0,0,0,1.26.37,1.56,1.56,0,0,0,1.14-.67,2.48,2.48,0,0,0,.25-1.65,2.08,2.08,0,0,0-.67-1.47,1.47,1.47,0,0,0-1.27-.33,1.73,1.73,0,0,0-1.13.67,2.33,2.33,0,0,0-.26,1.6m-1.22.21a3.92,3.92,0,0,1,.08-1.56,2.76,2.76,0,0,1,.43-.92,3.27,3.27,0,0,1,.71-.64,2.93,2.93,0,0,1,1.27-.38A2.78,2.78,0,0,1,238,376a3.16,3.16,0,0,1,1.13,2.19,3.06,3.06,0,0,1-.5,2.36,2.74,2.74,0,0,1-2,1.09,2.83,2.83,0,0,1-2.23-.5,3.25,3.25,0,0,1-1.1-2.15" transform="translate(-16.82 -19.89)" style="fill:#0a3f6c"/><path d="M240.89,377.3l.84-.18a3.8,3.8,0,0,0,1.06-.33.48.48,0,0,0,.29-.29.85.85,0,0,0,0-.47.7.7,0,0,0-.29-.46.84.84,0,0,0-.51-.13,4.28,4.28,0,0,0-.84.17l-.92.21Zm-.46,3.66-1.31-5.9,2.53-.54a4.6,4.6,0,0,1,1.39-.13,1.24,1.24,0,0,1,.8.42,1.52,1.52,0,0,1,.46.84,1.55,1.55,0,0,1-.12,1.18,1.75,1.75,0,0,1-1.06.8,3.17,3.17,0,0,1,.76.38,6.4,6.4,0,0,1,.89.8l1,1-1.44.34-1.13-1.1c-.42-.38-.67-.63-.8-.71a1.05,1.05,0,0,0-.42-.17,1.85,1.85,0,0,0-.63,0l-.21.09.54,2.44Z" transform="translate(-16.82 -19.89)" style="fill:#0a3f6c"/><path d="M245.48,377.8l1.1-.46a1.6,1.6,0,0,0,.67.71,1.6,1.6,0,0,0,1.69-.5.62.62,0,0,0,.13-.64.61.61,0,0,0-.21-.29,1,1,0,0,0-.51-.12c-.17,0-.51,0-1,0a3.41,3.41,0,0,1-1.48-.17,1.7,1.7,0,0,1-.92-1,1.5,1.5,0,0,1,0-.89,1.71,1.71,0,0,1,.54-.8,2.66,2.66,0,0,1,1.06-.55,2.46,2.46,0,0,1,1.81,0,1.81,1.81,0,0,1,1,1.1l-1.18.42a1,1,0,0,0-.51-.55,1.13,1.13,0,0,0-.8,0,1.31,1.31,0,0,0-.71.43.52.52,0,0,0-.08.42.33.33,0,0,0,.29.29,2.73,2.73,0,0,0,1.18.09,6.3,6.3,0,0,1,1.39,0,1.7,1.7,0,0,1,.8.38,2,2,0,0,1,.55.84,2.16,2.16,0,0,1,0,1,1.48,1.48,0,0,1-.59.88,3.46,3.46,0,0,1-1.18.64,2.68,2.68,0,0,1-1.82,0,2.39,2.39,0,0,1-1.18-1.27" transform="translate(-16.82 -19.89)" style="fill:#0a3f6c"/><path d="M251.72,377.89l-2.32-5.57,1.14-.46.89,2.19,2.23-.93-.93-2.19,1.14-.46,2.32,5.56-1.14.47-1-2.45-2.19.93,1,2.44Z" transform="translate(-16.82 -19.89)" style="fill:#0a3f6c"/><path d="M257.28,375.44l-2.74-5.39,1.1-.55,2.7,5.39Z" transform="translate(-16.82 -19.89)" style="fill:#0a3f6c"/><path d="M257.83,369.46l.88,1.47.55-.33a5.24,5.24,0,0,0,.8-.59,1,1,0,0,0,.17-.47.89.89,0,0,0-.13-.46,1,1,0,0,0-.46-.38.87.87,0,0,0-.55,0,5.6,5.6,0,0,0-.75.42Zm1.56,4.93-3.16-5.14,1.68-1a8.25,8.25,0,0,1,1.27-.72,1.53,1.53,0,0,1,1.05.09,1.62,1.62,0,0,1,.93.8,1.56,1.56,0,0,1,.29.88,1.27,1.27,0,0,1-.12.8,1.36,1.36,0,0,1-.38.55,6.84,6.84,0,0,1-1,.76l-.67.42,1.18,1.94Z" transform="translate(-16.82 -19.89)" style="fill:#0a3f6c"/></svg>