<svg xmlns="http://www.w3.org/2000/svg" viewBox="0 0 599.9 209.2"><path d="M496,209.2c57.3,0,103.9-46.9,103.9-104.6S553.3,0,496,0,392.1,46.9,392.1,104.6,438.7,209.2,496,209.2Zm0-141.9a37.3,37.3,0,1,1-37,37.3C459,84,475.6,67.2,496,67.3ZM103.9,209.2c57.3,0,103.9-46.9,103.9-104.6S161.2,0,103.9,0,0,46.8,0,104.6C0,162.2,46.6,209.2,103.9,209.2Zm0-141.9a37.3,37.3,0,1,1-37,37.3C66.9,84,83.5,67.2,103.9,67.3Zm196-2.4L268,1.3H193.3l69.8,139.1v65.5h73.7V140.4L406.6,1.3H331.9l-32,63.6Z" style="fill:#ee2e24"/></svg>