<svg xmlns="http://www.w3.org/2000/svg" viewBox="0 0 652 652">
  <path d="M517.4 425.6c57.3 0 103.9-46.9 103.9-104.6 0-57.7-46.6-104.6-103.9-104.6-57.3 0-103.9 46.9-103.9 104.6 0 57.6 46.6 104.6 103.9 104.6zm0-141.9c20.4 0 37.1 16.7 37.1 37.3s-16.6 37.3-37.1 37.3c-20.4 0-37-16.7-37-37.3 0-20.6 16.6-37.4 37-37.3zM125.3 425.6c57.3 0 103.9-46.9 103.9-104.6 0-57.7-46.6-104.6-103.9-104.6C68 216.3 21.4 263.2 21.4 321c0 57.6 46.6 104.6 103.9 104.6zm0-141.9c20.4 0 37.1 16.7 37.1 37.3s-16.6 37.3-37.1 37.3c-20.4 0-37-16.7-37-37.3 0-20.6 16.6-37.4 37-37.3zm196-2.4l-31.9-63.6h-74.7l69.8 139.1v65.5h73.7v-65.5L428 217.7h-74.7l-32 63.6z" fill="#ee2e24"/>
</svg>
