<svg xmlns="http://www.w3.org/2000/svg" viewBox="0 0 75.2 16.85">
  <defs>
    <clipPath id="a" clipPathUnits="userSpaceOnUse">
      <path d="M31.725 352.554h7.713v6.629h-7.713z"/>
    </clipPath>
    <clipPath id="b" clipPathUnits="userSpaceOnUse">
      <path d="M33.985 355.571c-1.511 0-2.166.882-2.26 2.133.106-1.408.503-3.377 2.171-4.428a4.724 4.724 0 011.222-.536 6.2 6.2 0 01.905-.186c1.077.392 2.011 1.031 3.415 3.293-.371.334-1.726 3.004-1.862 3.336-.372-2.202-1.987-3.612-3.591-3.612"/>
    </clipPath>
    <clipPath id="d" clipPathUnits="userSpaceOnUse">
      <path d="M36.895 352.298h12.848v16.912H36.895z"/>
    </clipPath>
    <clipPath id="e" clipPathUnits="userSpaceOnUse">
      <path d="M39.141 366.956c-1.076-1.076-1.94-2.694-2.22-4.291-.01-.17-.019-.342-.022-.515-.002-.081-.004-.161-.004-.242 0-.596.044-1.178.131-1.741.084-.552.282-1.372.654-2.278.137-.332.295-.674.483-1.02.212-.392.459-.788.746-1.174a8.535 8.535 0 011.017-1.091c1.601-1.443 3.783-2.306 6.42-2.306.85 0 1.794.057 2.701.232l.006.001c.234.046.465.1.69.161-4.657.65-6.686 2.853-7.624 3.904-.108.122-.21.25-.309.382-.062.072-.126.141-.184.216a6.423 6.423 0 00-.92 1.655 8.4 8.4 0 00-.528 2.752 6.578 6.578 0 00-.006.197c0 .037-.003.073-.003.11a10.489 10.489 0 00.056 1.021c.361 3.355 2.535 5.847 6.388 5.847.982 0 1.77-.143 2.474-.381a11.016 11.016 0 01-4.118.815c-2.144 0-4.254-.679-5.828-2.254"/>
    </clipPath>
    <clipPath id="g" clipPathUnits="userSpaceOnUse">
      <path d="M28.346 352.181h8.858v24.543h-8.858z"/>
    </clipPath>
    <clipPath id="h" clipPathUnits="userSpaceOnUse">
      <path d="M30.026 376.724c-.945 0-1.68-.728-1.68-1.619l.002-14.757c0-1.405.306-4.732 1.382-6.147a4.997 4.997 0 012.055-1.58 5.651 5.651 0 012.102-.434 6.009 6.009 0 012.146.366c-.33.043-.634.106-.915.187a4.724 4.724 0 00-1.222.536c-1.674 1.055-2.134 2.991-2.223 4.836v10.648h4.192c.739 0 1.339.6 1.339 1.347 0 .74-.6 1.345-1.339 1.345h-4.192v3.653c0 .891-.702 1.619-1.647 1.619"/>
    </clipPath>
    <clipPath id="j" clipPathUnits="userSpaceOnUse">
      <path d="M28.346 365.253h3.327v11.471h-3.327z"/>
    </clipPath>
    <clipPath id="k" clipPathUnits="userSpaceOnUse">
      <path d="M30.026 376.724c-.945 0-1.68-.728-1.68-1.619l.003-9.852c0 3.784 1.449 6.199 3.324 6.199v3.653c0 .891-.702 1.619-1.647 1.619"/>
    </clipPath>
    <clipPath id="m" clipPathUnits="userSpaceOnUse">
      <path d="M57.55 370.1h.001v.001h-.001z"/>
    </clipPath>
    <clipPath id="n" clipPathUnits="userSpaceOnUse">
      <path d="M57.55 370.1l.001.001-.001-.001"/>
    </clipPath>
    <clipPath id="p" clipPathUnits="userSpaceOnUse">
      <path d="M57.995 370.542h.007v.008h-.007z"/>
    </clipPath>
    <clipPath id="q" clipPathUnits="userSpaceOnUse">
      <path d="M57.995 370.542l.002.003-.002-.003zm.002.003zm0 0l.005.005-.005-.005"/>
    </clipPath>
    <clipPath id="s" clipPathUnits="userSpaceOnUse">
      <path d="M64.523 352.996h.022v.01h-.022z"/>
    </clipPath>
    <clipPath id="t" clipPathUnits="userSpaceOnUse">
      <path d="M64.523 352.996l.009.004a.133.133 0 01-.009-.004zm.009.004l.013.006-.013-.006"/>
    </clipPath>
    <clipPath id="v" clipPathUnits="userSpaceOnUse">
      <path d="M55.494 352.278h10.054v7.827H55.494z"/>
    </clipPath>
    <clipPath id="w" clipPathUnits="userSpaceOnUse">
      <path d="M63.746 357.417c0-1.677-1.171-2.45-2.982-2.45-1.465 0-2.475.48-3.222.773-1.198.452-2.048-.373-2.048-1.226 0-.573.404-.957.878-1.209a8.801 8.801 0 011.46-.591c1.008-.321 2.064-.436 3.119-.436.716 0 1.436.048 2.138.199.654.141 1.407.372 1.919.826.056.05.109.105.152.168.313.45.388 1.065.388 1.55 0 1.577-.795 2.929-1.99 4.06-.383.363-.699.743-1.235 1.024.954-.714 1.423-1.57 1.423-2.688"/>
    </clipPath>
    <clipPath id="y" clipPathUnits="userSpaceOnUse">
      <path d="M49.047 352.53h.006v.001h-.006z"/>
    </clipPath>
    <clipPath id="z" clipPathUnits="userSpaceOnUse">
      <path d="M49.047 352.53l.006.001-.006-.001"/>
    </clipPath>
    <clipPath id="B" clipPathUnits="userSpaceOnUse">
      <path d="M57.337 369.932h.001-.001"/>
    </clipPath>
    <clipPath id="D" clipPathUnits="userSpaceOnUse">
      <path d="M41.81 352.692h16.228v17.797H41.81z"/>
    </clipPath>
    <clipPath id="E" clipPathUnits="userSpaceOnUse">
      <path d="M57.338 369.932h-.001a2.813 2.813 0 01-.183-.179 5.86 5.86 0 01-1.128-1.535 10.014 10.014 0 01-.644-1.573 20.299 20.299 0 01-.488-1.852c-.464-2.078-.757-4.226-1.749-6.032-.793-1.443-1.973-2.457-3.453-3.165-.871-.384-1.826-.636-3.079-.636a7.49 7.49 0 00-1.684.181c-1.302.295-2.344.943-3.119 1.837.099-.132.201-.26.309-.382.938-1.051 2.967-3.254 7.624-3.904.457.125.894.285 1.293.489.455.234.886.501 1.295.794a10.718 10.718 0 011.756 1.606 12.064 12.064 0 012.029 3.273c.198.472.371.957.514 1.452.08.271.153.546.22.821.218.876.451 2.012.64 2.902.004.017-.669 1.719-.716 2.762-.031.7.083 1.436.301 2.155.053.337.148.473.302.786.014.029.053.056.068.084.019.016.247.177.183.22l.41.453a48.85 48.85 0 01-.7-.557"/>
    </clipPath>
    <clipPath id="G" clipPathUnits="userSpaceOnUse">
      <path d="M36.921 362.665h15.746v8.785H36.921z"/>
    </clipPath>
    <clipPath id="H" clipPathUnits="userSpaceOnUse">
      <path d="M43.523 371.079c-.769-.222-1.572-.525-2.251-.954a10.126 10.126 0 01-1.817-1.46c-.081-.081-.164-.16-.241-.245a8.158 8.158 0 01-.773-.991 9.103 9.103 0 01-.393-.67l-.001-.002c-.642-1.211-1.028-2.599-1.126-4.092.28 1.597 1.144 3.215 2.22 4.291 2.473 2.473 6.266 2.737 9.439 1.63a14.816 14.816 0 001.635-.698c.107-.054.215-.111.322-.169.239-.134.48-.239.799-.239.117 0 .233.016.342.048.561.156.989.694.989 1.362 0 .507-.239.825-.612 1.092-1.156.833-2.67 1.177-4.059 1.354-.575.073-1.147.114-1.716.114a9.897 9.897 0 01-2.757-.371"/>
    </clipPath>
    <clipPath id="J" clipPathUnits="userSpaceOnUse">
      <path d="M56.856 364.486h9.69v6.988h-9.69z"/>
    </clipPath>
    <clipPath id="K" clipPathUnits="userSpaceOnUse">
      <path d="M58.189 370.591c-.574-.352-.945-.97-1.141-1.6-.126-.404-.192-.834-.084-1.25.169-.648.709-1.129 1.264-1.503.985-.664 2.092-1.124 3.099-1.752-.529.398-1.05.834-1.385 1.405-.335.572-.455 1.307-.159 1.899.236.475.712.8 1.222.945.511.145 1.054.125 1.578.045a9.968 9.968 0 001.771-.463c.293-.103.592-.215.902-.212.373.004.74.184.97.476.231.293.32.692.236 1.054-.132.574-.649.981-1.185 1.225-.769.349-1.624.458-2.466.526-.747.061-1.501.088-2.247.008-.737-.08-1.464-.271-2.11-.641l-.116-.069"/>
    </clipPath>
    <clipPath id="M" clipPathUnits="userSpaceOnUse">
      <path d="M56.551 353.041h10.848v15.906H56.551z"/>
    </clipPath>
    <clipPath id="N" clipPathUnits="userSpaceOnUse">
      <path d="M57.574 363.886c.515-.832 1.327-1.41 2.115-1.961.867-.606 1.727-1.218 2.609-1.804a8.202 8.202 0 001.651-1.478c.881-1.014 1.647-2.286 1.585-3.685a3.028 3.028 0 00-.115-.745c-.123-.41-.387-.945-.77-1.172 1.946 1.155 2.75 3.4 2.245 5.575-.49 2.107-2.18 3.536-3.861 4.749a23.756 23.756 0 01-2.082 1.347c-.293.17-.582.345-.872.519-.409.245-.816.493-1.211.759-.628.423-1.277.925-1.615 1.622a2.24 2.24 0 00-.219 1.335c-.483-1.593-.356-3.613.54-5.061"/>
    </clipPath>
    <linearGradient id="c" spreadMethod="pad" gradientUnits="userSpaceOnUse" y2="359.78" x2="39.97" y1="350.9" x1="30.01">
      <stop offset="0" stop-color="#e7307c"/>
      <stop offset="1" stop-color="#6b4797"/>
    </linearGradient>
    <linearGradient id="f" spreadMethod="pad" gradientUnits="userSpaceOnUse" y2="352.71" x2="43.32" y1="369.08" x1="43.32">
      <stop offset="0" stop-color="#e53325"/>
      <stop offset="1" stop-color="#e7307c"/>
    </linearGradient>
    <linearGradient id="i" spreadMethod="pad" gradientUnits="userSpaceOnUse" y2="352.46" x2="32.38" y1="371.45" x1="32.38">
      <stop offset="0" stop-color="#e53325"/>
      <stop offset="1" stop-color="#e7307c"/>
    </linearGradient>
    <linearGradient id="l" spreadMethod="pad" gradientUnits="userSpaceOnUse" y2="365.67" x2="30.49" y1="376.78" x1="30.49">
      <stop offset="0" stop-color="#fecc07"/>
      <stop offset="1" stop-color="#e74e24"/>
    </linearGradient>
    <linearGradient id="o" spreadMethod="pad" gradientUnits="userSpaceOnUse" y2="370.1" x2="57.59" y1="370.1" x1="57.51">
      <stop offset="0" stop-color="#93c13e"/>
      <stop offset="1" stop-color="#977db7"/>
    </linearGradient>
    <linearGradient id="r" spreadMethod="pad" gradientUnits="userSpaceOnUse" y2="370.55" x2="61.14" y1="370.55" x1="54.85">
      <stop offset="0" stop-color="#93c13e"/>
      <stop offset="1" stop-color="#977db7"/>
    </linearGradient>
    <linearGradient id="u" spreadMethod="pad" gradientUnits="userSpaceOnUse" y2="353" x2="97.31" y1="353" x1="66.58">
      <stop offset="0" stop-color="#93c13e"/>
      <stop offset="1" stop-color="#977db7"/>
    </linearGradient>
    <linearGradient id="x" spreadMethod="pad" gradientUnits="userSpaceOnUse" y2="352.49" x2="54.82" y1="360.6" x1="67.33">
      <stop offset="0" stop-color="#e7307c"/>
      <stop offset="1" stop-color="#6b4797"/>
    </linearGradient>
    <linearGradient id="A" spreadMethod="pad" gradientUnits="userSpaceOnUse" y2="352.53" x2="60.89" y1="352.53" x1="19.87">
      <stop offset="0" stop-color="#93c13e"/>
      <stop offset="1" stop-color="#977db7"/>
    </linearGradient>
    <linearGradient id="C" spreadMethod="pad" gradientUnits="userSpaceOnUse" y2="369.93" x2="57.37" y1="369.93" x1="57.31">
      <stop offset="0" stop-color="#93c13e"/>
      <stop offset="1" stop-color="#977db7"/>
    </linearGradient>
    <linearGradient id="F" spreadMethod="pad" gradientUnits="userSpaceOnUse" y2="368.05" x2="57.44" y1="350.65" x1="37.2">
      <stop offset="0" stop-color="#e7307c"/>
      <stop offset="1" stop-color="#6b4797"/>
    </linearGradient>
    <linearGradient id="I" spreadMethod="pad" gradientUnits="userSpaceOnUse" y2="367.06" x2="52.67" y1="367.06" x1="36.92">
      <stop offset="0" stop-color="#fecc07"/>
      <stop offset="1" stop-color="#e74e24"/>
    </linearGradient>
    <linearGradient id="L" spreadMethod="pad" gradientUnits="userSpaceOnUse" y2="367.96" x2="66.49" y1="367.96" x1="57.11">
      <stop offset="0" stop-color="#fecc07"/>
      <stop offset="1" stop-color="#e74e24"/>
    </linearGradient>
    <linearGradient id="O" spreadMethod="pad" gradientUnits="userSpaceOnUse" y2="355.13" x2="66.55" y1="367.74" x1="56.96">
      <stop offset="0" stop-color="#e53325"/>
      <stop offset="1" stop-color="#e7307c"/>
    </linearGradient>
  </defs>
  <path d="M51.239 1.381V.2h-3.965v1.181h1.163v2.923h1.64V1.381zm2.042.47l-.835 2.453h-1.602L52.414.2h1.734l1.57 4.104h-1.603zm6.007-.47V.2h-3.963v1.181h1.162v2.923h1.64V1.381zm2.043.47l-.836 2.453h-1.601L60.464.2h1.734l1.569 4.104h-1.602M39.05 9.748c-.198.09-.514.149-.818.149-.902 0-1.429-.574-1.429-1.478 0-.986.602-1.509 1.44-1.509.334 0 .608.074.799.16l.163-.596c-.152-.082-.5-.182-.994-.182-1.255 0-2.198.815-2.198 2.165 0 1.25.794 2.068 2.097 2.068.496 0 .886-.097 1.064-.186zm2.273.78c1.125 0 1.958-.786 1.958-2.162 0-1.172-.706-2.077-1.903-2.077-1.159 0-1.955.89-1.955 2.15 0 1.202.734 2.09 1.894 2.09zm.02-.6c-.717 0-1.136-.691-1.134-1.507-.001-.818.394-1.532 1.141-1.532.749 0 1.134.732 1.134 1.506 0 .859-.41 1.533-1.135 1.533zm3.274.532V8.99c0-.673-.011-1.215-.04-1.748l.019-.004c.202.465.47.968.736 1.416l1.072 1.805h.776V6.356h-.693v1.432c0 .627.014 1.156.067 1.7l-.014.005c-.19-.445-.428-.923-.7-1.375l-1.06-1.762h-.857v4.104zm3.243-.196c.224.136.675.26 1.11.26 1.06 0 1.556-.572 1.556-1.233 0-.59-.343-.948-1.056-1.22-.547-.209-.785-.357-.785-.672 0-.24.202-.494.678-.494.385 0 .671.117.82.195l.18-.605c-.214-.109-.54-.203-.985-.203-.89 0-1.452.507-1.452 1.179 0 .588.433.951 1.111 1.192.52.188.727.371.727.68 0 .337-.268.561-.745.561-.383 0-.751-.122-.992-.262zm3.335-3.908v2.348c0 1.291.619 1.824 1.564 1.824.992 0 1.643-.563 1.643-1.828V6.356h-.75V8.75c0 .805-.325 1.175-.866 1.175-.507 0-.84-.373-.84-1.175V6.356zm4.06 4.104h2.438V9.83h-1.688V6.356h-.75zm3.193 0h.75V6.987h1.184v-.63h-3.105v.63h1.17zM62.54 9.3l.372 1.16h.804l-1.333-4.104h-.955L60.11 10.46h.777l.35-1.16zm-1.18-.566l.316-1.014c.072-.245.135-.528.195-.77h.013c.063.238.13.519.208.772l.324 1.012zm3.619 1.726V8.99c0-.673-.01-1.215-.04-1.748l.02-.004c.202.465.469.968.735 1.416l1.071 1.805h.777V6.356h-.693v1.432c0 .627.015 1.156.066 1.7l-.012.005c-.191-.445-.428-.923-.7-1.375l-1.06-1.762h-.857v4.104zm6.247-.712c-.2.09-.515.149-.818.149-.903 0-1.43-.573-1.43-1.478 0-.986.602-1.509 1.44-1.509.334 0 .609.074.799.16l.163-.596c-.152-.082-.5-.182-.994-.182-1.255 0-2.198.815-2.198 2.165 0 1.25.795 2.068 2.096 2.068.496 0 .887-.097 1.065-.186zm2.439.712V8.73l1.364-2.375h-.846l-.494 1.052c-.14.298-.253.553-.354.814h-.014a16.734 16.734 0 00-.357-.812l-.49-1.054h-.856l1.298 2.396v1.708M65.073 16.419c.224.137.675.261 1.109.261 1.06 0 1.556-.573 1.556-1.234 0-.59-.342-.948-1.055-1.22-.548-.209-.785-.357-.785-.671 0-.242.202-.495.678-.495.385 0 .671.117.82.195l.18-.605c-.215-.108-.54-.203-.985-.203-.89 0-1.453.507-1.453 1.179 0 .588.434.952 1.112 1.192.519.19.727.372.727.681 0 .336-.269.56-.746.56-.382 0-.75-.122-.992-.261zm-.66-2.236h-1.546v-1.055h1.638v-.617h-2.389v4.104h2.48v-.617h-1.73v-1.203h1.547zm-3.054 1.72c-.198.09-.514.15-.818.15-.902 0-1.429-.574-1.429-1.478 0-.987.602-1.51 1.44-1.51.334 0 .609.075.8.161l.163-.597c-.152-.082-.5-.182-.995-.182-1.254 0-2.197.815-2.197 2.165 0 1.25.793 2.068 2.096 2.068.496 0 .887-.097 1.064-.186zm-3.68-3.392h-.75v4.104h.75zm-.75 0zm-1.86 4.104l1.418-4.104h-.797l-.6 1.878c-.158.498-.308 1-.416 1.484h-.014a18.976 18.976 0 00-.402-1.495l-.56-1.867h-.817l1.327 4.104zm-6.128-2.432h-1.547v-1.055h1.639v-.617h-2.39v4.104h2.48v-.617h-1.729v-1.203h1.547zm-5.637 2.236c.224.137.675.261 1.11.261 1.059 0 1.556-.573 1.556-1.234 0-.59-.343-.948-1.056-1.22-.547-.209-.785-.357-.785-.671 0-.242.202-.495.678-.495.386 0 .672.117.82.195l.18-.605c-.215-.108-.54-.203-.985-.203-.89 0-1.452.507-1.452 1.179 0 .588.433.951 1.111 1.192.52.19.727.372.727.681 0 .336-.267.56-.746.56a2.07 2.07 0 01-.991-.261zm6.476.196h.738v-1.673h.374c.423.01.616.182.733.712.114.506.211.842.274.961h.764c-.082-.159-.193-.626-.321-1.135-.102-.396-.273-.676-.568-.788v-.018c.384-.135.74-.493.74-1.017 0-.35-.127-.632-.35-.818-.275-.229-.749-.328-1.257-.328a6.08 6.08 0 00-1.127.088zm.738-3.506c.075-.019.226-.037.462-.037.48.001.793.209.793.653 0 .405-.31.67-.815.67h-.44" fill="#3f84c5" fill-rule="evenodd"/>
  <path d="M30.583 16.616h.75V.2h-.75z" fill="#3f84c5" stroke-width=".353"/>
  <g clip-path="url(#a)" transform="matrix(.6693 0 0 -.6693 -18.772 252.344)">
    <g clip-path="url(#b)">
      <path d="M33.985 355.571c-1.511 0-2.166.882-2.26 2.133.106-1.408.503-3.377 2.171-4.428a4.724 4.724 0 011.222-.536 6.2 6.2 0 01.905-.186c1.077.392 2.011 1.031 3.415 3.293-.371.334-1.726 3.004-1.862 3.336-.372-2.202-1.987-3.612-3.591-3.612" fill="url(#c)"/>
    </g>
  </g>
  <g clip-path="url(#d)" transform="matrix(.6693 0 0 -.6693 -18.772 252.344)">
    <g clip-path="url(#e)">
      <path d="M39.141 366.956c-1.076-1.076-1.94-2.694-2.22-4.291-.01-.17-.019-.342-.022-.515-.002-.081-.004-.161-.004-.242 0-.596.044-1.178.131-1.741.084-.552.282-1.372.654-2.278.137-.332.295-.674.483-1.02.212-.392.459-.788.746-1.174a8.535 8.535 0 011.017-1.091c1.601-1.443 3.783-2.306 6.42-2.306.85 0 1.794.057 2.701.232l.006.001c.234.046.465.1.69.161-4.657.65-6.686 2.853-7.624 3.904-.108.122-.21.25-.309.382-.062.072-.126.141-.184.216a6.423 6.423 0 00-.92 1.655 8.4 8.4 0 00-.528 2.752 6.578 6.578 0 00-.006.197c0 .037-.003.073-.003.11a10.489 10.489 0 00.056 1.021c.361 3.355 2.535 5.847 6.388 5.847.982 0 1.77-.143 2.474-.381a11.016 11.016 0 01-4.118.815c-2.144 0-4.254-.679-5.828-2.254" fill="url(#f)"/>
    </g>
  </g>
  <g clip-path="url(#g)" transform="matrix(.6693 0 0 -.6693 -18.772 252.344)">
    <g clip-path="url(#h)">
      <path d="M30.026 376.724c-.945 0-1.68-.728-1.68-1.619l.002-14.757c0-1.405.306-4.732 1.382-6.147a4.997 4.997 0 012.055-1.58 5.651 5.651 0 012.102-.434 6.009 6.009 0 012.146.366c-.33.043-.634.106-.915.187a4.724 4.724 0 00-1.222.536c-1.674 1.055-2.134 2.991-2.223 4.836v10.648h4.192c.739 0 1.339.6 1.339 1.347 0 .74-.6 1.345-1.339 1.345h-4.192v3.653c0 .891-.702 1.619-1.647 1.619" fill="url(#i)"/>
    </g>
  </g>
  <g clip-path="url(#j)" transform="matrix(.6693 0 0 -.6693 -18.772 252.344)">
    <g clip-path="url(#k)">
      <path d="M30.026 376.724c-.945 0-1.68-.728-1.68-1.619l.003-9.852c0 3.784 1.449 6.199 3.324 6.199v3.653c0 .891-.702 1.619-1.647 1.619" fill="url(#l)"/>
    </g>
  </g>
  <g clip-path="url(#m)" transform="matrix(.6693 0 0 -.6693 -18.772 252.344)">
    <g clip-path="url(#n)">
      <path d="M57.55 370.1l.001.001-.001-.001" fill="url(#o)"/>
    </g>
  </g>
  <g clip-path="url(#p)" transform="matrix(.6693 0 0 -.6693 -18.772 252.344)">
    <g clip-path="url(#q)">
      <path d="M57.995 370.542l.002.003-.002-.003zm.002.003zm0 0l.005.005-.005-.005" fill="url(#r)"/>
    </g>
  </g>
  <g clip-path="url(#s)" transform="matrix(.6693 0 0 -.6693 -18.772 252.344)">
    <g clip-path="url(#t)">
      <path d="M64.523 352.996l.009.004a.133.133 0 01-.009-.004zm.009.004l.013.006-.013-.006" fill="url(#u)"/>
    </g>
  </g>
  <g clip-path="url(#v)" transform="matrix(.6693 0 0 -.6693 -18.772 252.344)">
    <g clip-path="url(#w)">
      <path d="M63.746 357.417c0-1.677-1.171-2.45-2.982-2.45-1.465 0-2.475.48-3.222.773-1.198.452-2.048-.373-2.048-1.226 0-.573.404-.957.878-1.209a8.801 8.801 0 011.46-.591c1.008-.321 2.064-.436 3.119-.436.716 0 1.436.048 2.138.199.654.141 1.407.372 1.919.826.056.05.109.105.152.168.313.45.388 1.065.388 1.55 0 1.577-.795 2.929-1.99 4.06-.383.363-.699.743-1.235 1.024.954-.714 1.423-1.57 1.423-2.688" fill="url(#x)"/>
    </g>
  </g>
  <g clip-path="url(#y)" transform="matrix(.6693 0 0 -.6693 -18.772 252.344)">
    <g clip-path="url(#z)">
      <path d="M49.047 352.53l.006.001-.006-.001" fill="url(#A)"/>
    </g>
  </g>
  <g clip-path="url(#B)" transform="matrix(.6693 0 0 -.6693 -18.772 252.344)">
    <path d="M57.337 369.932h.001-.001" fill="url(#C)"/>
  </g>
  <g clip-path="url(#D)" transform="matrix(.6693 0 0 -.6693 -18.772 252.344)">
    <g clip-path="url(#E)">
      <path d="M57.338 369.932h-.001a2.813 2.813 0 01-.183-.179 5.86 5.86 0 01-1.128-1.535 10.014 10.014 0 01-.644-1.573 20.299 20.299 0 01-.488-1.852c-.464-2.078-.757-4.226-1.749-6.032-.793-1.443-1.973-2.457-3.453-3.165-.871-.384-1.826-.636-3.079-.636a7.49 7.49 0 00-1.684.181c-1.302.295-2.344.943-3.119 1.837.099-.132.201-.26.309-.382.938-1.051 2.967-3.254 7.624-3.904.457.125.894.285 1.293.489.455.234.886.501 1.295.794a10.718 10.718 0 011.756 1.606 12.064 12.064 0 012.029 3.273c.198.472.371.957.514 1.452.08.271.153.546.22.821.218.876.451 2.012.64 2.902.004.017-.669 1.719-.716 2.762-.031.7.083 1.436.301 2.155.053.337.148.473.302.786.014.029.053.056.068.084.019.016.247.177.183.22l.41.453a48.85 48.85 0 01-.7-.557" fill="url(#F)"/>
    </g>
  </g>
  <g clip-path="url(#G)" transform="matrix(.6693 0 0 -.6693 -18.772 252.344)">
    <g clip-path="url(#H)">
      <path d="M43.523 371.079c-.769-.222-1.572-.525-2.251-.954a10.126 10.126 0 01-1.817-1.46c-.081-.081-.164-.16-.241-.245a8.158 8.158 0 01-.773-.991 9.103 9.103 0 01-.393-.67l-.001-.002c-.642-1.211-1.028-2.599-1.126-4.092.28 1.597 1.144 3.215 2.22 4.291 2.473 2.473 6.266 2.737 9.439 1.63a14.816 14.816 0 001.635-.698c.107-.054.215-.111.322-.169.239-.134.48-.239.799-.239.117 0 .233.016.342.048.561.156.989.694.989 1.362 0 .507-.239.825-.612 1.092-1.156.833-2.67 1.177-4.059 1.354-.575.073-1.147.114-1.716.114a9.897 9.897 0 01-2.757-.371" fill="url(#I)"/>
    </g>
  </g>
  <g clip-path="url(#J)" transform="matrix(.6693 0 0 -.6693 -18.772 252.344)">
    <g clip-path="url(#K)">
      <path d="M58.189 370.591c-.574-.352-.945-.97-1.141-1.6-.126-.404-.192-.834-.084-1.25.169-.648.709-1.129 1.264-1.503.985-.664 2.092-1.124 3.099-1.752-.529.398-1.05.834-1.385 1.405-.335.572-.455 1.307-.159 1.899.236.475.712.8 1.222.945.511.145 1.054.125 1.578.045a9.968 9.968 0 001.771-.463c.293-.103.592-.215.902-.212.373.004.74.184.97.476.231.293.32.692.236 1.054-.132.574-.649.981-1.185 1.225-.769.349-1.624.458-2.466.526-.747.061-1.501.088-2.247.008-.737-.08-1.464-.271-2.11-.641l-.116-.069" fill="url(#L)"/>
    </g>
  </g>
  <g clip-path="url(#M)" transform="matrix(.6693 0 0 -.6693 -18.772 252.344)">
    <g clip-path="url(#N)">
      <path d="M57.574 363.886c.515-.832 1.327-1.41 2.115-1.961.867-.606 1.727-1.218 2.609-1.804a8.202 8.202 0 001.651-1.478c.881-1.014 1.647-2.286 1.585-3.685a3.028 3.028 0 00-.115-.745c-.123-.41-.387-.945-.77-1.172 1.946 1.155 2.75 3.4 2.245 5.575-.49 2.107-2.18 3.536-3.861 4.749a23.756 23.756 0 01-2.082 1.347c-.293.17-.582.345-.872.519-.409.245-.816.493-1.211.759-.628.423-1.277.925-1.615 1.622a2.24 2.24 0 00-.219 1.335c-.483-1.593-.356-3.613.54-5.061" fill="url(#O)"/>
    </g>
  </g>
</svg>
