<svg class="header__logo"
  xmlns="http://www.w3.org/2000/svg"
  xmlns:xlink="http://www.w3.org/1999/xlink" viewBox="0 0 285 76">
  <defs>
    <path id="a" d="M-41-42.173h364.879V113H-41z"/>
  </defs>
  <clipPath id="b">
    <use xlink:href="#a" overflow="visible"/>
  </clipPath>
  <path clip-path="url(#b)" fill="currentcolor" d="M166.836 67.444c-10.614 0-19.964-7.498-19.964-21.034V18.656h11.103v28.533c0 6.233 3.214 10.323 8.959 10.323s8.959-4.09 8.959-10.323V18.656h11.102V46.41c-.001 13.536-9.544 21.034-20.159 21.034M70.166 4.454H59.29v13.11c5.623-2.096 9.836-7.053 10.876-13.11M59.29 19.748v46.625h11.102V34.992c-.314-7.009-4.832-12.907-11.102-15.244M97.598 18.655c-9.441.01-17.092 7.666-17.092 17.11v30.609h10.896V37.165a8.556 8.556 0 018.556-8.555h3.98v-9.955h-6.34zM217.724 37.743l-7.499-1.753a9.387 9.387 0 01-.992-.278c-2.169-.724-3.748-2.181-3.748-4.24 0-2.446 2.447-4.502 6.559-4.502 5.382 0 9.101 3.132 11.255 6.068l6.888-7.568c-4.381-4.576-9.834-7.983-17.817-7.983-10.03 0-17.432 5.356-17.432 14.218 0 8.277 5.551 12.854 14.51 15.095l6.33 1.559c.79.202 1.476.421 2.068.657 2.604 1.026 3.455 2.379 3.455 4.058 0 2.348-1.664 4.893-7.438 4.893-5.675 0-10.272-2.348-13.797-6.944l-6.979 7.172c3.7 4.675 9.836 9.252 19.866 9.252 12.562 0 18.989-6.525 18.989-14.803-.001-8.376-6.039-12.954-14.218-14.901M139.697 56.346c-.325.025-2.568.192-3.56.192l-.014-.001-.029.001c-6.232 0-7.791-1.754-7.791-8.667V28.589h11.394v-9.933h-11.394V4.445h-10.961v14.211h-7.011v9.933h7.011v20.938c0 12.076 3.993 16.944 16.458 16.944 3.502 0 5.592-.166 5.897-.19v-9.935zM51.591 18.656L34.646 66.374H22.571L5.626 18.656h11.395l11.588 34.988 11.599-34.988zM266.346 62.673c.146-.119.299-.254.437-.374v4.074h10.471v-30.87c0-12.173-8.474-18.016-20.354-18.016-7.302 0-15.093 3.214-18.891 9.932l7.469 6.984c3.033-5.481 7.634-6.901 11.354-6.949 5.906-.076 9.964 3.873 9.964 8.767l-.008 2.603c-.199-.07-.414-.14-.636-.21v.006c-.331-.11-.717-.229-1.14-.349-.097-.027-.194-.056-.294-.082-.065-.019-.132-.036-.199-.054-.115-.03-.23-.062-.348-.092l-.338-.085a7.382 7.382 0 01-.159-.04c-2.077-.503-4.71-.954-7.163-.954-11.004 0-19.866 5.064-19.866 15.971 0 9.154 7.401 14.511 16.068 14.511 6.134-.001 10.614-2.144 13.633-4.773m-11.531-4.572c-5.202 0-7.699-2.706-7.699-5.932 0-4.162 3.641-6.347 9.053-6.347 4.266 0 7.595.936 10.613 2.081v5.827c-2.602 2.498-7.388 4.371-11.967 4.371"/>
</svg>
