<svg xmlns="http://www.w3.org/2000/svg" viewBox="0 286 625 220">
  <g fill="#6C1D5F">
    <path d="M301.6 387.6h-57.1c3.5-12.9 15.2-21.4 27.6-21.4 15.4 0 25.6 7.6 29.5 21.4m-57.4 19.6H328v-5.3c0-13.8-3.2-24.9-9.7-34.3-11.1-14.7-27.6-23.7-45.4-23.7-14.3 0-28.1 6.2-38.7 17.3-9.7 10.3-14.7 23.2-14.7 37.8 0 13.8 5.8 28.1 15.6 38.4 10.8 10.8 23.7 16.1 39.3 16.1 23.2 0 41.6-12.9 50.4-35.7h-26.3c-5 8.5-14.3 12.9-24.9 12.9-17.1.6-28.2-8.8-29.4-23.5M365.8 400c0-17.9 12.9-31.3 29.9-31.3s30.4 14.3 30.4 30.8c0 17.3-12.9 30.8-31.7 30.8-15.1.1-28.6-13.3-28.6-30.3m-.9-44.6v-41.9h-24v138.3h24v-8.5c9.7 7.6 20.2 11.1 32.5 11.1 13.4 0 24.9-4.4 34.3-12 12.6-10.8 19.6-26.3 19.6-42.8 0-15.2-6.2-30.4-17.9-40.7-9.7-9.4-22.3-13.8-36.1-13.8-12.7-.3-23 2.7-32.4 10.3M468 347.5h23.2v104.3H468V347.5zm0-34h23.2v23.2H468v-23.2zM531.9 398.2c0-17 13.4-29.9 29.9-29.9 15.2 0 29.4 13.4 29.4 31.3 0 16.1-13.8 29.9-29 29.9-16.5 0-30.3-12.9-30.3-31.3m62 53.6h23.2V347.5h-23.2V360c-7.1-10.3-17.9-15.2-33.1-15.2-15.6 0-28.1 5-38.7 16.1-9.7 10.3-14.7 23.7-14.7 38.4 0 31.3 23.2 54.8 53.9 54.8 16.1 0 26.7-4.4 32.5-15.2v12.9z"/>
    <path d="M6 497.2h63.6l68.8-68.6 68.6 68.6h64.4L170.6 396.4l101.7-101.6h-64.4l-69.5 69.6-69.1-69.6H5.1l101.1 101.6z"/>
  </g>
</svg>
