<?xml version="1.0" encoding="UTF-8"?>
<svg version="1.1" xmlns="http://www.w3.org/2000/svg" width="2560" height="282">
<path d="M0 0 C3.78116771 0.0482108 7.56230136 0.04177408 11.34372163 0.04260778 C17.67741487 0.05180997 24.00989062 0.09875203 30.34315705 0.17154455 C37.6565147 0.25537982 44.96878364 0.2901997 52.28259414 0.29678404 C60.10065987 0.30398426 67.9183375 0.34168617 75.73624086 0.39102459 C77.97970273 0.40345689 80.22313508 0.41074428 82.46662164 0.4170928 C86.64094819 0.43109993 90.81416315 0.47988205 94.98817658 0.53287268 C96.8450837 0.5348667 96.8450837 0.5348667 98.7395041 0.536901 C99.87599397 0.55685125 101.01248384 0.57680151 102.18341279 0.59735632 C103.16830784 0.60665733 104.15320289 0.61595835 105.16794324 0.62554121 C108.63480479 1.29089753 110.34088044 2.74168813 112.87806916 5.14566565 C114.01834631 7.42621994 114.00241593 8.66946457 114.00111699 11.20239973 C114.00310804 12.05633035 114.00509909 12.91026097 114.00715047 13.79006827 C114.00423763 14.73363397 114.00132479 15.67719967 113.99832368 16.64935827 C113.99960532 18.14650171 113.99960532 18.14650171 114.00091285 19.67389047 C114.00256832 23.03966285 113.99704515 26.40538609 113.99159455 29.77115393 C113.99131267 32.17535924 113.99147044 34.57956463 113.99203706 36.98376989 C113.99226525 42.17082846 113.98941715 47.35787579 113.98379922 52.54493093 C113.97568185 60.04459759 113.97306875 67.54425816 113.97181123 75.04392873 C113.96962108 87.21081974 113.96296201 99.37770405 113.95350862 111.54459143 C113.94433353 123.36555463 113.93726463 135.18651601 113.9330008 147.00748205 C113.93273281 147.74321679 113.93246481 148.47895154 113.93218869 149.23698127 C113.92987593 155.63653346 113.92772309 162.0360857 113.92558599 168.43563795 C113.91617159 196.00565348 113.89625252 223.57565128 113.87806916 251.14566565 C67.67806916 251.14566565 21.47806916 251.14566565 -26.12193084 251.14566565 C-26.12193084 220.68914391 -26.12193084 220.68914391 -25.87193084 213.14566565 C-25.85775115 212.18918127 -25.84357146 211.2326969 -25.82896209 210.24722815 C-25.59006603 203.27146332 -24.62349728 196.77444969 -19.59654021 191.5648551 C-17.51960271 189.91630002 -15.383641 188.53219607 -13.12193084 187.14566565 C-12.06812224 186.49646154 -11.01431365 185.84725744 -9.92857146 185.17838049 C-6.786291 183.269073 -3.61998933 181.40281107 -0.44614959 179.54654455 C3.14178097 177.44767275 6.72031744 175.33287649 10.29994416 173.2198844 C11.02645173 172.79154303 11.7529593 172.36320166 12.50148225 171.92188025 C19.33096529 167.89038893 26.10894607 163.77745534 32.87806916 159.64566565 C42.38914491 153.84505997 51.94337718 148.12301344 61.53138947 142.45047522 C63.59926423 141.22523294 65.66488128 139.99628187 67.72963166 138.76578283 C69.04472539 137.98223667 70.35982933 137.19870764 71.67494416 136.4151969 C72.30493318 136.03974737 72.93492219 135.66429785 73.58400178 135.27747107 C77.186518 133.13540383 80.80951514 131.03629045 84.45619416 128.9698844 C85.93029183 128.11205087 87.40426647 127.25400585 88.87806916 126.39566565 C89.51841096 126.05027746 90.15875276 125.70488928 90.81849885 125.34903479 C92.72792847 124.29519908 92.72792847 124.29519908 94.87806916 122.14566565 C95.62864527 118.54954788 95.62864527 118.54954788 94.87806916 115.14566565 C91.7207963 113.04081707 90.87282865 112.88051262 87.25049043 112.7974906 C85.82398164 112.75868277 85.82398164 112.75868277 84.36865449 112.71909094 C83.32625108 112.70114477 82.28384767 112.6831986 81.20985627 112.66470861 C80.11001405 112.63871588 79.01017182 112.61272314 77.87700105 112.58594275 C67.6576427 112.36099684 57.43549005 112.24041255 47.21407437 112.15240812 C40.36174304 112.09238976 33.51297865 112.00229237 26.66249299 111.82877111 C-13.88708496 109.41670043 -13.88708496 109.41670043 -48.67289519 127.05428076 C-53.13290106 130.86295904 -58.22612413 133.70637703 -63.24693084 136.70816565 C-65.23134404 137.94482101 -67.2134536 139.18518814 -69.19224334 140.4308219 C-76.16662251 144.80101894 -83.14675548 149.16198849 -90.12681365 153.52310705 C-95.10343598 156.6328891 -100.07886406 159.74454517 -105.05161834 162.8605094 C-115.48584316 169.39551629 -125.94220902 175.89162192 -136.43443084 182.33316565 C-144.6613783 187.38465161 -152.86010592 192.47514998 -161.01304412 197.64517736 C-170.32945261 203.55251455 -179.69217715 209.38554854 -189.05015349 215.22672033 C-192.05866878 217.10614572 -195.06524063 218.98863761 -198.07114959 220.87222815 C-212.70721136 230.04025531 -227.38175502 239.14578219 -242.12193084 248.14566565 C-242.99502898 248.70801916 -243.86812713 249.27037268 -244.76768279 249.84976721 C-247.12193084 251.14566565 -247.12193084 251.14566565 -250.12193084 251.14566565 C-250.63795115 236.78645026 -251.02330819 222.42868749 -251.26179862 208.06207609 C-251.3763236 201.38877498 -251.53134267 194.72339307 -251.78159881 188.05338049 C-252.02190328 181.60774919 -252.15241069 175.16809817 -252.20923018 168.71833181 C-252.24967228 166.26720584 -252.32867286 163.81638387 -252.44799209 161.3678298 C-253.3210969 142.69620817 -253.3210969 142.69620817 -247.96207976 136.74858999 C-242.66260383 132.41317611 -236.85021806 129.27784333 -230.67450404 126.37202692 C-227.47005917 124.83247966 -224.59704142 123.02382858 -221.63755584 121.05972815 C-219.88306515 119.9622259 -218.12787239 118.86584509 -216.37193084 117.77066565 C-215.39715789 117.16182531 -214.42238494 116.55298498 -213.41807342 115.92569494 C-204.8007792 110.55160829 -196.14804895 105.23569907 -187.49326873 99.92227697 C-180.30178088 95.50202954 -173.14755594 91.0277801 -166.01988006 86.50552893 C-159.47892458 82.35914289 -152.89740749 78.28050728 -146.30821013 74.21133947 C-139.56537404 70.04513964 -132.84055098 65.85079095 -126.12193084 61.64566565 C-118.63383846 56.9595537 -111.13637776 52.28940089 -103.62193084 47.64566565 C-93.12676501 41.1587589 -82.66441971 34.61988945 -72.20542693 28.07486486 C-67.01215115 24.82567522 -61.81694152 21.57958041 -56.62193084 18.33316565 C-54.77817174 17.18083645 -52.93442164 16.02849285 -51.09068084 14.8761344 C-50.18137816 14.33164145 -49.27207549 13.78714849 -48.33521819 13.22615576 C-45.0643597 11.20376172 -45.0643597 11.20376172 -42.14138579 8.63313818 C-29.66828327 -1.41129832 -15.19591097 -0.23293778 0 0 Z " fill="#000000" transform="translate(258.1219308376312,15.854334354400635)"/>
<path d="M0 0 C0.79792969 0.64582031 1.59585937 1.29164062 2.41796875 1.95703125 C25.97097079 21.8615476 38.73207647 52.79991273 41.77294922 82.97802734 C44.60370883 120.65452462 38.52155346 159.0876899 13.67578125 188.77734375 C11.49859979 191.23545185 9.26597036 193.62390772 7 196 C6.48566406 196.58910156 5.97132813 197.17820313 5.44140625 197.78515625 C-17.89152076 223.42107346 -56.37747023 231.53188283 -89.37304688 233.11376953 C-125.6872278 234.35708451 -164.45118069 226.13026088 -192.25 201.5 C-193.8408353 200.00795861 -195.42464433 198.50837626 -197 197 C-197.67546875 196.38769531 -198.3509375 195.77539062 -199.046875 195.14453125 C-215.53945648 179.67448982 -225.29720832 157.81004838 -230 136 C-230.16081055 135.30390625 -230.32162109 134.6078125 -230.48730469 133.890625 C-238.20983756 99.4974889 -233.37172742 60.6657904 -216 30 C-215.45730469 29.02933594 -214.91460938 28.05867188 -214.35546875 27.05859375 C-197.80251371 -0.61021431 -169.97077558 -17.69871047 -139.21044922 -25.484375 C-132.53828044 -27.04077222 -125.78756264 -28.09532984 -119 -29 C-118.01257812 -29.13277344 -117.02515625 -29.26554687 -116.0078125 -29.40234375 C-75.78331178 -33.65797933 -31.79421446 -26.23611475 0 0 Z M-133 35 C-133.86109375 35.43054688 -134.7221875 35.86109375 -135.609375 36.3046875 C-150.2746696 44.36604509 -159.78056089 58.08442556 -164.47851562 73.90771484 C-170.85047059 97.23242366 -169.19187774 122.17189736 -158.25 143.8125 C-149.80096478 158.3552128 -136.7176666 168.03344622 -120.78125 173.00390625 C-98.9473508 178.71049354 -74.67784438 177.45941246 -54.75 166.25 C-38.91090163 156.05471829 -29.59308958 141.51892109 -25.125 123.3125 C-21.04790959 99.92416098 -22.71323097 74.24003319 -36 54 C-46.5372247 39.46042141 -62.04778755 30.97089523 -79.5847168 27.82470703 C-97.74345136 25.01791051 -116.45063941 26.72531971 -133 35 Z " fill="#000000" transform="translate(1491,40)"/>
<path d="M0 0 C21.594375 -0.061875 43.18875 -0.12375 65.4375 -0.1875 C72.20564209 -0.21481201 78.97378418 -0.24212402 85.94702148 -0.27026367 C94.33996582 -0.28381348 94.33996582 -0.28381348 98.2938385 -0.28633118 C101.00125299 -0.29087812 103.70821655 -0.30012082 106.4155426 -0.31672668 C139.20929627 -0.50857035 177.61523075 -0.39529999 202.92480469 23.73022461 C228.98266477 49.8460505 230.31213721 88.59148953 230.3125 123.3125 C230.26743364 137.92454015 230.19086032 152.52424764 228 167 C227.87109375 167.8751123 227.7421875 168.75022461 227.609375 169.65185547 C223.96016793 193.44350294 215.87027523 216.53944184 196.22265625 231.8359375 C144.47584315 266.58470654 43.04900961 250 0 250 C0 167.5 0 85 0 0 Z M64 55 C64 101.2 64 147.4 64 195 C106.83056622 199.0159029 106.83056622 199.0159029 149.0546875 184.18359375 C166.02217733 166.16018717 165.36263591 136.55674972 164.9453125 113.48046875 C164.2693773 91.93136365 164.2693773 91.93136365 157 72 C156.401875 70.948125 155.80375 69.89625 155.1875 68.8125 C148.00080485 59.57246337 139.36198682 56.89366447 128 55 C106.88 55 85.76 55 64 55 Z " fill="#000000" transform="translate(1567,17)"/>
<path d="M0 0 C14.2122193 13.47511879 25.1714605 29.74625941 27.75 49.625 C27.75 52.925 27.75 56.225 27.75 59.625 C6.96 59.625 -13.83 59.625 -35.25 59.625 C-36.24 56.655 -37.23 53.685 -38.25 50.625 C-43.68627015 40.89162506 -52.03793663 36.40366533 -62.4375 33.3125 C-82.80240714 27.79651944 -108.37132496 28.49644101 -127.25 38.625 C-131.25280161 41.1925341 -134.46485448 44.16213619 -136.25 48.625 C-136.91686578 53.53181491 -136.80616831 57.39679498 -134.75 61.9375 C-126.00353298 71.33995205 -113.3768512 73.32572141 -101.16015625 75.02734375 C-100.26585907 75.15351578 -99.37156189 75.27968781 -98.45016479 75.40968323 C-90.51483809 76.50210588 -82.5616479 77.41731361 -74.6015625 78.30859375 C-73.32337143 78.45204224 -72.04518036 78.59549072 -70.72825623 78.74328613 C-65.44047554 79.33464379 -60.15269042 79.92520754 -54.86279297 80.49731445 C-27.61206519 83.45222532 0.16176913 87.09100867 18.75 109.625 C31.14940787 127.5067022 34.69570611 149.82225468 31.1015625 171.19921875 C27.91807456 186.41811024 20.65900244 197.9711789 9.75 208.625 C8.79867187 209.60726562 8.79867187 209.60726562 7.828125 210.609375 C-16.80595164 234.37144893 -57.32233679 237.24761054 -89.5546875 236.8125 C-122.61455576 236.05489775 -157.82413265 230.20028065 -182.05078125 205.8046875 C-196.1262365 189.78558062 -202.25 169.69293443 -202.25 148.625 C-181.79 148.625 -161.33 148.625 -140.25 148.625 C-138.765 153.575 -138.765 153.575 -137.25 158.625 C-133.4151865 166.75945288 -127.53806802 171.52226429 -119.2734375 174.80859375 C-106.76145402 178.96403352 -93.98649992 179.99724149 -80.875 179.9375 C-79.61075195 179.93331055 -78.34650391 179.92912109 -77.04394531 179.92480469 C-62.12982207 179.7447472 -47.35629881 178.19742231 -35.25 168.625 C-31.57496167 164.25468415 -29.99707722 160.28827094 -30.25 154.625 C-31.93932489 148.50119726 -35.0121267 144.97412345 -40.25 141.625 C-46.59101183 138.23702256 -53.39393031 137.16848377 -60.42578125 136.1953125 C-61.78545265 136.00424171 -61.78545265 136.00424171 -63.17259216 135.80931091 C-76.53971121 133.98123573 -89.97462694 132.68140733 -103.39624023 131.32543945 C-134.77651043 128.13913509 -166.41955445 124.90618036 -188.0625 99.375 C-200.27887179 82.89442296 -200.48675309 59.03019596 -197.6328125 39.578125 C-193.91008942 19.86033087 -182.80835389 4.25284967 -166.59375 -7.28125 C-120.80664293 -35.95168153 -41.80845627 -36.53415871 0 0 Z " fill="#000000" transform="translate(2261.25,36.375)"/>
<path d="M0 0 C66.33 0 132.66 0 201 0 C201 18.15 201 36.3 201 55 C156.12 55 111.24 55 65 55 C65 68.53 65 82.06 65 96 C101.3 96 137.6 96 175 96 C175 114.15 175 132.3 175 151 C138.7 151 102.4 151 65 151 C65 165.52 65 180.04 65 195 C109.88 195 154.76 195 201 195 C201 213.15 201 231.3 201 250 C134.67 250 68.34 250 0 250 C0 167.5 0 85 0 0 Z " fill="#000000" transform="translate(1831,17)"/>
<path d="M0 0 C21.45 0 42.9 0 65 0 C65.01458252 4.94597168 65.02916504 9.89194336 65.04418945 14.98779297 C65.09453503 31.33254626 65.16098058 47.67720483 65.23571491 64.02186394 C65.28063174 73.93123179 65.32005589 83.84056403 65.34643555 93.75 C65.36944893 102.38962676 65.40288426 111.02914043 65.44870156 119.66867745 C65.47258874 124.24092594 65.49134701 128.81306275 65.49761391 133.38537216 C65.50368518 137.69460696 65.52375842 142.00355617 65.55427551 146.31268501 C65.56302311 147.88877055 65.56678516 149.46489346 65.56500816 151.04100227 C65.55468835 164.42529834 67.06744679 174.60870323 76 185 C88.15781381 196.97439851 105.33011375 198.41074516 121.44580078 198.36572266 C135.10284846 198.14677602 149.29251616 195.75824031 159.86328125 186.33984375 C171.79921681 173.33767077 171.15683316 156.08955386 171.11352539 139.52270508 C171.11324274 137.9940084 171.11340278 136.46531159 171.1139679 134.93661499 C171.11425281 130.81961697 171.10840578 126.70264855 171.10139394 122.58565736 C171.09510923 118.27086684 171.09455257 113.95607552 171.09336853 109.64128113 C171.09027023 101.4853437 171.0820772 93.32941981 171.07201904 85.17348832 C171.06081112 75.88199712 171.0553357 66.59050525 171.05032361 57.29900897 C171.03989323 38.1993301 171.02156655 19.09966976 171 0 C192.45 0 213.9 0 236 0 C236.04528207 21.20245666 236.08206753 42.40487369 236.10362434 63.60736656 C236.11390302 73.45375687 236.12789756 83.30011484 236.15087891 93.14648438 C236.1709178 101.73631299 236.18374115 110.32611815 236.18817699 118.91596949 C236.19076673 123.45718646 236.19678123 127.99833639 236.21146011 132.53953171 C236.22521067 136.82898686 236.22918805 141.11834846 236.22621536 145.40782356 C236.22675783 146.96767374 236.23062983 148.52752761 236.23841095 150.08735847 C236.36561854 176.94479277 232.64297339 202.00759634 213.6875 222.5 C212.800625 223.325 211.91375 224.15 211 225 C210.31550781 225.66644531 209.63101563 226.33289063 208.92578125 227.01953125 C184.84262086 249.78412891 150.77115091 256.21800997 118.6875 256.25 C117.98368195 256.25100708 117.27986389 256.25201416 116.55471802 256.25305176 C85.63717692 256.22326649 53.09427882 249.58875875 29 229 C28.11828125 228.33291016 28.11828125 228.33291016 27.21875 227.65234375 C10.85664007 214.89733533 3.31933085 194.0878452 0.46388245 174.28126526 C-0.31337421 167.03577285 -0.13084896 159.7419336 -0.11352539 152.46459961 C-0.11324295 150.79826865 -0.11340236 149.13193757 -0.1139679 147.46560669 C-0.11425366 142.96420607 -0.10839265 138.46283234 -0.10139394 133.96143794 C-0.09512361 129.24891596 -0.0945537 124.5363933 -0.09336853 119.8238678 C-0.09026604 110.90996264 -0.08206728 101.99606981 -0.07201904 93.08217007 C-0.06082425 82.92979828 -0.05533898 72.7774259 -0.05032361 62.62504947 C-0.03988373 41.75002458 -0.02155174 20.87501658 0 0 Z " fill="#000000" transform="translate(761,16)"/>
<path d="M0 0 C27.06 0 54.12 0 82 0 C94.49962563 30.68089927 94.49962563 30.68089927 99.75088501 44.63699341 C101.43728966 49.11672727 103.13682124 53.59148145 104.8359375 58.06640625 C105.18266006 58.97992355 105.52938263 59.89344086 105.88661194 60.8346405 C109.47171955 70.26618624 113.13476672 79.66676084 116.8125 89.0625 C117.4753607 90.75666578 118.13820234 92.45083902 118.80102539 94.14501953 C119.29955269 95.41925781 119.29955269 95.41925781 119.80815125 96.71923828 C120.14345352 97.57630371 120.4787558 98.43336914 120.82421875 99.31640625 C121.33122063 100.61215576 121.33122063 100.61215576 121.84846497 101.93408203 C125.96060936 112.44830029 130.04417391 122.9735944 134.125 133.5 C134.51476013 134.50529755 134.90452026 135.51059509 135.30609131 136.5463562 C140.10485891 148.92591592 144.89402839 161.30917099 149.67578125 173.6953125 C149.91429935 174.31313725 150.15281746 174.93096199 150.39856339 175.5675087 C153.01780633 182.35242859 155.63549902 189.1379439 158.25097656 195.92431641 C162.16838962 206.08703459 166.08823351 216.24845517 170.05859375 226.390625 C170.63815001 227.87416752 171.2176609 229.35772778 171.79711914 230.84130859 C172.8103298 233.43498964 173.8297435 236.02609858 174.85327148 238.61572266 C175.28067627 239.70933105 175.70808105 240.80293945 176.1484375 241.9296875 C176.51114746 242.84991699 176.87385742 243.77014648 177.24755859 244.71826172 C178 247 178 247 178 250 C155.56 250 133.12 250 110 250 C104.23207662 236.15698389 104.23207662 236.15698389 102.10546875 229.93359375 C101.86838699 229.2474147 101.63130524 228.56123566 101.38703918 227.85426331 C100.89712461 226.43272255 100.40913318 225.01051752 99.9230957 223.58764648 C99.17709863 221.40709678 98.42187828 219.22988139 97.66601562 217.05273438 C97.18695071 215.65904286 96.70841475 214.26516938 96.23046875 212.87109375 C96.00554245 212.22426132 95.78061615 211.57742889 95.5488739 210.91099548 C94.60515575 208.12869058 94 205.96330256 94 203 C59.02 203 24.04 203 -12 203 C-12.99 206.3 -13.98 209.6 -15 213 C-16.02639605 216.03230359 -17.06629929 219.05389743 -18.13671875 222.0703125 C-18.51552185 223.14623657 -18.51552185 223.14623657 -18.90197754 224.24389648 C-19.82795002 226.8718256 -20.75794635 229.49833549 -21.6875 232.125 C-23.770625 238.02375 -25.85375 243.9225 -28 250 C-50.11 250 -72.22 250 -95 250 C-91.62512803 238.75042677 -91.62512803 238.75042677 -90.06494141 234.6887207 C-89.71167282 233.76365723 -89.35840424 232.83859375 -88.99443054 231.88549805 C-88.61728409 230.9087915 -88.24013763 229.93208496 -87.8515625 228.92578125 C-87.44706375 227.86939453 -87.042565 226.81300781 -86.62580872 225.72460938 C-85.29552832 222.25262182 -83.96025153 218.78257845 -82.625 215.3125 C-81.68199833 212.85390346 -80.73937814 210.39516057 -79.79711914 207.9362793 C-78.33346244 204.11713581 -76.86943567 200.29813605 -75.40364075 196.47981262 C-72.14070893 187.97988761 -68.88810406 179.4760864 -65.64453125 170.96875 C-65.21311829 169.8372905 -64.78170532 168.70583099 -64.33721924 167.54008484 C-63.47054673 165.26699345 -62.60388815 162.99389675 -61.73724365 160.72079468 C-54.11643725 140.7368895 -46.45799557 120.76769557 -38.77105713 100.80914307 C-33.96150913 88.32077015 -29.16500123 75.82757825 -24.39453125 63.32421875 C-23.92659149 62.09776642 -23.45865173 60.87131409 -22.97653198 59.60769653 C-20.72931121 53.71635765 -18.48375446 47.82438973 -16.24023438 41.93164062 C-15.41667383 39.7708306 -14.59310645 37.61002319 -13.76953125 35.44921875 C-13.42018021 34.53009201 -13.07082916 33.61096527 -12.71089172 32.66398621 C-8.54791561 21.74624999 -4.25838212 10.88253208 0 0 Z M41 55 C37.20333026 63.81001856 33.86589776 72.7448993 30.69140625 81.79296875 C30.19755647 83.1925127 29.70340408 84.59194991 29.20896912 85.99128723 C27.91781537 89.64800905 26.63069229 93.30613642 25.34448242 96.96459961 C24.05175459 100.63936917 22.7552183 104.31279417 21.45898438 107.98632812 C19.54164224 113.42139619 17.62634545 118.85717737 15.71313477 124.29370117 C12.81316264 132.53068669 9.90637478 140.76527144 7 149 C29.11 149 51.22 149 74 149 C72.48893033 141.92638959 72.48893033 141.92638959 70.41870117 135.15917969 C70.12002136 134.31703918 69.82134155 133.47489868 69.51361084 132.60723877 C69.03314301 131.2779837 69.03314301 131.2779837 68.54296875 129.921875 C68.20324036 128.96819031 67.86351196 128.01450562 67.51348877 127.03192139 C66.40963363 123.93620651 65.29855537 120.8431371 64.1875 117.75 C63.42330892 115.61024044 62.65972379 113.47026438 61.89672852 111.33007812 C60.73569212 108.07364594 59.57427633 104.81735513 58.41087341 101.56176758 C54.71590071 91.22084518 51.07066532 80.86276799 47.4375 70.5 C46.87855592 68.90720671 46.31955706 67.31443264 45.76049805 65.72167969 C44.5062895 62.14803496 43.25286185 58.57411712 42 55 C41.67 55 41.34 55 41 55 Z " fill="#000000" transform="translate(576,17)"/>
<path d="M0 0 C21.45 0 42.9 0 65 0 C65.33 32.34 65.66 64.68 66 98 C74.76099701 88.55633944 74.76099701 88.55633944 83.30078125 78.94921875 C87.5746796 74.04651697 91.96919471 69.24887834 96.328125 64.421875 C99.72344938 60.6569915 103.11058342 56.88806449 106.4375 53.0625 C110.09057956 48.86696779 113.84505549 44.76626447 117.59375 40.65625 C119.58648953 38.45647259 121.5533814 36.24044782 123.5 34 C126.28814098 30.79100756 129.13528185 27.64083556 132 24.5 C135.44517976 20.72225386 138.84505867 16.91317236 142.19921875 13.0546875 C151.09230769 2.90769231 151.09230769 2.90769231 154 0 C156.37300869 -0.09494733 158.71678703 -0.12559319 161.09008789 -0.11352539 C161.83150528 -0.11367142 162.57292267 -0.11381744 163.33680725 -0.1139679 C165.79878621 -0.11326865 168.26069043 -0.10547574 170.72265625 -0.09765625 C172.42516539 -0.09579211 174.12767507 -0.09436819 175.83018494 -0.09336853 C180.31993073 -0.08954302 184.80964438 -0.07971247 189.29937744 -0.06866455 C193.87731491 -0.05845113 198.45525756 -0.05387106 203.03320312 -0.04882812 C212.02214957 -0.03809022 221.01107212 -0.02101341 230 0 C228.56957074 2.97481053 227.12819646 5.14844256 224.83984375 7.5390625 C223.90362183 8.52555786 223.90362183 8.52555786 222.94848633 9.53198242 C222.28486084 10.22267822 221.62123535 10.91337402 220.9375 11.625 C219.56436336 13.07091142 218.19196427 14.51752364 216.8203125 15.96484375 C216.15805664 16.66206543 215.49580078 17.35928711 214.81347656 18.07763672 C211.89362469 21.1728055 209.06405022 24.34570735 206.23046875 27.51953125 C203.04851352 31.05813295 199.81487946 34.54808882 196.58349609 38.04150391 C193.19283299 41.70728896 189.81033155 45.38030088 186.4375 49.0625 C185.98777832 49.55347168 185.53805664 50.04444336 185.07470703 50.55029297 C184.16937398 51.53884515 183.26410037 52.52745177 182.35888672 53.51611328 C180.07357504 56.01164407 177.7867042 58.50574527 175.5 61 C174.58332596 61.99999325 173.6666593 62.99999324 172.75 64 C145.25 94 145.25 94 143.87475586 95.50024414 C142.95887351 96.49940331 142.0430206 97.49858947 141.12719727 98.49780273 C138.82377231 101.01089055 136.51982398 103.52349478 134.21484375 106.03515625 C128.12438103 112.67308828 122.0539987 119.32878234 116 126 C119.32242695 130.00395043 122.73234186 133.78309745 126.4375 137.4375 C129.88728942 140.84113839 133.10113536 144.35813708 136.25390625 148.03515625 C138.09615675 150.10820324 140.02401662 152.05435802 142 154 C144.59982183 156.55990134 147.06268398 159.1677954 149.4375 161.9375 C152.00665271 164.92801716 154.69317256 167.73116684 157.5 170.5 C160.9071879 173.86114482 164.07458174 177.33701203 167.1875 180.96875 C169.2109288 183.23638572 171.33653347 185.3657695 173.5 187.5 C176.9071879 190.86114482 180.07458174 194.33701203 183.1875 197.96875 C185.92777083 201.03974317 188.87946902 203.88786876 191.80859375 206.77734375 C194.42101068 209.4270144 196.83302621 212.21172803 199.25390625 215.03515625 C201.09615675 217.10820324 203.02401662 219.05435802 205 221 C207.59982183 223.55990134 210.06268398 226.1677954 212.4375 228.9375 C215.04402998 231.97348114 217.77671881 234.81438203 220.625 237.625 C223.97935589 240.94495224 227.15207269 244.23338647 230 248 C230 248.66 230 249.32 230 250 C219.62958825 250.2790373 209.26008046 250.49175111 198.88666821 250.62174606 C194.0686784 250.68416653 189.25327099 250.76869613 184.43676758 250.90527344 C179.78105478 251.03645279 175.12781141 251.10756693 170.47039223 251.13852692 C168.70116621 251.16056314 166.9320634 251.20360084 165.16390038 251.26876068 C150.61830198 251.78307163 150.61830198 251.78307163 145.55288696 247.42883301 C142.6953502 244.53338 140.35877821 241.31107285 138 238 C136.47997657 236.27238093 134.94177371 234.56033648 133.375 232.875 C131.19153134 230.44376184 129.00982218 228.01095279 126.828125 225.578125 C122.74305238 221.02949804 118.63574212 216.50259936 114.5 212 C108.89705348 205.90004921 103.3578719 199.74438953 97.828125 193.578125 C93.70355322 188.9855167 89.55362708 184.4183487 85.375 179.875 C81.17852608 175.30922484 77.06151395 170.68636225 73 166 C70.69 163.36 68.38 160.72 66 158 C65.67 188.36 65.34 218.72 65 250 C43.88 250 22.76 250 1 250 C0.86831054 224.4914717 0.73767288 198.98293867 0.60884857 173.47439575 C0.54897191 161.6245286 0.48866102 149.77466398 0.42724609 137.92480469 C0.37358177 127.57017594 0.32081534 117.21554303 0.26903296 106.86090469 C0.24170541 101.40213943 0.21399267 95.94337687 0.18519592 90.48461914 C0.02645629 60.3225771 -0.01968836 30.16256435 0 0 Z " fill="#000000" transform="translate(2324,17)"/>
<path d="M0 0 C73.92 0 147.84 0 224 0 C224 18.15 224 36.3 224 55 C197.6 55 171.2 55 144 55 C144 119.35 144 183.7 144 250 C122.88 250 101.76 250 80 250 C80 185.65 80 121.3 80 55 C53.6 55 27.2 55 0 55 C0 36.85 0 18.7 0 0 Z " fill="#000000" transform="translate(1025,17)"/>
</svg>
