<svg xmlns="http://www.w3.org/2000/svg"
  xmlns:xlink="http://www.w3.org/1999/xlink" viewBox="0 0 199 48">
  <defs>
    <path id="a" d="M4.572.31A4.574 4.574 0 000 4.884v15.463a2.73 2.73 0 002.73 2.73h41.698a2.73 2.73 0 002.73-2.73V4.883A4.572 4.572 0 0042.585.311H4.572z"/>
    <path id="c" d="M2.73.36A2.73 2.73 0 000 3.09v15.463a4.571 4.571 0 004.572 4.572h38.013a4.57 4.57 0 004.572-4.572V3.09a2.73 2.73 0 00-2.73-2.73H2.73z"/>
    <path id="e" d="M.164.203h142.185v35.201H.164z"/>
  </defs>
  <g fill="none" fill-rule="evenodd">
    <path fill="#813588" d="M42.585.406a4.571 4.571 0 014.572 4.572V42.99a4.571 4.571 0 01-4.572 4.572H4.572A4.57 4.57 0 010 42.991V4.978A4.572 4.572 0 014.572.406h38.013z"/>
    <g transform="translate(0 .095)">
      <mask id="b" fill="#fff">
        <use xlink:href="#a"/>
      </mask>
      <path d="M4.572.31A4.574 4.574 0 000 4.884v15.463a2.73 2.73 0 002.73 2.73h41.698a2.73 2.73 0 002.73-2.73V4.883A4.572 4.572 0 0042.585.311H4.572z" mask="url(#b)"/>
    </g>
    <g transform="translate(0 24.438)">
      <mask id="d" fill="#fff">
        <use xlink:href="#c"/>
      </mask>
      <path d="M2.73.36A2.73 2.73 0 000 3.09v15.463a4.571 4.571 0 004.572 4.572h38.013a4.57 4.57 0 004.572-4.572V3.09a2.73 2.73 0 00-2.73-2.73H2.73z" mask="url(#d)"/>
    </g>
    <path fill="#813588" d="M42.674 1.916a2.972 2.972 0 012.973 2.973V43.08a2.972 2.972 0 01-2.973 2.973H4.483A2.973 2.973 0 011.51 43.08V4.889a2.972 2.972 0 012.973-2.973h38.191z"/>
    <path fill="#4B205A" d="M30.545 36.143l-9.163 2.645a1.465 1.465 0 01-1.813-1L12.637 13.77a1.465 1.465 0 011-1.813l9.482-2.737c2.187-.63 4.572.002 6.087 1.703 2.814 3.16 2.146 7.266-.422 9.473a8.038 8.038 0 011.761 15.746"/>
    <path fill="#FEFEFE" d="M30.545 36.143l-9.164 2.645a1.464 1.464 0 01-1.812-1L12.637 13.77a1.463 1.463 0 011-1.812l9.497-2.74c2.178-.629 4.55.005 6.06 1.695 2.828 3.162 2.162 7.275-.41 9.485a8.038 8.038 0 011.761 15.746m1.331-16.858c1.401-2.701 1.319-6.182-.992-9.124-1.775-2.26-5.53-3.425-8.29-2.628l-9.74 2.81a2.929 2.929 0 00-2 3.625l7.101 24.602a2.925 2.925 0 003.624 2l9.793-2.826c3.275-.945 6.332-4.483 6.7-7.872.554-5.101-2.307-9.068-6.196-10.587"/>
    <path fill="#813588" d="M33.399 29.742a7.411 7.411 0 00-7.334-7.41c2.459-2.116 3.113-6.032.48-9.077-1.469-1.7-3.812-2.36-5.97-1.736l-7.928 2.288 6.922 23.981a1.463 1.463 0 001.812 1l6.507-1.878.094-.03a7.411 7.411 0 005.417-7.138"/>
    <g transform="translate(56.393 6.181)">
      <mask id="f" fill="#fff">
        <use xlink:href="#e"/>
      </mask>
      <path fill="#813588" d="M124.997 26.276c-.814-.949-1.853-1.898-3.028-1.898-1.446 0-3.073.904-3.073 3.209 0 .859.407 1.943 1.22 2.892 2.214 2.711 5.875 4.925 11.026 4.925 6.1 0 11.207-3.434 11.207-9.58 0-11.974-15.907-10.8-15.907-16.131 0-2.08 1.401-3.254 3.751-3.254 1.808 0 3.254.452 4.293 1.31 1.175.904 2.079 2.666 4.022 2.666 1.627 0 3.072-1.084 3.072-2.71 0-2.35-2.35-4.565-4.383-5.74-1.717-.994-3.976-1.762-7.05-1.762-5.15.09-10.212 2.892-10.212 9.58 0 10.8 15.907 8.902 15.907 15.68 0 2.44-1.898 3.66-4.745 3.66-2.53 0-4.338-1.13-6.1-2.847zM14.58 13.804c-2.125.407-3.48 1.266-3.48 3.3 0 2.078 1.31 3.208 3.434 3.479 3.66.407 4.926 1.672 4.926 4.473 0 2.576-2.124 3.977-6.191 3.977H6.626V6.168h7.185c2.712 0 4.067 1.626 4.067 4.067 0 2.124-1.265 3.208-3.298 3.57zM52.458 25.96c0 3.118 2.757 8.992 10.348 8.992 7.501 0 11.298-4.473 11.298-12.516V4.45C74.104 2.1 72.748.7 70.85.7c-2.034 0-3.254 1.4-3.254 3.75v18.121c0 4.112-1.4 6.055-4.609 6.1-5.468.09-3.118-5.693-7.004-6.01-1.717-.135-3.525.994-3.525 3.3zm60.423-13.285c.768 0 1.716-.407 2.259-1.582.858-1.852 1.717-5.377 1.717-6.959 0-2.169-.994-3.524-3.344-3.524-2.395.09-3.389 1.626-3.389 4.473V7.66c0 3.208.904 5.016 2.757 5.016zm-70.997 2.078L34.61 2.643C33.886 1.468 33.118.7 31.717.7c-1.853 0-3.299 1.265-3.299 2.937 0 1.04.316 1.807.858 2.666l9.355 15.003v10.032c0 2.35 1.49 3.75 3.208 3.75 1.943 0 3.299-1.4 3.299-3.75V21.306l9.354-15.003c.542-.859.858-1.627.858-2.666C55.35 1.965 53.905.7 52.051.7c-1.4 0-2.169.768-2.892 1.943l-7.275 12.11zm-21.656 2.08c2.711-1.763 4.112-4.203 4.112-7.05 0-5.604-3.931-9.58-11.885-9.58H3.418C1.475.203.164 1.468.164 3.41v28.47c0 1.898 1.31 3.208 3.254 3.208l8.992.09c10.303.09 13.693-4.337 13.693-9.76 0-3.886-2.215-6.96-5.875-8.45 0 0-.041-.018-.041-.062 0-.05.04-.074.04-.074zm73.035 18.074c-7.953 0-12.562-4.79-12.562-14.324V4.45C80.7 2.1 82.01.7 83.955.7c1.898 0 3.253 1.4 3.253 3.75v15.636c0 6.416 2.079 8.45 6.055 8.45 3.977 0 6.055-2.034 6.055-8.45V4.45c0-2.35 1.356-3.75 3.254-3.75 1.943 0 3.254 1.4 3.254 3.75v16.133c0 9.535-4.61 14.324-12.563 14.324z" mask="url(#f)"/>
    </g>
    <path fill="#A054A0" d="M140.348 7.488c1.898 0 3.254 1.4 3.254 3.75v-.607c0-2.35-1.356-3.75-3.254-3.75-1.943 0-3.254 1.4-3.254 3.75v.607c0-2.35 1.31-3.75 3.254-3.75m3.254 19.385c0 6.417 2.078 8.45 6.055 8.45s6.055-2.033 6.055-8.45v-.607c0 6.417-2.078 8.45-6.055 8.45s-6.055-2.033-6.055-8.45v.607zM182.85 16.14c-.008.11-.014.223-.014.34 0 5.281 15.601 4.181 15.9 15.795.001-.09.006-.178.006-.27 0-11.77-15.368-10.836-15.892-15.865M88.11 7.488c1.401 0 2.17.768 2.892 1.943l7.276 12.11 7.275-12.11c.723-1.175 1.491-1.944 2.892-1.944 1.758 0 3.147 1.14 3.285 2.684.008-.114.014-.231.014-.353 0-1.672-1.446-2.938-3.3-2.938-1.4 0-2.168.769-2.891 1.944l-7.275 12.11-7.276-12.11c-.723-1.175-1.49-1.944-2.892-1.944-1.852 0-3.299 1.266-3.299 2.938 0 .122.006.239.014.353.139-1.544 1.528-2.684 3.285-2.684m90.252 23.679c1.175 0 2.215.95 3.028 1.898 1.763 1.717 3.57 2.847 6.1 2.847 2.847 0 4.745-1.22 4.745-3.66 0-.113-.005-.223-.014-.331-.14 2.254-1.995 3.384-4.73 3.384-2.531 0-4.338-1.13-6.1-2.847-.814-.949-1.854-1.898-3.029-1.898-1.446 0-3.073.904-3.073 3.209 0 .086.007.176.016.266.154-2.052 1.685-2.868 3.057-2.868m8.179-24.176c3.073 0 5.333.769 7.05 1.763 1.947 1.125 4.178 3.203 4.365 5.44.011-.1.018-.203.018-.308 0-2.35-2.35-4.564-4.383-5.74-1.717-.993-3.977-1.762-7.05-1.762-5.15.09-10.212 2.893-10.212 9.58 0 .105.004.206.007.308.15-6.47 5.132-9.191 10.205-9.28m-77.689 25.15c0 .114.005.234.012.355.129-2.132 1.86-3.178 3.513-3.047 3.886.317 1.536 6.1 7.003 6.01 3.209-.045 4.61-1.988 4.61-6.1v-.607c0 4.112-1.401 6.055-4.61 6.1-5.467.09-3.117-5.694-7.003-6.01-1.718-.135-3.525.994-3.525 3.299m50.114-25.26c-1.898 0-3.254 1.4-3.254 3.75v.607c0-2.35 1.356-3.75 3.254-3.75 1.942 0 3.253 1.4 3.253 3.75v-.607c0-2.35-1.31-3.75-3.253-3.75m10.941-.091c-2.395.09-3.39 1.627-3.39 4.474v.607c0-2.847.995-4.384 3.39-4.474 2.235 0 3.241 1.228 3.335 3.214.005-.104.008-.204.008-.296 0-2.17-.994-3.525-3.343-3.525m-42.664.091c-2.033 0-3.253 1.4-3.253 3.75v.607c0-2.35 1.22-3.75 3.253-3.75 1.898 0 3.254 1.4 3.254 3.75v-.607c0-2.35-1.356-3.75-3.254-3.75m-67.432.109h9.038c7.784 0 11.713 3.81 11.877 9.226.002-.084.007-.167.007-.253 0-5.603-3.93-9.58-11.884-9.58h-9.038c-1.943 0-3.253 1.266-3.253 3.21v.606c0-1.943 1.31-3.209 3.253-3.209m11.162 12.995c-2.124.407-3.48 1.266-3.48 3.299 0 .108.006.21.013.313.128-1.822 1.449-2.619 3.467-3.005 2.033-.361 3.298-1.446 3.298-3.57 0-.107-.005-.21-.01-.314-.114 1.93-1.351 2.933-3.288 3.277M69.662 35.82c4.067 0 6.191-1.4 6.191-3.976 0-.134-.005-.262-.011-.389-.12 2.435-2.23 3.759-6.18 3.759H63.02v.606h6.642zm6.959-12.672s-.04-.017-.04-.061c0-.05.04-.074.04-.074l.008-.005c-.084.063-.234.179-.365.28a.192.192 0 00.04.327l.317.14c3.592 1.463 5.786 4.451 5.867 8.234.004-.13.008-.26.008-.39a9.55 9.55 0 00-.456-2.9c-.823-2.501-2.728-4.454-5.419-5.55"/>
  </g>
</svg>
