<?xml version="1.0" encoding="UTF-8"?>
<svg version="1.1" xmlns="http://www.w3.org/2000/svg" width="1200" height="484">
<path d="M0 0 C3.59529841 0.01193899 7.19057946 0.01889364 10.78589249 0.02481461 C65.95369081 0.12990405 120.76840401 1.63517087 175.61722183 8.01239395 C178.98230731 8.40293363 182.34819819 8.7859639 185.7142067 9.16846085 C282.85153322 20.27940009 380.387449 39.93463729 490.84262466 90.38672256 C491.78686295 90.83547745 492.73110123 91.28423233 493.70395279 91.74658585 C540.36807936 114.05712024 592.84820908 150.58541515 610.84262466 201.38672256 C613.33440131 209.5006682 615.49132218 217.8790929 615.84262466 226.38672256 C615.8825856 227.25941788 615.92254654 228.13211319 615.96371841 229.03125381 C616.77152089 264.52704511 600.51714056 298.42380314 576.37192154 323.79443741 C575.61491959 324.58261856 575.61491959 324.58261856 574.84262466 325.38672256 C574.20647232 326.05010635 573.57031998 326.71349014 572.91489029 327.39697647 C563.95189977 336.6835627 554.93403326 345.56565302 544.49301529 353.18066788 C542.86022714 354.37385921 541.24949074 355.5926989 539.63949966 356.81641006 C487.9902474 395.49721719 423.52858012 415.42228908 361.84262466 431.38672256 C360.77443497 431.663871 359.70624527 431.94101944 358.60568619 432.22656631 C256.8363243 458.56678489 151.93804587 474.18930869 11.49081802 475.77783585 C5.58907133 475.76075586 -0.31226873 475.77094899 -6.21400166 475.78814983 C-50.1553398 475.89652926 -94.15242635 474.49324 -137.84487534 469.57422256 C-140.25424579 469.31323136 -142.66367132 469.05274809 -145.07314682 468.79272842 C-228.14930535 459.71895921 -310.33807147 444.82989362 -461.15737534 385.38672256 C-462.11921738 384.91658737 -462.11921738 384.91658737 -463.10049057 384.4369545 C-477.96489852 377.15877348 -492.053688 369.53712332 -505.15737534 359.38672256 C-506.07365707 358.68917862 -506.07365707 358.68917862 -507.00844955 357.97754288 C-510.55948974 355.27334015 -514.06326577 352.518166 -517.52944565 349.7060585 C-519.08285379 348.44711765 -520.64720601 347.20171658 -522.21206284 345.95703506 C-549.10042365 323.99478615 -571.01065937 298.02045834 -581.15737534 264.38672256 C-581.33768295 263.81856827 -581.51799057 263.25041397 -581.70376205 262.66504288 C-582.36336965 259.35209448 -582.3609649 256.04909296 -582.39565659 252.68359756 C-582.40372833 251.92814651 -582.41180008 251.17269547 -582.42011642 250.39435196 C-582.43393481 248.79059496 -582.444667 247.18680883 -582.45254135 245.58301163 C-582.46394575 243.97354637 -582.48420927 242.36411536 -582.51406479 240.75488663 C-582.78516315 226.11254605 -580.82821121 212.83708901 -574.53237534 199.44922256 C-574.19246567 198.70962296 -573.852556 197.97002335 -573.50234604 197.20801163 C-564.58850243 178.26734957 -552.54412241 162.46059785 -538.15737534 147.38672256 C-537.39682846 146.58492569 -536.63628159 145.78312881 -535.85268784 144.95703506 C-530.32862137 139.2756998 -524.39889247 134.26119902 -518.15737534 129.38672256 C-517.58132553 128.93426163 -517.00527573 128.48180069 -516.41176987 128.01562881 C-470.67964338 92.2726483 -413.57172622 68.05282502 -358.36727524 51.06848526 C-356.14765021 50.38372233 -353.93083338 49.69047094 -351.71450424 48.995121 C-268.92589954 23.08683548 -183.47114294 10.18624897 -97.15737534 3.38672256 C-96.26150145 3.31589588 -95.36562756 3.2450692 -94.44260597 3.17209625 C-62.94275396 0.70254753 -31.59088482 -0.11206061 0 0 Z " fill="#020298" transform="translate(582.1573753356934,1.6132774353027344)"/>
<path d="M0 0 C3.59529841 0.01193899 7.19057946 0.01889364 10.78589249 0.02481461 C65.95369081 0.12990405 120.76840401 1.63517087 175.61722183 8.01239395 C178.98230731 8.40293363 182.34819819 8.7859639 185.7142067 9.16846085 C282.85153322 20.27940009 380.387449 39.93463729 490.84262466 90.38672256 C491.78686295 90.83547745 492.73110123 91.28423233 493.70395279 91.74658585 C540.36807936 114.05712024 592.84820908 150.58541515 610.84262466 201.38672256 C613.33440131 209.5006682 615.49132218 217.8790929 615.84262466 226.38672256 C615.8825856 227.25941788 615.92254654 228.13211319 615.96371841 229.03125381 C616.77152089 264.52704511 600.51714056 298.42380314 576.37192154 323.79443741 C575.61491959 324.58261856 575.61491959 324.58261856 574.84262466 325.38672256 C574.20647232 326.05010635 573.57031998 326.71349014 572.91489029 327.39697647 C563.95189977 336.6835627 554.93403326 345.56565302 544.49301529 353.18066788 C542.86022714 354.37385921 541.24949074 355.5926989 539.63949966 356.81641006 C487.9902474 395.49721719 423.52858012 415.42228908 361.84262466 431.38672256 C360.77443497 431.663871 359.70624527 431.94101944 358.60568619 432.22656631 C256.8363243 458.56678489 151.93804587 474.18930869 11.49081802 475.77783585 C5.58907133 475.76075586 -0.31226873 475.77094899 -6.21400166 475.78814983 C-50.1553398 475.89652926 -94.15242635 474.49324 -137.84487534 469.57422256 C-140.25424579 469.31323136 -142.66367132 469.05274809 -145.07314682 468.79272842 C-228.14930535 459.71895921 -310.33807147 444.82989362 -461.15737534 385.38672256 C-462.11921738 384.91658737 -462.11921738 384.91658737 -463.10049057 384.4369545 C-477.96489852 377.15877348 -492.053688 369.53712332 -505.15737534 359.38672256 C-506.07365707 358.68917862 -506.07365707 358.68917862 -507.00844955 357.97754288 C-510.55948974 355.27334015 -514.06326577 352.518166 -517.52944565 349.7060585 C-519.08285379 348.44711765 -520.64720601 347.20171658 -522.21206284 345.95703506 C-549.10042365 323.99478615 -571.01065937 298.02045834 -581.15737534 264.38672256 C-581.33768295 263.81856827 -581.51799057 263.25041397 -581.70376205 262.66504288 C-582.36336965 259.35209448 -582.3609649 256.04909296 -582.39565659 252.68359756 C-582.40372833 251.92814651 -582.41180008 251.17269547 -582.42011642 250.39435196 C-582.43393481 248.79059496 -582.444667 247.18680883 -582.45254135 245.58301163 C-582.46394575 243.97354637 -582.48420927 242.36411536 -582.51406479 240.75488663 C-582.78516315 226.11254605 -580.82821121 212.83708901 -574.53237534 199.44922256 C-574.19246567 198.70962296 -573.852556 197.97002335 -573.50234604 197.20801163 C-564.58850243 178.26734957 -552.54412241 162.46059785 -538.15737534 147.38672256 C-537.39682846 146.58492569 -536.63628159 145.78312881 -535.85268784 144.95703506 C-530.32862137 139.2756998 -524.39889247 134.26119902 -518.15737534 129.38672256 C-517.58132553 128.93426163 -517.00527573 128.48180069 -516.41176987 128.01562881 C-470.67964338 92.2726483 -413.57172622 68.05282502 -358.36727524 51.06848526 C-356.14765021 50.38372233 -353.93083338 49.69047094 -351.71450424 48.995121 C-268.92589954 23.08683548 -183.47114294 10.18624897 -97.15737534 3.38672256 C-96.26150145 3.31589588 -95.36562756 3.2450692 -94.44260597 3.17209625 C-62.94275396 0.70254753 -31.59088482 -0.11206061 0 0 Z M-88.22574615 26.87712097 C-90.51983482 27.0786105 -92.8141685 27.27708419 -95.10857773 27.47488785 C-161.62599136 33.22242947 -227.7018078 41.84156932 -292.9383812 56.24536514 C-296.44994814 57.01962636 -299.96575183 57.7657739 -303.48843002 58.48779678 C-321.65478365 62.21223452 -339.27300571 68.05514121 -356.92257309 73.6758461 C-358.95608099 74.32269211 -360.99077382 74.96561089 -363.02602768 75.60693741 C-418.65407134 93.22001775 -471.62045878 117.59567373 -514.15737534 158.38672256 C-514.71666733 158.91878311 -515.27595932 159.45084366 -515.85219955 159.99902725 C-523.92159812 167.7144853 -531.27224107 175.69982039 -537.90346909 184.68848038 C-538.72855521 185.80594515 -539.56171668 186.9174998 -540.40346909 188.02246475 C-554.99689347 207.19673241 -559.73633866 230.01220881 -556.65346909 253.76172256 C-552.86154046 278.13510852 -538.6266197 295.01454752 -522.15737534 312.38672256 C-521.63546616 312.94263077 -521.11355698 313.49853897 -520.57583237 314.07129288 C-511.54443321 323.63458609 -501.86425919 331.75956146 -491.15737534 339.38672256 C-490.3753978 339.94859268 -489.59342026 340.5104628 -488.78774643 341.08935928 C-456.98410288 363.73324689 -419.91906365 379.02416524 -383.16024399 391.69525528 C-381.11163239 392.40251479 -379.06539289 393.11637025 -377.01919174 393.83057022 C-296.18189924 421.91698603 -208.54864043 436.0174833 -97.71010971 444.96826553 C-93.12339462 445.31161913 -88.53873768 445.67505214 -83.95425034 446.04687881 C-1.09817763 452.575142 85.25365171 450.67280605 167.84262466 441.38672256 C168.82285599 441.27929733 169.80308731 441.1718721 170.81302261 441.06119156 C188.78588045 439.08190772 206.62570753 436.35662535 224.46762466 433.44922256 C225.55559404 433.27248001 225.55559404 433.27248001 226.6655426 433.0921669 C273.09471007 425.54753155 319.40116057 417.50319531 364.78085709 404.9525795 C367.80093075 404.12371322 370.82965264 403.32832307 373.85824966 402.53125381 C439.91318335 384.9217493 518.46977928 355.34744862 562.84262466 300.38672256 C563.99698013 298.98873428 563.99698013 298.98873428 565.17465591 297.56250381 C582.38393553 276.30339179 593.00390519 250.99141558 590.84262466 223.38672256 C586.98645173 193.09847427 566.37222344 167.09600069 543.01010513 148.63257217 C468.03508155 90.90128227 370.58703329 63.31625668 278.71323013 45.93848038 C275.85670763 45.38942945 273.00789272 44.8100643 270.15903091 44.22266006 C255.72467486 41.28641413 241.21453972 38.97677155 226.65512466 36.76172256 C225.69691818 36.61551468 224.7387117 36.46930679 223.75146866 36.31866837 C160.67456445 26.72962315 97.44996273 22.81281592 33.6673317 23.12244034 C28.94171804 23.14165683 24.21614206 23.1455577 19.49049473 23.14931393 C-16.53867809 23.18018557 -52.32222037 23.71504806 -88.22574615 26.87712097 Z " fill="#030398" transform="translate(582.1573753356934,1.6132774353027344)"/>
<path d="M0 0 C4.70580923 -0.00435633 9.4114322 -0.01817215 14.1171875 -0.04101562 C56.49070011 -0.24210169 98.75461834 1.15373205 140.92211914 5.55273438 C142.45150116 5.70705933 142.45150116 5.70705933 144.01177979 5.86450195 C173.94180208 8.89119126 203.68714957 13.2451814 233.28442383 18.61474609 C236.90159736 19.2588383 240.52385072 19.86349792 244.14868164 20.46289062 C319.00326519 33.09033557 394.8245457 55.1558985 462.79711914 89.24023438 C463.59537109 89.63807129 464.39362305 90.0359082 465.21606445 90.44580078 C489.75363697 102.75727964 512.71890901 118.51561144 532.79711914 137.24023438 C533.54864258 137.93761719 534.30016602 138.635 535.07446289 139.35351562 C549.78468868 153.49498049 560.36788957 170.57638609 565.79711914 190.24023438 C566.04204102 191.06265625 566.28696289 191.88507813 566.53930664 192.73242188 C572.26272085 215.39086992 564.46921999 239.46829462 553.09960938 259.04150391 C543.28498563 275.21024847 529.77235588 289.79352467 514.79711914 301.24023438 C513.82645508 302.01496094 512.85579102 302.7896875 511.85571289 303.58789062 C496.76838241 315.50291632 480.42964246 325.64013788 463.79711914 335.24023438 C462.79672607 335.8210376 462.79672607 335.8210376 461.77612305 336.41357422 C427.89503227 355.85268653 389.29991786 368.92605161 351.79711914 379.24023438 C350.59333618 379.57251038 350.59333618 379.57251038 349.36523438 379.91149902 C274.26616923 400.5721756 195.89213003 414.11899904 118.26100159 420.59065247 C114.18882875 420.93248289 110.12471625 421.30322761 106.06298828 421.75341797 C90.1520351 423.48636562 74.21054959 423.90212637 58.22283936 424.30529404 C55.82933837 424.36600241 53.43590859 424.42907263 51.04248047 424.49258423 C20.02980141 425.30821081 -10.96155963 425.56336581 -41.98492432 425.27020264 C-44.97536731 425.24235317 -47.96580652 425.21951363 -50.95629883 425.19775391 C-80.1457234 424.95771749 -109.17964255 422.83065516 -138.26605225 420.4765625 C-140.88546563 420.26577694 -143.50518851 420.06003824 -146.12524414 419.85742188 C-206.13080711 415.19625175 -266.12084468 405.50427531 -324.71472168 391.82098389 C-326.40181379 391.42720767 -328.08924429 391.03487901 -329.77697754 390.64385986 C-412.72751269 371.41338586 -508.65644469 341.12655517 -562.20288086 270.24023438 C-563.13680664 269.01433594 -563.13680664 269.01433594 -564.08959961 267.76367188 C-578.09399714 248.6253412 -582.82329507 225.53941225 -579.74194336 202.12695312 C-573.57089879 167.75060484 -544.98780046 138.88534432 -518.20288086 118.24023438 C-517.19999023 117.44359375 -516.19709961 116.64695312 -515.16381836 115.82617188 C-472.93925848 82.46604205 -422.13713086 63.50502762 -371.32788086 47.55273438 C-369.73396515 47.05135956 -369.73396515 47.05135956 -368.10784912 46.53985596 C-350.45224765 41.01320976 -332.73243611 36.04914467 -314.51538086 32.74023438 C-312.29256024 32.32444548 -310.06990805 31.90775529 -307.84741211 31.49023438 C-306.74349121 31.28398438 -305.63957031 31.07773437 -304.50219727 30.86523438 C-300.3202227 30.07302963 -296.14690038 29.24130839 -291.97460938 28.39976501 C-286.71863213 27.34024005 -281.46087068 26.28972012 -276.20288086 25.24023438 C-274.70260094 24.93990799 -274.70260094 24.93990799 -273.17201233 24.6335144 C-257.01032769 21.4126362 -240.82684191 18.64587347 -224.51538086 16.30273438 C-223.34646301 16.13381683 -222.17754517 15.96489929 -220.97320557 15.79086304 C-183.55424701 10.41177387 -145.99115275 6.60280676 -108.32788086 3.42773438 C-107.10228455 3.3223233 -105.87668823 3.21691223 -104.61395264 3.10830688 C-69.77468505 0.14044342 -34.94115628 0.02769897 0 0 Z M-75.25497627 19.00528336 C-77.80292769 19.31261041 -80.33719941 19.4267593 -82.90161133 19.50561523 C-83.93048965 19.53921646 -84.95936798 19.57281769 -86.01942444 19.60743713 C-87.10863693 19.63965866 -88.19784943 19.67188019 -89.32006836 19.70507812 C-91.70719829 19.7822572 -94.09432377 19.85957373 -96.48144531 19.93701172 C-97.72141266 19.97606628 -98.96138 20.01512085 -100.23892212 20.05535889 C-183.84817268 22.72059276 -267.93707224 29.480723 -537.20288086 144.24023438 C-537.70094238 144.73426758 -538.19900391 145.22830078 -538.7121582 145.73730469 C-556.17947858 163.3011296 -574.86141685 187.95394645 -575.51538086 213.80273438 C-575.21981635 237.5822423 -566.1094374 258.35544095 -549.45288086 275.17773438 C-548.04171354 276.53763091 -546.62580355 277.89264289 -545.20288086 279.24023438 C-540.20288086 284.24023437 -540.20288086 284.24023437 -538.72094727 285.78149414 C-534.49364698 290.12584098 -530.04257026 293.91047074 -525.20288086 297.55273438 C-524.46158936 298.11323486 -523.72029785 298.67373535 -522.95654297 299.2512207 C-505.53152392 312.31208565 -486.83824893 322.86850002 -467.20288086 332.24023438 C-466.46408691 332.5944043 -465.72529297 332.94857422 -464.96411133 333.31347656 C-429.0296156 350.39498848 -389.73541599 361.64514755 -351.30761719 371.69000244 C-349.94569017 372.04604501 -348.58416983 372.4036484 -347.22314453 372.76312256 C-278.48937906 390.90521216 -206.0517295 399.99393213 -135.20288086 404.24023438 C-133.82641248 404.32448652 -132.44994785 404.40879991 -131.07348633 404.49316406 C-113.96929632 405.53377086 -96.86878569 406.42424948 -79.73852539 406.89868164 C-78.11213135 406.94593384 -78.11213135 406.94593384 -76.45288086 406.99414062 C-75.52991211 407.01806885 -74.60694336 407.04199707 -73.65600586 407.06665039 C-70.69889379 407.21530047 -67.78386745 407.46765716 -64.83740234 407.74731445 C-57.16219601 408.40130733 -49.49649193 408.38492711 -41.80053711 408.37304688 C-40.231318 408.37372321 -38.662099 408.37469595 -37.09288025 408.37594604 C-33.81597895 408.37741145 -30.5391051 408.37530862 -27.26220703 408.37060547 C-23.12733918 408.36495067 -18.99253632 408.36825447 -14.85767078 408.37405586 C7.05187391 408.4125023 7.05187391 408.4125023 28.94290161 407.59869385 C34.16737797 407.30035227 39.36515722 407.17175824 44.59790039 407.16992188 C71.55739105 407.09199108 98.31516087 405.08830356 125.17211914 402.92773438 C126.10794956 402.85295616 127.04377998 402.77817795 128.0079689 402.70113373 C153.90538611 400.63156316 179.7565018 398.23505476 205.58950424 395.47579956 C207.89627673 395.22965369 210.20320645 394.98502111 212.51016235 394.74060059 C214.05983964 394.57605469 215.60951223 394.41146462 217.15917969 394.24682617 C217.85612977 394.172988 218.55307985 394.09914984 219.27114964 394.02307415 C247.27587347 391.03846102 275.15506148 386.62474443 302.79711914 381.24023438 C303.86615479 381.03696533 303.86615479 381.03696533 304.95678711 380.82958984 C368.72910525 368.6103608 439.01234069 348.9331489 491.79711914 310.24023438 C492.5015918 309.73105469 493.20606445 309.221875 493.93188477 308.69726562 C522.67854554 287.89270555 552.85876938 260.36298728 560.16821289 223.87304688 C562.58752587 208.57252694 562.51817447 192.3817442 555.79711914 178.24023438 C555.28922852 177.14066406 554.78133789 176.04109375 554.25805664 174.90820312 C533.18186249 132.80575842 484.36137929 107.78735584 442.54711914 91.05273438 C441.75908905 90.73552429 440.97105896 90.41831421 440.15914917 90.0914917 C412.81234571 79.09814158 385.20181533 69.15724938 356.79711914 61.24023438 C356.13814636 61.05652283 355.47917358 60.87281128 354.80023193 60.68353271 C292.04784684 43.23655489 228.12215078 32.27318227 163.35717773 25.61035156 C160.2477711 25.28708586 157.14138529 24.94615974 154.03540039 24.59179688 C145.3988505 23.61519004 136.7959263 22.93397513 128.109375 22.58129883 C127.37082275 22.5499585 126.63227051 22.51861816 125.87133789 22.48632812 C125.22769287 22.4623999 124.58404785 22.43847168 123.92089844 22.41381836 C121.79711914 22.24023438 121.79711914 22.24023438 119.16625977 21.75610352 C114.71993631 21.07530051 110.3077248 20.91411078 105.81665039 20.74023438 C104.84918381 20.69962891 103.88171722 20.65902344 102.88493347 20.6171875 C99.79329508 20.48803484 96.70148147 20.36389921 93.60961914 20.24023438 C90.5642198 20.11564433 87.51886998 19.98995299 84.47355652 19.86328125 C82.58552253 19.7850445 80.69743519 19.7080774 78.8092804 19.6328125 C74.47145789 19.4557714 70.1390275 19.26158469 65.80578613 18.99099731 C51.61251912 18.11267668 37.44339623 18.0943858 23.22680664 18.10742188 C20.60751334 18.10674661 17.98822009 18.10577473 15.368927 18.10452271 C9.91790245 18.1027193 4.4668916 18.10506142 -0.98413086 18.10986328 C-7.26173873 18.11532984 -13.53931423 18.1135186 -19.81692135 18.10803688 C-25.90433816 18.10293706 -31.99174073 18.10349484 -38.07915878 18.10641861 C-40.6506844 18.10708328 -43.22221086 18.10627562 -45.7937355 18.10393906 C-49.38212513 18.10139081 -52.97045286 18.10528247 -56.55883789 18.11083984 C-57.60936844 18.10881561 -58.65989899 18.10679138 -59.74226379 18.10470581 C-64.97372821 18.11966407 -70.0638236 18.35404677 -75.25497627 19.00528336 Z " fill="#FAFAFC" transform="translate(605.202880859375,24.759765625)"/>
<path d="M0 0 C0.55558594 0.44988281 1.11117187 0.89976562 1.68359375 1.36328125 C2.29976563 0.21988281 2.9159375 -0.92351562 3.55078125 -2.1015625 C5.23349369 -4.4536838 6.1042599 -5.47893681 8.92285156 -6.24658203 C11.58088402 -6.39860211 14.15048096 -6.34604421 16.80859375 -6.19921875 C17.71480469 -6.18439453 18.62101562 -6.16957031 19.5546875 -6.15429688 C26.19497223 -5.96246643 26.19497223 -5.96246643 29.68359375 -3.63671875 C29.39624359 -2.72899719 29.10889343 -1.82127563 28.81283569 -0.88604736 C26.07594006 7.76032377 23.34064582 16.40720015 20.6068325 25.05454636 C19.20204383 29.49787344 17.79673362 33.94103403 16.39013672 38.38378906 C9.07452837 61.41064502 9.07452837 61.41064502 1.97265625 84.50390625 C1.74226654 85.26548035 1.51187683 86.02705444 1.27450562 86.81170654 C0.23409096 90.30587876 -0.67837403 93.77249526 -1.31640625 97.36328125 C6.17786363 95.28807423 9.88985715 91.57806509 14.93359375 85.80078125 C16.30864239 84.25321256 17.68866825 82.7100484 19.07421875 81.171875 C19.67266602 80.48923584 20.27111328 79.80659668 20.88769531 79.10327148 C22.71879648 77.32917442 24.35369902 76.36377677 26.68359375 75.36328125 C27.34620694 81.43723548 26.52192609 84.81480743 22.90625 89.73828125 C15.03812581 99.03068802 6.597313 107.71464701 -4.31640625 113.36328125 C-4.99960937 113.7190625 -5.6828125 114.07484375 -6.38671875 114.44140625 C-11.78869793 116.84714596 -17.49150667 117.19410548 -23.31640625 116.36328125 C-27.02633665 114.24332102 -28.67363595 112.23039622 -30.31640625 108.36328125 C-30.63525391 106.25683594 -30.63525391 106.25683594 -30.73046875 104.03515625 C-30.76914062 103.2359375 -30.8078125 102.43671875 -30.84765625 101.61328125 C-30.87859375 100.78828125 -30.90953125 99.96328125 -30.94140625 99.11328125 C-30.98007812 98.2728125 -31.01875 97.43234375 -31.05859375 96.56640625 C-31.15256461 94.49904743 -31.23556189 92.43119498 -31.31640625 90.36328125 C-32.115625 91.19730469 -32.91484375 92.03132813 -33.73828125 92.890625 C-57.42909965 117.29769435 -57.42909965 117.29769435 -74.12890625 117.61328125 C-80.60133124 117.52774259 -85.92185194 115.47393667 -90.83203125 111.14453125 C-98.84120863 101.5335184 -100.04108641 90.37979597 -99.31640625 78.36328125 C-95.59869389 52.13438148 -80.88458344 27.36852455 -60.25390625 10.921875 C-43.61365907 -1.13006873 -19.22209253 -13.58188326 0 0 Z " fill="#FBFBFD" transform="translate(437.31640625,190.63671875)"/>
<path d="M0 0 C1.10255127 0.00612305 2.20510254 0.01224609 3.34106445 0.01855469 C11.08871489 0.16777975 17.65933858 0.79834834 24.625 4.4375 C25.56279297 4.92283203 25.56279297 4.92283203 26.51953125 5.41796875 C32.96602198 9.26076736 36.29168215 15.5332723 38.625 22.4375 C39.63020273 30.33552148 37.14677629 37.81370963 32.4375 44.125 C31.19559961 45.58756864 29.92510091 47.02641487 28.625 48.4375 C28.07328125 49.04335937 27.5215625 49.64921875 26.953125 50.2734375 C14.12725713 62.81554723 -4.70918178 66.62057846 -21.59765625 70.19140625 C-22.32189789 70.34563553 -23.04613953 70.49986481 -23.79232788 70.6587677 C-27.46515291 71.4398232 -31.13995271 72.20461177 -34.82226562 72.93969727 C-36.18497562 73.22243475 -37.54760935 73.50554012 -38.91015625 73.7890625 C-40.130979 74.03479004 -41.35180176 74.28051758 -42.60961914 74.53369141 C-43.52219482 74.83194824 -44.43477051 75.13020508 -45.375 75.4375 C-46.56604332 79.01062995 -46.58028823 81.98303322 -46.625 85.75 C-46.65078125 87.04550781 -46.6765625 88.34101563 -46.703125 89.67578125 C-46.28467994 94.47295499 -44.95400779 97.68637288 -41.7265625 101.265625 C-35.09054559 106.7305801 -28.55977672 108.95229571 -19.8203125 108.76953125 C-6.50767608 106.9619049 4.9705413 99.03590578 15.1875 90.8125 C18.24188947 88.42153706 18.24188947 88.42153706 21.625 88.5625 C22.285 88.85125 22.945 89.14 23.625 89.4375 C20.31034891 101.30498136 8.27529651 110.71126286 -2.10546875 116.63671875 C-16.90102441 124.62988751 -33.21978731 129.39564512 -49.98828125 125.625 C-59.57760785 122.37972848 -67.43833264 116.62123768 -72.3125 107.625 C-80.47296451 88.78648086 -78.47772598 68.91928269 -71.09790039 50.19311523 C-62.91638073 30.84062919 -48.986668 16.60193654 -30.3125 7.125 C-29.67642822 6.79959229 -29.04035645 6.47418457 -28.38500977 6.13891602 C-19.01526943 1.55352116 -10.42007436 -0.09814578 0 0 Z " fill="#FBFBFD" transform="translate(866.375,183.5625)"/>
<path d="M0 0 C10.54646589 -0.39851693 22.18557166 2.34551172 30.39453125 9.265625 C34.03779448 12.97296572 36.53057634 16.11523576 36.76953125 21.390625 C36.69226805 26.72178552 34.95312037 30.33338402 31.39453125 34.265625 C25.61706627 38.727685 19.59126041 40.02975647 12.39453125 39.265625 C7.04712711 37.31176579 3.93834982 34.35326213 1.39453125 29.265625 C1.48046875 27.27734375 1.48046875 27.27734375 1.76953125 24.953125 C1.86878906 24.15390625 1.96804688 23.3546875 2.0703125 22.53125 C2.42018682 20.08634513 2.85047822 17.67500268 3.39453125 15.265625 C-1.01163181 13.07995914 -5.15588816 12.91724689 -9.98046875 12.953125 C-11.17313354 12.96158447 -11.17313354 12.96158447 -12.38989258 12.97021484 C-36.75007173 13.46135729 -55.92382918 24.30995893 -73.60546875 40.265625 C-74.56839844 41.131875 -75.53132813 41.998125 -76.5234375 42.890625 C-91.70644115 57.28128573 -102.12057998 77.17456836 -107.60546875 97.265625 C-107.93998047 98.37744141 -107.93998047 98.37744141 -108.28125 99.51171875 C-112.20449847 114.9111362 -110.50780357 131.26648493 -103.03125 145.19921875 C-96.83540762 154.91903674 -88.14816343 159.31536351 -77.17578125 161.8203125 C-55.97738954 165.49298219 -34.79996633 154.14066366 -17.38208008 143.31542969 C-15.49781803 142.20201388 -13.57294888 141.22299677 -11.60546875 140.265625 C-9.98046875 141.953125 -9.98046875 141.953125 -8.60546875 144.265625 C-11.06433233 152.88561834 -19.69630805 157.63899393 -27.04296875 161.890625 C-49.97197532 174.62775599 -77.66730258 179.26643014 -103.1328125 172.30078125 C-118.08730362 167.4783232 -129.05920405 158.37283954 -136.41796875 144.515625 C-143.83508548 129.01683434 -145.80160642 108.87963164 -141.10546875 92.203125 C-140.3410986 90.19631574 -139.50202985 88.21696386 -138.60546875 86.265625 C-138.32106934 85.63897949 -138.03666992 85.01233398 -137.74365234 84.36669922 C-131.25854869 70.25999689 -123.38277432 58.44265945 -112.60546875 47.265625 C-111.89777344 46.48316406 -111.19007813 45.70070312 -110.4609375 44.89453125 C-103.78223216 37.73056625 -95.79234305 32.5377398 -87.60546875 27.265625 C-86.96770508 26.85248047 -86.32994141 26.43933594 -85.67285156 26.01367188 C-64.55876849 12.46629463 -39.85292354 3.25364275 -14.79296875 1.140625 C-13.82101562 1.0586084 -12.8490625 0.9765918 -11.84765625 0.89208984 C-7.89996504 0.57302444 -3.94983793 0.29099564 0 0 Z " fill="#FBFBFD" transform="translate(328.60546875,132.734375)"/>
<path d="M0 0 C4.53942885 5.47401714 6.81882892 11.2830734 6.4453125 18.4296875 C5.53101924 24.51754265 2.84260984 28.72258502 -1.875 32.5625 C-5.9119257 34.36623276 -9.47561175 35.21772804 -13.875 34.5625 C-18.94725909 30.90575508 -20.32196849 26.35795904 -21.875 20.5625 C-25.70265965 20.16018412 -25.70265965 20.16018412 -27.59375 21.86328125 C-49.61271154 46.73118738 -62.41005969 80.03526871 -73.68383789 110.81591797 C-74.83335349 113.46647146 -75.91881741 115.4419919 -77.875 117.5625 C-84.40615 119.129976 -92.8165305 119.9703891 -98.875 116.5625 C-101.66090455 110.9906909 -98.53004205 102.70716334 -96.73020935 97.10667419 C-96.29334557 95.79896812 -96.29334557 95.79896812 -95.84765625 94.46484375 C-95.54283829 93.52419571 -95.23802032 92.58354767 -94.92396545 91.61439514 C-94.27305526 89.60879594 -93.61773134 87.60462457 -92.95831299 85.60180664 C-91.231425 80.3545452 -89.53871551 75.09622737 -87.83984375 69.83984375 C-87.50069946 68.79388031 -87.16155518 67.74791687 -86.81213379 66.67025757 C-84.01106491 58.02247697 -81.2819978 49.35472557 -78.63766479 40.65774536 C-78.21678438 39.27481227 -77.79375247 37.8925319 -77.36843872 36.51095581 C-76.78452168 34.61311596 -76.20847825 32.71285896 -75.6328125 30.8125 C-75.3145752 29.76578125 -74.99633789 28.7190625 -74.66845703 27.640625 C-73.80631351 24.29603868 -73.30471255 20.98729293 -72.875 17.5625 C-81.37439261 21.40746333 -86.11517825 26.8411358 -91.82421875 34.0390625 C-95.1007144 38.07071239 -95.1007144 38.07071239 -96.875 39.5625 C-99.5625 39.75 -99.5625 39.75 -101.875 39.5625 C-101.59642245 32.87663878 -99.09798581 29.59025914 -94.875 24.5625 C-94.06417969 23.53382813 -93.25335937 22.50515625 -92.41796875 21.4453125 C-84.22452042 11.18967948 -74.08479955 0.93728674 -60.390625 -0.7421875 C-56.38164925 -0.86009855 -53.26345179 -0.77680772 -49.875 1.5625 C-44.76035554 10.68062015 -47.74212319 23.38501046 -50.375 32.875 C-51.04109721 35.16539994 -51.71232835 37.45255462 -52.41601562 39.73168945 C-52.99658735 41.73291332 -52.99658735 41.73291332 -52.875 44.5625 C-52.55861572 44.01948242 -52.24223145 43.47646484 -51.91625977 42.91699219 C-20.74443887 -10.37221944 -20.74443887 -10.37221944 0 0 Z " fill="#FBFBFC" transform="translate(710.875,186.4375)"/>
<path d="M0 0 C2.62525219 2.71718709 4.34722497 5.61875032 6 9 C6.495 9.99 6.495 9.99 7 11 C7.12240135 12.76770327 7.17551153 14.54060462 7.1875 16.3125 C7.20167969 17.25738281 7.21585938 18.20226562 7.23046875 19.17578125 C6.84911342 23.84899996 5.45946916 27.08183925 1.9375 30.1875 C-2.02757563 33.34639843 -5.86673711 35.12305767 -11 35 C-14.44941515 34.06676782 -16.70356042 32.75123568 -19 30 C-20.22907524 26.35867336 -20.73204498 22.82505794 -21 19 C-22.38678058 19.81357794 -23.75879639 20.65232251 -25.125 21.5 C-26.27355469 22.19609375 -26.27355469 22.19609375 -27.4453125 22.90625 C-34.330533 28.54918301 -38.22066183 36.69476778 -42.3125 44.4375 C-43.16171021 46.02921021 -43.16171021 46.02921021 -44.02807617 47.65307617 C-45.16449777 49.78461187 -46.29842217 51.91748107 -47.4296875 54.05175781 C-48.78949733 56.60478385 -50.16849688 59.14523791 -51.5625 61.6796875 C-59.27646547 75.78134623 -65.33276373 90.49380179 -70.56689453 105.68310547 C-73.72746194 114.62733598 -73.72746194 114.62733598 -77 118 C-80.37686815 118.85325329 -83.59749665 118.79339562 -87.0625 118.6875 C-87.97322266 118.70232422 -88.88394531 118.71714844 -89.82226562 118.73242188 C-96.18793477 118.6526751 -96.18793477 118.6526751 -99.30859375 116.14453125 C-100.06702509 112.69516838 -99.72245841 111.32542574 -98.76269531 107.99047852 C-98.34019753 106.51924782 -98.34019753 106.51924782 -97.90916443 105.01829529 C-96.49622116 100.32752662 -95.01149331 95.6638358 -93.48828125 91.0078125 C-92.80898325 88.91254604 -92.13004126 86.81716414 -91.45141602 84.72167969 C-91.10136505 83.64285522 -90.75131409 82.56403076 -90.39065552 81.45251465 C-79.30431283 49.7097337 -79.30431283 49.7097337 -72 17 C-79.54547133 21.53835991 -84.92667461 26.91684383 -90.66796875 33.51757812 C-91.28800781 34.20916016 -91.90804688 34.90074219 -92.546875 35.61328125 C-93.09182617 36.24016846 -93.63677734 36.86705566 -94.19824219 37.51293945 C-96.41227451 39.34026613 -98.185721 39.64475593 -101 40 C-100.37510616 27.81457013 -87.33364138 16.7769061 -78.8125 9.0625 C-71.55986186 2.98155596 -63.90244995 -1.82730397 -54.125 -1.48046875 C-51.61942156 -0.9139501 -50.635859 -0.29047876 -48.9375 1.625 C-42.71025473 12.56065023 -48.52258305 27.78681782 -51.54101562 38.95385742 C-52.10943887 41.13837785 -52.10943887 41.13837785 -52 44 C-51.67837891 43.48203857 -51.35675781 42.96407715 -51.02539062 42.43041992 C-44.98259225 32.72078081 -38.96983986 23.07891669 -32 14 C-31.38318359 13.13568359 -31.38318359 13.13568359 -30.75390625 12.25390625 C-27.08512886 7.36643465 -22.06274145 4.27105697 -17 1 C-16.030625 0.319375 -15.06125 -0.36125 -14.0625 -1.0625 C-9.10369452 -2.58050168 -4.74896958 -2.05741709 0 0 Z " fill="#FBFBFC" transform="translate(593,186)"/>
<path d="M0 0 C4.89214514 5.77022247 7.1745951 9.77996522 6.81640625 17.3828125 C5.94568195 23.10984452 3.64656595 27.25502088 -0.9375 30.8125 C-4.17535288 32.82670572 -6.66222806 34.03419477 -10.5625 33.875 C-14.62177035 32.38763376 -17.69115118 30.53085225 -19.73828125 26.640625 C-20.90171553 23.26611419 -21.5625 20.45567798 -21.5625 16.875 C-33.37866029 23.92606023 -39.7599215 37.50333058 -45.9375 49.3125 C-46.58658936 50.5443177 -47.23592662 51.7760048 -47.88549805 53.00756836 C-49.18276541 55.47281716 -50.47322131 57.94146337 -51.75830078 60.41308594 C-53.36424494 63.49458637 -54.9904084 66.564371 -56.62109375 69.6328125 C-62.46301329 80.79581309 -67.13667808 92.14946834 -71.30395508 104.04321289 C-71.6883374 105.13496826 -72.07271973 106.22672363 -72.46875 107.3515625 C-72.80197266 108.32174316 -73.13519531 109.29192383 -73.47851562 110.29150391 C-74.58177757 112.92094487 -75.58107552 114.82182145 -77.5625 116.875 C-79.49194336 117.36083984 -79.49194336 117.36083984 -81.65234375 117.3359375 C-82.43673828 117.33207031 -83.22113281 117.32820313 -84.02929688 117.32421875 C-85.25229492 117.28748047 -85.25229492 117.28748047 -86.5 117.25 C-87.71719727 117.24806641 -87.71719727 117.24806641 -88.95898438 117.24609375 C-93.10653092 117.18485024 -95.88985478 116.94605995 -99.5625 114.875 C-99.12532739 106.88098654 -96.81743703 99.67658968 -94.35699463 92.12411499 C-93.35254465 89.03785805 -92.36917586 85.94500356 -91.38427734 82.85246277 C-90.61721019 80.44484178 -89.84742251 78.03810058 -89.07763672 75.63134766 C-86.73445038 68.28938869 -84.43969805 60.93286762 -82.1875 53.5625 C-81.97910492 52.88083771 -81.77070984 52.19917542 -81.55599976 51.49685669 C-77.98104426 39.7457107 -75.00884518 27.91359339 -72.5625 15.875 C-76.43127139 17.66690969 -79.46202349 19.37901664 -82.4375 22.4375 C-83.11425781 23.13101563 -83.79101562 23.82453125 -84.48828125 24.5390625 C-86.69802918 27.02762985 -88.64472124 29.63893216 -90.625 32.3125 C-94.59776801 37.44956437 -94.59776801 37.44956437 -98.5625 38 C-99.5525 37.95875 -100.5425 37.9175 -101.5625 37.875 C-101.21762697 31.92968884 -99.37363487 28.70229435 -95.4375 24.4375 C-94.93541016 23.87329346 -94.43332031 23.30908691 -93.91601562 22.7277832 C-92.91884842 21.60789513 -91.91669915 20.49241968 -90.90917969 19.38183594 C-89.22451117 17.49681525 -87.65384401 15.52645139 -86.0625 13.5625 C-79.83258627 6.49394403 -70.90210404 -0.51571932 -61.3515625 -1.43359375 C-54.75963296 -1.67369714 -54.75963296 -1.67369714 -51.5625 -1.125 C-47.96997208 2.49055695 -47.3929231 6.23088094 -47.3125 11.171875 C-47.37355535 18.40693421 -48.87347079 25.11781124 -50.5625 32.125 C-50.84867188 33.35863281 -51.13484375 34.59226563 -51.4296875 35.86328125 C-52.1289565 38.87013793 -52.84002421 41.8736511 -53.5625 44.875 C-52.99704468 43.92415527 -52.99704468 43.92415527 -52.42016602 42.95410156 C-28.30337706 2.52571368 -28.30337706 2.52571368 -9.8125 -2.9375 C-5.5247243 -3.29481464 -3.36068218 -2.78690717 0 0 Z " fill="#FBFBFC" transform="translate(1019.5625,188.125)"/>
<path d="M0 0 C1.06154297 0.02803711 1.06154297 0.02803711 2.14453125 0.05664062 C2.92570313 0.06695312 3.706875 0.07726562 4.51171875 0.08789062 C5.31867187 0.12914062 6.125625 0.17039063 6.95703125 0.21289062 C7.76398437 0.22320312 8.5709375 0.23351562 9.40234375 0.24414062 C13.51285461 0.35266896 16.31817282 0.67267674 19.95703125 2.71289062 C19.36399559 10.6233833 16.96836155 17.98657863 14.64453125 25.52539062 C14.31964218 26.59078568 14.31964218 26.59078568 13.9881897 27.67770386 C10.00428138 40.73070125 5.66193195 53.65286484 1.15698242 66.53442383 C-1.26065762 73.45211728 -3.62755665 80.38124163 -5.84765625 87.36523438 C-6.05743607 88.01472549 -6.26721588 88.66421661 -6.48335266 89.33338928 C-8.08016145 94.42884415 -8.90202434 99.38262947 -9.04296875 104.71289062 C-0.8595437 101.53557887 4.77938395 96.55688133 10.9765625 90.55273438 C18.08079208 83.71289062 18.08079208 83.71289062 21.95703125 83.71289062 C22.79159739 89.13757052 20.89897822 92.10321043 17.8515625 96.34960938 C8.64362537 107.83579898 -6.80916989 120.81467279 -22.04296875 122.71289062 C-24.14620409 122.77886413 -26.25132599 122.79851307 -28.35546875 122.77539062 C-29.42410156 122.76636719 -30.49273438 122.75734375 -31.59375 122.74804688 C-32.40199219 122.73644531 -33.21023438 122.72484375 -34.04296875 122.71289062 C-34.69389465 121.46553495 -35.33848544 120.21487231 -35.98046875 118.96289062 C-36.51994141 117.91875 -36.51994141 117.91875 -37.0703125 116.85351562 C-41.25713717 107.63913843 -38.28898504 99.36471615 -35.125 90.32617188 C-34.7158989 89.12668915 -34.30679779 87.92720642 -33.88529968 86.69137573 C-32.78385726 83.46337827 -31.66735975 80.24078992 -30.54727173 77.01922226 C-29.3909034 73.68647604 -28.24708932 70.34942395 -27.1015625 67.01293945 C-25.05755044 61.06619779 -23.00072142 55.12398222 -20.93850136 49.18353367 C-19.24615618 44.30587408 -17.56970085 39.42291303 -15.89884949 34.53785706 C-14.72149171 31.09956322 -13.53628156 27.66402866 -12.3477478 24.22958374 C-11.81609474 22.69087239 -11.28677301 21.15135331 -10.75991821 19.61099243 C-10.03979828 17.51039821 -9.30873032 15.41395709 -8.57421875 13.31835938 C-8.17783203 12.17520264 -7.78144531 11.0320459 -7.37304688 9.85424805 C-3.75554591 1.31049164 -3.75554591 1.31049164 0 0 Z " fill="#FBFBFC" transform="translate(748.04296875,186.287109375)"/>
<path d="M0 0 C2.95080183 2.57005321 3.88605944 4.21596157 4.3125 8.125 C4.02463278 18.45662478 -1.66292889 28.81027375 -5.8125 38.0625 C-6.34327148 39.2477124 -6.87404297 40.4329248 -7.42089844 41.65405273 C-15.57849393 59.65245891 -25.74681273 79.22507177 -44.0625 88.6875 C-47.68180698 89.89393566 -50.25481005 90.01018559 -54.0625 89.6875 C-57.95915148 87.58930305 -60.79335023 85.49619091 -63.0625 81.6875 C-64.95006709 57.90415468 -50.12522678 32.69170238 -35.390625 15.2265625 C-26.23882405 5.24557153 -14.53726525 -6.23025654 0 0 Z " fill="#040498" transform="translate(430.0625,196.3125)"/>
<path d="M0 0 C4.15757553 1.59906751 6.7122114 3.14688235 9 7 C11.70068749 15.10206247 10.421349 23.89523474 7.18359375 31.63671875 C1.66820952 42.64928462 -9.90501471 48.03861055 -21 52 C-21.68707031 52.2475 -22.37414062 52.495 -23.08203125 52.75 C-29.23386206 54.61497608 -35.63752021 54.17458024 -42 54 C-37.24406258 33.93328159 -29.00752526 13.3644734 -10.84765625 2.05859375 C-7.00435174 -0.1433841 -4.48677481 -0.29911832 0 0 Z " fill="#030398" transform="translate(866,192)"/>
<path d="M0 0 C3.40563431 2.17380913 4.71751983 3.15255949 6 7 C6.70419922 14.14589046 6.35381779 20.10560053 2 26 C-2.46923829 30.79983948 -7.07687544 33.03479782 -13.5625 33.4375 C-17.19790799 33.37096175 -17.72652043 33.25980559 -20.5 30.625 C-23.88336225 24.70411606 -24.11526973 18.29059184 -22.38671875 11.640625 C-20.00941147 6.23670183 -16.01254935 2.97459294 -11 0 C-7.14892525 -1.28369158 -3.87326613 -0.98907965 0 0 Z " fill="#FBFBFC" transform="translate(775,139)"/>
</svg>
