<svg xmlns="http://www.w3.org/2000/svg" viewBox="0 0 506.87 99.88">
  <defs>
    <clipPath id="a">
      <path d="M435 0h71.871v99.879H435zm0 0"/>
    </clipPath>
    <clipPath id="b">
      <path d="M211 21h104v78.879H211zm0 0"/>
    </clipPath>
  </defs>
  <path d="M405.805 97.934v-1.657c0-12.613.03-25.226-.016-37.84-.016-4.855-1.32-9.351-4.254-13.3-3.254-4.371-7.863-6.39-13.027-7.2-12.535-1.964-23.723 1.184-33.567 9.184-.949.77-1.406 1.55-1.398 2.86.059 15.425.035 30.851.035 46.273v1.656h-21.73V23.81c.441-.024.828-.067 1.21-.067 6.376-.004 12.747.02 19.118-.027 1.066-.004 1.465.25 1.43 1.383-.083 2.539-.028 5.082-.028 7.78.442-.233.746-.366 1.024-.546 9.109-5.992 19.136-9.172 29.976-10.016 9.121-.707 17.957.395 26.395 4.02 9.351 4.008 14.433 11.27 15.683 21.242.403 3.211.516 6.477.531 9.719.055 13.05.02 26.105.02 39.156v1.48M210.887 23.738c-2.254 3.36-4.325 6.45-6.403 9.535-11.964 17.774-23.93 35.543-35.894 53.313-2.403 3.566-4.809 7.133-7.188 10.719-.445.672-.91 1.03-1.797.992a77.528 77.528 0 00-5.796-.004c-.805.023-1.254-.273-1.7-.918C135.453 73.18 118.781 49 102.117 24.816c-.191-.273-.344-.578-.594-1 .512-.03.887-.074 1.262-.074 7.34-.004 14.68.012 22.02-.023.882 0 1.398.258 1.902 1.027 9.711 14.785 19.457 29.547 29.2 44.313.265.402.542.796.89 1.308.281-.402.535-.73.758-1.078 9.37-14.738 18.75-29.473 28.086-44.234.609-.961 1.207-1.36 2.382-1.348 7.032.066 14.067.031 21.098.031" fill-rule="evenodd"/>
  <g clip-path="url(#a)">
    <path d="M454.594 38.406h-18.516c-.394-1.734 0-2.98 1.317-4.226 10.628-10.047 21.18-20.176 31.757-30.282 1.047-1 2.059-2.043 3.16-2.98.45-.383 1.094-.54 1.903-.914v21.535h28.887v16.832h-28.856v1.527c0 9.454-.023 18.903.027 28.352.008 1.61.18 3.262.579 4.813 1.355 5.3 5.468 8.57 11.074 9.187 7.004.773 13.406-.848 19.332-4.563.37-.234.738-.468 1.113-.695.074-.043.168-.043.367-.09.04.282.114.555.114.825.003 5.101-.012 10.199.02 15.296.003.766-.24 1.133-.935 1.489-7.898 4.015-16.304 5.074-25.046 4.687-6.621-.293-12.442-2.539-17.555-6.594-5.223-4.148-8.203-9.656-8.352-16.347-.265-11.992-.273-23.988-.39-35.98-.004-.563 0-1.126 0-1.872" fill-rule="evenodd"/>
  </g>
  <g clip-path="url(#b)">
    <path d="M234.914 49.168c.938-2.508 2.441-4.527 4.238-6.328 4.063-4.07 9.067-6.438 14.602-7.656 8.867-1.954 17.684-1.989 26.266 1.421 4.3 1.708 8.164 4.125 10.859 8.016.902 1.309 1.531 2.809 2.457 4.547zm79.941 9.559c-.347-8.247-2.851-15.664-8.472-21.86-5.98-6.594-13.41-10.804-21.918-13.187-7.95-2.223-16.07-2.602-24.274-2.227-7.21.328-14.32 1.14-21.257 3.266-15.668 4.808-30.118 21.093-26.606 41.242 1.43 8.195 5.203 15.23 11.168 21.031 3.875 3.766 8.664 6.121 13.59 8.13 7.996 3.265 16.46 4.1 24.988 4.495 1.078.051 2.156.172 3.235.262h7.648c.332-.067.66-.18.996-.188 6.902-.187 13.735-.957 20.48-2.468 6.227-1.399 12.274-3.313 17.75-6.7.47-.285.993-.957 1-1.457.075-4.656.044-9.312.036-13.972 0-.153-.07-.309-.13-.551-.44.195-.784.371-1.14.512-4.66 1.78-9.238 3.812-13.996 5.277-9.668 2.977-19.664 3.422-29.71 3.227-6.22-.125-12.329-.805-18.235-2.895-4.89-1.73-9.543-3.82-12.988-7.894-2.344-2.774-3.946-5.852-4.016-9.79h81.86c0-1.55.046-2.906-.009-4.253" fill-rule="evenodd"/>
  </g>
  <path d="M91.246 22.61v17.406s-63.816-21.63-69.094 15.82c0 0-3.164 34.285 70.68 18.46V91.18S2.109 112.8 0 53.727c0 0 3.691-51.688 91.246-31.118" fill="#149fd9"/>
</svg>
