<svg xmlns="http://www.w3.org/2000/svg" viewBox="0 0 2694.19 427">
  <defs>
    <clipPath id="a">
      <path d="M2417 0h277.191v426H2417zm0 0"/>
    </clipPath>
    <clipPath id="b">
      <path d="M2596 0h98.191v98H2596zm0 0"/>
    </clipPath>
  </defs>
  <g clip-path="url(#a)">
    <path d="M2694.191.156h-98.27v167.207l-39.76 48.367-39.923-48.367V.156h-98.27v202.676l89.052 107.633v115.308h98.12V310.465l89.051-107.633V.156" fill="#231f20"/>
  </g>
  <path d="M1299.73 2.46h98.11v424.235h-98.11V2.461M2234.64 424.086h-98.261V49.136L2185.512.005h182.707V98.27H2234.64v325.816M1917.73 327.813v-64.18h107.641V165.52h-107.64V98.422l38.078-.152 113.93.464.312-98.27-114.09-.46-87.672.46-48.828 49.134v327.195l49.14 49.133h86.899l114.238.46.313-98.109-114.39-.464h-37.93M1646.27 269.621l-39.918 48.215-39.922-48.215V2.31h-98.11v302.476l99.801 120.988h76.457l99.8-120.988V2.31h-98.108V269.62M201.754 328.89H98.574V98.579h103.18zM163.828 1.388H0V427h250.73l48.829-49.133V50.52L250.426 1.387h-86.598M499.313 98.27l113.93.464.46-98.27L499.47.005l-87.672.46-48.828 49.134v327.195l49.136 49.133h86.903l114.234.46.461-98.109-114.39-.464h-38.075v-64.18h107.63V165.52h-107.63V98.422l38.075-.152M767.246 1.387h-98.113v376.02l49.133 48.98h182.562v-98.11H767.246V1.387M1135.129 2.309v163.21H1047V1.388h-98.113v425.308H1047V263.633h88.129v163.062h98.27V2.31h-98.27" fill="#231f20"/>
  <path d="M.613 328.89h97.805v97.805H.613v-97.804" fill="#e36556"/>
  <g clip-path="url(#b)">
    <path d="M2596.23.156h97.81v97.809h-97.81V.156" fill="#e36556"/>
  </g>
</svg>
