<svg xmlns="http://www.w3.org/2000/svg" viewBox="0 0 345.65 100.5">
  <defs>
    <style>.cls-1{fill:#ffad00}.cls-2{fill:#656565}</style>
  </defs>
  <g id="Layer_2" >
    <g id="Layer_1-2" >
      <g id="Group">
        <path class="cls-1" d="M313.46 89.5a.77.77 0 01-.87-.06c-2.41-1.52-14.53-9.6-22.73-19.74-5-6.26 14.12-15.58 14.12-14.35C304 62 305.85 79.49 313.7 88a1 1 0 01-.05 1.33l-.19.13" id="Path-3"/>
        <path class="cls-1" d="M308.43 48.85l17.39-7.91a16.37 16.37 0 009.49-9.84l2.17-6.1a.65.65 0 00-.41-.83.64.64 0 00-.47 0l-33.21 14.08.12-.53a3.37 3.37 0 011.64-2.34c5.62-3.46 25.77-13.76 25.77-13.76A24.61 24.61 0 00344.1 6.27l1.52-5.21a.84.84 0 00-.57-1 .83.83 0 00-.54 0s-30.32 11.78-40.07 16.52-19.73 10.83-23.19 28.76c-1.4 7.26 1.17 13.41 6 20.38-.02-6.85 17.31-15 21.18-16.87z" id="Path-4"/>
        <path class="cls-1" d="M265.67 18.16c-2.75-2.1-5.09-2.28-5.5-2.1-.18-.65 3.16-2.23 3.57-2.64 1.35-1.29 2.11-3 3.69-4.1 3.22-2.28 7.2-1.58 10.54.24 1.7.93 6.38 4 6.45 4.15a52.34 52.34 0 017.08 6.39.9.9 0 010 1.17c-.79.76-1.56 1.3-2.52 2.11-6.36 5.34-10.19 19.56-10.25 21.32v.11S275 24.73 265.67 18.16z" id="Combined_Shape-2" />
      </g>
      <path class="cls-2" d="M23.59 50.07h-8.71V81.5H7.44V50.07H0V44h7.44v-7.86A23.75 23.75 0 018.19 30a12.6 12.6 0 012.46-4.87A11.72 11.72 0 0115 21.89a15.61 15.61 0 016.45-1.19 17.47 17.47 0 014.68.55l-.88 6.41c-.58-.15-1.16-.29-1.74-.39a10.72 10.72 0 00-2-.16 6.88 6.88 0 00-3.44.75 5.37 5.37 0 00-2 2 8.48 8.48 0 00-1 2.89 23 23 0 00-.24 3.37V44h8.71zM52.25 57.19q0-4.19-2.53-6.21A10.46 10.46 0 0043 49a14.75 14.75 0 00-6 1.23 15.35 15.35 0 00-4.71 3.12l-4-4.75a20 20 0 016.77-4.11 24.28 24.28 0 018.59-1.51 19.54 19.54 0 017 1.15 13.34 13.34 0 014.87 3.13 13 13 0 012.85 4.67 17.3 17.3 0 011 5.78v16.35c0 1.26 0 2.6.12 4a19.89 19.89 0 00.43 3.45H53.2a23.52 23.52 0 01-.63-5.38h-.24a14.43 14.43 0 01-5.19 4.67 15.63 15.63 0 01-7.4 1.66 19.66 19.66 0 01-4.63-.59 13.69 13.69 0 01-4.39-1.94 11 11 0 01-3.29-3.57 10.59 10.59 0 01-1.31-5.46 9.61 9.61 0 012.3-6.77 14.57 14.57 0 016-3.8 33.86 33.86 0 018.39-1.7c3.11-.26 6.25-.4 9.42-.4zm-1.82 6.42c-1.85 0-3.76.08-5.74.24a26.26 26.26 0 00-5.38.94 10.22 10.22 0 00-4 2.14 4.85 4.85 0 00-1.58 3.8 5.24 5.24 0 00.67 2.77 5.53 5.53 0 001.78 1.82 7 7 0 002.45 1 13.45 13.45 0 002.78.28q5.22 0 8-3.13a11.34 11.34 0 002.81-7.87v-2zM82.06 45a12.94 12.94 0 017.4-2.1 13.58 13.58 0 016.85 1.75 11.63 11.63 0 014.79 5.78 13.44 13.44 0 015.3-5.59 14.8 14.8 0 017.44-1.94 14.59 14.59 0 016.26 1.23 12.59 12.59 0 014.35 3.29 13.37 13.37 0 012.55 4.87 20.63 20.63 0 01.83 5.93V81.5h-7.44V60.68a23.48 23.48 0 00-.4-4.36 11.12 11.12 0 00-1.35-3.64 7.21 7.21 0 00-2.53-2.53 7.7 7.7 0 00-4-.95 8.35 8.35 0 00-4.35 1.07 8.87 8.87 0 00-3 2.77 11.45 11.45 0 00-1.66 3.84 18.17 18.17 0 00-.52 4.35V81.5h-7.42V59.17a18.59 18.59 0 00-.4-4A8.16 8.16 0 0093.42 52 6.6 6.6 0 0091 50a8.27 8.27 0 00-3.72-.75 8.46 8.46 0 00-6.84 3.36c-1.83 2.25-2.74 5.24-2.74 9v20h-7.48V52.05c0-1 0-2.3-.08-3.88s-.13-3-.23-4.2h7q.17 1.43.24 3.21c0 1.19.08 2.18.08 3h.24A12.64 12.64 0 0182.06 45zM146.3 100.5h-7.44V44h7.29v5.86h.23a14 14 0 015.33-4.95 16.71 16.71 0 018.18-1.94 18.84 18.84 0 017.62 1.51 17.57 17.57 0 015.92 4.19 18.87 18.87 0 013.83 6.3 21.79 21.79 0 011.34 7.72 22.17 22.17 0 01-1.34 7.76 19.1 19.1 0 01-3.79 6.33 17.46 17.46 0 01-5.92 4.22 19.08 19.08 0 01-7.82 1.55 17 17 0 01-7.58-1.74 13.74 13.74 0 01-5.61-4.91h-.24zM171 62.66a16.38 16.38 0 00-.79-5.07 12.93 12.93 0 00-2.37-4.35 11.46 11.46 0 00-3.92-3 12.52 12.52 0 00-5.42-1.11 12 12 0 00-5.19 1.11 12.17 12.17 0 00-4 3 13.57 13.57 0 00-2.57 4.35 15 15 0 000 10.29 13.22 13.22 0 002.57 4.32 12.48 12.48 0 004 3 12 12 0 005.19 1.1 12.24 12.24 0 005.42-1.14 12 12 0 003.92-3 13.07 13.07 0 002.37-4.36 16.27 16.27 0 00.79-5.14zM210.83 57.19q0-4.19-2.54-6.21a10.46 10.46 0 00-6.73-2 14.78 14.78 0 00-6 1.23 15.18 15.18 0 00-4.7 3.12l-4-4.75a19.85 19.85 0 016.77-4.11 24.2 24.2 0 018.59-1.51 19.48 19.48 0 017 1.15 13.34 13.34 0 014.87 3.13 12.76 12.76 0 012.91 4.65 17.3 17.3 0 01.95 5.78v16.39c0 1.26 0 2.6.12 4a20.92 20.92 0 00.43 3.45h-6.72a23 23 0 01-.64-5.38h-.24a14.48 14.48 0 01-5.18 4.67 15.66 15.66 0 01-7.4 1.66 19.59 19.59 0 01-4.63-.59 13.64 13.64 0 01-4.4-1.94 11 11 0 01-3.29-3.58 10.49 10.49 0 01-1.31-5.46 9.56 9.56 0 012.3-6.77 14.54 14.54 0 016-3.8 33.86 33.86 0 018.39-1.7c3.12-.26 6.26-.4 9.43-.4zM209 63.61c-1.84 0-3.76.08-5.74.24a26.39 26.39 0 00-5.38.94 10.29 10.29 0 00-4 2.14 4.88 4.88 0 00-1.58 3.8 5.24 5.24 0 00.7 2.77 5.53 5.53 0 001.78 1.82 7 7 0 002.46 1 13.35 13.35 0 002.77.28q5.22 0 8-3.13a11.3 11.3 0 002.82-7.87v-2zM243.05 73.42h.16L253.58 44h7.91l-18.21 46.4a30.9 30.9 0 01-2.05 4.23 12.78 12.78 0 01-2.62 3.17 10.81 10.81 0 01-3.52 2 14.56 14.56 0 01-4.79.71c-.79 0-1.6 0-2.41-.12a17.45 17.45 0 01-2.5-.43l.71-6.58a11.57 11.57 0 003.73.64 5.49 5.49 0 004.35-1.62 16 16 0 002.61-4.64l2.38-6.25L223.1 44h8.31z"/>
    </g>
  </g>
</svg>
