<svg xmlns="http://www.w3.org/2000/svg" version="1.0" viewBox="0 0 400 160">
  <path d="M-506.053 509.57h629.55" fill="none" stroke="#fff" stroke-width=".3" stroke-miterlimit="10"/>
  <g fill="#3781c2" fill-rule="evenodd">
    <path d="M3.484 18.742l-.003-.189V3.41h15.11v111.068l.007.346v14.986H3.481v-15.143l.003-.19V18.743M157.137 83.778c.388 22.973 14.602 41.345 31.749 41.037 17.144-.308 30.725-19.18 30.337-42.153-.39-22.976-14.604-41.348-31.751-41.037-17.144.308-30.726 19.18-30.335 42.153zm125.118-27.776c.395.875-.542-1.308-.542-1.308l.542 1.308zm10.299 95.107c.692-1.186 1.657-3 2.805-5.268l-2.805 5.268zm.888-103.033c.183.51.394 1.042.631 1.603l5.089 12.534-5.72-14.137zm-63.317 63.093c9.34 8.529 17.75 12.937 28.503 12.937 11.007.084 20.793-5.332 20.793-15.755 0-8.699-7.666-13.787-21.363-19.613-11.607-5.053-20.245-8.596-24.76-15.91.552 3.178.84 6.461.84 9.821 0 28.212-20.34 51.086-45.432 51.086-25.092 0-45.432-22.874-45.432-51.086 0-17.009 7.393-32.075 18.76-41.36h-30.745v73.189l.003.292v15.04h-13.656v-14.55c.01-.256.013-.516.013-.782v-73.19h-12.04v-9.211h12.216c1.578-18.583 13.021-29.094 28.863-29.094 10.273 0 15.913 1.078 19.17 2.594v12.598c-.05.94-.05 1.513-.05 1.513-.142-.016-.479-.022-.479-.022-4.944-4.589-9.82-8.003-21.212-7.99-9.074 0-15.076 7.416-12.98 20.401h51.109a41.007 41.007 0 016.46-.513c18.202 0 33.906 12.036 41.156 29.42-.068-.964-.1-1.971-.1-3.023 0-18.138 17.452-25.852 35.58-25.813.693-.004 1.372 0 2.04.016 6.38-.103 15.47 1.99 21.02 3.46l10.76 26.589 15.377 37.73 1.805 6.06 2.01-6.06 19.446-48.43c3.588-13.334 17.789-19.106 33.474-19.074 7.797-.035 13.556.91 20.462 3.354V50.44c-8.503-6.217-14.592-9.83-24.24-9.83-8.48 0-18.672 3.777-18.672 16.333-.164 9.436 5.463 11.16 21.975 19.404 13.572 5.928 26.093 12.472 26.167 27.628 0 25.269-24.746 29.645-36.792 29.684-10.754 0-20.61-2.671-26.093-7.26v-16.681l.882.734c9.782 9.189 18.426 13.95 29.597 13.95 11.01.084 20.792-5.335 20.792-15.759 0-8.698-7.666-13.786-21.363-19.612-13.091-5.7-21.68-9.478-25.191-18.92-5.339 13.097-30.171 73.936-36.016 86.94h-13.39l6.06-11.382c3.357-6.65 8.24-17.083 12.578-27.064l-25.775-62.602a398.32 398.32 0 01-1.459-3.315c-1.978-4.534-3.818-8.721-9.384-10.83-2.982-1.01-6.156-1.54-9.847-1.54-8.48 0-19.327 3.777-19.327 16.333-.164 9.436 6.114 11.16 22.63 19.4 13.572 5.932 26.092 12.476 26.166 27.632 0 25.269-24.75 29.642-36.795 29.684-9.561 0-18.417-2.113-24.114-5.807v-16.39M46.79 33.02l.168 11.055-.01.744.147-.004c.177-.461.414-.852.638-1.144 5.55-5.986 12.547-11.934 29.174-11.934 15.916 0 26.218 13.604 26.631 22.168l.016 60.573v15.332H89.915v-18.06l-.003-51.567c0-10.677-9.314-18.397-20.716-18.397-9.478 0-21.642 8.58-22.046 17.265v55.443l.006.407v14.922H33.51V45.749l.004-12.73H46.79"/>
  </g>
</svg>
