<svg xmlns="http://www.w3.org/2000/svg" viewBox="0 0 900.89 900.89">
  <defs>
    <clipPath id="clip-path" transform="translate(65.34 162.37)">
      <path class="cls-1" d="M0 0h770.23v353.39H0z"/>
    </clipPath>
    <clipPath id="clip-path-2" transform="translate(65.34 162.37)">
      <path class="cls-1" d="M14.5 225.24A14.53 14.53 0 000 239.81l.22 97.75a14.53 14.53 0 1029.06-.06l-.22-97.76a14.53 14.53 0 00-14.53-14.5m576 14.22v97.76a14.53 14.53 0 1029.06 0v-97.76a14.53 14.53 0 10-29.06 0M277 232.78l-37 85.3a.52.52 0 01-.46.29.5.5 0 01-.45-.28L201.71 233a15.16 15.16 0 00-26.77 14.24l44.65 92.09a22.42 22.42 0 0040-.09l44.22-92.3A15.15 15.15 0 10277 232.78m-170-8.92c-34.6.07-58.43 25.37-58.35 57.64l.12 56.19a14.3 14.3 0 0028.59-.06l-.13-58c0-16.51 14.74-28.45 29.83-28.49s29.93 11.85 30 28.35l.13 58a14.29 14.29 0 1028.58-.07l-.12-56.19c-.08-32.22-23.94-57.37-58.46-57.37H107m244.51 32q9.82-8.4 24-8.41 14.46 0 24.17 8.53t11.61 22.27h-71.72q2.13-14 12-22.39m-9.6-23.81a59.72 59.72 0 00-23.34 23.1 66.28 66.28 0 00-8.41 33.29q0 18.72 8.65 33.52a59.79 59.79 0 0024.52 23.1q15.87 8.29 36.72 8.29a78.44 78.44 0 0029.38-5.21 56 56 0 0011.21-6 12.55 12.55 0 00-13.88-20.91q-11.13 7-26 7-16.34 0-27.36-8.17a33.94 33.94 0 01-13-19.3c-.13-.46-.24-.93-.34-1.41l84.37.07h2.71c6.93 0 12.54-7.25 12.28-14.18a67.94 67.94 0 00-8.1-30.24 57.91 57.91 0 00-22.75-23q-14.56-8.16-33.05-8.17a68.16 68.16 0 00-33.64 8.29m112.11 49.17v56.2a14.29 14.29 0 0028.58 0v-58c0-16.51 14.81-28.42 29.9-28.42s29.91 11.91 29.91 28.42v58a14.29 14.29 0 1028.58 0v-56.23c0-32.27-23.89-57.51-58.49-57.51s-58.48 25.25-58.48 57.51m212.38 7.43v-.46c0-21.54 14.51-39.33 37.22-39.33 22.23 0 37.92 18 37.92 39.79v.47c0 21.3-14.52 39.09-37.46 39.09-22 0-37.68-18-37.68-39.56m-28.66 0v.47c0 35.29 28 64.23 65.88 64.23 38.23 0 66.4-29.22 66.58-64.37v-1.13c-.17-35.38-28.12-64.14-66.12-64.14s-66.34 29.41-66.34 64.94"/>
    </clipPath>
    <linearGradient id="linear-gradient" x1="-34.66" y1="475.16" x2="-33.66" y2="475.16" gradientTransform="matrix(636.67 0 0 -636.67 22130.82 302804.16)" gradientUnits="userSpaceOnUse">
      <stop offset="0" stop-color="#1d3b8c"/>
      <stop offset=".5" stop-color="#614695"/>
      <stop offset=".81" stop-color="#3ba7df"/>
      <stop offset="1" stop-color="#00b1bb"/>
    </linearGradient>
    <style>.cls-1{fill:none}.cls-4{fill:#604695}.cls-5{fill:#3aa7df}.cls-6{fill:#02b1ba}</style>
  </defs>
  <g id="Layer_2" data-name="Layer 2">
    <g id="Layer_1-2" data-name="Layer 1">
      <g clip-path="url(#clip-path)">
        <path d="M357.8 18.27A18.28 18.28 0 10376.07 0a18.29 18.29 0 00-18.27 18.27" transform="translate(65.34 162.37)" fill="#1c3b8c"/>
        <path class="cls-4" d="M320.34 52.22A15.23 15.23 0 10335.57 37a15.24 15.24 0 00-15.23 15.23" transform="translate(65.34 162.37)"/>
        <path class="cls-5" d="M282.88 86.17A12.19 12.19 0 10295.06 74a12.19 12.19 0 00-12.18 12.18" transform="translate(65.34 162.37)"/>
        <path class="cls-6" d="M263.7 120.12a9.14 9.14 0 11-9.14-9.14 9.14 9.14 0 019.14 9.14" transform="translate(65.34 162.37)"/>
        <path class="cls-4" d="M401.35 52.22A15.23 15.23 0 10416.58 37a15.24 15.24 0 00-15.23 15.23" transform="translate(65.34 162.37)"/>
        <path class="cls-5" d="M363.89 86.17A12.18 12.18 0 10376.07 74a12.19 12.19 0 00-12.18 12.18" transform="translate(65.34 162.37)"/>
        <path class="cls-6" d="M344.71 120.12a9.14 9.14 0 11-9.14-9.14 9.14 9.14 0 019.14 9.14" transform="translate(65.34 162.37)"/>
        <path class="cls-5" d="M469.26 86.17A12.18 12.18 0 11457.08 74a12.18 12.18 0 0112.18 12.18" transform="translate(65.34 162.37)"/>
        <path class="cls-6" d="M488.45 120.12a9.14 9.14 0 109.14-9.14 9.14 9.14 0 00-9.14 9.14M407.44 120.12a9.14 9.14 0 109.14-9.14 9.14 9.14 0 00-9.14 9.14" transform="translate(65.34 162.37)"/>
      </g>
      <g clip-path="url(#clip-path-2)">
        <path transform="rotate(-45 613.776 290.396)" fill="url(#linear-gradient)" d="M66.59-30.44h637.02v637.02H66.59z"/>
      </g>
    </g>
  </g>
</svg>
