<?xml version="1.0" standalone="no"?>
<!DOCTYPE svg PUBLIC "-//W3C//DTD SVG 20010904//EN"
 "http://www.w3.org/TR/2001/REC-SVG-20010904/DTD/svg10.dtd">
<svg version="1.0" xmlns="http://www.w3.org/2000/svg"
 width="284.000000pt" height="177.000000pt" viewBox="0 0 284.000000 177.000000"
 preserveAspectRatio="xMidYMid meet">

<g transform="translate(0.000000,177.000000) scale(0.100000,-0.100000)"
fill="#000000" stroke="none">
<path d="M1945 1147 c-3 -7 -4 -129 -3 -272 l3 -260 34 -3 c20 -2 37 2 42 10
5 7 9 63 9 125 0 105 1 113 26 142 20 25 34 31 63 31 62 0 71 -19 71 -148 0
-134 8 -162 48 -162 48 0 52 13 52 154 0 154 -12 190 -73 220 -49 23 -115 15
-157 -20 l-30 -26 0 95 c0 53 -3 102 -6 111 -7 19 -72 22 -79 3z"/>
<path d="M167 978 c-61 -36 -77 -82 -77 -224 0 -127 5 -144 47 -144 35 0 43
29 43 153 0 101 2 116 20 132 10 9 31 18 45 18 14 0 35 -9 45 -18 18 -16 20
-31 20 -140 0 -127 6 -145 45 -145 39 0 45 18 45 145 0 109 2 124 20 140 10 9
31 18 45 18 14 0 35 -9 45 -18 18 -16 20 -31 20 -132 0 -124 8 -153 43 -153
42 0 47 17 47 144 0 143 -16 189 -79 224 -48 27 -95 28 -146 2 -39 -20 -39
-20 -80 0 -53 26 -101 25 -148 -2z"/>
<path d="M804 981 c-23 -10 -54 -36 -70 -57 -25 -32 -29 -48 -32 -113 -3 -69
-1 -80 25 -119 37 -57 90 -82 174 -82 84 1 149 28 149 64 0 35 -14 40 -65 20
-65 -24 -141 -15 -172 20 -13 15 -23 36 -23 47 0 18 8 19 123 19 67 0 128 4
136 9 10 6 12 21 8 50 -17 129 -135 196 -253 142z m115 -52 c29 -10 61 -52 61
-79 0 -6 -35 -10 -95 -10 -105 0 -112 5 -74 54 19 24 49 43 70 45 3 1 20 -4
38 -10z"/>
<path d="M1248 990 c-100 -30 -151 -143 -118 -262 12 -43 63 -91 116 -108 108
-36 282 28 219 80 -12 10 -23 9 -55 -4 -79 -32 -164 -13 -189 41 -6 13 -11 28
-11 33 0 6 50 10 119 10 66 0 126 3 135 6 24 9 20 72 -6 124 -37 72 -125 106
-210 80z m130 -87 c12 -13 22 -33 22 -44 0 -17 -8 -19 -96 -19 -94 0 -95 0
-88 23 9 32 25 48 59 63 38 16 74 9 103 -23z"/>
<path d="M1649 991 c-62 -20 -99 -61 -99 -110 0 -61 43 -94 143 -111 74 -13
97 -33 77 -70 -15 -28 -69 -35 -133 -16 -68 20 -83 20 -91 1 -16 -42 49 -75
150 -75 109 0 164 42 164 122 -1 57 -42 87 -140 103 -62 10 -80 21 -80 50 0
34 32 48 94 41 109 -13 111 -13 114 11 2 16 -5 26 -29 39 -37 19 -132 27 -170
15z"/>
<path d="M2483 989 c-18 -5 -48 -25 -67 -44 -92 -92 -63 -274 51 -321 42 -18
134 -18 176 0 129 53 142 272 21 346 -40 25 -132 35 -181 19z m116 -73 c34
-18 51 -54 51 -112 0 -106 -85 -161 -156 -101 -22 19 -28 34 -32 80 -5 68 10
112 47 132 33 18 55 18 90 1z"/>
</g>
</svg>
