<svg xmlns="http://www.w3.org/2000/svg" fill="none" viewBox="0 0 176 42">
  <g clip-path="url(#A)">
    <path d="M39.173 41.761c-5.356 0-12.186-3.456-18.131-9.251a26.233 26.233 0 01-.91 2.153c-2.062 4.147-5.008 6.406-8.302 6.406s-6.294-2.233-8.356-6.273C1.544 31.128.5 26.157.5 20.867c0-8.639 2.866-15.923 7.499-19.033 3.214-2.153 7.258-2.419 11.677-.771 3.749 1.382 7.793 4.147 11.784 8.054.348-.93.777-1.861 1.285-2.738C34.834 2.711 37.753.691 40.94.691c6.374 0 11.168 8.666 11.168 20.176 0 4.997-.91 9.57-2.651 13.265-.75 1.675-1.794 3.19-3.053 4.545a9.795 9.795 0 01-4.044 2.632 11.54 11.54 0 01-3.187.452zM21.872 29.852c7.472 7.762 15.506 10.473 19.738 9.091 2.169-.718 4.151-2.791 5.597-5.875 1.58-3.349 2.41-7.576 2.41-12.201 0-4.891-.937-9.437-2.678-12.813-1.634-3.163-3.749-4.918-5.999-4.918-3.241 0-6.053 3.216-7.552 7.975 6.026 6.592 9.99 14.647 9.641 19.804-.134 1.861-.803 3.323-1.955 4.28l-.107.08c-1.286.851-2.785.904-4.258.106-3.83-2.02-6.936-9.437-6.936-16.481 0-2.392.268-4.785.857-7.124C22.488 3.376 14.56.425 9.391 3.881c-3.91 2.605-6.428 9.277-6.428 16.986 0 9.968 3.883 17.757 8.838 17.757 3.08 0 5.758-3.19 7.285-8.108-3.964-4.413-6.963-9.33-8.463-13.903-1.446-4.466-1.285-8.081.455-9.889 1.125-1.17 2.785-1.462 4.553-.744 3.642 1.462 7.365 6.965 7.365 14.647 0 3.11-.375 6.194-1.125 9.224zm10.82-15.817a26.93 26.93 0 00-.428 4.865c0 6.672 2.973 12.892 5.624 14.301.803.425 1.312.266 1.66.027.589-.505.937-1.356 1.018-2.472.268-4.173-2.973-10.952-7.874-16.72zM13.784 8.054a1.28 1.28 0 00-.91.372c-.804.824-1.232 3.27.107 7.416 1.232 3.828 3.642 7.922 6.856 11.723.455-2.313.669-4.625.643-6.965.027-7.31-3.535-11.43-5.785-12.334a2.688 2.688 0 00-.911-.213z" fill="#47d7ac"/>
    <path d="M67.615 27.486V14.301h3.294v2.153a4.677 4.677 0 012.089-1.781 7.138 7.138 0 013.214-.691c2.705 0 4.339.93 4.901 2.818.214.691.321 1.648.321 2.898v7.815h-3.348v-7.044c0-1.063-.134-1.808-.375-2.233-.402-.797-1.312-1.196-2.678-1.196a5.1 5.1 0 00-2.33.558 4.082 4.082 0 00-1.714 1.435v8.453h-3.374zm28.577.425c-1.66 0-2.678-.558-3.053-1.701-1.018 1.223-2.625 1.834-4.847 1.834-1.687 0-3-.372-3.937-1.143a3.64 3.64 0 01-1.393-2.951c0-1.94.991-3.19 3-3.775 1.259-.346 2.839-.532 4.74-.532a12.16 12.16 0 011.955.159v-.425a2.18 2.18 0 00-.536-1.542c-.482-.505-1.393-.744-2.732-.744-2.116 0-3.83.532-5.196 1.568h-.107v-2.977c1.634-1.037 3.642-1.568 6.026-1.568 1.928 0 3.374.372 4.339 1.09a3.52 3.52 0 011.178 1.542c.241.612.375 1.435.375 2.472l-.027 1.701-.027 1.728c0 .984.054 1.568.134 1.754.134.372.509.558 1.071.558a3.61 3.61 0 001.071-.159v2.711c-.509.292-1.178.399-2.035.399zm-3.535-5.689a11.8 11.8 0 00-1.928-.133c-.937-.027-1.875.08-2.785.266-1.044.239-1.58.744-1.58 1.542 0 1.063.884 1.595 2.625 1.595 1.634 0 2.866-.479 3.696-1.462-.027-.346-.027-.957-.027-1.808zm7.605 6.354h.107c1.554 1.143 3.536 1.701 5.946 1.701 1.875 0 3.214-.425 3.99-1.249.536-.558.804-1.462.804-2.765v-.983c-.375.611-1.018 1.143-1.955 1.568a7.23 7.23 0 01-3.16.638c-2.116 0-3.857-.532-5.223-1.622s-2.035-2.658-2.062-4.732a7.485 7.485 0 01.67-3.243 5.633 5.633 0 011.821-2.206 9.02 9.02 0 012.383-1.17c.831-.266 1.714-.372 2.598-.372 1.071-.027 2.116.186 3.107.558.937.372 1.553.851 1.848 1.409v-1.595h3.213v11.59c0 1.887-.348 3.323-1.044 4.36-1.259 1.834-3.589 2.738-7.017 2.738a16.32 16.32 0 01-3.589-.399c-1.071-.266-1.901-.585-2.463-.984l.026-3.243zm10.74-9.57a3.236 3.236 0 00-1.607-1.489 5.736 5.736 0 00-2.571-.532 5.42 5.42 0 00-3.294 1.01c-.911.665-1.366 1.701-1.366 3.057 0 1.17.455 2.047 1.339 2.658.964.638 2.116.93 3.267.904.884 0 1.768-.186 2.571-.532a3.686 3.686 0 001.688-1.436l-.027-3.642zm18.103 8.905c-1.661 0-2.678-.558-3.053-1.701-1.018 1.223-2.625 1.834-4.821 1.834-1.687 0-3-.372-3.937-1.143a3.64 3.64 0 01-1.393-2.951c0-1.94.991-3.19 3-3.775 1.259-.346 2.839-.532 4.74-.532a12.15 12.15 0 011.955.159v-.399a2.177 2.177 0 00-.535-1.542c-.482-.505-1.393-.744-2.732-.744-2.116 0-3.83.532-5.196 1.568h-.134v-3.004c1.634-1.037 3.643-1.568 6.026-1.568 1.929 0 3.375.372 4.339 1.09a3.52 3.52 0 011.178 1.542c.241.611.375 1.435.375 2.472l-.027 1.701-.026 1.728c0 .984.053 1.568.134 1.754.133.372.508.558 1.071.558a3.6 3.6 0 001.071-.159v2.711c-.509.292-1.178.399-2.035.399zm-3.535-5.689a11.805 11.805 0 00-1.929-.133c-.937-.027-1.874.08-2.785.266-1.044.239-1.58.744-1.58 1.542 0 1.063.857 1.595 2.624 1.595 1.634 0 2.866-.479 3.696-1.462-.026-.346-.026-.957-.026-1.808zm7.043 5.477V14.487h3.294v2.233c.241-.664.75-1.249 1.527-1.781a4.807 4.807 0 012.812-.797c.777 0 1.393.133 1.821.372v3.323h-.107a4.51 4.51 0 00-2.035-.399 5.89 5.89 0 00-2.545.505c-.616.292-1.124.797-1.365 1.409v8.32l-3.402.027zm34.04-1.622c-1.446 1.303-3.321 1.967-5.624 1.967s-4.178-.638-5.597-1.94-2.143-2.977-2.143-5.024.723-3.722 2.196-4.997c1.446-1.303 3.321-1.94 5.624-1.94 2.357 0 4.232.638 5.624 1.914s2.089 2.951 2.089 5.051c-.026 1.994-.75 3.668-2.169 4.971zm-2.41-7.895c-.804-.771-1.821-1.143-3.187-1.143-1.339 0-2.384.372-3.214 1.143a3.774 3.774 0 00-1.259 2.897c-.027 1.116.429 2.18 1.286 2.897.857.744 1.901 1.09 3.187 1.09 1.312 0 2.356-.372 3.16-1.143a3.762 3.762 0 001.205-2.871c.054-1.063-.375-2.1-1.178-2.871zm-20.649 9.517V14.487h3.294v2.233c.241-.664.75-1.249 1.526-1.781a4.811 4.811 0 012.812-.797c.777 0 1.393.133 1.822.372v3.323h-.107a4.5 4.5 0 00-2.036-.399 5.885 5.885 0 00-2.544.505 2.858 2.858 0 00-1.393 1.409v8.32l-3.374.027z" fill="#13294b"/>
  </g>
  <defs>
    <clipPath id="A">
      <path fill="#fff" transform="translate(.5)" d="M0 0h175.304v42H0z"/>
    </clipPath>
  </defs>
</svg>
