<svg xmlns="http://www.w3.org/2000/svg" viewBox="0 0 422.334 112.604">
  <g fill-rule="evenodd" clip-rule="evenodd">
    <path fill="#282828" d="M136.638 42.71c0-7.098 5.35-12.265 11.663-12.265 6.311 0 11.656 5.167 11.656 12.265 0 7.097-5.345 12.269-11.656 12.269-6.313 0-11.663-5.172-11.663-12.181v-.088zm-14.546 0c0 11.916 8.501 25.861 26.209 25.861 17.714 0 26.213-13.945 26.213-25.861 0-11.919-8.499-25.848-26.213-25.848-17.708 0-26.209 13.929-26.209 25.76v.088zm-42.269-5.958c.35-2.281 3.333-7.711 10.869-7.711 7.547 0 10.524 5.43 10.875 7.711H79.823zm36.039 11.039c1.141-8.931-.705-16.732-6.831-23.303-4.568-4.819-10.975-7.717-18.425-7.717-14.809 0-25.515 12.535-25.515 26.114 0 14.456 11.84 25.779 25.777 25.779 5.006 0 9.824-1.49 13.859-4.397 4.117-2.805 7.534-7.009 9.903-12.449h-14.9c-1.756 2.544-4.21 4.564-8.862 4.564-5.696 0-10.607-3.421-11.216-8.59h36.21zM16.084 2.227H1.786v64.838h15.876l-.348-39.077 24.813 39.077h14.374V2.227h-15.87l.35 39.515L16.084 2.227z"/>
    <path fill="#EE2E2B" d="M360.4 67.065h16.561V16.77h12.719V2.227h-42.084V16.77H360.4v50.295zm-52.175 0h16.578V42.36h18.146V27.816h-18.146V16.77h18.848V2.227h-35.426v64.838zm-60.851-32.594c0-9.112 6.234-18.924 17.715-18.924 11.928 0 17.627 10.779 17.627 19.186 0 8.33-5.699 19.015-17.451 19.015-11.136 0-17.892-9.291-17.892-19.187v-.09zm-16.562.964c0 16.653 13.675 32.874 34.105 32.874 20.164 0 34.376-15.608 34.376-33.66C299.292 16.598 284.995 1 265.005 1c-17.89 0-34.194 13.142-34.194 34.351v.084zM179.682 45.6c-.43 12.707 6.41 22.708 23.413 22.708 17.19 0 22.631-10.44 22.631-20.776 0-7.535-3.07-13.148-15.178-18.577-11.667-5.264-13.417-6.05-13.417-9.027 0-3.068 2.818-5.081 5.708-5.081 5.085 0 5.608 4.112 5.964 6.307h16.393C224.934 5.557 212.308 1 203.365 1c-10.875 0-22.713 6.925-22.713 19.983 0 12.177 11.318 16.732 15.869 18.571 10.003 4.208 12.719 5.258 12.719 8.676 0 2.978-2.366 6.222-6.313 6.222-2.104 0-6.753-1.314-6.753-8.852h-16.492z"/>
    <path fill="#282828" d="M359.615 101.645h2.551c.049 1.673.525 2.996 1.408 3.98.9.994 2.074 1.484 3.527 1.484 1.559 0 2.803-.491 3.727-1.47.908-.984 1.375-2.307 1.375-3.995 0-2.432-1.887-4.279-5.656-5.521-.301-.102-.52-.172-.662-.222-1.977-.683-3.393-1.537-4.264-2.577-.873-1.045-1.299-2.4-1.299-4.075 0-2.146.666-3.904 2.006-5.271 1.332-1.366 3.064-2.055 5.18-2.055 2.02 0 3.621.626 4.807 1.873 1.184 1.24 1.84 2.997 1.973 5.246h-2.494c-.133-1.464-.57-2.601-1.316-3.392-.738-.792-1.725-1.195-2.969-1.195-1.334 0-2.416.439-3.26 1.305-.852.869-1.275 1.979-1.275 3.326 0 .693.133 1.302.387 1.814.26.514.654.977 1.209 1.402.561.412 1.658.879 3.26 1.398.924.298 1.615.532 2.098.722 1.754.684 3.016 1.545 3.789 2.591.764 1.053 1.156 2.445 1.156 4.154 0 2.615-.717 4.72-2.141 6.315-1.424 1.597-3.311 2.388-5.67 2.388-2.186 0-3.971-.751-5.332-2.26-1.375-1.505-2.072-3.494-2.115-5.965m-25.568-7.147h11.309v2.662h-11.309v9.572h11.309v2.61h-13.979V82.427h13.979v2.644h-11.309v9.427zm-18.358 14.844h-2.641V82.427h2.641v26.915zm-33.706-12.905h16.733c-.217 3.919-1.63 7.137-4.234 9.66-2.594 2.519-5.792 3.776-9.568 3.776-3.883 0-7.13-1.351-9.756-4.06-2.611-2.712-3.919-6.082-3.919-10.092 0-1.885.362-3.674 1.07-5.361.719-1.69 1.771-3.211 3.141-4.57 1.335-1.32 2.801-2.293 4.418-2.941 1.617-.637 3.41-.956 5.371-.956 2.621 0 4.964.634 7.033 1.893 2.086 1.264 3.74 3.068 5.007 5.41h-3.255c-1.262-1.611-2.628-2.802-4.082-3.58-1.438-.772-3.058-1.158-4.847-1.158-3.097 0-5.701 1.107-7.845 3.323-2.133 2.215-3.198 4.867-3.198 7.98 0 3.294 1.065 6.057 3.198 8.256 2.127 2.214 4.76 3.31 7.891 3.31 2.455 0 4.668-.786 6.622-2.36 1.954-1.578 3.224-3.622 3.821-6.136h-13.599v-2.394zm-51.213-.717c0-1.874.354-3.666 1.076-5.361a13.857 13.857 0 013.133-4.57c1.317-1.292 2.77-2.264 4.354-2.918 1.573-.654 3.298-.979 5.146-.979 1.878 0 3.629.325 5.238.993 1.609.659 3.074 1.639 4.409 2.941 1.366 1.346 2.393 2.85 3.086 4.519.69 1.665 1.03 3.449 1.03 5.375 0 1.907-.294 3.655-.888 5.252a13.29 13.29 0 01-2.659 4.352c-1.372 1.513-2.909 2.643-4.638 3.402-1.722.77-3.593 1.147-5.623 1.147-3.862 0-7.105-1.351-9.737-4.066-2.623-2.726-3.927-6.089-3.927-10.087m2.761.039c0 3.274 1.064 6.022 3.2 8.247 2.125 2.21 4.766 3.319 7.893 3.319 3.049 0 5.632-1.123 7.739-3.359 2.108-2.243 3.158-5.008 3.158-8.284 0-3.059-1.082-5.688-3.257-7.902-2.163-2.215-4.767-3.323-7.833-3.323-1.245 0-2.436.221-3.586.639a10.717 10.717 0 00-3.198 1.882 11.484 11.484 0 00-3.021 3.969c-.729 1.566-1.095 3.172-1.095 4.812m-15.551 13.583h-12.134V82.427h2.662v24.305h9.472v2.61zM164.007 95.72c0-1.874.351-3.666 1.077-5.361a14.024 14.024 0 013.138-4.57c1.321-1.292 2.765-2.264 4.357-2.918 1.569-.654 3.292-.979 5.14-.979 1.878 0 3.62.325 5.24.993 1.604.659 3.075 1.639 4.404 2.941 1.372 1.346 2.401 2.85 3.088 4.519.688 1.665 1.039 3.449 1.039 5.375 0 1.907-.296 3.655-.895 5.252a13.403 13.403 0 01-2.651 4.352c-1.376 1.513-2.927 2.643-4.64 3.402-1.724.77-3.601 1.147-5.623 1.147-3.864 0-7.119-1.351-9.74-4.066-2.631-2.726-3.934-6.089-3.934-10.087m2.767.039c0 3.274 1.06 6.022 3.196 8.247 2.132 2.21 4.768 3.319 7.895 3.319 3.053 0 5.634-1.123 7.745-3.359 2.101-2.243 3.155-5.008 3.155-8.284 0-3.059-1.08-5.688-3.253-7.902-2.174-2.215-4.777-3.323-7.837-3.323-1.242 0-2.443.221-3.586.639a10.649 10.649 0 00-3.194 1.882 11.409 11.409 0 00-3.02 3.969c-.734 1.566-1.101 3.172-1.101 4.812m-19.461 10.365l-.312-23.696h2.622v26.915h-3.183l-14.764-23.735.293 23.735h-2.6V82.427h3.172l14.772 23.697zm-49.003 3.218h-2.673V82.427h2.673v12.07h12.785v-12.07h2.644v26.915h-2.644V97.064H98.31v12.278zM77.954 89.395c-1.205-1.672-2.553-2.908-4.048-3.705-1.489-.785-3.201-1.176-5.103-1.176-2.994 0-5.547 1.109-7.686 3.33-2.122 2.22-3.178 4.852-3.178 7.915 0 3.245 1.056 5.988 3.171 8.224 2.11 2.232 4.667 3.342 7.693 3.342 1.865 0 3.546-.389 5.051-1.167 1.5-.769 2.804-1.934 3.919-3.471h3.145c-1.238 2.29-2.888 4.057-4.959 5.317-2.069 1.25-4.391 1.869-6.97 1.869-3.96 0-7.251-1.345-9.898-4.042-2.649-2.697-3.963-6.074-3.963-10.111 0-1.885.357-3.674 1.072-5.361.715-1.69 1.763-3.211 3.144-4.57a13.158 13.158 0 014.317-2.904c1.598-.668 3.323-.993 5.184-.993 2.666 0 5.083.655 7.221 1.955 2.132 1.308 3.826 3.155 5.068 5.548h-3.18zm-48.478 5.103H40.79v2.662H29.476v9.572H40.79v2.61H26.819V82.427H40.79v2.644H29.476v9.427zM8.024 109.342H5.383V85.071H0v-2.644h13.408v2.644H8.024v24.271z"/>
  </g>
  <path fill-rule="evenodd" clip-rule="evenodd" fill="#282828" d="M408.191 1.96c-6.551 0-11.865 5.31-11.865 11.865 0 6.552 5.314 11.863 11.865 11.863 6.553 0 11.863-5.311 11.863-11.863.001-6.555-5.31-11.865-11.863-11.865m0 21.806c-5.488 0-9.939-4.451-9.939-9.941 0-5.491 4.451-9.941 9.939-9.941 5.49 0 9.941 4.45 9.941 9.941.001 5.489-4.45 9.941-9.941 9.941"/>
  <path fill="#282828" d="M404.867 8.197c.729-.141 1.777-.232 2.883-.232 1.5 0 2.506.248 3.221.836.574.481.896 1.208.896 2.106 0 1.349-.912 2.264-1.902 2.603v.047c.758.281 1.205 1.008 1.453 2.015.342 1.302.623 2.511.82 2.912h-1.949c-.156-.31-.42-1.161-.697-2.463-.311-1.363-.791-1.797-1.875-1.827h-.961v4.29h-1.889V8.197zm1.889 4.601h1.131c1.287 0 2.078-.682 2.078-1.721 0-1.13-.791-1.673-2.031-1.673-.604 0-.992.047-1.178.092v3.302z"/>
</svg>
