<svg xmlns="http://www.w3.org/2000/svg" viewBox="0 0 257.96 158.29">
  <defs>
    <style>.cls-1,.cls-3{fill:#2d7654;fill-rule:evenodd}.cls-3{fill:#fff}</style>
  </defs>
  <g id="Layer_2" >
    <g id="Layer_1-2" >
      <path id="_Path_"  class="cls-1" d="M26.64 143.21l-12.79-24.75H0v38.75h11.44v-25.43l13.77 25.43h12.72v-38.75H26.79l-.15 24.75z"/>
      <path id="_Path_2"  class="cls-1" d="M246.67 143.21l-12.79-24.75h-13.85v38.75h11.44v-25.43l13.77 25.43h12.72v-38.75h-11.14l-.15 24.75z"/>
      <path id="_Path_3"  class="cls-1" d="M77.45 118.42H45.16v38.82h32.59v-7.67H57.13v-7.68h19.19v-7.9H57.13v-8.2h20.32v-7.37z"/>
      <path id="_Path_4"  class="cls-1" d="M89.03 157.26h12.57l5.04-26.63 5.95 26.63h12.04l8.88-38.82h-11.06l-4.59 28.44-6.17-28.44h-9.94l-5.64 28.44-4.67-28.44H79.78l9.25 38.82z"/>
      <path id="_Path_5"  class="cls-1" d="M158.21 142.87h6.44c-.47 8-4.73 8-6.83 8.5-6 0-9.15-2.78-9.15-13.24 0-10 1.4-14 7.76-14 5.35 0 6.67 4.89 7.21 6.4h12.25c-.31-5.8-4-13.92-18.69-13.55-15.12-.52-21 9.33-21 21 .15 15.27 9.38 20.31 19.69 20.31 9.15 0 10.16-1.95 13.34-4.89l.86 3.84h6v-20.92h-17.88z"/>
      <path id="_Path_6"  class="cls-1" d="M214.46 118.42h-32.28v38.82h32.58v-7.67h-20.62v-7.68h19.19v-7.9h-19.19v-8.2h20.32v-7.37z"/>
      <path id="_Path_7"  d="M129 0a53.46 53.46 0 11-53.48 53.45A53.57 53.57 0 01129 0" fill="#e47825" fill-rule="evenodd"/>
      <path id="_Path_8"  class="cls-3" d="M139.64 36.84a5.75 5.75 0 11-5.31 6.16 5.76 5.76 0 015.31-6.14"/>
      <path id="_Path_9"  class="cls-3" d="M148.27 29.11a4.68 4.68 0 11-4.33 5 4.69 4.69 0 014.33-5"/>
      <path id="_Path_10"  class="cls-3" d="M155.9 22.57a3.61 3.61 0 11-3.35 3.86 3.62 3.62 0 013.35-3.86"/>
      <path id="_Path_11"  class="cls-3" d="M161.22 18.89a2.13 2.13 0 11-2 2.28 2.13 2.13 0 012-2.28"/>
      <path id="_Path_12"  class="cls-3" d="M165.2 16.19a.85.85 0 11-.79.9.85.85 0 01.79-.9"/>
      <path id="_Path_13"  class="cls-3" d="M112.06 64.44a5.75 5.75 0 106-5.49 5.76 5.76 0 00-6 5.49"/>
      <path id="_Path_14"  class="cls-3" d="M104.09 73.39a4.68 4.68 0 104.91-4.46 4.7 4.7 0 00-4.89 4.46"/>
      <path id="_Path_15"  class="cls-3" d="M98.11 80.84a3.62 3.62 0 103.77-3.45 3.63 3.63 0 00-3.77 3.45"/>
      <path id="_Path_16"  class="cls-3" d="M94.23 86.39a2.13 2.13 0 102.22-2 2.13 2.13 0 00-2.22 2"/>
      <path id="_Path_17"  class="cls-3" d="M91.86 90.09a.86.86 0 00.81.89.85.85 0 10-.81-.89"/>
      <path id="_Path_18"  class="cls-3" d="M128.52 26.89A4.87 4.87 0 11124 32.1a4.88 4.88 0 014.5-5.21"/>
      <path id="_Path_19"  class="cls-3" d="M137.72 19.18a3.44 3.44 0 11-3.19 3.68 3.44 3.44 0 013.19-3.68"/>
      <path id="_Path_20"  class="cls-3" d="M159.38 41.07a3.45 3.45 0 11-3.18 3.69 3.45 3.45 0 013.18-3.69"/>
      <path id="_Path_21"  class="cls-3" d="M144.65 13.07a2.42 2.42 0 11-2.23 2.58 2.43 2.43 0 012.23-2.58"/>
      <path id="_Path_22"  class="cls-3" d="M136.09 53.5a7.24 7.24 0 11-7.71-6.73 7.24 7.24 0 017.71 6.73"/>
      <path id="_Path_23"  class="cls-3" d="M131.08 13.75a2.12 2.12 0 11-2.25-2 2.12 2.12 0 012.25 2"/>
      <path id="_Path_24"  class="cls-3" d="M170.59 53.72a2.11 2.11 0 11-2.25-2 2.1 2.1 0 012.25 2"/>
      <path id="_Path_25"  class="cls-3" d="M168.94 37.3a2.11 2.11 0 11-2.25-2 2.11 2.11 0 012.25 2"/>
      <path id="_Path_26"  class="cls-3" d="M123.24 22.43a3.36 3.36 0 11-3.58-3.12 3.39 3.39 0 013.58 3.12"/>
      <path id="_Path_27"  class="cls-3" d="M101.67 44.54a3.36 3.36 0 11-3.58-3.12 3.37 3.37 0 013.58 3.12"/>
      <path id="_Path_28"  class="cls-3" d="M115.34 15.69a2.27 2.27 0 11-2.42-2.1 2.28 2.28 0 012.42 2.1"/>
      <path id="_Path_29"  class="cls-3" d="M93.47 37.27a2.27 2.27 0 11-2.42-2.11 2.27 2.27 0 012.42 2.11"/>
      <path id="_Path_30"  class="cls-3" d="M91.71 53.7a2.27 2.27 0 11-2.42-2.11 2.26 2.26 0 012.42 2.11"/>
      <path id="_Path_31"  class="cls-3" d="M108.38 10.1A1.27 1.27 0 11107 8.93a1.26 1.26 0 011.35 1.17"/>
      <path id="_Path_32"  class="cls-3" d="M123 6.5a1.27 1.27 0 01-1.17 1.34 1.26 1.26 0 11-.18-2.52A1.26 1.26 0 01123 6.5"/>
      <path id="_Path_33"  class="cls-3" d="M176.87 60.81a1.26 1.26 0 01-1.17 1.35 1.29 1.29 0 01-1.36-1.16 1.27 1.27 0 011.19-1.34 1.26 1.26 0 011.34 1.17"/>
      <path id="_Path_34"  class="cls-3" d="M177 46.57a1.25 1.25 0 01-1.17 1.34 1.26 1.26 0 11-.17-2.52 1.26 1.26 0 011.34 1.18"/>
      <path id="_Path_35"  class="cls-3" d="M173.67 31.9a1.26 1.26 0 01-1.17 1.35 1.28 1.28 0 01-1.35-1.18 1.26 1.26 0 012.52-.17"/>
      <path id="_Path_36"  class="cls-3" d="M86.71 31.9a1.27 1.27 0 01-1.17 1.35 1.29 1.29 0 01-1.36-1.18 1.27 1.27 0 012.53-.17"/>
      <path id="_Path_37"  class="cls-3" d="M83.1 46.36a1.26 1.26 0 11-2.52.16 1.26 1.26 0 012.52-.16"/>
      <path id="_Path_38"  class="cls-3" d="M83.2 60.81a1.26 1.26 0 01-1.2 1.35A1.28 1.28 0 0180.68 61a1.26 1.26 0 012.52-.17"/>
      <path id="_Path_39"  class="cls-3" d="M137.47 6.6a1.27 1.27 0 11-1.35-1.18 1.27 1.27 0 011.35 1.18"/>
      <path id="_Path_40"  class="cls-3" d="M151.6 9.9a1.27 1.27 0 11-1.35-1.17 1.27 1.27 0 011.35 1.17"/>
      <path id="_Path_41"  class="cls-3" d="M145.2 64.44a5.75 5.75 0 11-6.12-5.35 5.74 5.74 0 016.12 5.35"/>
      <path id="_Path_42"  class="cls-3" d="M133.82 75.54a4.94 4.94 0 11-5.25-4.6 4.93 4.93 0 015.25 4.6"/>
      <path id="_Path_43"  class="cls-3" d="M131.19 93.41a2.31 2.31 0 01-2.19 2.47 2.32 2.32 0 11-.31-4.62 2.31 2.31 0 012.46 2.15"/>
      <path id="_Path_44"  class="cls-3" d="M141.17 84.32a3.38 3.38 0 11-3.6-3.15 3.39 3.39 0 013.6 3.15"/>
      <path id="_Path_45"  class="cls-3" d="M147 91.76a2.19 2.19 0 01-4.38.29 2.19 2.19 0 114.38-.29"/>
      <path id="_Path_46"  class="cls-3" d="M151.28 97.3a1.14 1.14 0 01-1.05 1.2 1.13 1.13 0 111.05-1.2"/>
      <path id="_Path_47"  class="cls-3" d="M137.26 100.5a1.12 1.12 0 01-2.24.15 1.14 1.14 0 011-1.2 1.12 1.12 0 011.19 1"/>
      <path id="_Path_48"  class="cls-3" d="M122.54 100.61a1.13 1.13 0 11-1.2-1 1.11 1.11 0 011.2 1"/>
      <path id="_Path_49"  class="cls-3" d="M108.28 97.17a1.12 1.12 0 11-2.24.15 1.12 1.12 0 012.24-.15"/>
      <path id="_Path_50"  class="cls-3" d="M114.93 91.76a2.19 2.19 0 11-2.34-2.05 2.2 2.2 0 012.34 2.05"/>
      <path id="_Path_51"  class="cls-3" d="M122.77 84.45a3.15 3.15 0 11-3.35-2.92 3.16 3.16 0 013.35 2.92"/>
      <path id="_Path_52"  class="cls-3" d="M153.25 73.22a4.69 4.69 0 11-5-4.36 4.71 4.71 0 015 4.36"/>
      <path id="_Path_53"  class="cls-3" d="M159.25 80.46a3.55 3.55 0 11-3.78-3.3 3.55 3.55 0 013.78 3.3"/>
      <path id="_Path_54"  class="cls-3" d="M163.4 86.1a2.12 2.12 0 11-2.27-2 2.14 2.14 0 012.27 2"/>
      <path id="_Path_55"  class="cls-3" d="M166.09 90a.87.87 0 01-.79.91.86.86 0 01-.91-.8.85.85 0 011.7-.11"/>
      <path id="_Path_56"  class="cls-3" d="M173.1 75.37a.86.86 0 01-.79.9.85.85 0 11-.12-1.69.86.86 0 01.91.79"/>
      <path id="_Path_57"  class="cls-3" d="M169 69.82a2.11 2.11 0 11-2.25-2 2.11 2.11 0 012.25 2"/>
      <path id="_Path_58"  class="cls-3" d="M162.53 62.5a3.12 3.12 0 11-3.31-2.89 3.12 3.12 0 013.31 2.89"/>
      <path id="_Path_59"  class="cls-3" d="M154.69 53.76a4.07 4.07 0 11-4.33-3.76 4.07 4.07 0 014.33 3.78"/>
      <path id="_Path_60"  class="cls-3" d="M118.1 37.08a5.75 5.75 0 105.45 6 5.77 5.77 0 00-5.45-6"/>
      <path id="_Path_61"  class="cls-3" d="M109.18 29.19a4.69 4.69 0 104.45 4.91 4.69 4.69 0 00-4.45-4.91"/>
      <path id="_Path_62"  class="cls-3" d="M101.76 22.8a3.62 3.62 0 103.43 3.79 3.63 3.63 0 00-3.43-3.79"/>
      <path id="_Path_63"  class="cls-3" d="M96.11 18.67a2.13 2.13 0 102 2.22 2.12 2.12 0 00-2-2.22"/>
      <path id="_Path_64"  class="cls-3" d="M92.42 16.28a.85.85 0 00-.08 1.7.85.85 0 00.08-1.7"/>
      <path id="_Path_65"  class="cls-3" d="M107.47 58.62A4.88 4.88 0 11112 53.4a4.89 4.89 0 01-4.51 5.22"/>
      <path id="_Path_66"  class="cls-3" d="M98.16 66.19a3.46 3.46 0 113.2-3.7 3.45 3.45 0 01-3.2 3.7"/>
      <path id="_Path_67"  class="cls-3" d="M91.12 72.44a2.42 2.42 0 112.22-2.58 2.42 2.42 0 01-2.22 2.58"/>
      <path id="_Path_68"  class="cls-3" d="M85.36 76.45a1.09 1.09 0 111-1.17 1.09 1.09 0 01-1 1.17"/>
    </g>
  </g>
</svg>
