<svg xmlns="http://www.w3.org/2000/svg" version="1.0" viewBox="0 0 662.846 94.146">
  <g fill="#f80000">
    <path d="M277.997 59.117h40.652l-21.495-34.583-39.451 62.527h-17.955l47.985-75.108c2.087-3.035 5.564-4.868 9.42-4.868 3.73 0 7.208 1.77 9.231 4.741l48.176 75.235h-17.955l-8.472-13.972h-41.158l-8.978-13.972zm186.507 13.972V7.843h-15.237v71.631c0 1.96.759 3.857 2.213 5.311 1.454 1.454 3.414 2.276 5.563 2.276h69.482l8.977-13.972h-70.998zM212.436 61.393c14.794 0 26.806-11.95 26.806-26.743 0-14.794-12.012-26.807-26.806-26.807H145.78v79.218h15.23V21.815h50.414c7.081 0 12.771 5.754 12.771 12.835 0 7.08-5.69 12.834-12.771 12.834l-42.953-.063 45.482 39.64h22.128l-30.6-25.668h6.955zM52.02 87.06c-21.868 0-39.615-17.702-39.615-39.577 0-21.875 17.747-39.64 39.615-39.64h46.045c21.875 0 39.609 17.765 39.609 39.64S119.941 87.06 98.066 87.06H52.021zm45.02-13.972c14.17 0 25.644-11.443 25.644-25.605S111.21 21.815 97.042 21.815H53.039c-14.162 0-25.643 11.507-25.643 25.669s11.481 25.605 25.643 25.605h44.003zm289.32 13.972c-21.876 0-39.64-17.702-39.64-39.577 0-21.875 17.764-39.64 39.64-39.64h54.687l-8.915 13.971h-44.761c-14.162 0-25.668 11.507-25.668 25.669s11.506 25.605 25.668 25.605h54.94l-8.977 13.972H386.36zm186.316-13.972c-11.696 0-21.622-7.84-24.657-18.65h65.12l8.977-13.973H548.02c3.035-10.748 12.96-18.65 24.657-18.65h44.698l9.041-13.973h-54.75c-21.875 0-39.64 17.766-39.64 39.64 0 21.876 17.765 39.578 39.64 39.578h46.974l8.977-13.972h-54.94M634.572 16.252a6.934 6.934 0 016.954-6.955c3.92 0 7.018 3.098 7.018 6.955 0 3.92-3.098 7.018-7.018 7.018-3.856 0-6.954-3.098-6.954-7.018zm6.954 8.977a8.904 8.904 0 008.915-8.914 8.904 8.904 0 00-8.915-8.914c-4.868 0-8.85 3.983-8.85 8.914 0 4.931 3.982 8.914 8.85 8.914zm-.822-14.225c1.391 0 1.96.064 2.593.316 1.77.57 1.96 2.15 1.96 2.782 0 .127 0 .443-.127.822-.063.38-.316 1.138-1.201 1.707-.127.063-.19.127-.443.253l2.276 4.11h-2.213l-2.023-3.794h-1.39v3.794h-1.96v-9.99h2.528zm.696 4.552c.632-.063 1.264-.063 1.644-.632.189-.253.253-.506.253-.885 0-.506-.317-.948-.76-1.201-.442-.19-.884-.19-1.833-.19h-.568v2.908h1.264"/>
  </g>
</svg>
