<svg xmlns="http://www.w3.org/2000/svg" viewBox="0 0 205.98 57.32">
  <path d="M8.36 28.16c0 4.74 1.6 10 7.27 10s7.21-5.26 7.21-10-1.58-9.91-7.21-9.91-7.27 5.15-7.27 9.91zm-8.36 0C0 18.33 5.3 11 15.64 11s15.62 7.32 15.62 17.13S26 45.31 15.64 45.31 0 38 0 28.16zm36.87 16.07V12.17h7.66v5.49c1.93-3.93 5.38-7.15 10.09-6.33v8.69H51.9c-4.66 0-6.77 2.77-6.77 7.26v16.95zm40-4c-2.24 3.56-5.84 5.12-10 5.12-5.93 0-9.8-4.34-9.8-10.2 0-6.57 5.13-9.29 10.9-10.2.85-.14 2-.3 3.35-.47 3.51-.47 5.25-1.53 5.25-3.16 0-3.15-2.12-3.58-5-3.62-2.73 0-4.38 1.46-5.82 4.06l-6.55-3.84c1.95-4.64 7.24-6.53 12-6.89 6.07-.46 14.17 2.82 14.17 10.3v22.9h-8.53v-4zm-.14-11.8A22.13 22.13 0 0172.06 30c-1.84.41-4.45.76-5.77 2.23-2.4 2.75-.15 6.55 3.22 6.55 4.48 0 7.19-2.87 7.19-7.31v-3zm15.08 15.8V12.17h8.08V16a11.24 11.24 0 019.34-4.66c7.13 0 10.18 4.22 10.18 11.06v21.83h-8.26V24.85c0-3.45-.73-6.4-4.76-6.4s-6.32 2.83-6.32 6.76v19zm41.44-16.55c0 4.42 1.4 9.35 6.71 9.35s6.7-5 6.7-9.47-1.55-9.2-6.8-9.2-6.61 5-6.61 9.32zm-7.46 19.65h9c.6 2.44 2.62 3.21 4.94 3.21 5.59 0 6.91-2.69 6.91-8v-2.85c-1.87 3.33-4.89 4.54-8.59 4.54-9.2 0-13.19-8.08-13.19-16.25s3.56-17 13.05-17c3.91 0 7 1.53 8.91 5v-3.81h7.82V42.1a24.91 24.91 0 01-.91 7.7c-2.06 6.1-8.71 7.52-14.41 7.52-6.59 0-13.09-2.54-13.55-10zM182 33.74l6.74 4c-2.29 4.65-9 7.59-13.87 7.59a13.11 13.11 0 01-10.61-4.67A19.31 19.31 0 01159.9 28c0-9.09 4.9-16.94 14.87-16.94 5.22 0 8.93 1.89 11.32 5 2.85 3.68 3.65 8.83 3 14.45h-20.36c.19 4.11 1.93 7.6 6.55 7.6a7.76 7.76 0 006.72-4.37zM168.73 24h12.56c0-3.56-2.19-5.83-6.35-5.83s-6.24 2.18-6.21 5.83zM187 11.49h2.4V2.05h3.45V0h-9.32v2.05H187v9.44zm7.23 0V0h3.56l2.32 8.74 2.3-8.74H206v11.49h-2.25V2.22l-2.37 9.27h-2.48l-2.41-9.27v9.27z" fill="#f37321" fill-rule="evenodd"/>
</svg>
