<svg xmlns="http://www.w3.org/2000/svg" viewBox="0 0 72 28">
  <g fill="#fff" fill-rule="evenodd">
    <path d="M6.731 17.074c-1.866-3.48-3.194-6.512-3.194-7.82 0-3.135 2.541-5.686 5.664-5.686 3.122 0 5.663 2.55 5.663 5.685 0 .75-.443 2.077-1.17 3.73l4.606-2.707c.065-.368.101-.711.101-1.023 0-5.093-4.119-9.228-9.2-9.228C4.119.025 0 4.16 0 9.253c0 2.21 1.722 6.01 3.68 9.614z" fill="#F05023"/>
    <path d="M12.403 15.673a98.125 98.125 0 01-3.202 5.742 96.078 96.078 0 01-1.668-2.88l-3.05 1.79C6.82 24.47 9.202 28 9.202 28s3.011-4.47 5.587-9.249a71.298 71.298 0 00.706-1.341 34.648 34.648 0 013.868-5.826z" fill="#0082C8"/>
    <path d="M28.257 13.26c1.253 0 2.163.956 2.163 2.273 0 1.321-.91 2.28-2.163 2.28-1.25 0-2.157-.959-2.157-2.28 0-1.317.907-2.273 2.157-2.273zm.088-1.575c-.88 0-1.78.332-2.255.755v-.637h-1.67v9.403c-.043.464.374.948.836.948h.834v-3.521c.528.445 1.375.755 2.255.755 2.107 0 3.696-1.657 3.696-3.855 0-2.194-1.589-3.848-3.696-3.848zM39.624 11.685c-.775 0-1.439.229-1.955.668v-.55h-1.672v6.714c0 .464.374.84.836.84h.836v-4.26c0-1.107.68-1.823 1.733-1.823 1.07 0 1.611.604 1.611 1.795v4.287h1.672v-4.643c0-1.811-1.23-3.028-3.061-3.028" fill="#0A2D46"/>
    <path d="M48.626 13.31c.62 0 1.157.23 1.643.704l.238.232 1.128-1.192-.197-.226c-.672-.77-1.66-1.193-2.783-1.193-2.24 0-3.868 1.64-3.868 3.898 0 2.262 1.627 3.904 3.868 3.904 1.115 0 2.103-.423 2.781-1.191l.196-.221-1.098-1.21-.243.237c-.472.459-1.063.712-1.665.712-1.208 0-2.085-.938-2.085-2.231 0-1.289.877-2.224 2.085-2.224M53.49 19.356h.837V8.166h-1.672v10.351c0 .464.374.84.836.84M61.727 13.31c.62 0 1.157.23 1.642.704l.238.232 1.128-1.192-.197-.226c-.671-.77-1.66-1.193-2.782-1.193-2.242 0-3.868 1.64-3.868 3.898 0 2.262 1.626 3.904 3.868 3.904 1.115 0 2.102-.423 2.78-1.191l.196-.221-1.098-1.21-.243.237c-.471.459-1.062.712-1.664.712-1.209 0-2.085-.938-2.085-2.231 0-1.289.876-2.224 2.085-2.224M68.58 15.39l3.38-3.587H69.84l-2.637 2.798h.119V8.167H65.65v10.35c0 .464.375.84.837.84h.836v-3.078h-.133l2.68 3.077h2.099z" fill="#0082C8"/>
    <path d="M34.024 19.356h.836v-7.553h-1.672v6.714c0 .464.374.84.836.84" fill="#0A2D46"/>
    <path d="M56.25 19.356h.836v-7.553h-1.672v6.714c0 .464.374.84.836.84" fill="#0082C8"/>
  </g>
</svg>
