<svg version="1.1" id="Layer_1"
  xmlns="http://www.w3.org/2000/svg" x="0" y="0" viewBox="-4044 4209.9 414 84" xml:space="preserve">
  <style>.st0{fill:#3159a8}</style>
  <path class="st0" d="M-3996.5 4256.7l-1.4 5.3h-8.5c-2 0-3.4-.2-4.2-.5-.7-.3-1.2-.8-1.3-1.4-.1-.6 0-1.7.4-3.4-2.5-.1-4.6-.7-6.1-2s-2.3-2.9-2.4-4.8c-.1-2 .4-4.9 1.4-8.8l3.5-13.4c.8-3 1.5-5.2 2.3-6.8s1.9-3 3.3-4.4c1.4-1.4 3.1-2.4 5-3.1 1.9-.7 3.9-1 6-1 2.5 0 4.7.4 6.4 1.3 1.8.9 2.9 2 3.6 3.3.6 1.3.9 2.7.8 4.1-.1 1.4-.5 3.5-1.2 6.3l-3.7 14.1c-1 3.9-1.9 6.5-2.6 7.9-.7 1.4-1.7 2.5-3 3.3-1.3.8-2.9 1.4-4.7 1.9-.2 1-.2 1.6.1 1.8.3.2 1.1.4 2.4.4l3.9-.1zm-2.9-32.3c.5-2 .8-3.3.7-3.9-.1-.6-.4-.8-1.1-.8-.6 0-1.1.2-1.5.7-.4.4-.9 1.8-1.5 4l-5.3 20.3c-.7 2.5-1 4.1-.9 4.7 0 .6.4.9 1.2.9.8 0 1.3-.3 1.7-1 .4-.7.9-2.3 1.6-4.9l5.1-20zm33.6 7.7c1.9-.9 3.3-1.9 4.3-3 .9-1.1 1.7-2.8 2.4-5.3.9-3.6.8-6.4-.6-8.4-1.3-2-4.6-3-9.7-3-4.1 0-7.3.7-9.6 2.2-2.3 1.5-4 4.2-5 8.4l-1 3.7h10.8l.9-3.6c.4-1.7.9-2.7 1.3-3.3.4-.5 1-.8 1.7-.8s1.1.2 1.3.7c.2.5.1 1.5-.3 3l-.6 2.4c-.4 1.4-.8 2.4-1.2 3.1-.4.7-1 1.1-1.6 1.3-.7.2-2.3.3-4.8.3l-1.7 6.3c2.1 0 3.5.2 4.1.4.7.2 1.1.7 1.3 1.5.2.8 0 2-.4 3.7l-.8 3c-.7 2.7-1.3 4.4-1.7 5-.4.6-1.1 1-1.9 1-.8 0-1.2-.3-1.3-.8-.1-.5.1-1.7.6-3.6l1.9-7.1h-10.8l-.9 3.4c-1.1 4.1-1.5 7.1-1.4 8.7.2 1.7 1.1 3.1 2.8 4.2 1.6 1.2 4.2 1.7 7.6 1.7 3 0 5.6-.5 7.8-1.5s3.9-2.4 5.2-4.3c1.3-1.9 2.4-4.6 3.3-8 1.2-4.7 1.6-7.6 1.1-8.9-.7-1-1.6-1.9-3.1-2.4zm33.9-15.8l-1.5 5.6h3l-1.5 5.7h-3l-5 19c-.6 2.3-.8 3.6-.6 3.9.2.3 1.2.4 3 .4l-1.5 5.7h-4.4c-2.5 0-4.2-.1-5.2-.3-1-.2-1.8-.7-2.4-1.4-.6-.7-.9-1.6-.8-2.5.1-1 .5-3.2 1.5-6.7l4.7-18.1h-2.3l1.5-5.7h2.3l1.5-5.6h10.7zm23.9 23.2l1.2-4.7c.9-3.5 1.2-6.1.9-8-.3-1.9-1.3-3.4-3-4.6-1.7-1.2-4-1.7-7.1-1.7-2.5 0-4.8.5-7 1.4-2.2 1-3.9 2.3-5.2 4.1-1.3 1.8-2.4 4.3-3.2 7.4l-2.7 10.4c-.7 2.7-1 4.7-1 6.1 0 1.4.3 2.7 1 3.8.7 1.2 1.8 2.1 3.4 2.7 1.6.7 3.5 1 5.8 1 2.4 0 4.4-.3 6.2-1 1.7-.7 3.3-1.7 4.7-3 1.4-1.3 2.4-2.6 2.9-3.8.6-1.2 1.2-2.9 1.7-5.1l.7-2.6h-10.3l-1.2 4.7c-.5 1.8-.9 3-1.4 3.6-.4.6-1.1.9-1.9.9-.7 0-1.1-.2-1.2-.7-.1-.5 0-1.5.5-3.1l2-7.7 14.2-.1zm-9.3-5.8h-3.2l.7-2.6c.5-2 .9-3.2 1.2-3.7s.8-.7 1.6-.7c.6 0 1 .3 1 .8.1.5-.1 1.7-.6 3.6l-.7 2.6zm38.1.8h-10.2l1.1-4.1c.4-1.4.5-2.4.4-2.9-.1-.5-.5-.8-1.1-.8s-1.1.2-1.5.7c-.3.4-.7 1.4-1.1 3l-4.4 16.8c-.3 1.3-.4 2.2-.3 2.9.2.6.6 1 1.2 1 .7 0 1.3-.3 1.8-1 .4-.7.9-1.9 1.4-3.7l1.1-4.2h9.7c-.8 2.8-1.4 5-2 6.4-.6 1.4-1.5 2.9-2.9 4.4-1.4 1.5-3 2.6-4.9 3.4-1.8.8-3.9 1.1-6.4 1.1-3.1 0-5.4-.5-6.9-1.6-1.5-1-2.4-2.5-2.6-4.4-.2-1.9.1-4.6 1-8.1l2.6-10.1c.8-3 1.7-5.3 2.7-6.9 1-1.5 2.7-2.9 5-4.1 2.3-1.2 4.9-1.8 7.7-1.8s5.1.6 6.8 1.8c1.7 1.2 2.6 2.7 2.8 4.5.3 1.8-.1 4.4-1 7.7zm19.6-21.3h-10.8l-11.4 43.5h10.8l6.7-25.4c.5-1.8.9-3 1.3-3.6.4-.6.9-.9 1.6-.9.7 0 1.1.3 1.2.9.1.6-.2 1.9-.7 4l-6.6 25.1h10.8l6.4-24.6c.9-3.3 1.3-5.7 1.4-6.9 0-1.3-.5-2.4-1.6-3.3-1.1-1-2.6-1.4-4.5-1.4-1.2 0-2.5.2-3.7.6-1.2.4-2.4 1.1-3.5 1.9l2.6-9.9zm26.9 7.9l-1 3.3c1.1-1.3 2.4-2.3 3.7-3 1.3-.7 2.7-1 4.2-1 1.9 0 3.3.4 4.2 1.3 1 .9 1.4 2 1.4 3.3 0 1.3-.4 3.6-1.2 6.7l-6.5 25h-10.8l6.5-24.7c.6-2.4 1-3.9.9-4.5 0-.5-.4-.8-1.1-.8-.8 0-1.3.3-1.7.9-.4.6-.9 2.3-1.6 5l-6.3 24.1h-10.8l9.3-35.6h10.8zm39 12.5c.7-2.5 1-4.4 1-5.6 0-1.2-.4-2.4-1-3.6-.6-1.2-1.7-2.1-3.3-2.8-1.6-.7-3.6-1.1-6-1.1-2.9 0-5.4.6-7.6 1.7-2.2 1.1-3.8 2.6-5 4.5-1.2 1.9-2.2 4.5-3.1 7.8l-2.4 9.1c-.8 3-1.2 5.3-1.2 6.8s.3 2.8 1 3.9c.6 1.1 1.7 1.9 3.2 2.4 1.5.5 3.5.8 5.9.8 2.1 0 4.1-.3 5.9-.9 1.8-.6 3.4-1.6 4.8-2.9s2.4-2.7 3.2-4.2c.7-1.5 1.5-3.8 2.3-7.1l2.3-8.8zm-10.1-2.7l-4.3 16.4c-.4 1.5-.8 2.5-1.1 3-.3.5-.8.7-1.5.7-.6 0-1-.3-1.1-.8-.1-.5.1-1.6.5-3.3l4.2-16.1c.5-1.8.9-3 1.2-3.4.3-.5.8-.7 1.5-.7.6 0 1 .2 1.1.7.2.5 0 1.7-.5 3.5zm30.2-17.7l-11.4 43.5h-11.2l11.4-43.5h11.2zm23.1 20.4c.7-2.5 1-4.4 1-5.6 0-1.2-.4-2.4-1-3.6-.6-1.2-1.7-2.1-3.3-2.8-1.6-.7-3.6-1.1-6-1.1-2.9 0-5.4.6-7.6 1.7-2.2 1.1-3.8 2.6-5 4.5-1.2 1.9-2.2 4.5-3.1 7.8l-2.4 9.1c-.8 3-1.2 5.3-1.2 6.8s.3 2.8 1 3.9c.6 1.1 1.7 1.9 3.2 2.4 1.5.5 3.5.8 5.9.8 2.1 0 4.1-.3 5.9-.9 1.8-.6 3.4-1.6 4.8-2.9 1.4-1.3 2.4-2.7 3.2-4.2.7-1.5 1.5-3.8 2.3-7.1l2.3-8.8zm-10.2-2.7l-4.3 16.4c-.4 1.5-.8 2.5-1.1 3-.3.5-.8.7-1.5.7-.6 0-1-.3-1.1-.8-.1-.5.1-1.6.5-3.3l4.2-16.1c.5-1.8.9-3 1.2-3.4.3-.5.8-.7 1.5-.7.6 0 1 .2 1.1.7.2.5 0 1.7-.5 3.5zm41.7-9.8l-7.2 27.4c-1 3.7-1.7 6.1-2.1 7.2-.4 1.1-1.4 2.2-2.7 3.4-1.4 1.2-3 2.1-5.1 2.8-2 .6-4.4 1-7.3 1-3.5 0-6.1-.6-7.9-1.8-1.8-1.2-2.3-3.5-1.4-6.9h10.5c-.4 1.6 0 2.4 1.1 2.4.8 0 1.5-.2 1.9-.7.4-.5.8-1.5 1.2-3l.7-2.7c-1.2.8-2.3 1.5-3.4 1.9-1.1.4-2.3.6-3.4.6-2 0-3.5-.4-4.5-1.2-1.1-.8-1.7-1.8-1.8-3.1-.1-1.3.1-3.1.7-5.5l3.4-12.9c.9-3.4 2.1-5.8 3.7-7.3s3.7-2.2 6.2-2.2c1.4 0 2.5.3 3.5.8 1 .6 1.8 1.4 2.4 2.5l1.5-2.7h10zm-13.3 9.4c.4-1.6.6-2.7.5-3.1-.1-.4-.4-.7-1.1-.7-.7 0-1.2.3-1.6.8-.4.5-.8 1.5-1.2 3l-3.1 12c-.4 1.6-.6 2.6-.5 3.1.1.5.4.7 1.1.7.7 0 1.3-.3 1.7-.9.4-.6.8-1.9 1.3-3.9l2.9-11zm30.3-17.3l-1.5 5.7h-11.2l1.5-5.7h11.2zm-2 7.9h-11.2l-9.3 35.6h11.2l9.3-35.6zm23.6 18.4h-14.1l-2 7.7c-.4 1.6-.6 2.7-.5 3.1.1.5.5.7 1.2.7.8 0 1.5-.3 1.9-.9.4-.6.9-1.8 1.4-3.6l1.2-4.7h10.3l-.7 2.6c-.6 2.2-1.2 3.9-1.7 5.1-.6 1.2-1.6 2.4-2.9 3.8-1.4 1.3-2.9 2.4-4.7 3-1.7.7-3.8 1-6.2 1-2.3 0-4.2-.3-5.8-1-1.6-.7-2.7-1.6-3.4-2.7-.7-1.2-1-2.4-1-3.8s.3-3.4 1-6.1l2.7-10.4c.8-3.1 1.9-5.6 3.2-7.4 1.3-1.8 3-3.2 5.2-4.1 2.2-1 4.5-1.4 7-1.4 3 0 5.4.6 7.1 1.7 1.7 1.2 2.7 2.7 3 4.6.3 1.9 0 4.6-.9 8l-1.3 4.8zm-9.3-5.8l.7-2.6c.5-1.8.7-3 .6-3.6-.1-.5-.4-.8-1-.8-.8 0-1.3.2-1.6.7-.3.5-.7 1.7-1.2 3.7l-.7 2.6h3.2zm36.8-1.3l.5-2.1c.5-1.8.7-3.1.7-3.9 0-.8-.3-1.8-.9-2.7-.6-1-1.7-1.8-3.2-2.4-1.5-.6-3.4-.9-5.8-.9s-4.6.4-6.5 1.1c-2 .7-3.5 1.8-4.6 3.1-1.1 1.3-2 3.4-2.8 6.3-.5 2-.6 3.7-.3 5.2s1.8 3.1 4.5 4.9c3.2 2.1 5 3.4 5.3 3.8.3.4.2 1.5-.2 3.2-.3 1.2-.7 2-1.1 2.4-.4.4-1 .6-1.8.6-.7 0-1.1-.3-1.2-.9-.1-.6.1-1.8.6-3.7l.6-2.2h-9.6l-.4 1.7c-.8 3-1 5.2-.6 6.6.3 1.5 1.4 2.6 3.1 3.5 1.7.9 4 1.3 6.7 1.3 2.5 0 4.7-.4 6.7-1.2 2-.8 3.5-1.9 4.7-3.4 1.1-1.5 2.1-3.7 2.8-6.6.7-2.6.7-4.6.1-5.9-.6-1.4-2.3-2.8-5-4.4-2-1.2-3.4-2.1-4-2.7-.6-.6-.9-1.2-.9-1.7s.1-1.3.4-2.4c.2-.8.5-1.4.9-1.8.4-.4.9-.6 1.5-.6.8 0 1.2.2 1.2.7.1.4-.1 1.5-.5 3.1l-.5 1.9 9.6.1zM-3841.2 4279.6l2.4-11.5h3.5c.6 0 1.1 0 1.4.1.5.1.9.2 1.3.5.4.2.6.5.8.9.2.4.3.8.3 1.3 0 .6-.2 1.2-.5 1.7s-.9.8-1.6 1.1c.6.2 1.1.5 1.4.9.3.4.5.9.5 1.4 0 .6-.2 1.2-.5 1.8-.4.6-.8 1-1.4 1.3s-1.3.5-2 .5h-5.6zm1.8-1.3h2.6c.7 0 1.2 0 1.4-.1.5-.1.9-.2 1.2-.4.3-.2.5-.5.7-.8s.3-.7.3-1c0-.5-.2-.9-.5-1.2-.3-.3-1-.4-1.9-.4h-2.9l-.9 3.9zm1.1-5.3h2.3c1.1 0 1.9-.2 2.4-.5.5-.4.7-.9.7-1.5 0-.3-.1-.6-.2-.8-.2-.2-.4-.4-.6-.5-.3-.1-.7-.2-1.4-.2h-2.4l-.8 3.5zM-3825 4278.1c-1 1.1-2 1.7-3.1 1.7-.6 0-1.2-.2-1.6-.6-.4-.4-.6-.8-.6-1.3 0-.3.1-.9.3-1.8l1-4.8h1.4l-1.1 5.3c-.1.4-.1.8-.1 1 0 .3.1.6.3.7.2.2.5.3.8.3.4 0 .8-.1 1.2-.3.4-.2.7-.5 1-.8s.5-.7.7-1.2c.1-.3.2-.8.4-1.5l.8-3.6h1.4l-1.7 8.3h-1.3l.2-1.4zM-3821.8 4279.6l1.7-8.3h1.4l-1.7 8.3h-1.4zm2-9.9l.3-1.6h1.4l-.3 1.6h-1.4zM-3818.3 4279.6l2.4-11.5h1.4l-2.4 11.5h-1.4zM-3809.1 4278.4c-.8.9-1.7 1.4-2.5 1.4s-1.4-.3-2-.9c-.5-.6-.8-1.4-.8-2.5 0-1 .2-1.9.6-2.8.4-.8.9-1.5 1.6-1.9.6-.4 1.2-.6 1.9-.6 1 0 1.8.5 2.3 1.5l.9-4.5h1.4l-2.4 11.5h-1.3l.3-1.2zm-3.8-2.3c0 .6.1 1 .2 1.4.1.3.3.6.6.8.3.2.6.3 1 .3.6 0 1.2-.3 1.7-1 .7-.9 1-2 1-3.3 0-.7-.2-1.2-.5-1.5-.3-.4-.8-.6-1.3-.6-.3 0-.6.1-.9.2-.3.2-.6.4-.8.8s-.5.8-.7 1.4-.3 1.1-.3 1.5zM-3805.8 4279.6l1.7-8.3h1.4l-1.7 8.3h-1.4zm2.1-9.9l.3-1.6h1.4l-.3 1.6h-1.4zM-3802.2 4279.6l1.7-8.3h1.3l-.3 1.4c.6-.6 1.1-1 1.6-1.2s1-.4 1.5-.4c.7 0 1.2.2 1.6.5.4.4.6.9.6 1.5 0 .3-.1.8-.2 1.5l-1.1 5h-1.4l1.1-5.3c.1-.5.2-.9.2-1.1 0-.3-.1-.5-.3-.7-.2-.2-.5-.3-.8-.3-.7 0-1.4.3-1.9.8-.6.5-1 1.4-1.2 2.7l-.8 3.9h-1.6zM-3793.4 4280.3l1.4.1c0 .3 0 .6.1.7.1.2.2.3.4.4.3.1.6.2 1 .2.9 0 1.5-.2 1.8-.7.2-.3.5-.9.7-1.9l.1-.7c-.7.7-1.5 1.1-2.3 1.1-.8 0-1.5-.3-2.1-.9-.6-.6-.8-1.5-.8-2.6 0-.9.2-1.8.7-2.6.4-.8 1-1.4 1.6-1.8.6-.4 1.2-.6 1.9-.6 1.1 0 1.9.5 2.5 1.5l.3-1.4h1.3l-1.7 8c-.2.9-.4 1.6-.7 2.1-.3.5-.7.9-1.2 1.1-.5.3-1.1.4-1.8.4s-1.2-.1-1.7-.3c-.5-.2-.8-.4-1.1-.8s-.4-.7-.4-1.1v-.2zm1.8-4.4c0 .6.1 1 .2 1.3.2.4.4.7.7.9.3.2.6.3 1 .3.5 0 .9-.2 1.4-.5.5-.3.8-.8 1.1-1.5.3-.7.4-1.3.4-2s-.2-1.2-.6-1.6c-.4-.4-.8-.6-1.4-.6-.3 0-.7.1-1 .3-.3.2-.6.5-.9.8s-.5.8-.6 1.4-.3.9-.3 1.2zM-3770.8 4278.6c.4.5.9.9 1.6 1.3l-.7.9c-.7-.5-1.3-1-1.9-1.6-.8.4-1.5.5-2.2.5-.6 0-1.2-.1-1.9-.3-.7-.2-1.2-.5-1.7-1s-.8-1-1.1-1.7-.4-1.4-.4-2.3c0-1 .2-1.9.6-2.9.3-.8.7-1.4 1.2-1.9s1.1-1 1.7-1.3c.8-.4 1.7-.6 2.6-.6 1.4 0 2.6.5 3.5 1.4.9.9 1.3 2.2 1.3 3.7 0 1.2-.2 2.2-.7 3.2s-1.1 2-1.9 2.6zm-.9-1c.6-.5 1.1-1.2 1.5-2 .4-.9.6-1.8.6-2.7 0-1.2-.3-2.1-1-2.8-.6-.7-1.4-1-2.3-1-.8 0-1.5.2-2.2.7-.7.5-1.3 1.1-1.7 2-.4.9-.6 1.8-.6 2.8 0 1.3.4 2.3 1.2 3 .6.5 1.3.8 2 .8.6 0 1.1-.1 1.5-.3-.5-.4-1-.8-1.5-1l.6-1c.3.1.6.3.9.5s.6.6 1 1zM-3761.8 4278.1c-1 1.1-2 1.7-3.1 1.7-.6 0-1.2-.2-1.6-.6-.4-.4-.6-.8-.6-1.3 0-.3.1-.9.3-1.8l1-4.8h1.4l-1.1 5.3c-.1.4-.1.8-.1 1 0 .3.1.6.3.7.2.2.5.3.8.3.4 0 .8-.1 1.2-.3.4-.2.7-.5 1-.8s.5-.7.7-1.2c.1-.3.2-.8.4-1.5l.8-3.6h1.4l-1.7 8.3h-1.3l.2-1.4zM-3753 4278.5c-.5.4-1 .7-1.4.9s-.9.3-1.5.3c-.8 0-1.4-.2-1.9-.7-.5-.5-.7-1-.7-1.7 0-.5.1-.9.3-1.2.2-.4.5-.6.8-.9.3-.2.8-.4 1.3-.5.3-.1.9-.1 1.8-.1s1.5-.1 1.9-.3c.1-.4.2-.7.2-1 0-.3-.1-.6-.4-.8-.3-.3-.8-.4-1.4-.4-.6 0-1.1.1-1.5.4-.4.3-.7.6-.8 1.1l-1.4-.1c.3-.8.8-1.5 1.4-1.9s1.4-.7 2.4-.7 1.8.2 2.4.7c.5.4.7.8.7 1.4 0 .4-.1 1-.2 1.5l-.5 2.1c-.1.7-.2 1.2-.2 1.6 0 .3.1.6.2 1.1h-1.4s-.1-.4-.1-.8zm.5-3.1c-.2.1-.4.1-.6.2-.2 0-.6.1-1.1.1-.8.1-1.4.2-1.7.3-.3.1-.6.3-.8.5s-.3.5-.3.8c0 .4.1.7.4 1 .3.3.7.4 1.2.4s.9-.1 1.4-.4c.4-.2.8-.6 1-1 .2-.5.4-1.1.5-1.9zM-3749.8 4279.6l2.4-11.5h1.4l-2.4 11.5h-1.4zM-3746.2 4279.6l1.7-8.3h1.4l-1.7 8.3h-1.4zm2.1-9.9l.3-1.6h1.4l-.3 1.6h-1.4zM-3739.3 4278.4l-.2 1.2c-.3.1-.7.1-1 .1-.6 0-1-.1-1.3-.4-.3-.2-.4-.5-.4-.9 0-.2.1-.6.2-1.3l1-4.8h-1.1l.2-1.1h1.1l.4-2 1.6-1-.6 3h1.4l-.2 1.1h-1.4l-1 4.6c-.1.6-.2.9-.2 1 0 .2 0 .3.1.4.1.1.3.1.5.1.4.1.7.1.9 0zM-3738.7 4282.8l.1-1.3c.3.1.6.1.9.1.3 0 .5-.1.7-.2.2-.2.5-.5.8-1l.5-.8-1.4-8.3h1.4l.6 4.2c.1.8.2 1.7.3 2.5l3.7-6.7h1.5l-5.3 9.4c-.5.9-1 1.5-1.4 1.8-.4.3-.9.4-1.4.4-.3 0-.6 0-1-.1zM-3725.1 4275.9l1.5-.1v.4c0 .4.1.8.3 1.2s.5.7 1 .9c.5.2 1 .3 1.7.3.9 0 1.6-.2 2.1-.6.5-.4.7-.9.7-1.4 0-.4-.1-.7-.4-1-.3-.3-1-.7-2.1-1.2-.9-.4-1.5-.7-1.8-.9-.5-.3-.9-.7-1.1-1.1s-.4-.9-.4-1.4c0-.6.2-1.1.5-1.6s.8-.8 1.4-1.1c.6-.3 1.3-.4 2.1-.4.9 0 1.7.2 2.4.5.6.3 1.1.7 1.4 1.3.3.5.4 1 .4 1.5v.2l-1.5.1c0-.3 0-.6-.1-.8-.1-.3-.3-.6-.5-.8s-.5-.4-.9-.5-.8-.2-1.3-.2c-.8 0-1.5.2-1.9.6-.4.3-.5.7-.5 1.1 0 .3.1.5.2.8.1.2.4.4.8.7.3.2.9.5 1.9.9.8.4 1.4.7 1.7.9.4.3.7.6 1 1 .2.4.3.8.3 1.3 0 .6-.2 1.2-.6 1.7-.4.5-.9.9-1.6 1.2s-1.4.4-2.3.4c-1.3 0-2.4-.3-3.2-.8s-1.2-1.7-1.2-3.1zM-3714.8 4276.4c0-1.6.5-3 1.4-4 .8-.9 1.8-1.3 3.1-1.3 1 0 1.8.3 2.4.9s.9 1.5.9 2.5-.2 1.8-.6 2.7-.9 1.5-1.6 1.9c-.7.4-1.5.7-2.2.7-.6 0-1.2-.1-1.8-.4-.5-.3-.9-.7-1.2-1.2-.2-.5-.4-1.1-.4-1.8zm1.5-.1c0 .8.2 1.4.6 1.8.4.4.9.6 1.4.6.3 0 .6-.1.9-.2.3-.1.6-.3.8-.6.3-.3.5-.5.7-.9.2-.3.3-.7.4-1 .2-.5.2-1 .2-1.5 0-.8-.2-1.3-.6-1.7-.4-.4-.9-.6-1.4-.6-.4 0-.8.1-1.2.3-.4.2-.7.5-1 .9s-.5.9-.6 1.4c-.2.6-.2 1-.2 1.5zM-3705.9 4279.6l1.5-7.2h-1.3l.2-1.1h1.3l.2-1.2c.1-.6.3-1 .4-1.3s.3-.5.6-.6c.3-.2.7-.3 1.2-.3.4 0 .9.1 1.6.2l-.3 1.2c-.5-.1-.9-.2-1.2-.2-.3 0-.5.1-.6.2-.1.1-.3.5-.4 1l-.2.9h1.6l-.2 1.1h-1.6l-1.5 7.2h-1.3zM-3698.4 4278.4l-.2 1.2c-.3.1-.7.1-1 .1-.6 0-1-.1-1.3-.4-.3-.2-.4-.5-.4-.9 0-.2.1-.6.2-1.3l1-4.8h-1.1l.2-1.1h1.1l.4-2 1.6-1-.6 3h1.4l-.2 1.1h-1.4l-1 4.6c-.1.6-.2.9-.2 1 0 .2 0 .3.1.4.1.1.3.1.5.1.4.1.7.1.9 0zM-3695.6 4279.6l-.9-8.3h1.4l.4 3.7.1 2.1v.9c.2-.5.3-.9.4-1.2s.3-.7.5-1.2l2-4.3h1.5l.3 4.1c0 .6.1 1.5.1 2.5.3-.7.7-1.7 1.3-2.9l1.8-3.8h1.4l-4.1 8.3h-1.5l-.3-4.9v-1.8c-.2.6-.5 1.2-.8 1.8l-2.2 4.8h-1.4zM-3680.1 4278.5c-.5.4-1 .7-1.4.9s-.9.3-1.5.3c-.8 0-1.4-.2-1.9-.7-.5-.5-.7-1-.7-1.7 0-.5.1-.9.3-1.2.2-.4.5-.6.8-.9.3-.2.8-.4 1.3-.5.3-.1.9-.1 1.8-.1s1.5-.1 1.9-.3c.1-.4.2-.7.2-1 0-.3-.1-.6-.4-.8-.3-.3-.8-.4-1.4-.4-.6 0-1.1.1-1.5.4-.4.3-.7.6-.8 1.1l-1.4-.1c.3-.8.8-1.5 1.4-1.9s1.4-.7 2.4-.7 1.8.2 2.4.7c.5.4.7.8.7 1.4 0 .4-.1 1-.2 1.5l-.5 2.1c-.1.7-.2 1.2-.2 1.6 0 .3.1.6.2 1.1h-1.4s0-.4-.1-.8zm.6-3.1c-.2.1-.4.1-.6.2-.2 0-.6.1-1.1.1-.8.1-1.4.2-1.7.3-.3.1-.6.3-.8.5s-.3.5-.3.8c0 .4.1.7.4 1 .3.3.7.4 1.2.4s.9-.1 1.4-.4c.4-.2.8-.6 1-1 .1-.5.3-1.1.5-1.9zM-3676.7 4279.6l1.7-8.3h1.3l-.4 1.7c.4-.6.8-1.1 1.3-1.4.4-.3.8-.5 1.3-.5.3 0 .6.1 1 .3l-.6 1.3c-.2-.2-.5-.3-.8-.3-.5 0-1 .3-1.5.8-.5.6-.9 1.5-1.2 3l-.7 3.3h-1.4zM-3665.3 4276.7l1.4.1c-.2.7-.7 1.3-1.4 1.9-.7.6-1.6.9-2.5.9-.6 0-1.2-.1-1.7-.4-.5-.3-.9-.7-1.2-1.2-.3-.5-.4-1.2-.4-1.9 0-.9.2-1.8.6-2.6.4-.9 1-1.5 1.6-1.9s1.4-.6 2.2-.6c1 0 1.8.3 2.4.9.6.6.9 1.5.9 2.5 0 .4 0 .8-.1 1.3h-6.1v.4c0 .8.2 1.4.5 1.8.4.4.8.6 1.3.6s1-.2 1.4-.5c.5-.2.8-.7 1.1-1.3zm-4.1-2h4.7v-.3c0-.7-.2-1.3-.5-1.6-.4-.4-.8-.6-1.4-.6-.6 0-1.2.2-1.7.6-.5.4-.9 1-1.1 1.9z"/>
  <path fill="#5078bb" d="M-4024 4285.4h66.5v3h-66.5z"/>
  <path fill="#4bc6df" d="M-3960 4285.4h91v3h-91z"/>
  <path fill="#f4cf3e" d="M-3869 4285.4h91v3h-91z"/>
  <path fill="#c5da4c" d="M-3779.2 4285.4h127.6v3h-127.6z"/>
</svg>
