<svg xmlns="http://www.w3.org/2000/svg" viewBox="0 0 496.77 198.1">
  <defs>
    <clipPath id="a">
      <path d="M0 169h19v29.102H0zm0 0"/>
    </clipPath>
    <clipPath id="b">
      <path d="M29 169h19v29.102H29zm0 0"/>
    </clipPath>
    <clipPath id="c">
      <path d="M57 169h33v29.102H57zm0 0"/>
    </clipPath>
    <clipPath id="d">
      <path d="M100 169h17v29.102h-17zm0 0"/>
    </clipPath>
    <clipPath id="e">
      <path d="M128 169h20v29.102h-20zm0 0"/>
    </clipPath>
    <clipPath id="f">
      <path d="M176 169h19v29.102h-19zm0 0"/>
    </clipPath>
    <clipPath id="g">
      <path d="M206 169h16v29.102h-16zm0 0"/>
    </clipPath>
    <clipPath id="h">
      <path d="M249 169h20v29.102h-20zm0 0"/>
    </clipPath>
    <clipPath id="i">
      <path d="M279 169h7v29.102h-7zm0 0"/>
    </clipPath>
    <clipPath id="j">
      <path d="M296 169h27v29.102h-27zm0 0"/>
    </clipPath>
    <clipPath id="k">
      <path d="M333 169h19v29.102h-19zm0 0"/>
    </clipPath>
    <clipPath id="l">
      <path d="M361 169h15v29.102h-15zm0 0"/>
    </clipPath>
    <clipPath id="m">
      <path d="M385 169h7v29.102h-7zm0 0"/>
    </clipPath>
    <clipPath id="n">
      <path d="M401 169h20v29.102h-20zm0 0"/>
    </clipPath>
    <clipPath id="o">
      <path d="M432 169h7v29.102h-7zm0 0"/>
    </clipPath>
    <clipPath id="p">
      <path d="M448 169h19v29.102h-19zm0 0"/>
    </clipPath>
    <clipPath id="q">
      <path d="M475 169h21.77v29.102H475zm0 0"/>
    </clipPath>
  </defs>
  <g clip-path="url(#a)">
    <path d="M8.598 182.281H5.539v-7.976h3.059c2.77 0 4.226 1.402 4.226 4.058 0 2.66-1.457 3.918-4.226 3.918zm-.582-12.316H0v28.137h5.54v-11.34h2.476c6.992 0 10.343-3.078 10.343-8.399 0-5.316-3.351-8.398-10.343-8.398" fill-rule="evenodd" fill="#231f20"/>
  </g>
  <g clip-path="url(#b)">
    <path d="M41.969 189.281c0 3.219-1.313 4.059-3.645 4.059-2.183 0-3.64-.84-3.64-4.059v-11.476c0-3.082 1.457-3.922 3.64-3.922 2.332 0 3.645.84 3.645 3.922zm-3.645-20.156c-5.39 0-9.18 2.52-9.18 9.379v10.078c0 6.996 3.79 9.516 9.18 9.516 5.54 0 9.328-2.52 9.328-9.516v-10.078c0-6.86-3.789-9.379-9.328-9.379" fill-rule="evenodd" fill="#231f20"/>
  </g>
  <g clip-path="url(#c)">
    <path d="M80.73 188.305h-.144l-4.082-18.34h-5.39l-3.934 18.34h-.149l-3.933-18.34h-5.246l6.12 28.137h5.391l4.52-19.317 4.078 19.317h5.39l6.56-28.137h-5.247l-3.934 18.34" fill-rule="evenodd" fill="#231f20"/>
  </g>
  <g clip-path="url(#d)">
    <path d="M106.23 185.922h7.434v-4.758h-7.434v-6.437h9.766v-4.762h-15.3v28.137h15.738v-4.758H106.23v-7.422" fill-rule="evenodd" fill="#231f20"/>
  </g>
  <g clip-path="url(#e)">
    <path d="M136.836 182.145h-2.918v-7.84h2.918c2.476 0 3.934 1.261 3.934 3.922 0 2.796-1.458 3.918-3.934 3.918zm9.469-3.782c0-5.316-3.203-8.398-9.907-8.398h-8.164v28.137h5.684v-11.48h2.625l4.953 11.48h5.977l-5.54-12.598c3.208-1.121 4.372-3.64 4.372-7.14" fill-rule="evenodd" fill="#231f20"/>
  </g>
  <g clip-path="url(#f)">
    <path d="M189.293 189.281c0 3.219-1.457 4.059-3.79 4.059-2.183 0-3.64-.84-3.64-4.059v-11.476c0-3.082 1.457-3.922 3.64-3.922 2.333 0 3.79.84 3.79 3.922zm-3.79-20.156c-5.39 0-9.179 2.52-9.179 9.379v10.078c0 6.996 3.79 9.516 9.18 9.516 5.539 0 9.328-2.52 9.328-9.516v-10.078c0-6.86-3.789-9.379-9.328-9.379" fill-rule="evenodd" fill="#231f20"/>
  </g>
  <g clip-path="url(#g)">
    <path d="M206.637 198.102h5.683v-12.18h6.993v-4.758h-6.993v-6.437h9.035v-4.762h-14.718v28.137" fill-rule="evenodd" fill="#231f20"/>
  </g>
  <g clip-path="url(#h)">
    <path d="M255.89 176.684c0-1.961 1.02-3.082 3.06-3.082 1.894 0 3.206 1.12 4.081 3.78l5.102-1.398c-1.024-4.062-4.082-6.859-9.035-6.859-5.832 0-8.891 3.078-8.891 7.84 0 7.976 12.531 7.976 12.531 13.297 0 2.097-1.457 3.355-3.351 3.355-1.746 0-3.79-1.258-4.371-4.617l-5.54 1.121c1.462 5.598 4.958 7.977 9.622 7.977 5.828 0 9.324-3.22 9.324-8.118 0-8.82-12.531-9.097-12.531-13.296" fill-rule="evenodd" fill="#231f20"/>
  </g>
  <g clip-path="url(#i)">
    <path d="M279.645 198.102h5.68v-28.137h-5.68v28.137" fill-rule="evenodd" fill="#231f20"/>
  </g>
  <g clip-path="url(#j)">
    <path d="M309.66 188.441h-.144l-4.954-18.476h-7.87v28.137h4.808v-22.118l5.977 22.118h4.226l5.973-22.118h.144v22.118h4.813v-28.137h-7.871l-5.102 18.476" fill-rule="evenodd" fill="#231f20"/>
  </g>
  <g clip-path="url(#k)">
    <path d="M342.156 182.281h-3.058v-7.976h3.058c2.77 0 4.227 1.402 4.227 4.058 0 2.66-1.457 3.918-4.227 3.918zm-.582-12.316h-8.012v28.137h5.536v-11.34h2.476c6.996 0 10.348-3.078 10.348-8.399 0-5.316-3.352-8.398-10.348-8.398" fill-rule="evenodd" fill="#231f20"/>
  </g>
  <g clip-path="url(#l)">
    <path d="M366.785 169.965h-5.683v28.137h14.574v-4.758h-8.89v-23.38" fill-rule="evenodd" fill="#231f20"/>
  </g>
  <g clip-path="url(#m)">
    <path d="M385.586 198.102h5.535v-28.137h-5.535v28.137" fill-rule="evenodd" fill="#231f20"/>
  </g>
  <g clip-path="url(#n)">
    <path d="M410.938 169.125c-5.391 0-9.18 2.52-9.18 9.379v10.078c0 6.996 3.789 9.516 9.18 9.516 5.539 0 9.328-2.52 9.328-9.516v-1.121h-5.536v1.82c0 3.219-1.46 4.059-3.793 4.059-2.183 0-3.64-.84-3.64-4.059v-11.476c0-3.082 1.457-3.922 3.64-3.922 2.333 0 3.793.84 3.793 3.922v.836h5.536v-.137c0-6.86-3.79-9.379-9.329-9.379" fill-rule="evenodd" fill="#231f20"/>
  </g>
  <g clip-path="url(#o)">
    <path d="M432.508 198.102h5.535v-28.137h-5.535v28.137" fill-rule="evenodd" fill="#231f20"/>
  </g>
  <g clip-path="url(#p)">
    <path d="M448.242 174.727h6.559v23.375h5.539v-23.375h6.558v-4.762h-18.656v4.762" fill-rule="evenodd" fill="#231f20"/>
  </g>
  <g clip-path="url(#q)">
    <path d="M490.797 169.965l-4.813 11.34-4.953-11.34h-5.972l8.011 16.797v11.34h5.688v-11.34l8.012-16.797h-5.973" fill-rule="evenodd" fill="#231f20"/>
  </g>
  <path d="M227.89 57.855c.497 2.375.57 5.649-1.742 8.149-3.398 3.832-13.296 13.058-13.296 13.058s-3.993 2.41-2.07 5.11c.394.598 1.027.832 1.78.84.754-1.032 1.868-1.692 1.868-1.692s9.898-9.226 13.445-13.058c3.398-3.836 1.332-9.512.738-11.075-.129-.316-.375-.773-.722-1.332M207.086 56.492c-2.066.992-11.527 8.23-15.074 10.93-3.399 2.695-12.117 10.36-12.117 10.36s-4.73 4.116-3.102 6.245c.605.797 1.215 1.176 1.871 1.301.996-1.707 2.809-3.289 2.809-3.289s8.718-7.66 12.117-10.36c3.547-2.84 13.004-9.937 15.074-10.929 1.606-.773 2.856-1.535 4.234-1.047.582-.918 1.04-2.168-.343-3.496-1.922-1.703-3.399-.71-5.47.285" fill="#ed1c24"/>
  <path d="M242.555 89.563c-2.07-3.547-2.22-6.102-4.582-4.399-2.364 1.563-14.63 8.8-21.133 10.645-6.653 1.847-8.278 2.699-11.973 2.129-3.84-.708-7.976-2.27-9.308-4.54-1.477-2.273-1.774-2.84-3.399-1.421-1.625 1.277-6.355 4.968-9.902 4.543-3.692-.426-12.856-2.555-17.88-11.922-.097-.176-.167-.336-.257-.508.39 1.422 1.031 2.992 1.98 4.765 5.028 9.227 14.188 11.497 17.735 11.922 3.547.285 8.277-3.261 9.902-4.683 1.774-1.278 1.922-.711 3.399 1.562 1.476 2.27 5.468 3.832 9.308 4.399 3.696.71 5.325-.14 11.973-2.13 6.504-1.843 18.77-8.94 21.133-10.644 2.363-1.562 2.66.992 4.582 4.543 2.066 3.547 6.945 4.824 11.23 5.11 4.434.425 6.5-.711 9.309-1.844 2.808-1.278 10.348-4.969 12.562-6.39 2.215-1.419 2.66-1.56 3.547.57.887 2.27 1.035 3.972 7.832 8.656 6.653 4.543 17.883 1.988 20.543.996 2.512-.856 7.387-3.125 8.57-3.832 1.18-.856 2.364 1.273 4.88 3.832 1.675 1.523 4.359 2.023 6.886 1.656a444.963 444.963 0 004.094-5.348s1.629-2.414-1.625-.285c-3.25 1.989-8.422 2.133-10.938-.285-2.66-2.555-3.691-4.539-4.875-3.832-1.183.711-6.058 3.125-8.718 3.977-2.512.851-13.743 3.406-20.395-1.137-6.797-4.543-6.945-6.387-7.832-8.516-.887-2.273-1.332-2.129-3.547-.71-2.219 1.562-9.754 5.109-12.558 6.386-2.813 1.277-4.88 2.274-9.313 1.988-4.285-.425-9.164-1.703-11.23-5.254M391.074 63.73c-3.398 3.125-14.926 13.344-19.36 17.602-4.433 4.117-17.882 17.887-20.245 20.582-2.364 2.84-8.723 8.8-6.063 9.082.473.05 1.489.219 2.86.465 1.543-1.86 3.629-3.977 4.78-5.29 2.364-2.694 15.813-16.464 20.247-20.722 4.434-4.117 15.96-14.48 19.36-17.601 2.847-2.5-.317-3.899-1.419-4.285-.058.054-.097.109-.16.167M355.016 54.93c-3.547 3.406-11.825 11.925-13.598 14.05-1.773 2.133-8.863 9.938-10.195 12.352-1.328 2.27-3.106 4.969-1.328 5.961.414.266.988.379 1.671.371.375-.723.825-1.477 1.235-2.215 1.328-2.273 8.422-10.078 10.195-12.207 1.774-2.129 10.05-10.648 13.598-14.195 2.09-2.098.597-3.387-1.512-4.2-.023.028-.039.055-.066.083M114.676 14.191s3.695 3.832 5.32 5.25c1.477 1.563 4.137 5.114 7.832 3.551 3.844-1.562 23.203-3.55 29.555-4.258 2.691-.3 5.246-.32 7.3-.246 1.77-2.328 2.946-3.87 2.946-3.87s-5.469-.852-11.824-.141c-6.356.851-25.711 2.695-29.555 4.398-3.695 1.563-6.355-2.129-7.832-3.547-.906-.871-2.45-2.445-3.645-3.668-1.375 1.02-.097 2.531-.097 2.531M316.445 120.367c2.512-2.27-1.48-1.703-2.808-1.988-1.332-.14-26.75-1.559-34.285-1.418-7.54.14-33.989.14-43.45.71-9.457.708-44.183 3.833-53.347 5.391-9.164 1.422-45.961 6.817-50.985 7.81-5.023.991-14.925 2.694-14.925 2.694s-5.024 1.282-9.903-.992c-1.8-.84-4.008-1.797-5.734-2.765-4.223 2.097 2.805 4.925 7.312 7.023 5.028 2.129 9.903.996 9.903.996s9.902-1.848 14.925-2.84c5.024-.996 41.97-6.246 51.133-7.808 9.16-1.418 43.742-4.684 53.2-5.25 9.457-.57 36.058-.57 43.449-.711 7.117-.133 30.312 1 33.86 1.363.64-.984 1.21-1.762 1.655-2.215M398.277 128.871c-.77 1.613-2.718 5.524-3.656 5.977-1.183.422-3.254.422-7.832-1.422-4.582-1.844-25.715-7.238-31.476-8.235-5.618-1.132-18.625-3.406-18.625-3.406s-1.625-.992-4.286 3.266a10233.607 10233.607 0 01-11.082 16.183s-.59 1.703-2.066 1.703c-1.629 0-8.426-.425-10.938-1.843l-.023-.012c-.059.098-.121.211-.172.293-1.476 2.695-.887 2.555 1.774 3.977 2.511 1.418 9.308 1.843 10.933 1.843 1.48 0 2.07-1.703 2.07-1.703s8.422-12.066 11.082-16.324c2.665-4.117 4.29-3.125 4.29-3.125s13.003 2.129 18.617 3.266c5.765 1.136 26.898 6.53 31.476 8.375 4.73 1.847 6.801 1.847 7.985 1.277 1.03-.426 3.988-6.527 3.988-6.527.176-1.84-.887-2.891-2.059-3.563M343.34 28.242c-3.695 2.7-22.758 17.746-27.93 23.281-5.023 5.536-15.37 17.036-19.36 22.145-3.843 5.25-6.355 7.664-3.398 11.07.137.168.278.317.418.461.45-1.957 2.352-4.054 4.703-7.273 3.844-5.254 14.192-16.61 19.364-22.145 5.172-5.535 24.086-20.582 27.781-23.277 3.695-2.7 1.477-3.691 1.477-3.691s-.993-.583-2.207-1.25a11.25 11.25 0 01-.848.68M306.246 23.418c-3.988 3.266-17.883 14.902-21.277 18.453-3.547 3.55-13.598 13.625-16.852 17.316-3.25 3.692-12.41 14.622-13.742 16.75-1.477 2.13-2.215 4.543 0 5.961.156.11.32.2.492.278.25-.656.633-1.324 1.086-1.98 1.48-2.13 10.492-13.06 13.742-16.75 3.254-3.688 13.301-13.766 16.852-17.317 3.394-3.691 17.289-15.328 21.426-18.453 3.605-2.844.144-4.719-.805-5.153a5.965 5.965 0 01-.922.895M235.164 13.48s1.477 2.7-3.695 2.274c-5.172-.426-13.45-.711-19.211-1.137-5.613-.426-19.36-1.418-21.43-1.277-2.066.14-2.512 0-3.691 1.703a2165.659 2165.659 0 01-7.98 10.363c-1.333 1.703-7.095 9.227-11.973 15.754-4.875 6.531-11.082 14.906-16.551 23.563-5.469 8.66-10.344 16.609-12.41 20.156-2.07 3.55-2.957 5.82-3.403 6.672-.293.851-.738 2.414-3.101 2.554-2.512 0-14.04-.28-14.04-.28s-.316.015-.742-.044c-2.039 4.531 2.32 4.156 2.32 4.156s11.528.426 14.04.286c2.363-.141 2.808-1.563 3.25-2.41.297-.852 1.183-3.126 3.25-6.672 2.07-3.692 7.094-11.641 12.414-20.301 5.469-8.656 11.676-16.89 16.55-23.422 4.88-6.672 10.641-14.05 11.973-15.754 1.328-1.848 6.797-8.8 7.98-10.504 1.18-1.562 1.774-1.422 3.692-1.562 2.07-.141 15.817.851 21.43 1.277 5.766.285 14.187.71 19.21 1.137 5.173.285 3.696-2.274 3.696-2.274s.297-3.261-1.183-6.953a10.282 10.282 0 00-.758-1.504c.527 2.39.363 4.2.363 4.2" fill="#ed1c24"/>
  <path d="M394.473 123.633c1.18.71 4.582 1.558 4.136 4.543 0 0-2.804 6.101-3.988 6.672-1.183.422-3.254.422-7.832-1.422-4.582-1.844-25.715-7.238-31.476-8.235-5.618-1.132-18.625-3.406-18.625-3.406s-1.625-.992-4.286 3.266a10233.607 10233.607 0 01-11.082 16.183s-.59 1.703-2.066 1.703c-1.629 0-8.426-.425-10.938-1.843-2.66-1.281-3.25-1.137-1.773-3.977 1.625-2.699 7.535-14.336 9.902-16.75 2.512-2.27-1.48-1.703-2.808-1.988-1.332-.14-26.75-1.559-34.285-1.418-7.54.14-33.989.14-43.45.71-9.457.708-44.183 3.833-53.347 5.391-9.164 1.422-45.961 6.817-50.985 7.81-5.023.991-14.925 2.694-14.925 2.694s-5.024 1.282-9.903-.992c-4.875-2.27-12.707-5.394-6.058-7.383 6.796-2.129 39.457-8.656 49.656-10.218 10.195-1.418 41.969-6.106 55.418-6.813 13.297-.71 49.355-2.7 62.953-2.555 13.445.141 32.215.993 40.195 1.56 7.98.57 13.301.995 14.781 1.276 1.625.286 1.774-.847 3.25-2.695 1.625-1.844 6.649-8.516 6.649-8.516s1.629-2.414-1.625-.285c-3.25 1.989-8.422 2.133-10.938-.285-2.66-2.555-3.691-4.539-4.875-3.832-1.183.711-6.058 3.125-8.718 3.977-2.512.851-13.743 3.406-20.395-1.137-6.797-4.543-6.945-6.387-7.832-8.516-.887-2.273-1.332-2.129-3.547-.71-2.219 1.562-9.754 5.109-12.558 6.386-2.813 1.277-4.88 2.274-9.313 1.988-4.285-.425-9.164-1.703-11.23-5.254-2.07-3.546-2.22-6.101-4.582-4.398-2.364 1.563-14.63 8.8-21.133 10.645-6.653 1.847-8.278 2.699-11.973 2.129-3.84-.708-7.976-2.27-9.308-4.54-1.477-2.273-1.774-2.84-3.399-1.421-1.625 1.277-6.355 4.968-9.902 4.543-3.692-.426-12.856-2.555-17.88-11.922-5.026-9.227-1.331-13.203 3.102-17.743 4.583-4.687 12.563-11.5 12.563-11.5s9.902-7.238 13.3-8.945c3.4-1.558 8.571-4.68 12.118-4.965 3.398-.14 8.422.14 13.3 3.977 4.876 3.832 7.536 8.09 8.274 9.648.594 1.422 2.66 7.098-.887 10.934-3.398 3.832-13.296 13.058-13.296 13.058s-3.993 2.41-2.07 5.11c1.773 2.695 8.273-1.703 10.343-3.266 2.219-1.418 13.598-11.215 17.145-14.476 3.398-3.41 25.566-24.985 27.488-26.832 1.918-1.985 20.242-20.438 23.05-22.141 2.66-1.703 3.696-2.98 8.57-1.988 4.88.992 7.833 2.695 7.833 2.695s5.176 1.988 1.035 5.254c-3.988 3.266-17.883 14.902-21.277 18.453-3.547 3.55-13.598 13.625-16.852 17.316-3.25 3.692-12.41 14.622-13.742 16.75-1.477 2.13-2.215 4.543 0 5.961 2.219 1.563 6.063-.14 10.2-3.406 4.136-3.406 16.109-13.77 20.394-18.027 4.136-4.258 27.191-26.117 29.258-27.82 2.07-1.848 12.71-10.364 12.71-10.364s1.329-1.843 4.43-1.843c3.106 0 6.207.566 8.13 1.417 1.921.711 5.32 2.84 5.32 2.84s2.218.852-1.477 3.547c-3.695 2.7-22.758 17.746-27.93 23.281-5.023 5.536-15.37 17.036-19.36 22.145-3.843 5.25-6.355 7.664-3.398 11.07 2.953 3.547 6.5 2.7 8.274 2.13 1.773-.567 7.683-4.825 11.972-9.227 4.286-4.258 17.735-18.594 19.063-20.442 1.476-1.703 6.355-6.672 6.355-6.672s1.036-1.984 3.84-1.984c2.809 0 4.582.426 7.39.992 2.81.711 8.868 1.844 5.47 5.395-3.547 3.406-11.825 11.925-13.598 14.05-1.773 2.133-8.863 9.938-10.195 12.352-1.328 2.27-3.106 4.969-1.328 5.961 1.77 1.137 6.351-.426 10.785-2.98 4.582-2.415 11.23-6.672 16.996-11.782a3689.771 3689.771 0 0115.074-13.625s1.477-3.55 8.273-1.992c6.653 1.422 8.278 2.273 8.278 2.273s5.172 1.422 1.773 4.543c-3.398 3.125-14.926 13.344-19.36 17.602-4.433 4.117-17.882 17.887-20.245 20.582-2.364 2.84-8.723 8.8-6.063 9.082 2.66.285 22.614 4.262 27.344 5.54 4.727 1.136 20.395 6.526 21.723 7.097zM188.172-.004h-2.445c-10.395.133-36.055 1.61-41.743 2.129-6.207.566-25.863 3.977-29.41 4.828-3.547.852-1.476 2.98-1.476 2.98s3.695 3.833 5.32 5.395c1.477 1.418 4.137 5.11 7.832 3.547 3.844-1.703 23.2-3.547 29.555-4.398 6.355-.711 11.824.14 11.824.14S150.78 36.762 148.12 40.45c-2.809 3.551-17.14 23.422-19.95 27.54-2.808 4.257-9.456 15.331-12.562 20.726-2.953 5.39 2.07 5.11 2.07 5.11s11.528.28 14.04.28c2.363-.14 2.808-1.703 3.101-2.554.446-.852 1.332-3.121 3.403-6.672 2.066-3.547 6.941-11.496 12.41-20.156 5.469-8.657 11.676-17.032 16.55-23.563 4.88-6.527 10.641-14.05 11.973-15.754 1.328-1.707 6.797-8.8 7.98-10.363 1.18-1.703 1.626-1.563 3.692-1.703 2.07-.14 15.817.851 21.43 1.277 5.762.426 14.039.711 19.21 1.137 5.173.426 3.696-2.274 3.696-2.274s.297-3.261-1.184-6.812c-1.625-3.691-2.953-3.121-2.953-3.121-7.39-2.133-35.023-3.55-42.855-3.55zm11.523 74.098c3.844-2.7 12.118-12.633 12.563-13.485.594-.851 2.219-2.554.297-4.402-1.922-1.703-3.399-.71-5.47.285-2.065.992-11.526 8.23-15.073 10.93-3.399 2.695-12.117 10.36-12.117 10.36s-4.73 4.116-3.102 6.245c1.625 2.13 3.25 1.278 5.762.57 2.66-.71 13.152-7.808 17.14-10.503" fill-rule="evenodd" fill="#231f20"/>
</svg>
