<?xml version="1.0" encoding="UTF-8"?>
<svg version="1.1" xmlns="http://www.w3.org/2000/svg" width="391" height="280">
<path d="M0 0 C0.17015625 0.70125 0.3403125 1.4025 0.515625 2.125 C2.07018789 8.21094833 3.95076504 13.52226719 7 19 C7.3815625 19.74121094 7.763125 20.48242188 8.15625 21.24609375 C10.59951319 25.88986001 13.26913781 29.76031561 16.86328125 33.58984375 C18 35 18 35 18 37 C18.598125 37.268125 19.19625 37.53625 19.8125 37.8125 C22.01819033 39.00987475 23.43583187 40.04478984 25 42 C25 42.99 25 43.98 25 45 C24.31711914 45.03963867 23.63423828 45.07927734 22.93066406 45.12011719 C-1.50880609 46.60204151 -22.82379241 51.13725698 -46 59 C-45.69804643 57.58665273 -45.39268334 56.17403368 -45.0859375 54.76171875 C-44.91626465 53.97498779 -44.7465918 53.18825684 -44.57177734 52.37768555 C-43.07281783 46.14439489 -40.69128071 41.25727858 -37 36 C-36.443125 34.96875 -35.88625 33.9375 -35.3125 32.875 C-33.27223436 29.2451298 -30.84589889 25.9070084 -28.375 22.5625 C-27.59898438 21.51191406 -26.82296875 20.46132812 -26.0234375 19.37890625 C-25.35570313 18.59386719 -24.68796875 17.80882813 -24 17 C-23.34 17 -22.68 17 -22 17 C-21.79375 16.44828125 -21.5875 15.8965625 -21.375 15.328125 C-19.48788097 12.13288937 -16.84313599 10.05669524 -14 7.75 C-13.18015625 7.06164062 -13.18015625 7.06164062 -12.34375 6.359375 C-8.26450893 3 -8.26450893 3 -6 3 C-6 2.34 -6 1.68 -6 1 C-3 0 -3 0 0 0 Z M-11.0625 12.875 C-11.79597656 13.40867187 -12.52945313 13.94234375 -13.28515625 14.4921875 C-13.85105469 14.98976563 -14.41695312 15.48734375 -15 16 C-15 16.66 -15 17.32 -15 18 C-15.66 18 -16.32 18 -17 18 C-18.66666667 19.33333333 -18.66666667 19.33333333 -20 21 C-20 21.66 -20 22.32 -20 23 C-20.66 23 -21.32 23 -22 23 C-28.23545101 29.97470551 -31.62383001 38.41735541 -35 47 C-31.68596423 48.10467859 -31.06254266 47.93238853 -27.88671875 46.890625 C-26.64764771 46.50221436 -26.64764771 46.50221436 -25.38354492 46.10595703 C-24.4938501 45.82349121 -23.60415527 45.54102539 -22.6875 45.25 C-11.59253241 41.87594337 -0.508134 40.22962254 11 39 C10.505 38.01 10.505 38.01 10 37 C9.34 37 8.68 37 8 37 C8 36.01 8 35.02 8 34 C7.34 34 6.68 34 6 34 C5.731875 33.443125 5.46375 32.88625 5.1875 32.3125 C4.03571706 29.99102068 4.03571706 29.99102068 2.65625 27.84375 C0.64239094 24.38599198 -1.02140426 20.82230177 -2.6875 17.1875 C-3.00783203 16.49462891 -3.32816406 15.80175781 -3.65820312 15.08789062 C-4.44131893 13.39308777 -5.22101041 11.69670336 -6 10 C-7.95060183 10 -9.56018393 11.76747246 -11.0625 12.875 Z " fill="#285286" transform="translate(95,103)"/>
<path d="M0 0 C7.18991081 -0.05068173 14.3797756 -0.08572588 21.56982422 -0.10986328 C24.01613079 -0.11992504 26.46242533 -0.13357581 28.90869141 -0.15087891 C32.42353282 -0.17511919 35.9382153 -0.18648138 39.453125 -0.1953125 C40.5480426 -0.20563507 41.64296021 -0.21595764 42.77105713 -0.22659302 C43.79181335 -0.22674408 44.81256958 -0.22689514 45.86425781 -0.22705078 C46.76138489 -0.231492 47.65851196 -0.23593323 48.58282471 -0.24050903 C51.1935015 0.01925341 52.79603179 0.59422005 55 2 C56.49498913 4.98997825 56.11577446 7.70042775 56 11 C54.66667905 14.99996286 52.5042173 15.83782337 49 18 C49.66 18.78375 50.32 19.5675 51 20.375 C53 23 53 23 53 25 C53.66 25 54.32 25 55 25 C55.268125 25.61875 55.53625 26.2375 55.8125 26.875 C56.95556848 29.2995233 56.95556848 29.2995233 60 31 C60 31.66 60 32.32 60 33 C55.17428602 34.05288305 55.17428602 34.05288305 52 33 C43 23.7642527 43 23.7642527 43 19 C42.34 19 41.68 19 41 19 C40.67 22.96 40.34 26.92 40 31 C41.32 31 42.64 31 44 31 C44 31.66 44 32.32 44 33 C39.05 33 34.1 33 29 33 C29 32.34 29 31.68 29 31 C30.32 30.67 31.64 30.34 33 30 C33.33 21.09 33.66 12.18 34 3 C32.35 3.33 30.7 3.66 29 4 C28.67 5.65 28.34 7.3 28 9 C27.01 9 26.02 9 25 9 C25 7.35 25 5.7 25 4 C22.69 4.33 20.38 4.66 18 5 C18 13.58 18 22.16 18 31 C19.32 31 20.64 31 22 31 C22 31.66 22 32.32 22 33 C16.72 33 11.44 33 6 33 C6 32.34 6 31.68 6 31 C7.65 31 9.3 31 11 31 C11 22.09 11 13.18 11 4 C8.69 4 6.38 4 4 4 C4 5.65 4 7.3 4 9 C2.68 8.67 1.36 8.34 0 8 C0 5.36 0 2.72 0 0 Z M40 3 C40 6.96 40 10.92 40 15 C45.67039718 15.57920713 45.67039718 15.57920713 48.375 13.3125 C50.15996763 11.10631424 50.15996763 11.10631424 50.5 8.4375 C50.19531074 5.91133964 50.19531074 5.91133964 48.375 4.1875 C45.54812793 2.5527864 45.54812793 2.5527864 40 3 Z " fill="#6A88AA" transform="translate(123,110)"/>
<path d="M0 0 C2.54166503 2.54166503 2.98414757 3.86090266 3.3984375 7.49609375 C3.39070313 8.79675781 3.38296875 10.09742187 3.375 11.4375 C3.38660156 13.38462891 3.38660156 13.38462891 3.3984375 15.37109375 C2.98793339 19.10990082 2.31641383 21.06775908 0 24 C-0.66 24 -1.32 24 -2 24 C-2 24.66 -2 25.32 -2 26 C-8.37571215 29.84948658 -13.55842704 31.09793699 -21 30 C-24.82648588 28.70135597 -27.3738659 26.84204241 -29.8125 23.5625 C-30.204375 22.716875 -30.59625 21.87125 -31 21 C-31.391875 20.195625 -31.78375 19.39125 -32.1875 18.5625 C-33.84903248 13.32228217 -33.14414396 9.81817281 -30.9375 4.875 C-27.88155002 -0.88195959 -24.75978726 -2.71375699 -18.625 -4.8125 C-11.37748605 -5.33017957 -5.96964246 -4.17874972 0 0 Z M-25 4 C-26.06401946 9.64556205 -26.18563269 16.11481018 -23.97265625 21.5 C-21.95555089 24.44288927 -20.39925621 25.8669146 -17 27 C-12.71724988 27.48483964 -10.47942896 27.24859279 -6.625 25.25 C-3.75161166 22.56100022 -3.41359356 19.96276347 -3 16.125 C-2.80322645 9.96447432 -2.9631599 5.48239888 -7 0.5625 C-13.99027227 -3.0782668 -20.14990379 -2.3731966 -25 4 Z " fill="#255085" transform="translate(262,114)"/>
<path d="M0 0 C0 2.64 0 5.28 0 8 C-1.32 8.33 -2.64 8.66 -4 9 C-4.12375 8.195625 -4.2475 7.39125 -4.375 6.5625 C-4.58125 5.716875 -4.7875 4.87125 -5 4 C-8.00313748 2.49843126 -10.79067522 2.90718796 -14.125 2.9375 C-15.40632813 2.94652344 -16.68765625 2.95554687 -18.0078125 2.96484375 C-18.99523437 2.97644531 -19.98265625 2.98804687 -21 3 C-21 3.66 -21 4.32 -21 5 C-21.97850195 6.02104551 -22.97980427 7.0206121 -24 8 C-25.85618207 11.71236414 -25.44809981 15.94843088 -25 20 C-22.83701163 24.40608743 -20.60319521 27.1987497 -16 29 C-12.65016685 29.23155529 -9.35139547 29.17570423 -6 29 C-6 26.69 -6 24.38 -6 22 C-7.98 21.67 -9.96 21.34 -12 21 C-12 20.01 -12 19.02 -12 18 C-7.38 18 -2.76 18 2 18 C2 18.99 2 19.98 2 21 C1.34 21 0.68 21 0 21 C0 24.3 0 27.6 0 31 C-7.15246536 33.6008965 -15.68245903 34.60656392 -22.9375 31.8125 C-27.55506793 29.07965367 -30.95629726 26.00480094 -33 21 C-33.265625 18.5625 -33.265625 18.5625 -33.25 16 C-33.25515625 15.154375 -33.2603125 14.30875 -33.265625 13.4375 C-32.66179804 7.89649967 -29.37045906 4.99507001 -25.265625 1.5546875 C-17.98868233 -3.43880075 -8.08035605 -2.69345202 0 0 Z " fill="#3F6291" transform="translate(300,111)"/>
<path d="M0 0 C0.92683594 -0.00257812 1.85367188 -0.00515625 2.80859375 -0.0078125 C5.51865514 0.1228855 7.94804676 0.39645747 10.5625 1.125 C12.05748913 4.11497825 11.67827446 6.82542775 11.5625 10.125 C10.22917905 14.12496286 8.0667173 14.96282337 4.5625 17.125 C5.2225 17.90875 5.8825 18.6925 6.5625 19.5 C8.5625 22.125 8.5625 22.125 8.5625 24.125 C9.2225 24.125 9.8825 24.125 10.5625 24.125 C10.830625 24.74375 11.09875 25.3625 11.375 26 C12.51806848 28.4245233 12.51806848 28.4245233 15.5625 30.125 C15.5625 30.785 15.5625 31.445 15.5625 32.125 C10.73678602 33.17788305 10.73678602 33.17788305 7.5625 32.125 C-1.4375 22.8892527 -1.4375 22.8892527 -1.4375 18.125 C-2.0975 18.125 -2.7575 18.125 -3.4375 18.125 C-3.4375 17.135 -3.4375 16.145 -3.4375 15.125 C-1.1275 14.465 1.1825 13.805 3.5625 13.125 C3.8925 10.485 4.2225 7.845 4.5625 5.125 C1.17680493 2.55626321 1.17680493 2.55626321 -5.4375 2.125 C-5.4375 11.035 -5.4375 19.945 -5.4375 29.125 C-6.7575 29.455 -8.0775 29.785 -9.4375 30.125 C-9.4375 20.555 -9.4375 10.985 -9.4375 1.125 C-5.99620705 0.26467676 -3.49097949 -0.00968372 0 0 Z " fill="#456592" transform="translate(167.4375,110.875)"/>
<path d="M0 0 C4.16204606 2.55398281 7.22931926 4.95054353 10 9 C10 9.66 10 10.32 10 11 C10.598125 11.268125 11.19625 11.53625 11.8125 11.8125 C14.01819033 13.00987475 15.43583187 14.04478984 17 16 C17 16.99 17 17.98 17 19 C16.26998779 19.0501123 15.53997559 19.10022461 14.7878418 19.15185547 C11.4205893 19.38661293 8.05407706 19.63075456 4.6875 19.875 C3.53958984 19.95363281 2.39167969 20.03226563 1.20898438 20.11328125 C-5.13710886 20.58069888 -11.29712291 21.28516886 -17.53173828 22.5715332 C-21.58762555 23.27559672 -25.92907896 23.7408917 -30 23 C-30.66 22.01 -31.32 21.02 -32 20 C-30.8718689 19.73521851 -30.8718689 19.73521851 -29.72094727 19.46508789 C-26.33391174 18.6679379 -22.94820171 17.86529525 -19.5625 17.0625 C-17.78649414 16.64581055 -17.78649414 16.64581055 -15.97460938 16.22070312 C-14.28754883 15.81948242 -14.28754883 15.81948242 -12.56640625 15.41015625 C-11.52427979 15.16402588 -10.48215332 14.91789551 -9.40844727 14.66430664 C-7.06721987 14.23176541 -7.06721987 14.23176541 -6 13 C-3.34536879 12.54540142 -0.67810862 12.29756762 2 12 C1.34 11.67 0.68 11.34 0 11 C0 10.01 0 9.02 0 8 C-0.66 8 -1.32 8 -2 8 C-1.47731534 5.23723823 -0.89130413 2.6739124 0 0 Z " fill="#264F84" transform="translate(103,129)"/>
<path d="M0 0 C0.99 0.33 1.98 0.66 3 1 C1.7766344 3.45287877 0.54469264 5.90115106 -0.69140625 8.34765625 C-1.31515062 9.5859141 -1.93884738 10.82419594 -2.5625 12.0625 C-2.87896484 12.68705078 -3.19542969 13.31160156 -3.52148438 13.95507812 C-4.85837373 16.6146648 -6.05711769 19.17135307 -7 22 C-6.33097656 21.82984375 -5.66195312 21.6596875 -4.97265625 21.484375 C-1.65089128 20.64613096 1.67417595 19.82199788 5 19 C6.05936768 18.73533936 6.05936768 18.73533936 7.14013672 18.46533203 C9.3833658 17.90710234 11.62887306 17.35894107 13.875 16.8125 C14.587771 16.63364258 15.30054199 16.45478516 16.03491211 16.27050781 C20.10834952 15.29047574 23.81271701 14.80966895 28 15 C28 15.33 28 15.66 28 16 C27.34402832 16.14622803 26.68805664 16.29245605 26.01220703 16.44311523 C23.04919382 17.10521028 20.08709377 17.77130419 17.125 18.4375 C16.09246094 18.66759766 15.05992188 18.89769531 13.99609375 19.13476562 C13.00996094 19.35712891 12.02382812 19.57949219 11.0078125 19.80859375 C10.09660645 20.01282959 9.18540039 20.21706543 8.24658203 20.42749023 C5.98446798 20.9192284 5.98446798 20.9192284 4 22 C6.31 22.66 8.62 23.32 11 24 C11 24.33 11 24.66 11 25 C10.410979 25.16604736 9.82195801 25.33209473 9.21508789 25.50317383 C6.49693883 26.27077337 3.77972006 27.04161865 1.0625 27.8125 C-0.32678711 28.20405273 -0.32678711 28.20405273 -1.74414062 28.60351562 C-7.55097585 30.25387932 -13.29219098 32.03388869 -19 34 C-17.25835645 25.34903549 -15.11698098 18.28782139 -10 11 C-8.62583742 8.68784248 -7.31436076 6.34707279 -6 4 C-5.01 4 -4.02 4 -3 4 C-1.29467677 2.05990478 -1.29467677 2.05990478 0 0 Z " fill="#2D5688" transform="translate(68,128)"/>
<path d="M0 0 C5.28 0 10.56 0 16 0 C16 0.99 16 1.98 16 3 C14.35 3 12.7 3 11 3 C11 11.58 11 20.16 11 29 C14.96 29 18.92 29 23 29 C23.66 27.35 24.32 25.7 25 24 C25.99 24 26.98 24 28 24 C27.67 26.97 27.34 29.94 27 33 C18.75 33 10.5 33 2 33 C2 32.34 2 31.68 2 31 C2.66 31 3.32 31 4 31 C4 21.76 4 12.52 4 3 C2.68 3 1.36 3 0 3 C0 2.01 0 1.02 0 0 Z " fill="#255085" transform="translate(202,110)"/>
<path d="M0 0 C2.64 0 5.28 0 8 0 C10.64 4.62 13.28 9.24 16 14 C19.52092852 9.46191435 22.63057922 5.2653795 25 0 C26.65 0 28.3 0 30 0 C29.39224549 3.32782654 28.22123437 5.30417075 26.125 7.9375 C21.76653736 13.44580831 19.64822825 17.12791539 19.3125 24.3125 C19.24675781 25.56675781 19.18101562 26.82101563 19.11328125 28.11328125 C19.07589844 29.06589844 19.03851563 30.01851562 19 31 C20.32 31 21.64 31 23 31 C23 31.66 23 32.32 23 33 C18.05 33 13.1 33 8 33 C8 32.34 8 31.68 8 31 C9.32 31 10.64 31 12 31 C11.88623383 28.87436897 11.75864369 26.7494739 11.625 24.625 C11.55539062 23.44164062 11.48578125 22.25828125 11.4140625 21.0390625 C11.29782654 17.89437681 11.29782654 17.89437681 9 16 C8.319375 14.329375 8.319375 14.329375 7.625 12.625 C6.0780854 9.1741905 4.70855387 7.52175705 2 5 C2 4.34 2 3.68 2 3 C1.01 3 0.02 3 -1 3 C-0.67 2.01 -0.34 1.02 0 0 Z " fill="#51709A" transform="translate(302,110)"/>
<path d="M0 0 C4.95 0 9.9 0 15 0 C15 0.99 15 1.98 15 3 C13.68 3 12.36 3 11 3 C11.33 11.91 11.66 20.82 12 30 C12.99 30.33 13.98 30.66 15 31 C15 31.66 15 32.32 15 33 C10.05 33 5.1 33 0 33 C0 32.34 0 31.68 0 31 C1.32 30.67 2.64 30.34 4 30 C4.33 21.09 4.66 12.18 5 3 C3.35 3 1.7 3 0 3 C0 2.01 0 1.02 0 0 Z " fill="#3E6492" transform="translate(185,110)"/>
<path d="M0 0 C1.89575251 -0.02721176 3.79161979 -0.04649136 5.6875 -0.0625 C6.74324219 -0.07410156 7.79898438 -0.08570312 8.88671875 -0.09765625 C12 0 12 0 17 1 C17 10.24 17 19.48 17 29 C18.65 29.33 20.3 29.66 22 30 C22 30.66 22 31.32 22 32 C16.72 32 11.44 32 6 32 C6 31.34 6 30.68 6 30 C7.65 30 9.3 30 11 30 C11 21.09 11 12.18 11 3 C8.69 3 6.38 3 4 3 C4 4.65 4 6.3 4 8 C2.68 7.67 1.36 7.34 0 7 C0 4.69 0 2.38 0 0 Z " fill="#2D568A" transform="translate(123,111)"/>
<path d="M0 0 C5.35924844 0.81227489 9.46570585 2.71570585 13.35546875 6.60546875 C15.25153073 9.92496728 15.12126225 12.63994697 15.125 16.4375 C15.15400391 18.40203125 15.15400391 18.40203125 15.18359375 20.40625 C14.62629583 24.37315803 13.79514256 25.52523092 10.6875 27.9375 C8.68566335 24.62706974 8.54302959 22.32629909 8.75 18.5 C8.82638843 14.08709937 8.70495258 11.38601724 5.6875 7.9375 C4.36786291 6.91949424 3.03740354 5.91501635 1.6875 4.9375 C1.6875 4.2775 1.6875 3.6175 1.6875 2.9375 C-1.6125 2.9375 -4.9125 2.9375 -8.3125 2.9375 C-3.76308287 -0.47456285 -3.76308287 -0.47456285 0 0 Z " fill="#3C6291" transform="translate(250.3125,109.0625)"/>
<path d="M0 0 C1.69141656 0.08963062 3.37959602 0.24577676 5.0625 0.4375 C6.44115234 0.59025391 6.44115234 0.59025391 7.84765625 0.74609375 C8.55792969 0.82988281 9.26820312 0.91367188 10 1 C10.495 2.98 10.495 2.98 11 5 C9.41676312 5.027193 7.83338938 5.04648306 6.25 5.0625 C4.92742187 5.07990234 4.92742187 5.07990234 3.578125 5.09765625 C1.2181162 5.00826198 -0.74498524 4.66912821 -3 4 C-2.67 4.99 -2.34 5.98 -2 7 C-9.23029733 9.12655804 -16.3978776 11.13022705 -24 10 C-24.66 9.01 -25.32 8.02 -26 7 C-25.2479126 6.823479 -24.4958252 6.64695801 -23.72094727 6.46508789 C-20.33391174 5.6679379 -16.94820171 4.86529525 -13.5625 4.0625 C-11.78649414 3.64581055 -11.78649414 3.64581055 -9.97460938 3.22070312 C-8.28754883 2.81948242 -8.28754883 2.81948242 -6.56640625 2.41015625 C-5.52427979 2.16402588 -4.48215332 1.91789551 -3.40844727 1.66430664 C-1.06721987 1.23176541 -1.06721987 1.23176541 0 0 Z " fill="#224D82" transform="translate(97,142)"/>
<path d="M0 0 C0 2.64 0 5.28 0 8 C-1.32 8.33 -2.64 8.66 -4 9 C-4.12375 8.195625 -4.2475 7.39125 -4.375 6.5625 C-4.58125 5.716875 -4.7875 4.87125 -5 4 C-8.00313748 2.49843126 -10.79067522 2.90718796 -14.125 2.9375 C-15.40632813 2.94652344 -16.68765625 2.95554687 -18.0078125 2.96484375 C-18.99523437 2.97644531 -19.98265625 2.98804687 -21 3 C-21 3.66 -21 4.32 -21 5 C-21.97850195 6.02104551 -22.97980427 7.0206121 -24 8 C-24.33 8.66 -24.66 9.32 -25 10 C-25.66 10 -26.32 10 -27 10 C-27.66 9.34 -28.32 8.68 -29 8 C-29.66 8.66 -30.32 9.32 -31 10 C-30.25711446 5.70983599 -28.39010493 3.99103952 -25.078125 1.33203125 C-17.75988495 -3.35879555 -7.97535482 -2.65845161 0 0 Z " fill="#496B97" transform="translate(300,111)"/>
<path d="M0 0 C0.79921875 0.00902344 1.5984375 0.01804687 2.421875 0.02734375 C3.02515625 0.03894531 3.6284375 0.05054687 4.25 0.0625 C4.58 0.7225 4.91 1.3825 5.25 2.0625 C2.28 2.0625 -0.69 2.0625 -3.75 2.0625 C-4.08 10.9725 -4.41 19.8825 -4.75 29.0625 C-6.07 29.3925 -7.39 29.7225 -8.75 30.0625 C-8.75 20.4925 -8.75 10.9225 -8.75 1.0625 C-5.48118027 0.24529507 -3.28000931 -0.04823543 0 0 Z " fill="#043473" transform="translate(166.75,110.9375)"/>
<path d="M0 0 C0.66 0 1.32 0 2 0 C2 8.58 2 17.16 2 26 C5.96 26 9.92 26 14 26 C14.66 24.35 15.32 22.7 16 21 C16.99 21 17.98 21 19 21 C18.67 23.97 18.34 26.94 18 30 C13.71 30 9.42 30 5 30 C5 29.67 5 29.34 5 29 C3.35 28.67 1.7 28.34 0 28 C0 18.76 0 9.52 0 0 Z " fill="#5679A1" transform="translate(211,113)"/>
<path d="M0 0 C1.86562642 1.57297914 2.90238443 2.45510217 3.34057617 4.90112305 C3.32486572 5.59761963 3.30915527 6.29411621 3.29296875 7.01171875 C3.28330078 7.76904297 3.27363281 8.52636719 3.26367188 9.30664062 C3.23853516 10.09232422 3.21339844 10.87800781 3.1875 11.6875 C3.17396484 12.48478516 3.16042969 13.28207031 3.14648438 14.10351562 C3.11117089 16.06929967 3.05736447 18.03473582 3 20 C1.078125 19.66015625 1.078125 19.66015625 -1 19 C-2.25 16.4375 -2.25 16.4375 -3 14 C-3.33 14 -3.66 14 -4 14 C-4.63019694 4.82713348 -4.63019694 4.82713348 -2 1.375 C-1.34 0.92125 -0.68 0.4675 0 0 Z " fill="#295388" transform="translate(271,118)"/>
<path d="M0 0 C5.05346535 -0.87128713 5.05346535 -0.87128713 8 0 C11.3596412 3.68998248 13.87809254 7.79042725 14.15625 12.83203125 C14.1046875 13.54746094 14.053125 14.26289062 14 15 C9.2860572 13.78784328 7.61373123 11.47623687 5.11328125 7.55859375 C4.06891055 5.83950206 4.06891055 5.83950206 2 5 C2 4.34 2 3.68 2 3 C1.01 3 0.02 3 -1 3 C-0.67 2.01 -0.34 1.02 0 0 Z " fill="#2C5386" transform="translate(302,110)"/>
<path d="M0 0 C1.65 0 3.3 0 5 0 C4.67 9.57 4.34 19.14 4 29 C4.66 29.33 5.32 29.66 6 30 C4.02 30 2.04 30 0 30 C0 20.1 0 10.2 0 0 Z " fill="#003372" transform="translate(190,112)"/>
<path d="M0 0 C0.99 0 1.98 0 3 0 C3 0.66 3 1.32 3 2 C3.66 2 4.32 2 5 2 C5 5.3 5 8.6 5 12 C6.32 12 7.64 12 9 12 C9 12.66 9 13.32 9 14 C4.05 14 -0.9 14 -6 14 C-6 13.34 -6 12.68 -6 12 C-4.35 12 -2.7 12 -1 12 C-0.67 8.04 -0.34 4.08 0 0 Z " fill="#17467D" transform="translate(316,129)"/>
<path d="M0 0 C0.7425 0.185625 1.485 0.37125 2.25 0.5625 C5.22840916 1.22052711 5.22840916 1.22052711 9 0 C9 3.3 9 6.6 9 10 C8.2575 9.814375 7.515 9.62875 6.75 9.4375 C3.77159084 8.77947289 3.77159084 8.77947289 0 10 C0 6.7 0 3.4 0 0 Z " fill="#000000" transform="translate(168,160)"/>
<path d="M0 0 C2.74527005 4.11790508 2.06638869 7.26326032 1.875 12.08984375 C2.00032817 15.00764021 2.48557463 16.5449745 4 19 C3.34 19 2.68 19 2 19 C2 19.66 2 20.32 2 21 C-4.30324871 24.80573507 -9.61908344 26.06861755 -17 25 C-17.66 24.34 -18.32 23.68 -19 23 C-16.69 23 -14.38 23 -12 23 C-12 22.67 -12 22.34 -12 22 C-9.02148438 21.36523438 -9.02148438 21.36523438 -6.04296875 20.73046875 C-3.57264123 19.84719677 -2.52934364 19.14014857 -1 17 C-0.41839412 14.20792086 -0.41839412 14.20792086 -0.3125 11.125 C-0.24675781 10.09632813 -0.18101562 9.06765625 -0.11328125 8.0078125 C-0.01259254 5.33435368 0.02467645 2.67492669 0 0 Z " fill="#57759E" transform="translate(258,119)"/>
<path d="M0 0 C0.99 0.33 1.98 0.66 3 1 C0.33333333 6.33333333 -2.33333333 11.66666667 -5 17 C-5.33 17 -5.66 17 -6 17 C-6 15.35 -6 13.7 -6 12 C-7.65 12.66 -9.3 13.32 -11 14 C-9.72768281 9.02639643 -7.91415386 6.32703078 -4 3 C-3.34 3 -2.68 3 -2 3 C-1.34 2.01 -0.68 1.02 0 0 Z " fill="#3F6493" transform="translate(68,128)"/>
<path d="M0 0 C0.7425 0.185625 1.485 0.37125 2.25 0.5625 C5.22840916 1.22052711 5.22840916 1.22052711 9 0 C9 3.3 9 6.6 9 10 C7.68 10 6.36 10 5 10 C4.67 9.34 4.34 8.68 4 8 C3.67 8.66 3.34 9.32 3 10 C2.01 10 1.02 10 0 10 C0 6.7 0 3.4 0 0 Z " fill="#000000" transform="translate(295,160)"/>
<path d="M0 0 C1.32 0.33 2.64 0.66 4 1 C4.33 1.66 4.66 2.32 5 3 C5.33 2.01 5.66 1.02 6 0 C6.99 0 7.98 0 9 0 C9 3.3 9 6.6 9 10 C8.2575 9.814375 7.515 9.62875 6.75 9.4375 C3.77159084 8.77947289 3.77159084 8.77947289 0 10 C0 6.7 0 3.4 0 0 Z " fill="#000000" transform="translate(148,160)"/>
<path d="M0 0 C2.8125 -0.25 2.8125 -0.25 6 0 C7.9375 1.6875 7.9375 1.6875 9 4 C8.58974359 8.41025641 8.58974359 8.41025641 7 10 C3.5625 10.25 3.5625 10.25 0 10 C-2 7 -2 7 -1.6875 4.4375 C-1 2 -1 2 0 0 Z M3 2 C1.89163577 3.88316159 1.89163577 3.88316159 1 6 C1.33 6.66 1.66 7.32 2 8 C2.99 8 3.98 8 5 8 C5 6.35 5 4.7 5 3 C4.34 2.67 3.68 2.34 3 2 Z " fill="#000000" transform="translate(276,160)"/>
<path d="M0 0 C3 -0.3125 3 -0.3125 6 0 C8 2 8 2 8.1875 5.5625 C8 9 8 9 7 10 C4.32941149 10.14115161 1.67567762 10.04247107 -1 10 C-2.25 3.375 -2.25 3.375 0 0 Z M1 3 C1 4.65 1 6.3 1 8 C2.32 7.67 3.64 7.34 5 7 C5 5.68 5 4.36 5 3 C3.68 3 2.36 3 1 3 Z " fill="#000000" transform="translate(189,160)"/>
<path d="M0 0 C0 1.32 0 2.64 0 4 C-1.134375 3.979375 -2.26875 3.95875 -3.4375 3.9375 C-6.81575674 3.58422523 -6.81575674 3.58422523 -8 5 C-11.77518883 6.83366314 -14.80760469 7.4658217 -19 7 C-19.66 6.01 -20.32 5.02 -21 4 C-18.62734939 3.32382476 -16.25244645 2.65891774 -13.875 2 C-13.20984375 1.80921875 -12.5446875 1.6184375 -11.859375 1.421875 C-7.8013795 0.30791545 -4.20314026 -0.20950232 0 0 Z " fill="#013271" transform="translate(92,145)"/>
<path d="M0 0 C0 0.33 0 0.66 0 1 C-0.67546875 1.02578125 -1.3509375 1.0515625 -2.046875 1.078125 C-7.55324389 1.40554827 -7.55324389 1.40554827 -12.5625 3.5 C-14.67424898 7.17260692 -14.82140189 10.82080418 -15 15 C-15.66 15 -16.32 15 -17 15 C-17 12.03 -17 9.06 -17 6 C-17.99 6.33 -18.98 6.66 -20 7 C-19.0859641 3.3438564 -18.00238951 2.00198278 -15.0625 -0.4375 C-10.11455833 -3.06871474 -5.14978489 -1.37824261 0 0 Z " fill="#4B6B95" transform="translate(252,112)"/>
<path d="M0 0 C1.98 0 3.96 0 6 0 C6 0.99 6 1.98 6 3 C4.68 2.67 3.36 2.34 2 2 C2 2.66 2 3.32 2 4 C3.65 4.33 5.3 4.66 7 5 C7 6.65 7 8.3 7 10 C4.36 10 1.72 10 -1 10 C-0.67 9.01 -0.34 8.02 0 7 C0.66 7 1.32 7 2 7 C1.484375 6.5875 0.96875 6.175 0.4375 5.75 C-0.036875 5.1725 -0.51125 4.595 -1 4 C-0.6875 1.8125 -0.6875 1.8125 0 0 Z " fill="#000000" transform="translate(316,160)"/>
<path d="M0 0 C1.98 0.99 1.98 0.99 4 2 C4 2.99 4 3.98 4 5 C4.66 5 5.32 5 6 5 C6.33 3.68 6.66 2.36 7 1 C7.99 1 8.98 1 10 1 C9.01 4.3 8.02 7.6 7 11 C5.68 11 4.36 11 3 11 C2.49384702 9.73160474 1.99530901 8.46016898 1.5 7.1875 C1.2215625 6.47980469 0.943125 5.77210938 0.65625 5.04296875 C0 3 0 3 0 0 Z " fill="#000000" transform="translate(206,159)"/>
<path d="M0 0 C1.32 0 2.64 0 4 0 C4.99 3.3 5.98 6.6 7 10 C3 9 3 9 0 8 C0 8.66 0 9.32 0 10 C-0.99 9.67 -1.98 9.34 -3 9 C-2.01 6.03 -1.02 3.06 0 0 Z " fill="#000000" transform="translate(227,160)"/>
<path d="M0 0 C0 1.33333333 0 2.66666667 0 4 C1.32 4.33 2.64 4.66 4 5 C3.01 5.495 3.01 5.495 2 6 C2 6.66 2 7.32 2 8 C1.34 8 0.68 8 0 8 C-0.33 8.99 -0.66 9.98 -1 11 C-3.31 10.67 -5.62 10.34 -8 10 C-7.67 9.01 -7.34 8.02 -7 7 C-6.34 7 -5.68 7 -5 7 C-4.731875 6.401875 -4.46375 5.80375 -4.1875 5.1875 C-3.01506533 3.02775192 -1.80630718 1.64209744 0 0 Z " fill="#426592" transform="translate(78,113)"/>
<path d="M0 0 C0.52980469 0.14179688 1.05960937 0.28359375 1.60546875 0.4296875 C4.87089823 1.20742438 7.95865546 1.1317414 11.3125 1.125 C12.58738281 1.12757813 13.86226562 1.13015625 15.17578125 1.1328125 C18.88802714 1.00388874 22.3415881 0.59632587 26 0 C26 0.99 26 1.98 26 3 C21.8761323 3.25401601 17.75114808 3.47400105 13.625 3.6875 C12.449375 3.76033203 11.27375 3.83316406 10.0625 3.90820312 C8.38027344 3.99038086 8.38027344 3.99038086 6.6640625 4.07421875 C5.62717285 4.13182373 4.5902832 4.18942871 3.52197266 4.2487793 C2.68972168 4.16668213 1.8574707 4.08458496 1 4 C0.34 3.01 -0.32 2.02 -1 1 C-0.67 0.67 -0.34 0.34 0 0 Z " fill="#2A5486" transform="translate(94,145)"/>
<path d="M0 0 C3.5742977 0.32493615 5.55712453 0.63870686 8.375 2.9375 C10 5 10 5 10 7 C7.36 7 4.72 7 2 7 C1.34 4.69 0.68 2.38 0 0 Z " fill="#224B80" transform="translate(173,136)"/>
<path d="M0 0 C0 0.66 0 1.32 0 2 C0.66 2.33 1.32 2.66 2 3 C0.75579353 3.5345256 -0.49570936 4.05208611 -1.75 4.5625 C-2.44609375 4.85253906 -3.1421875 5.14257812 -3.859375 5.44140625 C-6.33510583 6.0874455 -7.6360734 5.94043167 -10 5 C-10.33 4.34 -10.66 3.68 -11 3 C-7.14243493 0.84694043 -4.44870215 -0.39253254 0 0 Z " fill="#033372" transform="translate(70,150)"/>
<path d="M0 0 C2.97 0 5.94 0 9 0 C9 0.66 9 1.32 9 2 C8.01 2 7.02 2 6 2 C6 4.64 6 7.28 6 10 C5.01 10 4.02 10 3 10 C3 7.36 3 4.72 3 2 C2.01 2 1.02 2 0 2 C0 1.34 0 0.68 0 0 Z " fill="#000000" transform="translate(242,160)"/>
<path d="M0 0 C0.33 0 0.66 0 1 0 C1.55353075 11.70615034 1.55353075 11.70615034 -2 16 C-4.83022097 12.00439392 -3.76210446 8.57262677 -3 4 C-2.34 4.33 -1.68 4.66 -1 5 C-0.67 3.35 -0.34 1.7 0 0 Z " fill="#053472" transform="translate(263,121)"/>
<path d="M0 0 C4.95 0 9.9 0 15 0 C15 0.99 15 1.98 15 3 C10.05 3 5.1 3 0 3 C0 2.01 0 1.02 0 0 Z " fill="#55759E" transform="translate(185,110)"/>
<path d="M0 0 C0.99 0 1.98 0 3 0 C2.67 2.97 2.34 5.94 2 9 C-2.29 9 -6.58 9 -11 9 C-11 8.67 -11 8.34 -11 8 C-6.545 7.505 -6.545 7.505 -2 7 C-1.34 4.69 -0.68 2.38 0 0 Z " fill="#416390" transform="translate(227,134)"/>
<path d="M0 0 C2.31 0.33 4.62 0.66 7 1 C7 2.65 7 4.3 7 6 C3.26512223 5.5020163 1.18762365 5.12508244 -2 3 C-3.9896995 2.60986284 -5.99019869 2.26797351 -8 2 C-8 1.67 -8 1.34 -8 1 C-5.36 1 -2.72 1 0 1 C0 0.67 0 0.34 0 0 Z " fill="#274E82" transform="translate(171,111)"/>
<path d="M0 0 C3.06006595 2.04004397 3.77157178 2.69269325 5 6 C5.125 8.75 5.125 8.75 5 11 C0.32307692 9.52307692 0.32307692 9.52307692 -1.3125 6.875 C-1.539375 6.25625 -1.76625 5.6375 -2 5 C-1.01 4.34 -0.02 3.68 1 3 C0.67 2.01 0.34 1.02 0 0 Z " fill="#395F8F" transform="translate(311,114)"/>
<path d="M0 0 C0.99 0.66 1.98 1.32 3 2 C3 2.66 3 3.32 3 4 C3.66 4 4.32 4 5 4 C4.67 4.66 4.34 5.32 4 6 C3.01 6 2.02 6 1 6 C0.67 6.99 0.34 7.98 0 9 C-1.65 6.69 -3.3 4.38 -5 2 C-3.68 1.67 -2.36 1.34 -1 1 C-0.67 0.67 -0.34 0.34 0 0 Z " fill="#3F6290" transform="translate(173,131)"/>
<path d="M0 0 C0.66 0.33 1.32 0.66 2 1 C1.34 1.66 0.68 2.32 0 3 C0 3.99 0 4.98 0 6 C-0.99 7.485 -0.99 7.485 -2 9 C-5.625 9.1875 -5.625 9.1875 -9 9 C-6.91819844 4.94596538 -5.02003345 3.11580708 -1 1 C-0.67 0.67 -0.34 0.34 0 0 Z " fill="#0A3775" transform="translate(85,109)"/>
<path d="M0 0 C0.78890625 0.12761719 1.5778125 0.25523438 2.390625 0.38671875 C3.18984375 0.50660156 3.9890625 0.62648438 4.8125 0.75 C5.41578125 0.85699219 6.0190625 0.96398437 6.640625 1.07421875 C6.640625 1.73421875 6.640625 2.39421875 6.640625 3.07421875 C7.630625 3.40421875 8.620625 3.73421875 9.640625 4.07421875 C8.980625 4.73421875 8.320625 5.39421875 7.640625 6.07421875 C7.640625 5.41421875 7.640625 4.75421875 7.640625 4.07421875 C0.710625 3.57921875 0.710625 3.57921875 -6.359375 3.07421875 C-2.359375 0.07421875 -2.359375 0.07421875 0 0 Z " fill="#254C81" transform="translate(248.359375,108.92578125)"/>
<path d="M0 0 C2.38672669 2.96283313 4.7353371 5.94270509 7 9 C5.68 8.67 4.36 8.34 3 8 C3 8.99 3 9.98 3 11 C1.68 10.34 0.36 9.68 -1 9 C-1 5.88772805 -0.54372951 3.05847848 0 0 Z " fill="#486B96" transform="translate(274,131)"/>
<path d="M0 0 C0.99 0.33 1.98 0.66 3 1 C3 2.98 3 4.96 3 7 C1.35 7 -0.3 7 -2 7 C-2.33 5.35 -2.66 3.7 -3 2 C-2.01 1.34 -1.02 0.68 0 0 Z " fill="#7391B1" transform="translate(336,108)"/>
<path d="M0 0 C0 0.66 0 1.32 0 2 C-4.95 2 -9.9 2 -15 2 C-15 1.34 -15 0.68 -15 0 C-9.76528314 -0.75612577 -5.22745859 -1.2063366 0 0 Z " fill="#284E82" transform="translate(167,141)"/>
<path d="M0 0 C0.99 0 1.98 0 3 0 C3 3.3 3 6.6 3 10 C2.01 10 1.02 10 0 10 C0 6.7 0 3.4 0 0 Z " fill="#000000" transform="translate(261,160)"/>
<path d="M0 0 C0.99 0 1.98 0 3 0 C3 3.3 3 6.6 3 10 C2.01 10 1.02 10 0 10 C0 6.7 0 3.4 0 0 Z " fill="#000000" transform="translate(134,160)"/>
<path d="M0 0 C0.33 0 0.66 0 1 0 C1 5.28 1 10.56 1 16 C0.34 14.68 -0.32 13.36 -1 12 C-1.33 11.67 -1.66 11.34 -2 11 C-2.28743526 6.78428287 -1.79760213 3.81990452 0 0 Z " fill="#53749D" transform="translate(231,119)"/>
<path d="M0 0 C0.33 0 0.66 0 1 0 C1 2.31 1 4.62 1 7 C0.4225 6.7525 -0.155 6.505 -0.75 6.25 C-1.4925 6.1675 -2.235 6.085 -3 6 C-5.27144074 7.85432087 -5.27144074 7.85432087 -7 10 C-6.34 7.36 -5.68 4.72 -5 2 C-4.01 2.33 -3.02 2.66 -2 3 C-1.67 2.34 -1.34 1.68 -1 1 C-0.67 0.67 -0.34 0.34 0 0 Z " fill="#446997" transform="translate(178,114)"/>
<path d="M0 0 C1.2065625 0.0309375 1.2065625 0.0309375 2.4375 0.0625 C1.89523019 3.85838866 0.23622437 5.53461993 -2.5625 8.0625 C-2.94313221 5.7364143 -3.27519945 3.40194736 -3.5625 1.0625 C-2.5625 0.0625 -2.5625 0.0625 0 0 Z " fill="#486995" transform="translate(329.5625,109.9375)"/>
<path d="M0 0 C1.98 0.66 3.96 1.32 6 2 C5.67 3.32 5.34 4.64 5 6 C3.02 5.34 1.04 4.68 -1 4 C-0.67 2.68 -0.34 1.36 0 0 Z " fill="#204B81" transform="translate(167,127)"/>
<path d="M0 0 C4.96916636 0.51405169 9.29026351 1.23384882 14 3 C14 3.33 14 3.66 14 4 C5.21276596 4.29787234 5.21276596 4.29787234 1 2 C0.67 1.34 0.34 0.68 0 0 Z " fill="#123875" transform="translate(237,139)"/>
<path d="M0 0 C0.33 0.66 0.66 1.32 1 2 C1.99 2.33 2.98 2.66 4 3 C4 3.99 4 4.98 4 6 C1.36 6.66 -1.28 7.32 -4 8 C-3.2884375 7.13375 -3.2884375 7.13375 -2.5625 6.25 C-1.0515133 4.07417916 -0.45963849 2.57397552 0 0 Z " fill="#1F467D" transform="translate(174,118)"/>
<path d="M0 0 C2 3 2 3 2 5 C1.34 5 0.68 5 0 5 C-0.33 6.65 -0.66 8.3 -1 10 C0.32 10.33 1.64 10.66 3 11 C1.02 11.66 -0.96 12.32 -3 13 C-2.68817931 11.58318366 -2.37551263 10.16655349 -2.0625 8.75 C-1.88847656 7.96109375 -1.71445312 7.1721875 -1.53515625 6.359375 C-1.052444 4.23121297 -0.53836822 2.11467158 0 0 Z " fill="#6481A5" transform="translate(52,149)"/>
<path d="M0 0 C0.66 0.66 1.32 1.32 2 2 C2.99 1.34 3.98 0.68 5 0 C4.375 1.875 4.375 1.875 3 4 C-0.125 5.25 -0.125 5.25 -3 6 C-3.66 5.34 -4.32 4.68 -5 4 C-4.67 3.01 -4.34 2.02 -4 1 C-2.68 1.66 -1.36 2.32 0 3 C0 2.01 0 1.02 0 0 Z " fill="#6F8CAC" transform="translate(316,122)"/>
<path d="M0 0 C0 0.99 0 1.98 0 3 C-4.95 3 -9.9 3 -15 3 C-15 2.67 -15 2.34 -15 2 C-12.87528825 1.6648342 -10.75022095 1.33192171 -8.625 1 C-7.44164063 0.814375 -6.25828125 0.62875 -5.0390625 0.4375 C-2 0 -2 0 0 0 Z " fill="#6B8AAB" transform="translate(120,145)"/>
<path d="M0 0 C1.32 0.33 2.64 0.66 4 1 C4 1.99 4 2.98 4 4 C0.7 4 -2.6 4 -6 4 C-6 3.67 -6 3.34 -6 3 C-4.35 3 -2.7 3 -1 3 C-0.67 2.01 -0.34 1.02 0 0 Z " fill="#003070" transform="translate(104,143)"/>
<path d="M0 0 C0 0.66 0 1.32 0 2 C-0.66 2 -1.32 2 -2 2 C-2 3.65 -2 5.3 -2 7 C-2.99 6.34 -3.98 5.68 -5 5 C-5.66 5.66 -6.32 6.32 -7 7 C-6.22006468 2.47637516 -4.81844319 0 0 0 Z " fill="#426390" transform="translate(276,114)"/>
<path d="M0 0 C0.99 0.66 1.98 1.32 3 2 C3 2.66 3 3.32 3 4 C2.34 4 1.68 4 1 4 C1 4.66 1 5.32 1 6 C-0.32 5.67 -1.64 5.34 -3 5 C-2.01 3.35 -1.02 1.7 0 0 Z " fill="#2C5085" transform="translate(259,134)"/>
<path d="M0 0 C0 0.99 0 1.98 0 3 C-3.3 2.67 -6.6 2.34 -10 2 C-10 1.67 -10 1.34 -10 1 C-2.25 0 -2.25 0 0 0 Z " fill="#305586" transform="translate(218,110)"/>
</svg>
